<?xml version="1.0" encoding="UTF-8"?>
<svg id="Layer_1" data-name="Layer 1" xmlns="http://www.w3.org/2000/svg" viewBox="0 0 512 512">
  <defs>
    <style>
      .cls-1 {
        fill: #a7a7a7;
      }
    </style>
  </defs>
  <path class="cls-1" d="m94.22,132.08c.64-1.85,1.22-3.29,1.63-4.77,2.13-7.73,6.18-14.22,12.39-19.32,3.78-3.1,8.11-5.16,12.71-6.77,8.26-2.9,16.84-3.08,25.26-1.94,13.41,1.81,24.22,8.07,30.32,20.85.72,1.51,1.53,2.98,2.32,4.46.07.14.36.16.95.4.16-1.16.41-2.23.43-3.31.06-2.73.13-5.47.01-8.2-.37-8.91,6.58-13.45,12.83-13.21,3.47.14,6.95-.06,10.41.19,2.17.15,4.37.63,6.43,1.34,1.7.58,3.15.74,4.84,0,7.36-3.23,15.19-3.75,22.91-2.45,9.93,1.67,17.91,6.9,23.62,15.39,4.97,7.4,7.21,15.66,7.26,24.43.15,24.19.24,48.39.01,72.58-.1,10.56-3.2,20.28-10.53,28.3-6.73,7.36-15.06,11.22-25.02,11.55-2.41.08-4.84-.06-7.25-.13-2.78-.08-3.35.47-3.32,3.19.07,5.89.16,11.78.17,17.67,0,4.81-1.53,8.99-5.89,11.47-1.77,1.01-3.91,1.8-5.91,1.87-6.3.22-12.62.1-18.92.01-3.81-.05-6.83-1.79-9.21-4.74-1.29-1.59-2.26-3.3-2.3-5.4-.11-5.67-.31-11.35-.28-17.02.04-9.99.23-19.98.32-29.97.01-1.1-.19-2.19-.29-3.29-.24-.07-.47-.14-.71-.2-.44.6-.92,1.18-1.31,1.81-2.3,3.75-4.3,7.72-6.93,11.23-4.65,6.23-11.35,9.48-18.64,11.65-1.44.43-2.47-.09-3.02-1.49-.46-1.17-.93-2.35-1.34-3.54-3.54-10.26-9.84-18.21-19.46-23.41-5.36-2.89-11.13-4.49-17.17-4.75-6.39-.28-12.8-.54-19.04,1.64-4.89,1.71-9.61,3.68-13.69,6.9-2.05,1.62-3.93,3.47-5.81,5.3-.43.42-.54,1.16-.8,1.75.19.17.37.34.56.51,1.07-.72,2.11-1.48,3.21-2.15,5.3-3.24,10.81-5.67,17.07-6.77,5.89-1.04,11.71-1.62,17.54-.61,17.52,3.06,29.15,13.1,34.56,30.11,2.03,6.37,2.3,12.98,2.28,19.61-.02,5.57.09,11.15.06,16.72-.04,7.63-1.05,15.09-4.22,22.13-.71,1.57-.74,2.95.21,4.46,4.24,6.71,5.68,14.25,5.74,21.99.09,12.61.53,25.3-.54,37.83-1.22,14.29-8.87,25.08-21.63,32.02-7.11,3.87-14.73,5.22-22.76,5.37-7.3.14-14.19-1.43-20.85-4.09-2.48-.99-4.72-2.73-6.88-4.37-5.71-4.33-9.93-9.88-12.83-16.44-.7-1.58-1.62-3.07-2.49-4.71-1.56.75-1.55,1.81-1.56,2.84,0,3.57.07,7.15,0,10.72-.08,4.33-.96,8.29-4.78,11.11-1.74,1.28-3.62,1.76-5.59,1.77-6.94.06-13.88.01-20.82-.09-6.48-.09-10.32-5.31-10.81-11.02-.17-1.98-.08-3.99-.08-5.99,0-33.24,0-66.48.01-99.72,0-4,.02-7.99-.03-11.99-.03-2.79-.52-3.2-3.26-3.53-2.39-.29-4.91-.35-7.1-1.21-4.3-1.67-6.62-5.26-6.89-9.75-.34-5.55-.39-11.15-.17-16.71.19-4.61,2.54-8.15,6.79-10.23.73-.36,1.56-.63,2.37-.7,1.88-.16,3.78-.25,5.67-.22,1.56.03,2.34-.69,2.61-2.13.08-.41.11-.83.19-1.25.64-3.35.41-3.58-3.07-3.06-2.29.34-3.45-.29-4.55-2.92-2.27-5.47-3.84-11.13-3.92-17.1-.05-3.68-.1-7.37.13-11.04.85-13.47,6.37-24.91,15.61-34.57,7.3-7.62,15.68-13.92,24.69-19.39,1.71-1.04,3.36-2.16,5.05-3.22,1.22-.77,1.65-1.89,1.36-3.24-.34-1.56-1.5-2.2-3.01-2.29-2.8-.18-4.79,1.21-6.42,3.33-1.67,2.17-3.45,4.17-6.11,5.29-4.19,1.76-9.07,1.15-12.23-2.2-2.88-3.05-5.44-6.4-8.09-9.65-1.33-1.63-2.68-3.25-3.79-5.03-2.73-4.37-2.51-8.83.3-13.05,4.56-6.85,11.01-11.36,18.42-14.74,8.62-3.94,17.7-4.63,26.87-3.66,9.73,1.03,18.06,5.16,24.48,12.82,4.34,5.18,7.07,11.14,9.14,17.47.19.6.41,1.19.65,1.76.07.17.28.28.92.88Zm-33.74,223.15c1.41-.98,2.14-1.38,2.74-1.92,3.66-3.32,7.75-4.21,12.54-2.79,5.33,1.58,10.78,2.76,16.13,4.27,4.63,1.31,7.6,4.35,8.44,9.19.3,1.75.34,3.55.53,5.32.18,1.64,1.14,2.33,2.78,2.36,2.45.05,3.52-.89,3.55-3.71.06-6.2-.03-12.41-.03-18.62,0-3.57.11-7.15.02-10.72-.06-2.67-1.33-3.82-3.93-3.87-.63-.01-1.25.17-1.88.17-3.15.02-6.32.2-9.46-.01-6.93-.47-10.62-4.77-11-10.44-.41-6.17-.33-12.41.01-18.59.31-5.54,5.22-9.84,10.75-10,3.15-.09,6.31-.09,9.46-.09,3.59,0,4.19-.56,4.25-4.21.1-6.52.22-13.03.23-19.55,0-2.19-.23-4.41-.59-6.57-.1-.61-1-1.41-1.63-1.52-1-.18-2.18.08-2.54,1.33-.26.9-.4,1.84-.46,2.78-.1,1.47.01,2.95-.14,4.41-.65,6.25-4.61,10.27-11.26,10.3-5.58.02-11.15-.12-16.72.01-3.48.08-6.31-1.11-8.86-3.36-.81-.71-1.86-1.16-3.25-2-.22,1.44-.47,2.32-.47,3.2.03,5.68.18,11.35.18,17.03.02,17.67,0,35.34.03,53.01,0,1.3.33,2.6.6,4.58Zm119.28-202.79c-.89.6-1.19.74-1.4.95-2.68,2.77-5.89,4.34-9.77,4.43-3.99.1-7.98.16-11.96.28-1.07.03-2.14.21-3.81.38.88,1.3,1.29,2.14,1.91,2.78,1.84,1.88,3.71,3.72,5.65,5.49,7.53,6.87,13.86,14.61,17.73,24.17.23.56.82.98,1.73,2.01.21-1.95.46-3.16.46-4.38.05-10.82.07-21.65.06-32.47,0-1.07-.34-2.14-.59-3.64Zm-84.65,36.45c1.05-.58,1.87-.95,2.6-1.44,3.2-2.16,6.63-3.01,10.43-2.04,3.04.78,6.07,1.7,9.15,2.24,1.63.29,3.3,1.45,5.54.26-.66-.94-1.11-1.83-1.78-2.49-2.09-2.06-4.22-4.08-6.4-6.05-7.8-7.07-14.22-15.11-17.85-25.13-.26-.71-.77-1.32-1.28-2.18-1.35,2.77-1.66,32.01-.41,36.83Zm-34.43,63.53c3.12-3.97,3.77-8.12,4.68-12.17.04-.19,0-.45-.12-.61-1.71-2.34-1.15-5.01-1.22-7.61-.12-4.66-1.57-8.76-5.99-11.03-2.62-1.35-5.46-2.05-8.5-1.93-4.41.17-8.83.08-13.23.27-2.51.11-5.06.31-7.48.93-2.99.77-5.25,2.69-6.84,5.94,1.08.07,1.78.26,2.42.13,8.67-1.71,17.37-1.01,26.06-.37,4.01.3,9.03,5.19,8.86,9.32-.1,2.52.06,5.04-.02,7.56-.1,3.05.12,6.03,1.39,9.57Zm165.9-77.39s.1,0,.14,0c0-10.3,0-20.61,0-30.91,0-.52-.02-1.05-.05-1.57-.06-1.14-.44-2.19-1.71-2.28-1.32-.1-2.21.7-2.43,2-.2,1.13-.31,2.29-.3,3.43.06,16.08.15,32.17.21,48.25.01,3.78-.07,7.56-.04,11.35,0,1.04.01,2.19.45,3.08.35.71,1.31,1.36,2.09,1.49.38.07,1.25-1.04,1.41-1.73.28-1.21.23-2.5.23-3.76.01-9.78,0-19.56,0-29.33Zm-174,17.74c-1.91,1.01-3.07,2.16-3.49,3.86-.49,1.93-1.01,3.9-1.09,5.87-.09,2.18.13,4.41.57,6.55.35,1.74,2.01,2.37,3.38,1.42.6-.41,1.15-1.33,1.18-2.04.2-4.51.27-9.03.31-13.54,0-.56-.44-1.13-.86-2.12Zm80.55,6.76c0,1.32-.08,2.46.02,3.58.16,1.88.24,3.79.7,5.6.48,1.89,2.39,2.61,4.62,2.15,1.88-.39,1.8-1.88,1.73-3.21-.2-3.67-2.28-6.21-5.26-8.09-.35-.22-.97-.03-1.81-.03Zm6.85-54.36c0-1.51.14-2.73-.04-3.9-.18-1.19-1.43-1.73-2.68-1.37-1.37.39-1.4,1.42-1.01,2.48.51,1.41,1.37,2.52,3.74,2.79Z"/>
  <path class="cls-1" d="m204.32,367.46c2.25.09,4.11.18,5.97.24.95.03,1.89,0,2.84.05,2.28.13,3.21.96,3.51,3.21.11.83.05,1.68.02,2.52-.32,7.99-.58,15.98-1.01,23.96-.14,2.5-.59,5.01-1.19,7.45-.6,2.42-2.31,4.05-4.78,4.5-1.64.29-3.36.31-5.02.14-.84-.08-1.79-.67-2.37-1.32-.47-.53-.81-1.61-.59-2.21.22-.6,1.18-1,1.9-1.31.45-.19,1.04-.06,1.56-.08,3.26-.11,3.96-.65,4.62-3.91.37-1.85.7-3.73.79-5.61.31-6.51.55-13.03.72-19.54.06-2.34-.33-2.61-2.77-2.8-.42-.03-.84-.06-1.26-.07-2.86-.04-3.26.34-3.46,3.17-.44,6.08-1.22,12.1-3.02,17.97-1.58,5.12-4.09,9.66-7.83,13.49-2.03,2.08-3.35,2.18-5.28,0-1.38-1.57-2.87-1.87-4.76-1.63-5.21.65-10.42,1.24-15.64,1.81-1.04.11-2.21.33-3.11-.03-.84-.33-1.71-1.26-2-2.11-.39-1.14.58-2.03,1.62-2.35,1.08-.34,2.26-.37,3.41-.48,1.88-.18,3.77-.27,5.65-.46,1.49-.15,1.82-1.28,1.79-2.51-.03-1.36-.71-2.14-2.17-2.11-1.58.04-3.16.05-4.73.06-.73,0-1.49.06-2.2-.08-1.13-.22-2.02-.95-1.99-2.12.04-1.32.97-2.07,2.3-2.1,1.79-.04,3.58.01,5.36.02.63,0,1.39.2,1.86-.09.61-.38,1.19-1.08,1.38-1.76.07-.26-.91-1.14-1.47-1.2-1.56-.17-3.15-.03-4.73-.06-3.24-.07-4.56-1.3-4.67-4.59-.1-3.15-.12-6.31,0-9.46.13-3.44,1.18-4.35,4.7-4.43,1.26-.03,2.53-.05,3.79-.02,1.31.03,2.42-.33,2.48-1.78.07-1.53-1.11-1.83-2.38-1.83-2.21,0-4.42.01-6.63-.01-.73,0-1.56.1-2.16-.21-.55-.28-1.14-1.04-1.16-1.61-.02-.56.51-1.41,1.03-1.68.7-.36,1.62-.34,2.45-.37,2.21-.06,4.42,0,6.63-.08,1.48-.06,2.42-.94,2.21-2.01-.25-1.27-1.12-1.59-2.36-1.46-1.77.19-3.56.3-5.35.32-.81,0-1.77-.08-2.39-.51-.57-.4-1.04-1.32-1.04-2.01,0-.51.75-1.16,1.32-1.48.51-.28,1.22-.19,1.84-.26,6.16-.68,12.31-1.39,18.47-2,1.19-.12,2.54-.05,3.61.4.66.28,1.39,1.52,1.28,2.2-.11.67-1.16,1.47-1.94,1.68-1.61.43-3.32.48-4.98.73-.72.11-1.66.11-2.07.56-.55.6-.99,1.62-.91,2.4.06.53,1.06,1.31,1.69,1.36,1.98.17,3.99.05,5.99.06,1.83.01,3.42.2,4.41,2.25.83,1.73,4.94,2.12,6.17.75.42-.47.51-1.34.54-2.04.07-2,.02-4,.02-6,0-.63-.06-1.28.06-1.89.27-1.28.76-2.43,2.33-2.57,1.41-.13,2.56.67,2.9,2.31.23,1.12.15,2.3.16,3.45.02,2.2,0,4.39,0,7.18Zm-13.04,13.47s.03,0,.05,0c0,1.26,0,2.52,0,3.78-.02,3.84-1.24,5.16-5,5.3-1.57.06-3.17-.13-4.72.08-.61.08-1.12.96-1.68,1.47.55.53,1.03,1.18,1.66,1.56.39.23,1.03.06,1.55.06,1.58-.02,3.15-.06,4.73-.06,2.13,0,3.27.68,3.41,2,.15,1.43-.99,2.2-3.44,2.28-1.26.04-2.52,0-3.78,0-.63,0-1.26-.04-1.89,0-1.74.11-2.41.78-2.28,2.24.13,1.53,1.13,1.89,2.43,1.75,2.3-.23,4.59-.61,6.89-.72,1.55-.07,2.63-.66,3.3-1.98,1.12-2.24,2.62-4.42,3.16-6.81,1.24-5.4,2.05-10.91,2.91-16.39.31-1.96-.2-2.42-2.39-2.75-2.09-.31-3.86-.87-4.36-3.35-.12-.57-1.1-1.33-1.72-1.36-2.72-.15-5.46-.1-8.2-.05-1.14.02-2.12.44-1.99,1.86.12,1.31.98,1.73,2.19,1.71,1.68-.03,3.37-.05,5.05,0,2.77.08,3.8.92,4.08,3.71.19,1.87.04,3.77.04,5.66Zm-8.19-5.6h0c-.42.01-.84.02-1.26,0-1.25-.02-2.02.48-1.98,1.84.04,1.29.78,1.89,2.02,1.92.84.03,1.68.04,2.52-.02,1.19-.09,2.02-.7,2.03-1.96.02-1.33-.85-1.8-2.07-1.79-.42,0-.84,0-1.26,0Zm-.09,10.91s0,0,0,.01c.52,0,1.04.01,1.57,0,1.14-.03,1.73-.74,1.87-1.75.16-1.19-.71-1.71-1.7-1.83-1.13-.14-2.33-.28-3.41-.03-.59.14-1.3,1.01-1.42,1.66-.19.98.35,1.83,1.53,1.93.52.04,1.04,0,1.56,0Zm-11.46-10.87c-.62,0-1.33-.19-1.84.05-.56.26-1.28.92-1.29,1.42,0,.69.43,1.59.97,2.01.49.37,1.38.26,2.1.27,2.17.01,3.14-.66,3.13-2.11,0-1.25-.74-1.65-3.08-1.64Zm-.26,10.86s0,.05,0,.07c.63-.03,1.27.03,1.88-.1,1.08-.23,1.87-1.53,1.28-2.36-.46-.64-1.43-1.21-2.22-1.27-1.27-.1-2.82-.5-3.71.95-.63,1.02.04,2.45,1.21,2.69.5.1,1.04.02,1.56.02Z"/>
  <path class="cls-1" d="m305.44,374.94v-8.22c-1.1-.1-2-.26-2.91-.26-4.84-.03-9.68,0-14.52-.05-1.14-.01-2.37-.07-3.37-.53-.73-.33-1.61-1.36-1.59-2.06.02-.87.7-2,1.44-2.5.79-.53,1.99-.61,3.01-.62,5.26-.06,10.51-.05,15.77-.04,1.95,0,2.14-.11,2.3-2.06.1-1.25.1-2.52.24-3.77.18-1.58,1.17-2.44,2.71-2.59,1.42-.13,2.8.98,3.05,2.64.25,1.64.21,3.33.32,5.33,1.12.18,2.2.48,3.29.5,5.05.07,10.1.05,15.15.07.63,0,1.29-.03,1.88.13,1.35.36,2.23,1.3,2.19,2.71-.05,1.45-1.03,2.31-2.44,2.4-1.78.11-3.57.05-5.36.05-3.89.02-7.79-.05-11.68.07-3.01.09-3.37.48-3.26,3.31.22,5.85-.61,5.48,5.49,5.51,2.1,0,4.21-.02,6.31.03.83.02,1.68.1,2.48.31,2.47.66,3.46,2.18,2.36,4.45-1.45,3-3.16,5.94-5.16,8.6-1.75,2.33-4.06,4.24-6.11,6.34-.56.58-1.07,1.21-1.85,2.11.94.57,1.57,1.08,2.28,1.36,4.9,1.89,9.82,3.73,15.1,4.29.42.04.85.06,1.24.2,1.95.69,2.34,2.43.89,3.92-1.56,1.6-3.44,1.88-5.52,1.39-5.94-1.39-11.85-2.92-17.23-5.9-2.17-1.2-4.02-1.45-6.43-.2-5.33,2.77-11.16,4.3-17.01,5.62-1.83.41-3.85.79-5.32-.87-.55-.62-1.03-1.75-.84-2.46.19-.69,1.21-1.5,1.97-1.62,5.22-.84,10.22-2.38,15.14-4.25.39-.15.83-.18,1.21-.35,1.75-.77,1.92-1.65.65-3.11-1.72-1.98-3.42-3.98-5.18-5.93-1.96-2.18-3.51-4.48-2.41-7.8-.9-.22-1.56-.46-2.24-.54-.83-.09-1.69.02-2.52-.07-1.82-.18-2.97-1.2-3.06-2.61-.1-1.57,1.01-2.78,3.08-2.85,3.99-.14,7.99-.08,11.99-.1,1.34,0,2.69,0,4.46,0Zm-7.32,6.36c-.02.21-.13.46-.04.61,2.45,4.24,5.66,7.79,9.57,10.73,1.19.89,2.12.42,3.14-.26,3.73-2.5,6.61-5.83,9.17-9.44.36-.51.35-1.28.51-1.94-4.33-.79-20.51-.53-22.35.31Z"/>
  <path class="cls-1" d="m376.22,360.68c1.49,2.89,2.93,5.64,1,8.6,2.73,1.43,3.81,1.33,5.33-.68.94-1.25,1.6-2.71,2.41-4.05.59-.98,1.14-2.02,1.86-2.9.82-1,1.95-1.24,3.11-.54,1.06.65,1.32,2.06.6,3.32-.68,1.19-1.48,2.3-2.16,3.48-.24.42-.24.98-.44,1.86,1,.19,1.87.39,2.74.52,1.85.27,2.65.9,2.51,2.14-.19,1.66-1.42,1.88-2.77,1.89-4.73.06-9.47.08-14.2.21-.88.02-1.96.23-2.55.77-.47.44-.64,1.66-.37,2.29.24.56,1.26,1.09,1.95,1.11,3.57.1,7.15.04,10.73.04,2.1,0,4.21-.07,6.31.04,2.03.11,2.9.88,2.84,2.23-.06,1.39-.91,2.06-2.94,2.09-5.36.07-10.73.07-16.09.1-.63,0-1.27-.06-1.89,0-1.71.18-2.58,1.02-2.4,2.29.21,1.44,1.37,1.39,2.42,1.4,4,.02,8,0,11.99.02.84,0,1.7-.05,2.51.13,2.13.47,2.81,1.77,1.78,3.68-1.49,2.76-3.17,5.42-4.77,8.13-.42.72-.86,1.42-1.5,2.47,1.07.62,1.96,1.32,2.97,1.69,1.87.68,3.86,1.06,5.7,1.8.77.31,1.63,1.12,1.82,1.87.13.49-.75,1.4-1.37,1.89-1.03.81-2.25,1.07-3.56.52-2.52-1.05-5.11-1.94-7.56-3.12-1.88-.91-3.5-.98-5.36.04-2.11,1.17-4.33,2.16-6.58,3.03-.91.35-2.14.43-3.02.1-.72-.27-1.57-1.34-1.57-2.06,0-.64.98-1.48,1.73-1.86,1.39-.72,2.95-1.11,4.37-1.76.9-.41,1.69-1.06,2.63-1.67-.45-.74-.66-1.23-1-1.61-1.26-1.39-2.57-2.74-4.2-4.46-.83,1.19-1.59,2.11-2.15,3.15-1.82,3.37-4.14,6.34-7.1,8.77-.99.81-2.05,1.48-3.43.7-1.56-.88-1.98-2.25-.9-3.65.57-.74,1.32-1.35,2-2.01,4.5-4.42,6.99-9.9,8.39-15.95.12-.51.18-1.04.21-1.56.09-1.28-.48-1.99-1.82-2-1.26,0-2.52-.02-3.78-.05-1.09-.03-1.88-.56-1.98-1.65-.1-1.13.36-2.17,1.59-2.38,1.44-.25,2.92-.21,4.37-.37.71-.07,1.66-.07,2.04-.51.48-.54.66-1.5.65-2.27-.02-1.07-.95-1.25-1.84-1.27-1.05-.02-2.18.2-3.13-.12-.77-.26-1.59-1.03-1.93-1.78-.45-.98.3-1.73,1.18-2.28,2.27-1.43,2.1-1.41,1.62-3.85-.31-1.55-.06-3.22-.06-5.14-.45-.23-1.17-.6-1.9-.96-1.07-.52-1.81-1.43-1.3-2.5.32-.66,1.39-1.25,2.18-1.34,2.92-.33,5.87-.36,8.8-.65,5.12-.5,10.24-1.05,15.34-1.71,1.67-.22,3.15-.16,4.43.98,1.37,1.22,1.22,2.43-.44,3.15-.75.33-1.61.47-2.43.58-3.33.43-6.67.81-10.01,1.24-.49.06-.96.24-1.64.42Zm-8.9,8.58c3.09,1.37,5.12,1.31,7.39-.08-1.56-2.6-1.82-5.4-.71-8.8-3.08.21-5.71.39-8.91.61,1.67,2.86,4.01,5.05,2.24,8.27Zm5.98,21.91c-.11.55-.24.78-.18.95.92,2.75,3.36,4.15,5.4,5.88.38.32,1.65.23,2.01-.15,1.36-1.43,2.66-2.96,3.7-4.63.77-1.25.1-2.35-1.4-2.35-3.2,0-6.4.2-9.52.31Z"/>
  <path class="cls-1" d="m181.37,332.95c-3.49-.24-6.22-.85-8.95.26-.68.28-1.31.71-2.02.86-1.95.42-3.57-.8-3.2-2.74.66-3.5,1.59-6.95,2.64-10.36.55-1.82,2.2-2.42,4.04-2.43,3.05,0,6.1,0,9.15-.02,4.11,0,4.47-.5,3.34-5.03-3-.09-6.12-.22-9.24-.26-1.79-.02-3.57.15-5.36.15-.82,0-1.67-.14-2.47-.36-1.13-.32-1.85-1.16-1.71-2.33.15-1.27.97-2.06,2.36-2.07,2.73-.04,5.47-.12,8.2-.13,8.83-.01,17.67,0,26.5,0,1.16,0,2.32,0,3.47.08,2.64.16,3.87,1.33,3.97,3.88.08,2.21.09,4.42-.02,6.63-.14,2.7-1.22,3.8-3.96,3.88-4.2.13-8.41.11-12.62.14-1.07,0-2.1,0-2.6,1.27-.76,1.91.24,3.57,2.37,3.6,4.84.08,9.68.08,14.52.11.84,0,1.69-.05,2.52.05,1.91.23,3.04,1.17,2.93,3.04-.19,3.23-.47,6.51-1.2,9.65-.63,2.74-2.56,4.56-5.63,4.67-1.57.06-3.17.25-4.72.07-.97-.11-2.02-.62-2.75-1.28-.52-.47-.92-1.6-.71-2.21.19-.57,1.22-.98,1.96-1.19.68-.2,1.46-.05,2.2-.06,3.19-.06,5.94-3.65,4.99-6.72-.19-.61-1.17-1.38-1.8-1.39-4.31-.12-8.62-.1-12.94-.03-1.42.02-1.98,1.04-1.96,2.37.02,1.47.15,2.94.13,4.41-.02,1.89-.05,3.79-.24,5.67-.21,2.09-1.31,3.22-2.82,3.16-1.42-.06-2.58-1.38-2.71-3.36-.12-1.78-.02-3.58-.05-5.36-.02-1.02-.1-2.04-.18-3.65-1.09.65-1.8.97-2.38,1.44-4.54,3.65-9.48,6.62-14.97,8.57-1.12.4-2.49.54-3.63.29-.71-.15-1.63-1.23-1.69-1.95-.06-.7.76-1.59,1.39-2.2.41-.4,1.19-.37,1.75-.65,4.01-2.04,8.03-4.08,12-6.21.65-.35,1.07-1.11,2.11-2.25Zm12.07-19.59c-.33.71-.52.98-.58,1.28-.59,3.04.05,3.85,3.09,3.88,2.73.03,5.47.06,8.2-.01,1.9-.05,2.35-.61,2.38-2.52.03-1.9-.43-2.55-2.32-2.6-3.56-.09-7.13-.03-10.78-.03Zm-12.99,14.68h0c1.15-.01,2.29-.01,3.44-.01.1,0,.21,0,.31,0,2.16-.09,2.86-.66,2.9-2.38.04-1.76-.67-2.44-2.77-2.5-2.08-.05-4.17-.05-6.25,0-.82.01-1.69.04-2.45.31-1.43.52-1.59,1.85-1.54,3.12.06,1.47,1.23,1.45,2.29,1.47,1.35.02,2.71,0,4.06,0Z"/>
  <path class="cls-1" d="m252.63,375.36c.99,0,2.01,0,3.03,0,4.63,0,9.26-.02,13.88,0,1.24,0,2.85-.13,2.81,1.67-.04,1.7-1.55,1.68-2.85,1.68-4.73-.01-9.47-.01-14.2-.02-.32,0-.63,0-.95-.03-1.11-.08-2.35-.04-2.27,1.41.08,1.36,1.32,1.37,2.43,1.36,5.99-.05,11.99-.08,17.98-.09.94,0,1.93-.05,2.79.25.55.19,1.28,1.05,1.21,1.5-.11.66-.77,1.33-1.36,1.78-.35.26-1.02.14-1.54.14-16.19,0-32.38,0-48.56,0-.42,0-.94.09-1.24-.12-.62-.43-1.52-1.01-1.56-1.58-.04-.56.73-1.46,1.35-1.71.83-.33,1.85-.23,2.8-.23,5.68,0,11.35.03,17.03.05.21,0,.46.06.62-.03.66-.37,1.75-.7,1.85-1.21.25-1.25-.83-1.47-1.86-1.47-4.31,0-8.62,0-12.94,0-.95,0-1.96.15-2.81-.14-.67-.22-1.14-1.02-1.71-1.56.56-.52,1.04-1.26,1.7-1.51.75-.28,1.66-.14,2.5-.14,3.89,0,7.78.02,11.67.03.74,0,1.51.11,2.19-.1.49-.15,1.26-.82,1.2-1.09-.14-.58-.66-1.39-1.16-1.5-1.22-.26-2.5-.21-3.76-.21-3.05.02-6.1.15-9.15.11-1.27-.02-3.19.39-3.29-1.5-.1-2.05,1.97-1.58,3.14-1.63,3.15-.14,6.31.04,9.46.02,1.36,0,2.73-.09,4.07-.3.36-.06.92-.77.87-1.1-.08-.52-.51-1.23-.95-1.38-.76-.26-1.65-.19-2.49-.19-5.47-.01-10.94,0-16.41-.02-.84,0-1.78.16-2.49-.17-.63-.29-1.18-1.1-1.37-1.78-.07-.27.87-.98,1.46-1.23.54-.23,1.24-.13,1.86-.12,5.78.05,11.57.13,17.35.16,1.21,0,2.89.34,2.92-1.48.03-1.94-1.73-1.42-2.88-1.44-4.1-.05-8.2-.02-12.31-.04-.88,0-1.76-.15-1.84-1.26-.09-1.28.62-1.95,1.87-2.04.63-.05,1.26-.04,1.89-.04,3.05,0,6.1-.04,9.15,0,2.13.03,4,.12,5.17-2.43.91-1.98,3.24-1.89,4.22.17,1.07,2.26,2.7,2.29,4.65,2.27,3.26-.04,6.52-.05,9.78,0,2.79.04,3.93,1.03,4.57,3.75.54,2.28.54,2.27,2.88,2.37.73.03,1.52,0,2.16.26.48.2,1.06.84,1.07,1.3.01.47-.51,1.23-.97,1.39-.86.3-1.84.37-2.77.35-1.5-.03-2.27.48-2.54,2.08-.58,3.42-1.06,3.78-4.53,3.83-3.57.06-7.15,0-10.72.06-2.28.03-2.36.16-2.12,2.92Zm5.89-14.94h0c-1.57,0-3.14-.11-4.69.05-.57.06-1.4.63-1.55,1.13-.27.94.44,1.58,1.38,1.68,1.03.11,2.09.06,3.13.06,1.88,0,3.77.1,5.63-.09.65-.07,1.57-.79,1.73-1.38.27-.99-.62-1.42-1.56-1.44-1.36-.03-2.71,0-4.07,0Zm-.19,8.91s0,.04,0,.06c1.56,0,3.14.12,4.68-.07.51-.06,1.3-.9,1.29-1.37,0-.47-.83-1.32-1.32-1.34-3.13-.13-6.26-.13-9.39-.03-.53.02-1.36.71-1.48,1.22-.24,1.01.61,1.47,1.53,1.5,1.56.05,3.13.02,4.7.02Z"/>
  <path class="cls-1" d="m299.13,311.58c-.21,3.39-.42,6.21-.54,9.03-.34,7.81-1.64,15.42-4.51,22.72-.34.87-.76,1.74-1.33,2.47-.83,1.06-1.94,1.63-3.32.95-1.29-.64-1.85-1.9-1.54-3.44.06-.31.16-.61.3-.89,3.86-8.29,4.61-17.15,4.71-26.12.06-5.46,0-10.93.02-16.39.01-4.09,1.17-5.31,5.21-5.32,11.87-.03,23.75-.03,35.62.01,4.03.01,5.15,1.22,5.21,5.34.03,2.21.06,4.41.02,6.62-.07,3.77-.89,4.74-4.61,4.78-8.93.1-17.86.04-26.79.07-2.7,0-5.4.1-8.44.17Zm.34-5.45c1.09.05,2.3.16,3.52.16,8.94.06,17.87.13,26.81.1,1.04,0,2.75-.4,2.97-1.04.49-1.39.54-3.13.2-4.59-.33-1.41-1.92-.95-3.02-.95-8.84-.03-17.67-.02-26.51-.02-4.72,0-5.02.34-4.4,5.07.04.3.2.59.43,1.26Z"/>
  <path class="cls-1" d="m275.97,320.7c.85.7,1.43,1.24,2.07,1.7,5.23,3.77,7.22,9.27,5.41,16.18-1.53,5.85-7.09,9.98-13.27,10.33-4.84.27-9.11-1.33-13.01-4-1.32-.9-2.35-2.16-2.03-3.98.55-3.14,2.95-4.06,5.46-1.94,2.96,2.5,6.26,3.5,9.93,2.39,1.49-.45,3.11-1.48,4.02-2.73,3.34-4.6.91-11.67-4.47-13.47-.99-.33-2.04-.5-3.06-.76-2.36-.6-3.25-1.49-3.25-3.19,0-1.72.77-2.62,3.21-3.26,2.3-.61,4.22-1.65,5.9-3.4,2.16-2.25,2.17-7.56.77-9.83-1.75-2.83-5.46-3.67-8.94-1.98-.94.46-1.8,1.09-2.74,1.56-1.92.95-3.47.65-4.49-.79-1.05-1.49-.81-2.93.8-4.45,5.92-5.56,16.35-5.15,20.97-.19,5.11,5.47,4.76,14.89-.94,19.81-.69.6-1.39,1.18-2.34,2Z"/>
  <path class="cls-1" d="m493.62,364.25c-1.15,1.16-1.65,2-2.38,2.33-1.34.61-1.78,1.57-2.03,2.91-.45,2.54-1.42,3.32-4.06,3.44-1.78.08-3.58-.03-5.36.09-.5.03-.97.59-1.46.91.47.45.91,1.26,1.41,1.3,2.09.16,4.2.08,6.3.11.84.01,1.74-.11,2.49.16.56.2,1.26.95,1.27,1.46,0,.54-.64,1.32-1.19,1.56-.73.31-1.64.26-2.48.26-1.79,0-3.58-.12-5.36-.05-.96.03-1.9.34-2.88.53.35,2.02,1.61,1.89,2.73,1.89,2.63,0,5.26-.05,7.88-.06.73,0,1.56-.11,2.17.19.65.31,1.41.97,1.58,1.61.29,1.1-.58,1.7-1.6,1.93-.51.11-1.04.12-1.57.12-9.15.01-18.29.02-27.44.02-.11,0-.21,0-.32,0-1.9-.12-3.15-.95-2.95-2.11.27-1.57,1.5-1.86,2.86-1.83,2.31.04,4.62.09,6.94.13.63.01,1.27.08,1.89.03.91-.07,2.1.07,2-1.35-.08-1.13-1.08-1.1-1.93-1.09-1.68.02-3.36.06-5.04.09-.52.01-1.05.1-1.57.05-1.21-.12-2.39-.43-2.36-1.96.03-1.4,1.19-1.66,2.25-1.69,1.78-.05,3.57.14,5.35.09,1.08-.03,2.15-.31,3.15-.47.06-1.57-.71-1.81-1.62-1.83-1.58-.02-3.15,0-4.73,0-.74,0-1.48.02-2.21-.05-.99-.1-2.12-.45-1.88-1.59.14-.68,1.12-1.38,1.88-1.69.72-.3,1.65-.12,2.48-.12,1.47,0,2.94.1,4.41.01.8-.05,1.79-.18,1.81-1.34.02-1.24-1-1.2-1.8-1.21-2.42-.03-4.83.05-7.25.01-1.15-.02-2.35-.04-3.41-.39-.66-.22-1.64-1.17-1.55-1.58.17-.75.92-1.53,1.64-1.95.56-.33,1.43-.17,2.16-.17,2.42,0,4.84.05,7.25.05.73,0,1.48-.02,2.18-.2.31-.08.76-.59.72-.85-.06-.43-.38-1.1-.72-1.18-.9-.22-1.86-.21-2.8-.24-1.78-.05-3.57-.02-5.35-.1-.9-.04-1.7-.41-1.69-1.48.01-1.08.62-1.81,1.73-1.86,1.78-.08,3.57-.12,5.36-.07,1.87.05,3.35-.04,4.32-2.21.96-2.14,3.24-2.08,4.36.09.96,1.86,2.29,2.23,4.09,2.15,1.36-.06,2.73.03,4.1-.01,1.69-.05,2.99.8,3.47,2.24.75,2.22,1.39,4.37,4.74,4.99Zm-15.88,4.02c1.7,2.08,3.7,1.37,5.57,1.08.34-.05.81-.75.81-1.14,0-.39-.45-.93-.84-1.13-1.5-.8-3.84-.32-5.54,1.2Zm3.52-7.87c-1.16.08-2.9-.3-2.97,1.3-.08,1.77,1.76,1.34,2.89,1.37,1.13.04,2.87.43,2.83-1.41-.04-1.58-1.66-1.1-2.74-1.26Z"/>
  <path class="cls-1" d="m240.94,319.59c0,6.09-.02,12.19,0,18.28.01,3.29.1,3.34,3.37,3.38.84,0,1.68-.03,2.52.02,2.29.14,3.49,1.22,3.57,3.17.07,1.96-1.33,3.35-3.65,3.46-1.36.07-2.73-.08-4.09-.08-5.15,0-10.3.04-15.44.03-1.05,0-2.12,0-3.13-.23-1.5-.33-2.53-1.83-2.44-3.27.09-1.55,1.1-2.77,2.73-2.93,1.88-.18,3.78-.19,5.66-.17,1.59.02,2.32-.69,2.32-2.26,0-2.31.02-4.62.02-6.93,0-7.88,0-15.76.02-23.64,0-2.76-.3-3.11-3-3.16-.95-.02-1.89,0-2.84-.01-1.44-.03-2.41-.76-2.77-2.12-.38-1.43.34-2.59,1.55-3.11,3.28-1.4,6.57-2.83,9.98-3.84,3.66-1.08,5.59.59,5.61,4.49.03,6.3,0,12.61.01,18.91Z"/>
  <path class="cls-1" d="m249.38,401.97c-5.25,0-10.51.07-15.76-.02-3.68-.07-4.59-1.08-4.7-4.76-.05-1.68-.09-3.36-.04-5.04.1-3.45,1.36-4.76,4.83-4.79,6.52-.06,13.03-.02,19.55-.02,4.1,0,8.2,0,12.3.02,3.3.02,4.58,1.27,4.65,4.52.04,1.89.03,3.78-.02,5.67-.08,3.15-1.24,4.41-4.4,4.46-5.46.08-10.93.02-16.39.02,0-.02,0-.04,0-.07Zm9-8.76s0-.02,0-.03c1.47,0,2.95.12,4.4-.06.52-.07.95-.86,1.42-1.32-.5-.42-.99-1.18-1.51-1.2-3.04-.12-6.09-.13-9.13-.02-.54.02-1.43.69-1.51,1.16-.17.99.65,1.44,1.6,1.46,1.57.02,3.15,0,4.72,0Zm-.16,3.06v.05c-1.67,0-3.35-.08-5.01.06-.44.04-1.13.73-1.15,1.16-.02.38.7,1.15,1.11,1.16,3.23.1,6.47.12,9.71.01.47-.02.91-.86,1.37-1.31-.44-.37-.86-1.03-1.33-1.07-1.55-.14-3.13-.05-4.69-.05Zm-17.82-5.74s0,.02,0,.02c-1.47,0-2.95-.12-4.4.07-.48.06-1.05.85-1.22,1.41-.07.24.74,1.09,1.17,1.1,2.94.09,5.88.1,8.81-.04.46-.02.88-.91,1.32-1.4-.53-.39-1.03-1.04-1.6-1.11-1.34-.17-2.72-.05-4.09-.05Zm-.13,8.23h0c1.46-.01,2.94.1,4.39-.08.52-.06.96-.82,1.44-1.26-.43-.38-.85-1.07-1.3-1.09-2.93-.12-5.86-.15-8.79-.05-.48.02-.92.85-1.39,1.31.52.39,1.01,1.04,1.57,1.11,1.34.16,2.71.05,4.08.05Z"/>
  <path class="cls-1" d="m442.3,393.89c0,3.79.03,7.57-.02,11.36-.01.93-.16,1.89-.45,2.76-.42,1.27-1.47,1.68-2.76,1.61-1.38-.07-2.14-.89-2.33-2.14-.18-1.24-.19-2.52-.19-3.78,0-6.84.06-13.67.06-20.51,0-3.15-.28-3.41-3.41-3.44-2.42-.02-4.84.08-7.26-.04-2.29-.12-3.28-1.25-3.03-3.12.2-1.44,1.19-2.29,3.21-2.42,1.99-.12,3.99-.05,5.99-.05,4.11,0,4.38-.26,4.35-4.52-.02-3.58-.1-7.15-.11-10.73,0-1.04.08-2.11.31-3.12.3-1.37,1.27-2.21,2.67-2.25,1.44-.05,2.4.86,2.77,2.16.29.99.31,2.07.31,3.12,0,4.1-.09,8.2-.11,12.3,0,2.77.31,3.07,3.06,3.08,2.1,0,4.21-.04,6.31,0,.72.02,1.62.02,2.09.43.73.63,1.54,1.57,1.63,2.44.11,1.19-.79,2.15-2.07,2.42-.81.17-1.66.25-2.49.26-1.89.03-3.79-.04-5.68-.03-2.72.02-2.96.25-2.97,2.82-.01,3.79,0,7.57,0,11.36.04,0,.07,0,.11,0Z"/>
  <path class="cls-1" d="m301.62,332.42c0-3.57,0-7.15,0-10.72,0-.84.02-1.68.11-2.52.16-1.35,1.09-2.03,2.33-2.19,1.31-.17,2.34.53,2.68,1.72.33,1.18.36,2.48.36,3.72-.03,5.25-.16,10.49-.19,15.74-.01,2.18.77,2.97,3.09,3.04,2.84.09,5.68.02,8.51.02,4.21,0,8.41.04,12.62,0,3.03-.03,3.42-.44,3.43-3.51.03-5.36,0-10.72,0-16.09,0-.74-.08-1.49.07-2.2.28-1.34,1.11-2.28,2.51-2.47,1.32-.18,2.52.89,2.84,2.42.1.51.1,1.05.1,1.57,0,7.67-.01,15.35-.03,23.02,0,.63,0,1.28-.15,1.88-.54,2.22-2.6,3.15-4.29,1.67-1.69-1.47-3.49-1.68-5.53-1.66-6.52.05-13.04.05-19.56.01-1.53,0-2.93.11-3.98,1.39-.81.99-1.83,1.41-3.08.85-1.32-.59-1.76-1.71-1.77-3.08-.01-2.94-.03-5.89-.04-8.83,0-1.26,0-2.52,0-3.78-.01,0-.03,0-.04,0Z"/>
  <path class="cls-1" d="m346.99,397.01c0-1.47.07-2.95-.02-4.41-.1-1.66-.61-2.03-2.21-1.77-.62.1-1.21.39-1.83.47-1.79.23-2.94-.4-3.27-1.73-.33-1.31.31-2.54,1.85-3.27.85-.4,1.78-.62,2.67-.92,2.36-.79,2.7-1.16,2.77-3.55.08-2.84-.02-5.68.09-8.51.07-1.76-.76-2.5-2.37-2.65-.94-.09-1.89-.13-2.83-.24-1.22-.15-1.88-.99-2.02-2.1-.15-1.17.51-2.08,1.6-2.41.98-.3,2.05-.33,3.09-.41,2.1-.17,2.36-.36,2.44-2.41.07-1.57.01-3.15.02-4.73,0-.74,0-1.47.03-2.21.08-1.43.78-2.4,2.23-2.63,1.26-.2,2.45.9,2.74,2.5.11.61.06,1.26.06,1.89,0,1.47-.02,2.94,0,4.42.03,2.92.04,2.91,3.13,3.37.61.09,1.43.14,1.75.54.54.67,1.08,1.62,1.02,2.4-.05.62-.9,1.35-1.57,1.7-.6.31-1.44.13-2.17.2-1.29.14-2.18.67-2.15,2.16.04,2.63-.04,5.26.06,7.88.08,1.89.44,2.11,2.34,1.94.1,0,.2-.05.31-.07,1.42-.26,2.81-.32,3.47,1.3.53,1.3-.44,2.67-2.37,3.52-.29.13-.59.21-.89.33-2.87,1.15-2.89,1.15-2.91,4.38-.02,3.89.03,7.78-.01,11.67-.05,4.83-4.18,7.62-8.72,5.91-1.31-.49-2.07-1.54-1.96-2.91.09-1.22,1.11-1.62,2.24-1.84,3.27-.64,3.34-.75,3.4-4,.02-1.26,0-2.52,0-3.78h.01Z"/>
  <path class="cls-1" d="m199.43,296.69c2.43,0,4.62,0,6.8,0,2.31,0,4.62-.03,6.94-.04.53,0,1.06-.04,1.57.03,1.64.21,2.9,1.33,2.72,2.51-.22,1.52-1.4,2.06-2.74,2.12-1.89.08-3.78-.07-5.67-.03-.87.02-1.73.24-2.79.4.36,1.2.63,1.98.82,2.78.26,1.07.29,2.18-.85,2.75-1.26.63-2.49.43-3.37-.76-.81-1.1-1.44-2.32-2.29-3.39-.57-.72-1.27-1.5-2.08-1.83-1.41-.58-2.66,0-3.61,1.18-1.05,1.31-2.08,2.64-3.18,3.91-.84.97-2.02,1.35-3.13.79-.75-.38-1.61-1.25-1.71-2-.12-.91.5-1.93.94-3.32-2.78-.52-5.38-1.23-8.25-.02.14.8.22,1.4.35,1.99.42,1.91-.08,3.11-1.51,3.57-1.4.45-2.34-.05-3.18-1.74-.28-.56-.47-1.17-.74-1.74-1.46-3.1-2.67-3.22-4.57-.47-.48.69-.88,1.43-1.38,2.11-.37.5-.79,1.01-1.28,1.37-1.15.85-3.29.71-4.05-.28-.94-1.21-.45-2.24.34-3.4,1.95-2.85,3.74-5.81,5.59-8.72.22-.35.39-.75.63-1.09.75-1.1,1.86-1.28,3.07-1.13,1.26.16,1.72,1.05,1.89,2.18.1.6.2,1.2.38,2.2,2.34.02,4.62.07,6.89.06,2.63-.01,5.29-.34,6.88,2.6.48.88,1.54.59,2.09-.25.63-.96,1.11-2.02,1.69-3.02.58-1,1-2.23,1.86-2.88.8-.61,2.09-.84,3.14-.8,1.21.05,1.68,1.08,1.66,2.28,0,.52.05,1.04.11,2.08Z"/>
  <path class="cls-1" d="m475.39,400.82c-3.04,0-6.09.03-9.13,0-3.55-.05-4.75-1.24-4.82-4.69-.03-1.47-.07-2.94-.03-4.41.08-3.11,1.57-4.74,4.62-4.77,6.2-.05,12.4-.05,18.59.08,3.68.08,5.07,1.69,4.98,5.36-.03,1.36-.1,2.73-.21,4.09-.26,3.24-1.31,4.27-4.55,4.32-3.15.05-6.3.01-9.45.01v.02Zm-5.85-2.78v.04c.63-.03,1.32.1,1.86-.14.48-.21,1.08-.8,1.09-1.24.01-.39-.66-1.07-1.12-1.15-1.02-.17-2.11-.18-3.12,0-.6.1-1.12.68-1.68,1.04.57.49,1.09,1.05,1.72,1.42.31.18.82.03,1.24.03Zm11.6.06c.73-.05,1.45.1,1.94-.18.53-.3.85-.98,1.26-1.49-.47-.33-.92-.87-1.42-.93-1.12-.13-2.28-.12-3.39.07-.41.07-.89.78-.99,1.26-.06.29.49.88.89,1.04.55.22,1.21.17,1.72.22Zm-2.88-6.69c2.52,1.54,4.43,1.45,6.09-.15-1.96-1.62-3.75-1.63-6.09.15Zm-11.53-.45c1.25,1.97,4.06,2.08,5.88.22-1.76-1.34-2.68-1.38-5.88-.22Z"/>
  <path class="cls-1" d="m511.89,381.09c0,6.73,0,13.45,0,20.18,0,1.15.01,2.32-.13,3.46-.35,2.77-1.62,4.2-4.3,4.69-1.54.28-3.14.43-4.7.35-.98-.05-2.16-.4-2.83-1.05-.64-.62-1.07-1.84-.97-2.73.12-1.14,1.25-1.58,2.41-1.55.32,0,.63,0,.95,0,3.98-.06,4.33-.34,4.32-4.3-.04-13.56-.14-27.11-.2-40.67,0-.93,0-1.9.24-2.79.36-1.36,1.4-2.12,2.81-2.05,1.31.07,2.06,1.02,2.36,2.21.2.8.16,1.66.16,2.5.01,7.25,0,14.5,0,21.76h-.11Z"/>
  <path class="cls-1" d="m320.93,336.62c-2.1,0-4.2.03-6.3-.01-1.15-.02-2.39.06-3.41-.34-.7-.28-1.43-1.27-1.53-2.02-.07-.55.75-1.57,1.38-1.78,1.16-.39,2.46-.36,3.7-.46,1.12-.1,2.68.28,2.92-1.17.28-1.69.11-3.5-.16-5.22-.06-.36-1.41-.64-2.2-.73-1.24-.15-2.59.15-3.73-.23-.83-.28-1.79-1.26-1.99-2.09-.26-1.11.77-1.92,1.87-2.15,1.01-.21,2.06-.26,3.1-.25,2.98.04,3.2-.16,3.38-3.09.05-.83,0-1.8.42-2.43.47-.7,1.49-1.57,2.15-1.48.86.11,1.8.97,2.33,1.76.41.62.28,1.62.33,2.45.16,2.63.56,2.96,3.29,2.9,1.25-.03,2.51,0,3.76.14,1.21.14,1.79.92,1.8,2.18.01,1.32-.77,1.98-1.89,2.11-1.45.17-2.94.07-4.4.15-2.14.1-2.51.5-2.6,2.66-.02.42.02.84.03,1.26.09,2.97.32,3.17,3.29,3.24,1.26.03,2.52.06,3.76.22,1.18.16,1.85.87,1.8,2.16-.05,1.28-.74,1.97-1.95,2.02-1.99.07-3.99.02-5.99.02-1.05,0-2.1,0-3.15,0v.19Z"/>
  <path class="cls-1" d="m401.19,399.22c0-2.1-.06-4.2.01-6.29.1-2.88,1.2-4.04,4.02-4.1,3.56-.08,7.13-.07,10.7,0,3.05.06,4.22,1.2,4.28,4.17.07,3.04.09,6.09,0,9.12-.09,2.91-1.07,3.98-3.97,4.22-2.19.19-4.4.17-6.6.12-1.65-.04-2.99.31-4.26,1.51-1.93,1.82-3.82,1.13-4.1-1.53-.25-2.38-.05-4.81-.05-7.22,0,0,0,0-.01,0Zm9.21,2.87c1.06,0,1.79.03,2.53,0,2.01-.1,2.4-.36,2.41-2.44.04-6.94,1-6.61-6.18-6.62-.21,0-.42,0-.63,0-2.03.14-2.51.61-2.67,2.68-.04.52,0,1.05,0,1.57q.03,4.94,4.54,4.8Z"/>
  <path class="cls-1" d="m249.22,404.43c7.56,0,15.12,0,22.69,0,.94,0,1.89,0,2.83.03,1.11.02,1.87.65,1.98,1.67.14,1.26-.78,1.86-1.91,2.07-.51.09-1.05.07-1.57.07-15.76,0-31.51,0-47.27,0-.93,0-1.94-.02-2.77-.38-.52-.23-1.07-1.12-1.04-1.68.03-.54.7-1.32,1.25-1.5.86-.29,1.86-.21,2.8-.21,7.67-.01,15.33,0,23,0v-.04Z"/>
  <path class="cls-1" d="m494.9,377.48c0-3.99,0-7.97,0-11.96,0-.52-.03-1.05,0-1.57.16-2.11,1.12-3.16,2.77-3.1,1.45.06,2.4,1.09,2.48,3.08.08,2.09-.09,4.19-.1,6.29-.04,6.61-.05,13.22-.08,19.83,0,.73,0,1.47-.06,2.2-.11,1.5-.95,2.26-2.45,2.3-1.55.03-2.29-.86-2.49-2.28-.1-.72-.07-1.47-.07-2.2,0-4.2,0-8.39,0-12.59h0Z"/>
  <path class="cls-1" d="m466.03,408.42c-1.78,0-3.57.06-5.35-.02-1.36-.06-2.52-.59-2.54-2.2-.03-1.61,1.14-2.09,2.46-2.35.41-.08.84-.05,1.26-.06,8.91-.37,17.81-.75,26.72-1.12.42-.02.84-.1,1.26-.09,1.68.04,2.66.75,2.77,1.97.11,1.16-.83,2.26-2.39,2.43-2.5.28-5.01.4-7.52.52-5.55.28-11.1.51-16.66.77,0,.05,0,.1,0,.15Z"/>
  <path class="cls-1" d="m410.41,367.97c-3.05,0-6.1-.03-9.14.01-1.42.02-2.53-.31-2.68-1.95-.13-1.38.86-2.34,2.71-2.36,5.99-.07,11.97-.05,17.96-.04.52,0,1.03.17,1.55.26,1.33.23,2.1.93,1.93,2.36-.16,1.3-1.04,1.71-2.23,1.71-2.42,0-4.83,0-7.25.01-.95,0-1.89,0-2.84,0Z"/>
  <path class="cls-1" d="m411.05,360.15c-1.88,0-3.77.04-5.65-.02-.82-.03-1.75-.08-2.41-.48-.63-.38-1.34-1.22-1.35-1.87-.01-.64.68-1.46,1.28-1.91.53-.39,1.36-.51,2.07-.52,3.98-.05,7.96-.03,11.94-.02.42,0,.86-.02,1.25.1,1.15.34,2.17.87,2.22,2.29.04,1.24-.85,2.24-2.43,2.37-1.77.15-3.56.06-5.34.07-.52,0-1.05,0-1.57,0h0Z"/>
  <path class="cls-1" d="m410.85,372.06c1.89,0,3.78-.03,5.66.01.83.02,1.78-.06,2.45.31.62.34,1.29,1.22,1.3,1.86,0,.62-.7,1.46-1.32,1.81-.68.39-1.61.43-2.44.44-3.88.04-7.77.02-11.65.02-.31,0-.63.01-.94-.04-1.64-.29-2.68-1.23-2.46-2.33.3-1.47,1.33-2,2.77-1.98,2.2.04,4.41,0,6.61,0,0-.04,0-.08,0-.12Z"/>
  <path class="cls-1" d="m410.64,384.71c-1.88,0-3.76.03-5.63-.02-.72-.02-1.54-.04-2.11-.39-.63-.4-1.48-1.25-1.4-1.77.12-.74.98-1.37,1.57-2.02.11-.12.4-.13.6-.13,4.7-.02,9.4-.06,14.1-.04,1.23,0,2.27.53,2.47,1.92.17,1.15-.78,2.25-2.4,2.36-2.39.16-4.8.04-7.2.04,0,.02,0,.04,0,.06Z"/>
</svg>