<?xml version="1.0" encoding="UTF-8"?>
<svg id="Layer_1" data-name="Layer 1" xmlns="http://www.w3.org/2000/svg" viewBox="0 0 1024 1024">
  <defs>
    <style>
      .cls-1 {
        fill: #a7a7a7;
      }
    </style>
  </defs>
  <path class="cls-1" d="m786.65,394.24c-.08,1.53-.16,2.43-.16,3.34-.01,13.29,0,26.59,0,39.88,0,.61.02,1.23.04,1.84.04,1.26.75,1.83,1.96,1.84,1.53.01,3.08.12,4.6,0,3.81-.31,6.88,3.07,6.72,6.7-.17,4.01-2.59,6.78-6.69,6.81-9.41.08-18.81.03-28.22.03-10.74,0-21.47.03-32.21-.01-6.35-.03-11-2.86-13.35-8.86-.65-1.66-.85-3.58-.87-5.38-.09-8.49-.05-16.97-.04-25.46,0-5.55,2.09-10.05,7.18-12.56,2.13-1.05,4.66-1.71,7.03-1.77,8.48-.21,16.97-.08,25.46-.08,2.21,0,4.24.51,5.88,2.13,3.62,3.57,2.37,9.56-2.45,11.21-1.42.48-3,.65-4.51.66-6.85.07-13.7.03-20.55.03-.72,0-1.43.03-2.15.01-1.53-.03-2.21.66-2.19,2.23.05,3.78.01,7.57.01,11.35,0,3.48-.04,6.95.02,10.43.04,2.23.3,2.53,2.49,2.53,11.86.04,23.72.04,35.58,0,2.22,0,2.46-.34,2.48-2.86.04-6.03.01-12.07.01-18.1,0-10.53,0-21.06,0-31.6,0-5.57,2.23-7.81,7.78-7.83,4.19-.02,8.39-.08,12.58.02,4.24.09,6.67,2.63,6.67,6.73,0,3.93-2.43,6.54-6.4,6.73-2.12.1-4.25.02-6.7.02Z"/>
  <path class="cls-1" d="m433.48,441.16v-46.79c-2.04-.04-4.06.06-6.05-.17-1.47-.17-3.07-.48-4.31-1.22-2.58-1.53-3.54-4.55-2.75-7.5.73-2.74,3.02-4.64,6.09-4.71,4.7-.11,9.41-.09,14.12-.02,4.25.07,6.59,2.47,6.6,6.73.03,9.92,0,19.85,0,29.77,0,6.65,0,13.3,0,19.95,0,1.11,0,2.21,0,3.18,2.54.93,36.73,1.1,40.29.26.09-.77.28-1.65.29-2.53.02-6.85.03-13.71,0-20.56,0-2.82-.11-2.95-2.97-2.96-7.26-.03-14.53.03-21.79-.04-1.51-.01-3.06-.27-4.5-.71-2.79-.84-4.36-3.03-4.53-5.91-.17-2.91,1.32-5.52,4.03-6.58,1.21-.47,2.57-.76,3.86-.77,8.59-.07,17.19-.11,25.78,0,8.12.1,14.08,6.35,13.9,14.03-.2,8.69-.27,17.4.02,26.08.26,7.93-6.71,14.06-13.92,14.02-20.05-.11-40.1-.07-60.15,0-3.15,0-5.4-1.38-6.74-3.97-1.12-2.17-.89-4.56.49-6.72,1.2-1.88,2.89-2.83,5.11-2.84,2.24-.01,4.47,0,7.13,0Z"/>
  <path class="cls-1" d="m775.61,579.34c0,1.47,0,2.48,0,3.49,0,15.03,0,30.07,0,45.1,0,.72.02,1.43.02,2.15.01,1.24.63,1.89,1.88,1.92.92.02,1.84.02,2.76.02,27.82,0,55.64,0,83.45,0,1.02,0,2.05-.03,3.07.03,2.63.16,4.39,1.71,4.88,4.25.43,2.24-.62,4.7-2.79,5.6-1.46.61-3.14.93-4.72.93-18.72.06-37.43.04-56.15.04-11.86,0-23.73,0-35.59,0-5.41,0-7.69-2.21-7.69-7.59-.02-19.94,0-39.89-.02-59.83,0-2.12.36-4.12,1.87-5.66,1.18-1.2,2.73-1.62,4.48-1.6,6.65.07,13.3.03,19.94.03,24.24,0,48.48,0,72.72,0,.92,0,1.84-.04,2.76.02,3.11.22,5.34,2.62,5.27,5.65-.06,2.84-2.33,5.14-5.36,5.17-6.44.07-12.89.02-19.33.02-22.69,0-45.38,0-68.06.02-.99,0-1.98.13-3.39.23Z"/>
  <path class="cls-1" d="m698.88,586.3v-6.92c-1.27-.1-2.45-.26-3.64-.27-8.59-.02-17.18-.04-25.77,0-2.38.01-4.21-.78-5.23-2.97-1.75-3.75.64-7.71,4.8-7.89,2.76-.12,5.52-.03,8.28-.03,6.03,0,12.07,0,18.1,0,1.1,0,2.19-.1,3.19-.15,1.36-4.91,2.97-6.59,6-6.48,3.17.12,4.73,1.81,5.69,6.4.79.07,1.67.22,2.55.22,3.17.03,6.34.12,9.51,0,3.53-.14,5.71,3.12,5.73,5.57.02,2.46-2.54,5.66-5.87,5.38-2.94-.25-5.93-.07-8.89-.04-.99,0-1.98.12-3.16.2v6.72c2.51.68,19.37.77,22.73.12.07-.79.22-1.66.23-2.54.03-3.17.22-6.36-.05-9.51-.27-3.13,2.7-5.98,5.33-5.9,3.3.1,5.48,2.28,5.54,6,.06,3.37,0,6.75.02,10.12,0,.59.15,1.18.28,2.08,1.78.07,3.49.05,5.18.21,4.21.4,6.54,4.94,4.14,8.35-.74,1.05-2.17,1.8-3.43,2.25-1.1.39-2.42.2-3.65.2-21.27,0-42.54,0-63.81,0-.82,0-1.64,0-2.45,0-1.42,0-2.02.76-2.03,2.11,0,.82-.02,1.64-.02,2.45,0,11.04,0,22.09,0,33.13,0,.61.02,1.23,0,1.84-.16,3.5-1.99,5.67-5.45,5.81-4.69.2-9.41.16-14.11,0-2.35-.08-4.51-1.1-5.18-3.6-.57-2.11-.59-4.39,1.44-5.87.92-.67,2.18-1.11,3.32-1.22,2.03-.19,4.09-.03,6.13-.07,2.71-.04,2.99-.27,3-3,.04-7.77.01-15.54.01-23.32,0-1.53,0-3.07-.03-4.6-.04-3.58-.12-3.66-3.58-3.68-3.27-.01-6.55.06-9.82-.04-1.19-.03-2.47-.24-3.54-.73-1.77-.82-2.96-3.34-2.71-5.12.32-2.32,2.27-4.46,4.54-4.84,1-.16,2.04-.11,3.06-.11,13.19,0,26.38,0,39.58-.01,1.29,0,2.58-.16,4.04-.26Z"/>
  <path class="cls-1" d="m806.74,454.5c-.1-1.06-.21-1.75-.21-2.45-.01-14.53-.02-29.05,0-43.58,0-3.9,1.56-6.27,4.72-7.43,4.06-1.49,8.68,1.36,8.96,5.68.19,2.95.07,5.93.07,8.9,0,7.37-.01,14.73,0,22.1,0,3.31.13,3.42,3.48,3.44,4.18.02,8.37,0,12.9,0,.12-1.38.3-2.55.3-3.73.02-9.72,0-19.44.02-29.15.01-3.78,1.46-5.94,4.64-7.15,3.86-1.46,8.16.81,9.01,4.85.25,1.18.21,2.44.21,3.66,0,9.21,0,18.41-.01,27.62,0,.72.01,1.43.05,2.15.06,1.09.66,1.71,1.75,1.72,4.68.02,9.37,0,14.36,0,.14-1.45.34-2.62.34-3.8.02-9.72.02-19.44,0-29.15,0-3.16,1.31-5.31,4.17-6.88,3.67-2.02,9.23.69,9.82,5.6.05.4.05.82.05,1.23,0,10.95.05,21.89-.02,32.84-.04,6.22-3.79,11.27-9.68,13.11-1.34.42-2.81.57-4.22.57-19.23.04-38.46.03-57.7.02-.9,0-1.81-.09-3.02-.16Z"/>
  <path class="cls-1" d="m1023.75,400.62c.1,1.34.24,2.33.24,3.32.01,26.27.03,52.54-.03,78.82,0,1.48-.37,3.06-.98,4.41-1.33,2.96-4.21,4.26-7.63,3.73-2.68-.41-5.07-2.95-5.45-5.89-.12-.91-.07-1.84-.07-2.76,0-7.97,0-15.95,0-23.92,0-1.01,0-2.02,0-3.42-1.35-.09-2.52-.23-3.69-.23-13.19-.02-26.37,0-39.56,0h-3.68c-.18-.79-.38-1.27-.38-1.74-.01-15.13-.03-30.26,0-45.39,0-3.37,2-5.78,5.24-6.66,2.76-.75,6.05.34,7.36,3,.86,1.75,1.2,3.91,1.23,5.89.12,8.89.05,17.79.05,26.68q0,4.7,4.68,4.7c8.48,0,16.97,0,25.45,0,3.21,0,3.28-.06,3.29-3.26.02-11.04,0-22.08,0-33.12,0-.92-.11-1.88.13-2.74.16-.55.86-1.34,1.33-1.35,4.06-.11,8.13-.06,12.45-.06Z"/>
  <path class="cls-1" d="m941.85,414.78c-1.26-.08-2.25-.19-3.24-.19-11.15-.01-22.29,0-33.44,0-.41,0-.82-.02-1.23.01-2,.14-2.28.41-2.4,2.35-.03.41,0,.82,0,1.23,0,6.24,0,12.47,0,18.71,0,3.8.1,3.88,4.01,3.88,6.75,0,13.5-.02,20.25.01,1.42,0,2.84.28,4.26.35,3.15.14,5.81,4.07,5.64,7.01-.19,3.4-3.12,6.46-6.6,6.49-9.61.09-19.23.22-28.83-.05-6.95-.19-12.33-6.22-12.36-13.18-.03-8.79.26-17.6-.09-26.38-.27-6.66,4.91-14.29,14.24-14.46.31,0,.61,0,.92,0,16.46,0,32.92,0,49.39,0,3.34,0,3.53.16,3.53,3.41.02,14.32.02,28.63,0,42.95-.01,4.84-2.84,7.87-7.11,7.76-3.4-.09-6.25-2.62-6.69-6-.12-.91-.08-1.84-.08-2.76,0-9.2,0-18.41,0-27.61,0-1.09-.09-2.19-.15-3.51Z"/>
  <path class="cls-1" d="m698.11,414.79c-1.38-.09-2.37-.2-3.36-.21-11.15-.01-22.3,0-33.45,0-.51,0-1.02.02-1.53.02-1.35,0-2.12.6-2.1,2.03.01.61,0,1.23,0,1.84,0,6.04,0,12.07,0,18.11q0,4.18,4.33,4.18c6.55,0,13.09-.03,19.64.02,1.52.01,3.07.14,4.56.43,3.43.68,5.51,3.6,5.27,7.19-.23,3.46-2.85,6.12-6.38,6.24-3.47.12-6.96.03-10.43.03-5.73,0-11.46.04-17.19-.01-7.73-.07-13.6-5.82-13.68-13.56-.09-8.69.08-17.39-.06-26.09-.11-7.15,4.69-14.17,14.24-14.44,5.52-.15,11.05-.03,16.57-.03,11.05,0,22.1,0,33.14,0,.82,0,1.64-.01,2.45.03,1.08.05,1.7.64,1.77,1.72.05.82.06,1.63.06,2.45,0,13.61.01,27.21,0,40.82,0,1.22-.23,2.43-.33,3.65-.25,3.16-3.86,5.9-7.7,5.43-3.16-.39-5.9-3.72-5.86-6.83.12-9.82.04-19.64.04-29.46,0-1.1,0-2.19,0-3.55Z"/>
  <path class="cls-1" d="m800.12,541.03c-8.49,0-16.98.03-25.47,0-8.06-.03-13.8-5.47-13.93-13.57-.17-11.05-.09-22.1-.02-33.14.03-4.33,1.79-6.48,5.53-7.32,4.1-.92,7.89,1.9,8.15,6.09.05.82.02,1.64.02,2.45,0,9.51,0,19.03,0,28.54,0,3.19.06,3.26,3.28,3.27,11.66.02,23.32.02,34.99,0,2.94,0,3.14-.22,3.15-3.14.02-9.62,0-19.23.02-28.85,0-1.21.07-2.47.39-3.63.86-3.11,3.46-5.01,6.58-4.98,2.81.02,5.22,1.78,6.14,4.69.36,1.15.53,2.4.54,3.6.04,14.22.03,28.44.02,42.66,0,3.13-.18,3.32-3.28,3.33-8.7.03-17.39,0-26.09.01Z"/>
  <path class="cls-1" d="m536.08,500.57c0,4.35,0,8.12,0,11.9,0,3.99-.02,7.98,0,11.97.02,3.18.13,3.3,3.29,3.3,12.38.01,24.75,0,37.13.01,1.32,0,2.64.21,3.97.27,3.27.16,5.86,2.99,5.88,6.71.02,3.55-3,6.4-6.76,6.65-.2.01-.41,0-.61,0-14.42,0-28.84.11-43.26-.06-5.7-.07-10-2.99-12.15-8.32-.89-2.2-1.07-4.79-1.11-7.21-.13-7.87-.11-15.75,0-23.63.04-3.37.31-6.74,2.5-9.61,2.72-3.56,6.2-5.53,10.74-5.52,5.63.01,11.25,0,16.88,0,8.8,0,17.59,0,26.39,0,1.89,0,3.64.24,5.1,1.62,2.16,2.04,2.74,4.46,1.86,7.25-.8,2.52-2.94,4.16-5.71,4.37-.92.07-1.84.03-2.76.03-12.48,0-24.96,0-37.43,0-1.19,0-2.38.15-3.91.25Z"/>
  <path class="cls-1" d="m700.18,500.6c-.1,1.07-.24,1.86-.25,2.66-.02,7.06-.03,14.12,0,21.18,0,3.06.24,3.3,3.36,3.3,12.48.02,24.96,0,37.44.02,1.32,0,2.66.11,3.95.38,3.62.75,5.49,3.31,5.32,7.07-.14,3.09-2.54,5.62-5.85,6.11-.7.1-1.43.07-2.14.07-13.81,0-27.62.03-41.43-.01-5.22-.02-9.75-1.76-12.31-6.58-1.11-2.09-1.87-4.62-1.92-6.97-.22-9.2-.19-18.41-.06-27.62.11-8.21,6.75-13.22,12.99-13.18,14.63.09,29.26,0,43.89.05,4.27.02,6.68,2.62,6.9,6.56.19,3.36-3.41,6.81-7.18,6.75-12.89-.2-25.78-.09-38.67-.07-1.29,0-2.59.17-4.02.27Z"/>
  <path class="cls-1" d="m699.31,614.33c7.94-.02,15.34.12,22.89-.11.12-1.13.15-1.93.29-2.71.47-2.73,2.91-4.73,5.61-4.62,2.86.11,4.98,2.08,5.17,5.04.14,2.24.13,4.5.03,6.75-.14,3.19-2.03,5.06-5.21,5.3-.92.07-1.84.04-2.76.04-7.47,0-14.93,0-22.4,0-1,0-2.01,0-3.14,0-.72,2.73-.68,5.19-.07,7.8.92.07,1.71.19,2.51.19,12.68.01,25.36,0,38.04,0,.31,0,.61.01.92,0,2.24-.11,2.47-.31,2.55-2.49.06-1.53-.02-3.07.03-4.6.1-3.32,2.17-5.62,5.12-5.73,2.87-.11,5.53,2.17,5.67,5.33.2,4.29.17,8.59.02,12.88-.11,2.96-2.29,5.01-5.32,5.43-.5.07-1.02.05-1.53.05-17.49,0-34.97,0-52.46,0-2.11,0-4.19-.31-5.45-2.18-.7-1.04-1.29-2.4-1.3-3.63-.1-9.92-.08-19.84-.03-29.76.01-2.59,1.73-4.84,3.8-5.34,2.74-.65,5.09.18,6.31,2.5.49.94.64,2.13.69,3.22.11,2.02.03,4.05.03,6.66Z"/>
  <path class="cls-1" d="m883.95,487.26c1.66,0,2.87,0,4.09,0,8.49,0,16.98.02,25.47,0,2.52,0,4.35,1.17,5.44,3.32,1.19,2.35,1.13,4.8-.49,6.96-1.6,2.13-3.92,2.79-6.5,2.79-7.98-.02-15.96-.01-23.93,0q-4.22,0-4.22,4.16c0,9.92-.03,19.84.03,29.76.01,2.41-.62,4.5-2.58,5.93-2,1.46-4.22,2.02-6.62.8-2.5-1.27-3.87-3.18-3.86-6.08.03-11.56.01-23.12.01-34.67,0-8.8.04-17.59-.02-26.39-.02-2.64,1.05-4.57,3.24-5.84,4.31-2.51,9.54.36,9.77,5.4.15,3.47.03,6.95.04,10.43,0,.99.08,1.99.15,3.45Z"/>
  <path class="cls-1" d="m521.78,414.58c0,1.62,0,2.72,0,3.82,0,9.82.03,19.64,0,29.45-.01,4.01-2.82,6.79-6.71,6.8-3.73,0-6.67-2.72-6.75-6.47-.09-4.5-.02-9-.02-13.5,0-6.75.25-13.51-.08-20.25-.3-6.21,4.65-13.69,13.4-13.84,11.25-.19,22.5-.09,33.75-.03,3.66.02,6.25,2.05,7.12,5.21.71,2.58-.42,5.73-2.72,7.3-1.75,1.19-3.74,1.51-5.84,1.5-9.41-.03-18.82-.01-28.23-.01-1.1,0-2.21,0-3.92,0Z"/>
  <path class="cls-1" d="m637.69,501.17v3.82c0,9.91.03,19.82-.02,29.73-.02,4.15-3.29,7.01-7.42,6.67-3.53-.3-6.01-3.01-6.03-6.82-.05-7.56-.02-15.12-.02-22.68,0-3.78.15-7.57-.04-11.34-.32-6.46,5.8-13.03,12.78-13.05,11.54-.03,23.09-.06,34.63.02,5.71.04,8.76,5.49,5.92,10.36-.86,1.47-2.07,2.56-3.78,2.87-1.3.24-2.62.41-3.94.41-9.5.03-19,.02-28.5.01-1,0-2,0-3.59,0Z"/>
  <path class="cls-1" d="m599.25,487.48h12.89c.09.98.22,1.77.22,2.56.08,14.01.14,28.03.21,42.04,0,.82.03,1.64-.01,2.45-.21,3.74-2.81,6.35-6.44,6.49-3.42.14-6.25-2.19-6.87-5.72-.14-.8-.18-1.63-.18-2.44-.01-14.32,0-28.64,0-42.97,0-.7.1-1.4.18-2.42Z"/>
  <path class="cls-1" d="m843,487.47h13.06c.06,1.18.17,2.17.17,3.16,0,13.89,0,27.78,0,41.68,0,.71.01,1.43-.05,2.14-.34,4.18-3.11,6.79-6.95,6.58-3.79-.21-6.21-2.83-6.22-6.91-.03-11.85-.01-23.7-.01-35.55,0-3.56,0-7.13,0-11.1Z"/>
  <path class="cls-1" d="m599.23,479.39c0-2.59-.31-4.84.07-6.96.57-3.17,3.98-5.4,7.06-5.05,3.38.38,5.79,2.86,6,6.24.08,1.32.03,2.64.01,3.97-.01,1.06-.46,1.79-1.61,1.8-3.73.02-7.47,0-11.53,0Z"/>
  <path class="cls-1" d="m849.25,479.41c-1.42,0-2.86.12-4.27-.05-.68-.08-1.77-.6-1.86-1.08-.6-3.02-.9-6.1,1.37-8.66,1.97-2.22,4.44-2.7,7.22-1.83,2.41.75,4.22,2.98,4.28,5.72.16,6.54.47,5.87-5.22,5.9-.51,0-1.02,0-1.53,0h0Z"/>
  <path class="cls-1" d="m791.67,621.36c-.01,3.05-2.39,5.42-5.45,5.42-3.05,0-5.44-2.4-5.42-5.44.01-3.02,2.45-5.45,5.45-5.43,3.03.02,5.43,2.43,5.42,5.46Z"/>
  <path class="cls-1" d="m786.12,610.71c-3.2-.04-5.45-2.34-5.32-5.4.13-2.93,2.78-5.51,5.57-5.4,2.92.11,5.37,2.74,5.28,5.67-.11,3.25-2.19,5.18-5.54,5.13Z"/>
  <path class="cls-1" d="m786.23,595c-3.02,0-5.39-2.38-5.4-5.44-.01-2.92,2.51-5.42,5.44-5.41,3.01.02,5.34,2.38,5.39,5.45.05,2.94-2.44,5.41-5.43,5.4Z"/>
  <path class="cls-1" d="m905.09,581.23c-1.42,0-2.86.14-4.25-.07-.59-.09-1.38-.84-1.54-1.43-.24-.89.47-1.54,1.41-1.56,3.04-.04,6.08-.03,9.13-.01.94,0,1.53.49,1.57,1.48.05,1.21-.74,1.57-1.76,1.59-1.52.03-3.04,0-4.56,0Z"/>
  <path class="cls-1" d="m882.27,628.46c2.83.13,3.12.31,2.69,2.39-.57,2.75-1.38,5.44-2.19,8.6-1.37-.67-2.3-1.13-3.28-1.6.98-3.3,1.89-6.36,2.78-9.39Z"/>
  <path class="cls-1" d="m188.88,326.38C84.36,325.54.34,409.57,0,512.48c-.34,105.19,82.79,185.6,181.46,188.22,55.13,1.46,102.52-17.95,140.86-57.81,34.61-35.98,51.18-79.53,51.8-115.81.28-117.15-83.8-199.88-185.24-200.69Zm148.48,269.27c-.04,20.73-14.46,39.66-34.4,45.41-5.04,1.45-10.16,2.21-15.42,2.21-70.39-.02-140.77-.02-211.16,0-6.5,0-12.3-1.8-17.28-5.98-6.63-5.56-10.43-15.37-7.59-24.95,2.71-9.13,8.73-14.79,17.85-17.18,1.85-.49,3.84-.61,5.76-.63,6.34-.08,12.69-.03,19.03-.03,1.09,0,2.19,0,3.53,0v-165.94c-1.23-.06-2.32-.16-3.41-.16-6.75-.01-13.5.02-20.26-.01-12.4-.06-22.82-10.27-23.42-22.63-.54-11.15,6.5-21.28,17.08-24.52,3.17-.97,6.65-1.28,9.99-1.31,14.12-.14,28.24-.15,42.35,0,5,.05,10.01.59,14.49,3.26,7.8,4.67,12.07,11.42,12.07,20.63,0,62.2,0,124.4,0,186.61v3.55c2.46.65,138.33.79,141.56.21.69-2.46.69-91.11-.09-94-1.2-.04-2.49-.13-3.79-.13-29.36,0-58.72,0-88.09-.02-3.47,0-6.9-.17-10.25-1.42-7.74-2.89-13.05-8.25-15.23-16.06-4.2-15.09,5.42-28.3,18.64-30.62,2.6-.46,5.27-.74,7.9-.75,30.28-.05,60.57-.09,90.85-.02,21.94.05,39.04,12.59,46.4,31.93,1.85,4.87,2.9,9.98,2.89,15.28-.04,32.43.02,64.86-.03,97.29Z"/>
  <path class="cls-1" d="m641.32,592.33c0-3.52-2.18-5.64-5.76-5.74-2.56-.07-5.11-.02-7.67-.02-6.14,0-12.28-.04-18.41.01-3.4.03-5.56,2.03-5.74,5.13-.19,3.29,1.88,5.59,5.42,5.66,5.83.11,11.66.04,17.49.04,1.1,0,2.2,0,3.61,0,.35,4.07.17,7.78.16,11.64-1.13.1-1.92.24-2.71.24-26.39.01-52.78.01-79.18,0-.97,0-1.95-.19-3.14-.32,0-3.46-.02-6.62.01-9.77.01-1.08.62-1.7,1.73-1.75.82-.03,1.64-.03,2.45-.03,11.97,0,23.94,0,35.91,0,.72,0,1.43.02,2.15,0,3.74-.13,5.56-1.97,5.63-5.77.04-2.15,0-4.3,0-6.44,0-1.82,0-3.64,0-6.09,1.7,0,2.9,0,4.1,0,11.66,0,23.32,0,34.98,0,1.23,0,2.46.04,3.68-.02,3.02-.15,5.26-2.41,5.27-5.25.01-2.97-2.04-5.28-5.01-5.57-.81-.08-1.64-.04-2.45-.04-30.69,0-61.38,0-92.06,0-.82,0-1.66-.08-2.45.06-2.28.41-3.94,1.61-4.56,3.97-.59,2.21.11,4,1.69,5.55,1.3,1.28,2.91,1.3,4.57,1.3,12.48-.02,24.96-.01,37.44,0,1.19,0,2.38.14,3.93.23,0,1.87-.04,3.48.01,5.08.05,1.61-.76,2.2-2.26,2.15-.72-.03-1.43,0-2.15,0-12.17,0-24.35.14-36.52-.07-5.11-.09-7.1,3.07-7.06,7.14.11,14.12.03,28.23.05,42.35,0,4.68,2.08,6.77,6.69,6.88.41,0,.82,0,1.23,0,30.38,0,60.76,0,91.14,0,.82,0,1.64.04,2.45-.07,3.39-.44,5.32-2.54,5.33-5.98.03-14.83.03-29.67,0-44.5Zm-10.86,36.83c0,.8-.15,1.6-.27,2.86-1.36,0-2.36,0-3.37,0-25.88,0-51.76,0-77.64,0-.61,0-1.23,0-1.84-.01-1.22-.03-1.93-.64-1.94-1.88-.02-3.15,0-6.3,0-9.35,2.75-.82,82.11-.87,85.07-.07,0,2.76.02,5.6-.01,8.45Z"/>
  <path class="cls-1" d="m637.05,413.91c-.03-1.97-.52-4.1-1.39-5.87-2.44-4.95-6.77-7.24-12.15-7.46-4.08-.16-8.18-.04-12.27-.04-9.2,0-18.41-.05-27.61.01-8.59.06-14.46,5.98-14.49,14.5-.03,8.49-.04,16.98,0,25.46.05,8.34,5.8,14.09,14.07,14.14,6.54.03,13.09,0,19.64,0,7.06,0,14.11.07,21.17-.02,6.28-.08,13.09-5.09,13.09-13.12,0-9.2.08-18.41-.07-27.61Zm-14.34,27.04h-38.93c-.76-2.33-.95-22.02-.22-26.16h39.12c.76,2.52.79,23.33.03,26.16Z"/>
  <path class="cls-1" d="m850.12,615.58c2.24-.1,4.5.05,6.74-.09,2.58-.15,4.07-1.66,4.22-3.98.18-2.74-1.22-4.57-3.99-4.78-2.54-.19-5.11-.05-7.66-.11-.96-.02-2.36.24-2.35-1.22,0-1.48,1.43-1.17,2.38-1.19,2.45-.06,4.91.06,7.36-.05,2.9-.13,4.47-1.99,4.27-4.83-.16-2.26-1.68-3.74-4.3-3.89-2.24-.13-4.5.02-6.74-.07-1.1-.05-2.93.52-2.86-1.26.07-1.72,1.89-1.08,3-1.13,2.24-.11,4.5.06,6.74-.09,2.71-.18,4.04-1.56,4.17-3.97.15-2.8-1.46-4.62-4.37-4.74-2.35-.1-4.7-.05-7.05-.02-1.4.01-2.59-.1-3.1-1.79-.89-2.94-6.58-3.25-7.77-.29-.8,1.99-2.12,2.1-3.87,2.09-10.73-.05-21.46-.03-32.19-.02-.82,0-1.64-.05-2.45.05-2.39.31-3.81,2-3.78,4.4.02,2.02,1.01,3.35,3.03,4.12q2.39.91,2.42,3.38c0,.41,0,.82,0,1.23,0,7.97-.03,15.94.03,23.91,0,1.18.23,2.47.76,3.5.96,1.89,2.87,2.04,4.78,2.04,7.97-.02,15.94,0,23.91,0,.82,0,1.64,0,2.45,0,7.05,0,14.1.01,21.16,0,4.35,0,6.01-1.22,6.04-4.34.03-3.12-1.72-4.44-5.91-4.45-1.74,0-3.48.07-5.21-.02-1.1-.06-2.93.51-2.86-1.27.07-1.73,1.9-1.07,3-1.12Zm-38.18-22.32c.55-.22,1.18-.29,1.78-.3,7.36-.02,14.72-.01,22.07,0,.51,0,1.05-.02,1.51.17.31.13.69.61.66.89-.04.43-.33,1.07-.67,1.19-.65.23-1.4.19-2.11.19-3.47.01-6.95,0-10.42,0-3.47,0-6.95.02-10.42-.01-.81,0-1.63-.09-2.4-.29-.27-.07-.59-.6-.59-.92,0-.32.31-.81.6-.92Zm.75,11.02c.42-.2,1-.08,1.51-.08,7.04,0,14.08-.02,21.11.02,1.01,0,2.65-.51,2.67,1.14.01,1.92-1.77,1.22-2.83,1.24-.87.02-1.73.03-2.6.04-2.6.02-5.2,0-7.8,0-3.47,0-6.94,0-10.4,0-.51,0-1.08.12-1.52-.06-.58-.24-1.06-.72-1.59-1.09.48-.41.9-.94,1.46-1.21Zm24.4,13.58c-.67.19-1.41.13-2.12.13-3.47,0-6.94,0-10.41,0-3.27,0-6.53,0-9.8,0-.61,0-1.23.01-1.84-.03-.84-.06-1.83-.19-1.62-1.29.08-.45.96-.84,1.55-1.07.45-.17,1.01-.05,1.52-.05,6.94,0,13.88,0,20.82,0,.61,0,1.29-.13,1.81.09.45.19.88.76.99,1.24.06.26-.51.87-.9.97Z"/>
  <path class="cls-1" d="m914.95,634.31c-2.14,4.27-2.98,4.49-6.03,1.88,1.46-1.54,2.92-3.08,4.41-4.64-.31-.73-.63-1.5-.96-2.3,3.85-1.2,3.91-1.31,2.32-3.81q-4,.45-4.66-1.82c.84,0,1.71.21,2.42-.05,1.3-.46,2.78-.93,3.68-1.88,1.96-2.07,1.52-3.18-1.31-4.34-2.11,2.94-2.01,3.34-5.08,1.91,1.27-1.11,2.45-2.13,3.59-3.12-.45-.82-.82-1.48-1.28-2.32,1.01-.3,1.86-.41,2.51-.81.41-.25.73-.96.75-1.47.02-.37-.52-1.11-.81-1.11-2.48,0-3.79-2.23-5.89-2.98-1.98-.71-2.08-.79-3.54,1.27.65.65,1.31,1.3,2.18,2.18-.85.27-1.22.44-1.6.5-2.43.38-2.95-.14-2.65-2.57.07-.56.14-1.11.24-1.84h-3.28c-1.26,1.85,1.32,4.76-2.04,5.61-2.11.54-4.2.79-6.21-.62-.67.73-1.21,1.31-1.75,1.91-.34.38-.59,1.02-.99,1.12-.69.17-1.57.22-2.15-.09-.31-.17-.44-1.39-.16-1.8,1.06-1.56,2.32-2.98,3.74-4.76-1.37-.63-2.32-1.07-3.25-1.51-.5.53-.8.8-1.04,1.12-1.45,1.92-2.46,4.27-5.24,4.83-.42.08-.66,1.06-1.01,1.66,2.17,1.41,4.12,2.66,6.08,3.93-.77,3.12-2.81,4.29-5.85,4.52.24,1.22.43,2.23.64,3.3,1.96-.35,3.54-.63,5.25-.93.19.72.41,1.19.42,1.67.06,2.14.07,4.29.07,6.44,0,2.04-.04,4.09-.02,6.13.01,1.04.44,1.79,1.66,1.71,1.1-.07,1.67-.68,1.7-1.77.03-.82.01-1.64.01-2.45,0-3.47-.04-6.95.05-10.42.01-.59.47-1.34.95-1.68.29-.2,1.27.1,1.54.47,1.07,1.46,2.22,1.07,3.56.41.09-.79.18-1.56.27-2.41,1.52.19,2.8.37,2.85,2.21.06,1.72-.22,2.08-2.43,2.84-.67.23-1.32.53-1.75.7-1.19-.47-1.96-.78-2.72-1.08-.3.8-.83,1.59-.83,2.39-.01,1.21.21,2.46.58,3.61.17.51.96,1.14,1.46,1.13.56-.02,1.29-.58,1.6-1.11.33-.55.25-1.34.34-1.96,4.41-1.31,5.57-.49,6.1,4.35-1.76.71-3.58,1.44-5.43,2.18.95,2.21,2.41,2.47,4.16,1.9.87-.28,1.73-.64,2.55-1.04,1.51-.73,2.85-.55,4.34.24,1.42.75,3.01,1.25,4.58,1.62,2.09.5,3.84-.39,4.85-2.3.42-.79.67-1.68,1.08-2.73-.9-.7-1.72-1.34-2.6-2.02Zm-8.64-19.86c.87-.27,1.85-.18,2.79-.25.09.24.18.47.27.71-.75.57-1.45,1.23-2.26,1.69-.85.49-1.71.17-1.86-.77-.07-.41.59-1.23,1.08-1.38Zm-10.81,7.18c-1.24-1.49-2.33-3.2-4.56-2.68-.02.03-.05.07-.07.1,0,0,0,0,0,.01-.02.02-.04.04-.06.05.03.75.12,1.51-.01,2.22-.04.22-.84.29-1.29.43-.07-.44-.36-1.02-.18-1.28.38-.54.97-.92,1.48-1.37,0-.05,0-.09,0-.14.04-.01.09-.02.13-.03,1.01-1.44,2.01-2.88,2.66-3.81,2.64.24,4.68.42,7.22.64.38.57,1.03,1.55,1.74,2.62-1.99,2.24-4.75,2.06-7.05,3.23Zm4.66,1.79c2.2-1.03,3.94-1.92,5.92-1.99.13.23.26.46.4.69-.89.47-1.77.93-2.74,1.44.99,1.25,1.51,1.92,2.37,3.01-1.27.3-2.16.51-3.33.78.16-1.03.27-1.67.37-2.33-.91-.49-1.75-.94-3-1.61Zm4.97,10.31c-.47-.84-.96-1.73-1.75-3.15,2.31-.37,4.07-.65,5.83-.93.09.28.19.56.28.84-1.05,1.4-2.09,2.83-4.36,3.24Z"/>
  <path class="cls-1" d="m918.11,596.5c-.08-.57-.64-1.34-1.17-1.54-1.33-.53-2.31-.12-2.74,1.46-.31,1.16-1.44,1.52-2.47,1.29-.52-.12-1.24-.92-1.27-1.44-.14-2.81-.28-5.64.11-8.76,1.83,0,3.35.02,4.86,0,.84-.02,1.74-.14,1.75-1.25.01-1.12-.72-1.63-1.77-1.71-.71-.05-1.43-.03-2.15-.03-5.32,0-10.63-.03-15.95.02-1.48.01-2.96.27-4.45.42-.75-1.4-1.59-2.81-2.25-4.29-.31-.68-.57-1.63-.33-2.27.71-1.96,1.67-3.84,2.54-5.75.3.05.6.09.9.14v7.09h3.5c.19-1.85.36-3.53.55-5.45,5.1-.18,10.03-.32,15.05.09.18,1.97.34,3.65.49,5.26,3.28.36,3.45.24,3.53-2.37.04-1.33-.01-2.66,0-3.99.02-1.56-.76-2.21-2.27-2.17-1.33.04-2.66.02-3.99,0-3.35-.04-3.45-.15-3.06-3.46.02-.15-.2-.32-.34-.54h-3.73q-.67,3.99-4.67,4c-1.02,0-2.05.05-3.07-.02-.58-.04-1.44-.1-1.68-.47-1.66-2.6-4.13-2.57-6.74-2.33-.91.09-1.84,0-2.76.01-3.35.02-3.51.14-3.52,3.41-.02,8.79,0,17.58,0,26.38,0,.51,0,1.03.05,1.53.15,1.27.98,1.71,2.15,1.65,1.09-.06,1.72-.65,1.73-1.74.03-1.94-.04-3.89.02-5.83.02-.64.28-1.26.47-2.06,2.51,2.46,4.1,2.48,5.93.17.55-.69.86-1.59,1.19-2.43.25-.63.37-1.31.52-1.82h6.37c.58,6.45-4.03,8.66-8.67,10.78.89,1.56,1.74,2.79,3.26,2.24,3.5-1.27,6.84-2.91,8.2-6.77.54-1.52.81-3.14,1.08-4.73.15-.9.35-1.61,1.41-1.62,1.15,0,1.65.63,1.62,1.75-.02.61,0,1.23,0,1.84,0,2.15-.06,4.3.03,6.44.1,2.38.81,3.18,3.09,3.33,1.73.12,3.49.12,5.2-.08,2.11-.25,3.68-2.31,3.41-4.37Zm-32.31-6.36c-.94-1.82-1.25-12.99-.43-18.07h3.47c-.76,1.98-1.39,3.67-2.05,5.35-.58,1.5-.67,2.87.32,4.34.78,1.16,1.34,2.54,1.7,3.9.7,2.61-.15,3.75-3.02,4.48Z"/>
</svg>