<?xml version="1.0" encoding="UTF-8"?>
<svg id="Layer_1" data-name="Layer 1" xmlns="http://www.w3.org/2000/svg" viewBox="0 0 1024 1024">
  <defs>
    <style>
      .cls-1 {
        fill: #a7a7a7;
      }
    </style>
  </defs>
  <path class="cls-1" d="m.41,532.5c.61,1.54,1.21,3.09,1.83,4.63,3.18,7.95,11.04,13.28,19.64,13.28,28.05,0,56.1,0,84.15,0,11.24,0,19.8,7.17,21.76,18.21.13.71.16,1.45.16,2.17.02,19.6.03,39.19.04,58.79,0,.41-.07.82-.08.89-1.22-2.41-2.22-5.23-3.9-7.57-4.11-5.74-9.79-8.88-16.98-8.88-27.82,0-55.65,0-83.47-.01-5.51,0-10.65-1.25-14.98-4.88-4.1-3.43-6.71-7.72-7.53-13.05-.08-.5-.41-.96-.62-1.44,0-20.72,0-41.43,0-62.15Z"/>
  <path class="cls-1" d="m.41,447.51c.54,1.39,1.09,2.77,1.63,4.16,3.21,8.32,11.12,13.83,20.17,13.84,28.27.03,56.53.03,84.8-.01,9.69-.02,18.54,7.08,20.41,16.63.32,1.63.51,3.32.51,4.98.05,19.14.05,38.29.05,57.43,0,.33-.03.66-.28,1.07-.12-.3-.27-.58-.35-.89-2.39-8.74-10.18-15.14-19.22-15.76-1.67-.11-3.35-.18-5.02-.18-27.37-.01-54.74,0-82.11,0-8.43,0-16.88-6.38-19.19-14.49-.47-1.65-.92-3.31-1.38-4.97,0-20.6,0-41.21,0-61.81Z"/>
  <path class="cls-1" d="m1023.59,513.01c-.78.02-1.57.06-2.35.06-232.5,0-465,0-697.49,0-.34,0-.67,0-1.01,0-3.25,0-3.71-.55-3.08-3.83.07-.36.53-.8.91-.92.51-.16,1.11-.07,1.67-.07,233.17,0,466.34,0,699.51,0,.61,0,1.23.04,1.84.06v4.7Z"/>
  <path class="cls-1" d="m1023.59,552.32c-2.15-.13-3.31,1.19-4.04,2.93-2.27,5.4-4.47,10.83-6.7,16.25-2.7,6.55-5.31,13.14-8.12,19.64-1.67,3.85-4.49,6.64-8.64,7.86-2.58.76-5.2-.2-6.26-2.26-1.16-2.27.16-4.8,2.68-4.83,1.41-.02,2.89.29,4.23.77,1.86.67,3.38.15,4.2-1.36,1.54-2.83,2.8-5.82,4.04-8.79.2-.49-.16-1.3-.44-1.89-3.53-7.47-7.03-14.94-10.67-22.35-1.21-2.47-2.39-5.12-5.47-5.99-.24-.07-.52-.63-.46-.9.05-.28.48-.5.76-.72.07-.06.22-.02.33-.02,4.25,0,8.5-.03,12.75.03.42,0,.83.51,1.24.78-.37.27-.71.68-1.11.77-2.61.59-3.37,1.97-2.21,4.52,1.7,3.76,3.53,7.47,5.31,11.19.8,1.66,1.6,3.32,2.43,4.96.19.37.46.69.89,1.31,1.22-3.02,2.33-5.73,3.41-8.45,1.36-3.42,2.77-6.82,4.03-10.28.76-2.08.26-2.73-1.95-3.25-.39-.09-.7-.54-1.05-.82.42-.26.83-.73,1.25-.74,3.19-.06,6.38-.03,9.56-.03v1.68Z"/>
  <path class="cls-1" d="m265.85,407.02c.03.48.1.96.1,1.44-.01,18.86-.04,37.72-.05,56.58,0,8.5-3.85,14.77-11.16,18.93-3.11,1.77-6.54,2.49-10.14,2.49-27.98-.02-55.97-.01-83.95-.01-10.37,0-18.46,6.12-21.3,16.1-.03.09-.13.17-.36.45-.08-.56-.19-.95-.19-1.34,0-19.31.02-38.62.03-57.93,0-10.34,8.03-19.33,18.31-20.45,1.94-.21,3.9-.32,5.85-.32,27.26-.02,54.51-.02,81.77-.01,9.51,0,17.75-6.21,20.45-15.41.06-.2.19-.38.28-.57.12.02.25.03.37.05Z"/>
  <path class="cls-1" d="m265.8,576.58c.07.8.16,1.31.15,1.83-.01,18.87-.13,37.73,0,56.6.06,9.36-6.08,17.73-14.63,20.3-2.53.76-5.28,1.07-7.93,1.07-27.77.07-55.53.05-83.3.05-9.68,0-18.01,6.3-20.65,15.62-.05.19-.16.37-.44.98-.1-.84-.19-1.24-.19-1.64,0-19.2.11-38.41-.01-57.61-.06-9.86,7.83-19.34,18.06-20.51,1.66-.19,3.34-.32,5.01-.32,27.32-.02,54.64-.14,81.96.05,10.82.07,19.44-7.41,21.44-15.75.03-.14.19-.24.54-.65Z"/>
  <path class="cls-1" d="m138.83,587.45v-3.77c0-18.31.08-36.62-.03-54.92-.07-11.06,9.56-20.77,20.76-20.76,28.1.02,56.21,0,84.31,0,10.29,0,18.25-5.83,21.37-15.65.05-.15.16-.28.52-.86.09.95.19,1.48.19,2.02,0,18.92-.07,37.85-.03,56.77.03,11.52-9.26,20.97-20.8,20.97-27.77,0-55.54,0-83.31,0-7.36,0-13.84,2.23-18.43,8.24-1.86,2.43-3.08,5.34-4.55,7.95Z"/>
  <path class="cls-1" d="m85.59,443.83c-23.3.13-42.57-19.06-42.17-43.08.37-22.13,18.93-41.63,42.99-41.24,21.98.36,42.04,18.51,41.31,43.56-.65,22.28-18.85,40.78-42.14,40.75Z"/>
  <path class="cls-1" d="m667.31,443.43c-.15,1-.33,1.99-.45,2.99-.84,7.34-2.68,14.37-6.35,20.85-3.98,7-10.05,11.82-16.83,15.75-3.55,2.06-7.45,3.52-11.23,5.16-.46.2-1.17-.14-1.76-.23.32-.5.51-1.21.97-1.46,6.4-3.5,11.95-8.04,16.74-13.53,7.15-8.21,10.56-17.89,11.27-28.64.07-1.14-.55-1.18-1.33-1.18-2.69,0-5.37-.04-8.06,0-4.86.08-9.73.21-14.59.32-.34,0-.67.04-1,.08-2.69.38-3.04.17-4.23-2.68.69-.07,1.31-.19,1.93-.2,8.51-.01,17.02-.04,25.53.02,1.57.01,2.15-.37,2.14-2.04-.08-7.37-.03-14.74-.03-22.41,1,.15,2.29.29,3.56.54,1.87.36,3.73.75,5.57,1.24.58.16,1.05.69,1.57,1.05-.36.45-.63,1.1-1.11,1.33-1.36.65-1.75,1.63-1.79,3.09-.13,5.25-.37,10.5-.61,15.75-.05,1.01.29,1.44,1.32,1.43,5.82-.02,11.64.02,17.47-.05.59,0,1.34-.52,1.72-1.02.88-1.15,1.63-2.41,2.36-3.66.66-1.13,1.48-1.31,2.47-.51,2.39,1.93,4.78,3.87,7.12,5.86.32.27.62.95.49,1.25-.14.32-.8.56-1.23.57-3.25.05-6.49.03-9.74.03-5.37,0-10.75.04-16.12-.03-1.52-.02-1.92.42-1.68,1.96,1.86,11.89,7.98,21.11,17.66,28,3.85,2.74,8.07,4.96,12.09,7.46.46.29.77.83,1.15,1.25-.51.19-1.04.58-1.53.53-3.75-.36-7.12.41-9.92,3.06-.73.69-1.31.6-2.02-.04-9.79-8.65-16.67-19.06-19.35-31.99-.59-2.84-.85-5.74-1.26-8.62-.06-.42-.17-.83-.25-1.24-.21-.02-.42-.04-.63-.06Z"/>
  <path class="cls-1" d="m413.21,633.06c-3.08,0-6.16.09-9.23-.04-1.54-.06-1.88.5-1.85,1.92.07,4.81.02,9.63.03,14.44.01,3.74,1.28,5.13,5.01,5.57.39.05.81-.03,1.16.1.24.09.48.42.54.68.03.14-.28.48-.5.54-.37.1-.77.07-1.17.07-5.71,0-11.42,0-17.13,0-.34,0-.7.07-1-.04-.31-.12-.56-.41-.84-.63.27-.22.51-.57.81-.63,1.03-.22,2.11-.26,3.13-.53,1.54-.41,2.51-1.41,2.63-3.08.1-1.28.27-2.56.27-3.84.02-10.52.02-21.05,0-31.57,0-.72-.05-1.45-.14-2.17-.39-3.01-1.78-4.27-4.84-4.4-.34-.01-.71.08-1-.04-.35-.14-.62-.46-.93-.7.32-.24.62-.53.98-.69.23-.11.55-.03.83-.04,5.77,0,11.53,0,17.3,0,.22,0,.5-.08.66.02.37.22.69.53,1.03.81-.34.21-.65.48-1.02.61-.3.1-.67.02-1,.03-3.15.13-4.73,1.7-4.81,4.84-.05,1.9,0,3.81,0,5.71,0,2.97.03,5.93-.02,8.9-.02.99.26,1.4,1.31,1.39,6.55-.03,13.1-.03,19.65,0,.95,0,1.26-.34,1.25-1.28-.04-4.87.02-9.74-.04-14.61-.04-3.25-1.74-4.86-5.05-4.95-.34,0-.71.08-1-.04-.3-.12-.51-.44-.77-.68.26-.24.48-.57.78-.7.29-.12.66-.05,1-.05,5.71,0,11.42,0,17.13,0,.22,0,.49-.07.66.02.43.22.82.52,1.23.79-.39.22-.76.53-1.17.63-.97.22-2,.23-2.95.5-1.54.44-2.46,1.49-2.57,3.15-.07.95-.21,1.89-.21,2.84-.01,10.86,0,21.72,0,32.58,0,.34-.01.67,0,1.01.14,3.78,1.49,5.16,5.26,5.53.55.05,1.06.46,1.59.71-.57.21-1.14.59-1.71.6-5.82.04-11.64.04-17.46,0-.5,0-.99-.42-1.49-.64.49-.23.96-.61,1.47-.66,4-.43,5.27-1.79,5.29-5.84.02-4.81-.03-9.63.03-14.44.02-1.33-.4-1.73-1.74-1.69-3.13.1-6.27.03-9.4.03Z"/>
  <path class="cls-1" d="m569.37,632.97c-.1.33-.25.58-.25.83.05,5.48.01,10.96.22,16.44.12,3.23,1.23,4.13,4.52,4.68.72.12,1.4.52,2.1.79-.74.21-1.47.59-2.21.6-5.65.05-11.31.04-16.96,0-.5,0-1-.41-1.49-.63.48-.23.95-.63,1.46-.67,3.94-.35,5.28-1.68,5.29-5.62.03-11.69.02-23.39,0-35.08,0-3.15-1.56-4.71-4.71-4.87-.5-.03-1.02.04-1.5-.07-.24-.06-.57-.42-.57-.64,0-.24.31-.59.55-.68.35-.13.77-.08,1.16-.08,5.71,0,11.42,0,17.13,0,.39,0,.82-.06,1.16.07.3.12.5.47.75.72-.27.22-.52.56-.82.63-1.24.28-2.64.22-3.7.79-.9.49-1.98,1.67-2.01,2.58-.18,5.86-.09,11.72-.09,17.71.25-.12.62-.21.85-.44,5.07-4.89,10.14-9.78,15.17-14.72.67-.65,1.21-1.48,1.65-2.31,1.01-1.86.23-3.27-1.91-3.55-.39-.05-.82.05-1.16-.09-.3-.11-.5-.46-.75-.7.22-.22.41-.52.68-.63.29-.12.66-.08,1-.08,4.87,0,9.74,0,14.61,0,.22,0,.49-.06.66.03.3.17.54.43.81.66-.23.25-.43.7-.69.73-4.01.53-6.99,2.93-9.73,5.57-4.68,4.5-9.15,9.2-13.74,13.8-.63.63-.57,1.08.04,1.67,6.81,6.64,13.55,13.35,20.43,19.92,2.41,2.31,5.37,3.8,8.73,4.39.47.08.86.64,1.29.98-.46.21-.93.59-1.39.59-6.72.04-13.43.04-20.15,0-.46,0-.92-.39-1.37-.61.4-.3.76-.75,1.21-.88,2.88-.83,3.49-2.43,1.4-4.57-5.59-5.72-11.3-11.33-16.97-16.98-.14-.14-.38-.17-.68-.3Z"/>
  <path class="cls-1" d="m592.68,429.17c.38.22.79.4,1.12.67.36.3.97.81.9,1.01-.17.45-.66,1.05-1.08,1.09-5.38.6-9.53,4.25-14.52,5.8-1.05.33-2.04.83-3.12,1.28,1.6,1.05,25.43.83,29.04-.26-.28-.32-.47-.64-.75-.82-2.34-1.52-4.71-3-7.03-4.54-.32-.21-.44-.73-.66-1.1.42-.17.91-.58,1.26-.48,4.87,1.4,9.79,2.67,14.55,4.39,3.65,1.32,5.61,4.24,5.24,8.26-.1,1.03-.73,2.39-1.54,2.87-1.2.7-2.29-.27-3.05-1.36-.26-.37-.55-.7-.84-1.05-1.83-2.25-3.72-3.47-7.09-3.05-10.7,1.32-21.47,2.07-32.21,3.09-1.49.14-2.94.7-4.43.86-.63.06-1.57-.23-1.91-.7-.78-1.07-1.32-2.32-1.86-3.54-.35-.8-.11-1.49.87-1.58,5.87-.54,9.75-4.66,14.15-7.84,1.3-.94,2.47-2.04,3.88-3.22-.49-.18-.72-.35-.96-.35-6.83.03-13.65.07-20.48.12-.56,0-1.11.11-1.67.2q-3.11.52-4.55-2.8h33.01c-1.5-3.26-3.52-5.57-5.74-7.77-.41-.4-.57-1.05-.85-1.58.64-.18,1.34-.62,1.92-.5,2.83.61,5.72,1.12,8.42,2.13,3.4,1.28,3.9,3.47,1.92,6.47-.15.23-.28.47-.59.97.7.07,1.21.17,1.71.17,5.43.01,10.86.05,16.29-.04.81-.01,1.77-.54,2.38-1.12,1.09-1.03,1.94-2.31,2.92-3.46.65-.77,1.39-.87,2.17-.14,1.8,1.68,3.64,3.31,5.39,5.05.42.42.53,1.15.79,1.75-.6.18-1.2.52-1.8.52-9.74.03-19.48.02-29.22.02-.63,0-1.26.07-1.89.1-.02.16-.03.32-.05.49Z"/>
  <path class="cls-1" d="m479.58,571.51c-.81,2.42-1.62,4.85-2.44,7.27-.29.84-.76,1.65-.91,2.51-.31,1.88-1.33,2.32-3.16,2.31-10.92-.09-21.83-.04-32.75-.04-.17,0-.36.05-.5,0-.56-.23-1.1-.49-1.65-.73.51-.27,1-.75,1.53-.79,4.07-.33,5.32-1.64,5.33-5.73,0-11.31,0-22.62,0-33.93,0-.45,0-.9-.04-1.34-.32-3.19-1.49-4.27-4.69-4.52-.73-.06-1.42-.48-2.13-.73.74-.27,1.48-.76,2.23-.77,11.03-.05,22.06,0,33.09-.07,1.49,0,2.07.33,2.07,1.93,0,2.51.32,5.02.42,7.53.02.42-.4.85-.62,1.28-.38-.33-1.05-.62-1.11-1-1.01-6.31-4.31-6.9-9.61-6.82-3.64.06-7.28.05-10.92-.01-1.31-.02-1.76.43-1.75,1.75.06,5.15.05,10.3,0,15.45-.01,1.26.47,1.66,1.68,1.65,3.36-.05,6.72,0,10.08-.02,3.84-.03,5.59-1.59,6.23-5.38.09-.54.55-1.02.84-1.53.22.57.64,1.13.64,1.7.05,4.53.05,9.07,0,13.6,0,.56-.45,1.1-.69,1.66-.3-.52-.77-1.01-.88-1.57-.91-4.41-2.21-5.53-6.72-5.57-3.13-.03-6.27.05-9.4-.03-1.42-.04-1.81.49-1.79,1.86.07,4.98.02,9.97.03,14.95,0,3.52.75,4.29,4.2,4.29,3.69,0,7.39-.07,11.08-.11,3.01-.04,5.41-1.32,7.18-3.7,1.1-1.47,2-3.1,3.07-4.59.37-.51.99-.85,1.49-1.26.19.18.37.35.56.53Z"/>
  <path class="cls-1" d="m735.94,556.02c0-4.25,0-8.51,0-12.76,0-.56-.02-1.12-.11-1.67-.69-4.17-1.38-4.76-5.65-5.09-.46-.04-.89-.55-1.33-.84.44-.23.88-.66,1.33-.66,6.1-.04,12.2-.05,18.3,0,.43,0,.86.47,1.28.72-.41.27-.82.55-1.25.81-.08.05-.22,0-.33.01-3.62.18-5.24,1.51-5.23,5.15.03,9.84.08,19.69.55,29.52.3,6.21,4.81,9.95,11.03,10.14,4.17.13,7.98-.81,11.3-3.43,2.17-1.71,3.45-3.98,3.77-6.7.31-2.72.54-5.46.58-8.19.08-6.77.03-13.55.03-20.32,0-.39.02-.79-.01-1.18-.31-3.59-1.6-4.82-5.2-4.99-.22-.01-.49.07-.66-.03-.35-.19-.66-.47-.98-.71.34-.27.67-.76,1.03-.78,1.28-.1,2.57-.04,3.86-.04,3.64,0,7.28-.02,10.92.03.44,0,.87.43,1.31.66-.44.29-.86.8-1.33.83-3.78.29-5.39,1.79-5.44,5.57-.1,8-.03,16.01-.16,24.01-.06,3.52-.35,7.1-2.07,10.27-2.42,4.46-6.31,6.98-11.29,7.82-4.53.76-9.08.78-13.47-.56-6.77-2.06-10.51-7.48-10.63-14.99-.06-4.2-.01-8.39-.01-12.59-.04,0-.08,0-.12,0Z"/>
  <path class="cls-1" d="m371.92,556.01c1.92-1.67,3.43-3.16,5.12-4.41,2.25-1.66,4.84-2.33,7.62-1.63,3.37.86,5.62,3.64,6.06,7.42.2,1.77.3,3.57.34,5.35.11,5.2.12,10.4.25,15.6.06,2.42.89,3.19,3.31,3.63.47.09.87.59,1.3.9-.45.23-.89.65-1.34.65-4.42.05-8.84.06-13.27,0-.47,0-.93-.5-1.39-.78.42-.25.81-.68,1.26-.73,2.88-.36,3.83-1.35,3.84-4.21.01-5.32.02-10.64-.01-15.95,0-1.22-.13-2.46-.35-3.67-.64-3.65-4.63-5.04-8.42-2.98-.39.21-.75.49-1.13.72-2.31,1.42-3.43,3.24-3.27,6.18.29,5.25.07,10.52.08,15.78,0,2.67.98,3.7,3.62,4.06.55.08,1.05.54,1.58.83-.53.26-1.06.74-1.6.74-4.37.06-8.73.06-13.1,0-.5,0-1-.43-1.51-.67.49-.32.95-.84,1.48-.94,2.11-.42,3.03-1.27,3.3-3.41.08-.61.06-1.23.06-1.84,0-11.31,0-22.61,0-33.92,0-.62.01-1.24-.06-1.84-.34-3.03-.96-3.47-3.98-3.08-.36.05-.77-.22-1.15-.34.2-.4.31-1.02.63-1.15,2.77-1.19,5.55-2.36,8.37-3.41,1.85-.69,2.35-.24,2.35,1.79,0,6.49,0,12.99,0,19.48v1.82Z"/>
  <path class="cls-1" d="m747.73,467.88c.37.03.94.12,1.51.12,5.15.01,10.3-.06,15.45.04,1.68.03,2.83-.47,3.88-1.78,1.84-2.31,1.91-2.26,4.24-.55,1.31.96,2.64,1.89,3.89,2.91.42.34.61.95.91,1.44-.53.21-1.06.59-1.6.6-5.37.04-10.75.03-16.12.03-3.69,0-7.39.03-11.08-.02-1.22-.02-1.71.41-1.68,1.66.06,3.08-.04,6.16.04,9.24.04,1.74-.54,3.2-1.97,4.01-1.98,1.12-4.12,1.95-6.23,2.8-.25.1-1.02-.32-1.09-.62-.95-4-4.09-5.49-7.49-6.7-.26-.09-.59-.16-.75-.35-.28-.34-.45-.77-.66-1.16.43-.22.89-.67,1.29-.62,2.66.35,5.29.85,7.95,1.23,1.64.23,2.4-.46,2.43-2.12.03-1.96-.02-3.92.02-5.88.02-.95-.27-1.49-1.32-1.47-8.28.12-16.56.21-24.84.33-.39,0-.8.04-1.16.18-1.71.69-2.44-.13-3.09-1.65-.58-1.35-.19-1.56,1.03-1.55,5.09.02,10.19,0,15.28,0,4.03,0,8.06-.05,12.09.03,1.43.03,1.93-.53,1.78-1.89-.13-1.21-.2-2.42-.32-3.97,1.3.41,2.39.61,3.34,1.08,1.38.69,2.43.51,3.38-.7.65-.82,1.39-1.56,2.39-2.66-.9-.09-1.36-.17-1.81-.17-6.1,0-12.2,0-18.31,0-.56,0-1.12.02-1.67.11-3.12.56-3.26.48-4.43-2.83.7-.03,1.33-.1,1.97-.09,8.06.03,16.12.05,24.18.14,1.54.02,2.86-.26,4-1.32,1.32-1.24,2.65-1.17,4.05-.06,1.4,1.11,2.91,2.09,4.3,3.21.36.29.54.9.6,1.38.02.14-.68.51-1.05.53-4.2.15-7.8,2.19-11.59,3.62-.29.11-.61.36-.73.63-.36.85-.63,1.75-1,2.81Z"/>
  <path class="cls-1" d="m342.7,558.25c0,5.71,0,11.42,0,17.13,0,.56,0,1.12.05,1.68.38,3.81,1.29,4.67,5.12,4.97.51.04.99.45,1.48.68-.51.28-1.02.81-1.54.81-5.82.06-11.64.05-17.46,0-.49,0-.98-.45-1.47-.69.5-.28.98-.77,1.49-.81,3.96-.29,5.26-1.56,5.27-5.57.03-12.26,0-24.52.03-36.78,0-1.05-.24-1.54-1.39-1.49-2.23.1-4.48.03-6.71.15-3.61.2-6.09,2.54-6.78,6.07-.15.75-.76,1.42-1.15,2.12-.2-.79-.59-1.58-.57-2.35.07-2.57.34-5.13.42-7.7.03-1.13.35-1.54,1.55-1.54,12.2.04,24.41.04,36.61,0,1.2,0,1.5.4,1.54,1.54.09,2.9.34,5.8.45,8.7.02.44-.38.9-.59,1.35-.38-.39-1.04-.74-1.09-1.17-.69-5.26-4.25-7.22-8.9-7.17-1.51.02-3.03.1-4.53-.02-1.54-.12-1.87.5-1.85,1.93.07,6.04.03,12.09.03,18.14Z"/>
  <path class="cls-1" d="m790.54,555.79c1.13-1.04,2.2-2.16,3.41-3.12,2.72-2.15,5.69-3.63,9.29-2.63,3.41.95,5.82,3.92,5.98,7.86.21,5.42.12,10.86.18,16.28.02,1.45.1,2.9.25,4.35.23,2.22,1.17,3.08,3.39,3.44.51.08.96.52,1.43.8-.53.27-1.05.75-1.58.76-4.37.06-8.73.06-13.1,0-.52,0-1.02-.53-1.54-.81.49-.24.97-.64,1.48-.71,2.64-.32,3.6-1.33,3.6-4.05.01-5.6.01-11.2-.01-16.79,0-.95-.05-1.92-.27-2.83-.97-3.97-4.26-5.22-8.3-3.03-1.4.76-2.62,1.88-3.84,2.92-.38.33-.75.94-.75,1.42,0,6.27-.04,12.54.15,18.8.08,2.58,1,3.2,3.56,3.55.54.07,1.03.54,1.55.82-.54.25-1.09.71-1.63.72-4.31.06-8.62.06-12.93,0-.55,0-1.09-.45-1.64-.7.5-.29.98-.76,1.52-.85,1.95-.33,2.81-1,3.06-2.96.21-1.6.27-3.23.26-4.85-.04-5.59-.07-11.19-.24-16.77-.07-2.36-1.06-2.92-3.45-2.56-.47.07-1-.31-1.5-.48.33-.38.58-.94.99-1.12,2.67-1.14,5.36-2.21,8.07-3.26,1.61-.62,2.17-.22,2.2,1.47.02,1.39,0,2.77,0,4.16.14.06.27.12.41.17Z"/>
  <path class="cls-1" d="m695.86,556.31c1.36-1.29,2.32-2.25,3.34-3.14,1.95-1.73,4.11-3.15,6.78-3.39,5.28-.47,9.09,3.27,9.22,9.16.14,5.98.09,11.97.15,17.96,0,.78.09,1.56.26,2.32.36,1.66,1.36,2.6,3.13,2.74.5.04.97.5,1.45.77-.52.27-1.04.78-1.57.78-4.36.06-8.73.06-13.09,0-.52,0-1.04-.51-1.55-.78.48-.25.95-.66,1.45-.73,2.77-.34,3.75-1.15,3.78-3.9.07-6.1,0-12.19-.09-18.29-.02-1.03-.36-2.1-.76-3.07-.84-2.05-3.11-2.92-5.7-2.26-2.52.64-4.55,2.11-6.24,4.03-.33.38-.53,1.01-.53,1.52.03,6.04.05,12.08.21,18.12.07,2.68,1.03,3.49,3.68,3.83.49.06.94.51,1.41.77-.47.26-.93.75-1.41.76-4.48.06-8.95.06-13.43,0-.44,0-.88-.53-1.31-.81.42-.24.82-.64,1.26-.7,2.57-.33,3.5-1.44,3.52-4.54.03-6.27.01-12.54,0-18.8,0-.5-.06-1-.13-1.5-.27-2.06-1.17-2.65-3.2-2.36-.58.08-1.23-.29-1.85-.46.45-.42.83-.99,1.36-1.22,2.51-1.08,5.05-2.09,7.6-3.09,1.76-.69,2.25-.35,2.27,1.48.01,1.43,0,2.86,0,4.8Z"/>
  <path class="cls-1" d="m649.27,628.49c2.64-1.82,4.87-3.87,7.49-5.07,5.33-2.45,10.85.85,11.42,6.71.36,3.61.26,7.26.36,10.89.09,3.41.08,6.82.24,10.23.12,2.49.83,3.12,3.32,3.66.51.11.96.51,1.44.77-.55.22-1.09.62-1.64.63-4.37.05-8.73.05-13.1,0-.46,0-.92-.38-1.37-.58.41-.26.79-.67,1.23-.75,2.99-.53,3.84-1.45,3.85-4.46.01-5.37.02-10.75-.01-16.12,0-1.11-.15-2.24-.38-3.32-.75-3.49-4.07-4.94-7.63-3.16-1.66.83-3.11,2.13-4.54,3.35-.42.36-.62,1.18-.62,1.79-.05,5.77-.06,11.53-.02,17.3.02,3.32.71,4.02,4.03,4.63.45.08.84.48,1.26.73-.46.21-.92.59-1.38.6-4.48.05-8.96.05-13.43,0-.46,0-.91-.4-1.37-.61.37-.24.71-.61,1.12-.7,2.73-.64,3.61-1.43,3.65-4.57.08-6.71-.03-13.42-.21-20.13-.06-2.3-1.2-2.96-3.49-2.61-.47.07-1-.25-1.49-.38.32-.37.56-.91.96-1.09,2.55-1.12,5.12-2.21,7.72-3.22,1.97-.76,2.62-.25,2.62,1.87,0,1.25,0,2.5,0,3.64Z"/>
  <path class="cls-1" d="m485.58,628.57c.63-.59,1.26-1.18,1.88-1.77,1.88-1.79,3.91-3.42,6.52-3.91,5.69-1.08,9.97,2.32,10.22,8.38.25,5.98.13,11.97.18,17.96,0,.78.05,1.57.19,2.33.43,2.37.95,2.81,3.32,3.34.55.12,1.03.56,1.54.85-.58.19-1.16.55-1.75.56-4.31.05-8.62.05-12.93,0-.5,0-1-.42-1.5-.65.44-.23.86-.6,1.33-.68,2.88-.53,3.75-1.47,3.75-4.4,0-5.87.09-11.76-.15-17.62-.22-5.28-3.68-7.17-8.43-4.79-1.33.67-2.56,1.6-3.66,2.61-.54.49-.93,1.43-.94,2.17-.07,5.88-.06,11.75-.03,17.63.01,2.94.83,3.82,3.74,4.37.48.09.9.45,1.35.68-.48.24-.97.67-1.45.68-4.48.05-8.95.05-13.43,0-.42,0-.84-.45-1.26-.68.39-.22.76-.56,1.17-.63,2.54-.45,3.55-1.29,3.58-3.83.08-6.99.05-13.97-.06-20.96-.04-2.28-1.25-2.96-3.53-2.5-.43.09-.95-.28-1.43-.43.3-.37.54-.9.93-1.07,2.45-1.07,4.94-2.07,7.42-3.07,2.3-.92,2.96-.49,2.96,1.89,0,1.11,0,2.21,0,3.32.15.08.3.16.46.24Z"/>
  <path class="cls-1" d="m551.17,580.39c-2.13.91-4.26,1.83-6.39,2.73-1.03.43-2.05.9-3.11,1.22-1.14.34-1.99.13-1.92-1.38.06-1.5.01-3,.01-4.96-.81.67-1.31,1.12-1.84,1.53-1.84,1.43-3.5,3.3-5.58,4.19-5.68,2.44-10.77-.7-11.75-6.99-.27-1.7-.29-3.46-.31-5.19-.04-4.98,0-9.96-.02-14.94-.01-2.92-1.03-3.98-3.93-4.37-.56-.07-1.06-.53-1.59-.81.59-.26,1.17-.73,1.77-.75,2.63-.08,5.26.03,7.89-.06,1.45-.05,1.95.41,1.94,1.91-.07,6.21-.05,12.42-.02,18.64,0,1.56.03,3.15.34,4.67.66,3.21,3.58,5.03,6.58,3.79,2.15-.89,4.03-2.5,5.91-3.94.44-.34.56-1.3.57-1.98.04-5.43.05-10.86.01-16.29-.02-3.07-.7-5.12-4.24-5.14-.32,0-.64-.57-.96-.87.36-.25.71-.71,1.07-.72,2.97-.06,5.93,0,8.9-.04,1.38-.01,1.29.9,1.29,1.83,0,7.22,0,14.44,0,21.66,0,.95.04,1.9.13,2.85.23,2.22,1.34,2.92,3.54,2.45.51-.11,1.11.19,1.68.3,0,.22,0,.45.01.67Z"/>
  <path class="cls-1" d="m353.32,623.53c1.64,0,3.2-.04,4.76.01,1.09.04,1.48-.38,1.44-1.48-.13-3.22.26-6.35,1.73-9.29,3.64-7.26,13.77-9.47,19.35-4.22,1.78,1.68,2.01,3.84.56,5.32-1.17,1.2-2.68,1.32-4.03.09-.98-.89-1.75-2.02-2.58-3.07-1.12-1.4-2.37-2.54-4.32-2.48-2.29.07-4.12,1.64-4.31,4.12-.26,3.28-.24,6.59-.37,9.88-.04,1.09.67,1.11,1.44,1.11,2.23,0,4.46,0,6.63,0,.73,2.53.54,2.8-1.82,2.81-1.62,0-3.25-.08-4.86.05-.48.04-1.31.66-1.31,1.02-.02,7.83.05,15.66.1,23.49.02,2.51,1.75,3.97,4.74,4.12.8.04,1.59.39,2.39.59-.82.24-1.63.69-2.46.7-5.03.07-10.07.04-15.11.03-.5,0-1.01,0-1.5-.11-.19-.04-.45-.39-.44-.59,0-.2.27-.5.48-.56.36-.11.77-.06,1.16-.1,2.67-.28,4.21-1.66,4.26-4.26.15-7.66.17-15.32.26-22.98.01-.99-.39-1.44-1.4-1.4-1.12.04-2.24.02-3.36,0-1.75-.02-1.84-.19-1.43-2.8Z"/>
  <path class="cls-1" d="m557.92,564.24c.24,3.44,1.03,6.65,2.78,9.62,3.66,6.22,11.52,6.58,15.68.68.67-.95,1.15-2.04,1.78-3.02.23-.35.64-.59.98-.88.15.43.49.89.42,1.28-1.01,5.34-4.81,11.07-11.44,12.43-4.88,1-10.42-1.73-13.41-6.69-4.1-6.78-3.31-17.02,1.76-22.8,4.66-5.32,12.95-6.79,18.41-3.19,2.04,1.35,3.8,3.01,3.95,5.69.1,1.82-.65,2.87-2.21,3.27-1.83.47-3.86-.21-4.55-1.6-.29-.59-.49-1.26-.57-1.91-.5-3.96-3.38-5.77-7.17-4.46-3.11,1.08-4.67,3.54-5.53,6.49-.48,1.65-.61,3.4-.89,5.1Z"/>
  <path class="cls-1" d="m923.61,578.01c0-1.51-.04-3.02.03-4.53.02-.43.36-.84.55-1.26.36.35.86.64,1.06,1.07.6,1.31.95,2.75,1.64,4.01,1.89,3.42,6.12,5.47,9.42,4.74,1.88-.42,3.36-1.39,3.91-3.27.56-1.94.31-3.96-1.35-5.22-2.16-1.65-4.57-2.97-6.88-4.4-1.8-1.12-3.7-2.08-5.41-3.32-2.92-2.12-3.56-5.23-2.9-8.54.69-3.47,2.82-5.88,6.25-7.02,2.78-.92,5.51-.53,8.24.27,1.36.4,2.71,1.08,3.94-.49.47-.6,1.36-.39,1.38.6.06,3.19.05,6.38.01,9.56,0,.27-.5.79-.62.75-.37-.13-.81-.4-.96-.73-.42-.97-.67-2.01-1.06-2.99-1.53-3.86-4.87-5.76-8.78-5.08-1.98.35-3.5,1.35-4.04,3.29-.52,1.88.19,3.67,1.71,4.76,1.89,1.35,4.03,2.35,6.06,3.51,2.22,1.27,4.59,2.34,6.63,3.86,5.51,4.11,4.21,12.78-2.23,15.7-3.84,1.74-7.63,1.24-11.47.31-1.32-.32-2.51-.78-3.83.13-.64.44-1.31.14-1.3-.85.01-1.62,0-3.24,0-4.87Z"/>
  <path class="cls-1" d="m851.98,574.93c2.68-6.75,5.28-13.16,7.76-19.61.76-1.98.14-2.72-1.91-3.06-.53-.09-.99-.58-1.48-.88.53-.25,1.06-.69,1.59-.7,2.57-.07,5.15-.07,7.72,0,.5.01.98.46,1.47.7-.4.33-.83.64-1.2,1-1.01.98-2.38,1.8-2.92,3-2.33,5.12-4.43,10.36-6.6,15.56-1.67,4.02-3.28,8.06-4.98,12.06-.25.58-.9.98-1.36,1.47-.54-.55-1.29-1.01-1.58-1.66-3.02-7.02-5.97-14.07-8.94-21.11-.76-1.8-1.49-3.61-2.27-5.4-.87-1.99-2.21-3.45-4.45-3.95-.38-.08-.67-.57-1-.87.36-.27.73-.76,1.09-.77,4.47-.05,8.95-.05,13.42,0,.35,0,.7.51,1.05.78-.31.25-.6.63-.95.71-2.92.66-3.58,1.69-2.45,4.47,2.31,5.74,4.72,11.44,7.11,17.15.14.33.44.59.87,1.14Z"/>
  <path class="cls-1" d="m909.55,555.87c.34-.46.69-.9,1.01-1.37,1.39-2.01,2.99-3.77,5.41-4.55,2.85-.91,6.02,1.07,6.05,3.76.03,2.61-2.41,4.2-4.76,3.09-.3-.14-.6-.32-.85-.53-2.19-1.79-2.96-2.59-5.59,1.05-1.25,1.73-1.91,3.55-1.81,5.76.21,4.85.13,9.72.3,14.58.09,2.63,1.41,3.83,4.06,4.29.49.09.91.54,1.36.83-.46.26-.92.74-1.39.74-4.64.06-9.28.06-13.93,0-.47,0-.94-.47-1.41-.72.44-.29.86-.77,1.33-.85,2.78-.45,3.66-1.41,3.67-4.22,0-6.32,0-12.64,0-18.96,0-.56-.02-1.12-.12-1.67-.36-1.98-1.36-2.62-3.32-2.33-.56.08-1.18-.18-1.76-.28.44-.46.8-1.13,1.34-1.36,2.56-1.11,5.16-2.12,7.76-3.13,1.64-.64,2.14-.29,2.16,1.46.02,1.42,0,2.83,0,4.25l.5.14Z"/>
  <path class="cls-1" d="m971.53,565.67c0-3.41-.07-6.82.03-10.23.04-1.57-.4-2.33-2.06-2.12-.66.08-1.35.08-2.01-.02-.37-.06-.81-.32-.99-.63-.1-.17.21-.77.48-.91,4.45-2.35,7.06-6.21,8.93-10.7.15-.37.67-.58,1.02-.86.21.39.6.79.61,1.19.06,2.52.08,5.03,0,7.55-.04,1.34.49,1.79,1.78,1.73,1.51-.07,3.02,0,4.53-.02.9-.01,1.32.34,1.34,1.28.02,1-.37,1.43-1.38,1.41-1.57-.03-3.13.02-4.7-.02-1.03-.02-1.56.31-1.55,1.43.03,6.88.01,13.76.03,20.64,0,.5.11,1,.21,1.49.55,2.8,2.98,3.72,5.28,2,.27-.2.46-.5.73-.69.61-.42,1.26-.8,1.89-1.19-.15.71-.16,1.49-.49,2.11-1.75,3.35-5.05,5.23-8.29,4.81-2.66-.34-4.93-2.34-5.05-5.02-.19-4.4-.05-8.82-.05-13.23-.1,0-.2,0-.3,0Z"/>
  <path class="cls-1" d="m623.55,564.99c0,3.85-.05,7.71.03,11.56.03,1.5.77,2.73,2.36,3.1,1.61.37,2.78-.52,3.8-1.63.3-.33.53-.74.88-.98.23-.15.7-.19.91-.04.17.12.23.62.13.87-1.66,4.21-5.37,6.6-9.02,6.05-2.4-.36-4.42-2.09-4.86-4.46-.28-1.53-.48-3.1-.49-4.65-.05-6.43-.07-12.87.01-19.3.02-1.66-.39-2.43-2.14-2.19-.66.09-1.35.07-2.01-.02-.33-.04-.81-.3-.88-.56-.07-.26.18-.81.44-.94,4.45-2.34,7.11-6.16,8.99-10.66.16-.38.64-.64.97-.95.21.45.6.89.61,1.34.06,2.52.07,5.04.01,7.55-.03,1.16.42,1.62,1.57,1.58,1.56-.05,3.13,0,4.7-.02.88,0,1.35.33,1.37,1.28.02.99-.39,1.44-1.39,1.42-1.51-.03-3.02.05-4.53-.02-1.34-.07-1.75.49-1.72,1.78.07,3.3.02,6.6.02,9.9.08,0,.16,0,.25,0Z"/>
  <path class="cls-1" d="m644.01,564.81c0,4.25-.01,8.51,0,12.76.01,2.97.81,3.89,3.64,4.43.4.08.75.47,1.12.72-.39.28-.78.8-1.18.8-4.42.06-8.84.06-13.26,0-.44,0-.88-.45-1.32-.69.39-.29.75-.77,1.18-.85,2.59-.49,3.61-1.45,3.64-4.14.07-6.32.03-12.65,0-18.97,0-.66-.15-1.33-.28-1.99-.37-1.88-1.21-2.43-3.08-2.07-.27.05-.58.2-.82.14-.37-.1-.71-.35-1.05-.54.18-.31.29-.78.56-.89,3.03-1.28,6.07-2.55,9.15-3.7,1.08-.4,1.76.02,1.74,1.4-.06,4.53-.02,9.06-.02,13.6Z"/>
  <path class="cls-1" d="m960.56,564.67c0,4.14,0,8.28,0,12.42,0,3.35.65,4.13,3.9,4.91.36.09.64.49.95.74-.36.27-.71.77-1.07.77-4.59.05-9.18.05-13.76,0-.32,0-.63-.46-.94-.7.28-.27.52-.7.85-.79,3.42-.9,3.9-1.5,3.91-5.04,0-5.76,0-11.53,0-17.29,0-.73-.02-1.46-.11-2.18-.3-2.51-1.05-3.02-3.56-2.67-.49.07-1.05-.29-1.57-.45.33-.37.58-.92.99-1.1,2.72-1.16,5.45-2.28,8.21-3.34,1.69-.65,2.21-.24,2.21,1.62.01,4.36,0,8.73,0,13.09Z"/>
  <path class="cls-1" d="m826.87,564.54c0,4.25-.11,8.51.07,12.75.06,1.34.75,2.73,1.46,3.91.3.49,1.4.47,2.1.77.44.19.82.55,1.22.83-.43.25-.86.72-1.29.72-3.97.06-7.94.03-11.92.03-.56,0-1.14.09-1.67-.04-.34-.08-.6-.49-.9-.76.25-.25.46-.64.75-.73,3.79-1.13,3.98-1.12,4.05-5.07.12-6.43.03-12.86-.12-19.29-.06-2.58-1.02-3.15-3.59-2.79-.49.07-1.04-.32-1.57-.5.33-.37.58-.91.99-1.09,2.67-1.13,5.36-2.22,8.07-3.26,1.85-.71,2.33-.36,2.33,1.58,0,4.31,0,8.62,0,12.93Z"/>
  <path class="cls-1" d="m419.77,427.73c-.8,1.83-1.27,3.46-2.16,4.8-1.32,1.99-2.52,1.85-3.84-.15-1.81-2.74-3.56-5.53-5.48-8.19-1.07-1.49-2.45-2.75-3.61-4.17-.25-.31-.41-.99-.23-1.28.17-.28.89-.5,1.24-.38,4,1.41,7.99,2.92,11.27,5.69,1.12.95,1.83,2.36,2.82,3.68Z"/>
  <path class="cls-1" d="m398.49,435.64c3.82,1.27,7.77,2.32,10.96,5.06,2.89,2.48,3.22,5.75.79,8.52-1.35,1.53-2.49,1.46-3.61-.25-1.41-2.14-2.71-4.37-4.23-6.43-1.19-1.61-2.59-3.07-3.99-4.51-.84-.87-.98-1.56.08-2.38Z"/>
  <path class="cls-1" d="m961.12,536.4c0,2.14-1.57,3.73-3.67,3.71-2.04-.02-3.74-1.75-3.71-3.78.03-1.92,1.75-3.59,3.69-3.59,2.19,0,3.69,1.49,3.69,3.66Z"/>
  <path class="cls-1" d="m640.74,532.73c2.14-.03,3.79,1.52,3.82,3.58.03,2.12-1.55,3.78-3.62,3.79-2.06.01-3.73-1.63-3.75-3.7-.01-2.04,1.55-3.65,3.55-3.68Z"/>
  <path class="cls-1" d="m823.99,532.73c1.99.03,3.55,1.66,3.53,3.69-.02,2.09-1.66,3.71-3.75,3.69-2.03-.03-3.66-1.74-3.62-3.82.04-2.06,1.7-3.6,3.84-3.56Z"/>
  <path class="cls-1" d="m552.26,483.35c-6.64-2.83-12.32-6.97-17.19-12.28-1.06-1.16-1.52-2.09-.39-3.42.5-.59.81-1.33,1.17-2.03,3.89-7.6,5.61-15.75,6.02-24.22.06-1.34.45-1.95,1.86-1.86,1.45.09,2.91.04,4.37,0,.35,0,.98-.18,1-.34.05-.37-.09-.87-.33-1.17-.7-.87-1.44-1.72-2.25-2.49-3.19-3.04-3.18-3.01-5.93.41-.45.56-1.16,1.27-1.76,1.29-3.86.11-7.72.05-11.59.02-.19,0-.38-.17-.56-.27.67-2.44,1.24-4.83,1.99-7.16.9-2.8.62-6.29,4.35-7.54.69-.23.8-1.23-.05-1.57-2.86-1.15-5.77-2.18-8.79-3.31-.48,4.39-.79,8.28-1.36,12.13-.56,3.83-1.41,7.61-2.81,11.2-.34-.05-.48-.02-.56-.08-.92-.72-1.83-1.46-2.75-2.19q-2.31-1.83-4.22.26c-.45.5-.87,1.04-1.38,1.46-.35.29-.84.4-1.27.59,1.26-2.74,2.74-5.14,4.09-7.62.87-1.6,1.61-3.1,3.74-3.44,1.26-.2,1.33-1.04.2-1.81-1.65-1.14-3.42-2.11-5.11-3.18-1.3-.82-2.25-.86-2.68.92-.13.56-.52,1.06-.8,1.62-.32-.13-.53-.19-.72-.3q-2.4-1.36-4.2.79c-.25.29-.51.71-.83.78-.71.15-1.77.52-1.77-.73-.01-2.41-.82-5.17,2.52-6.35,1.05-.37.78-1.09-.14-1.5-1.43-.63-2.84-1.31-4.32-1.82-1.33-.46-2.72-.7-4.14-1.05,0,3.59-.04,6.82.02,10.05.02,1.16-.34,1.59-1.52,1.56-2.35-.07-4.7-.02-7.05-.02-1.25,0-2.51,0-4.19,0,1,1.37.68,3.19,2.6,3.11,2.78-.12,5.56-.33,8.34-.55,1.47-.12,2.17.3,2.05,1.94-.14,1.95-.11,3.92,0,5.87.07,1.32-.36,1.77-1.7,1.75-4.14-.07-8.29-.03-12.43-.02-.59,0-1.18.05-2.06.1.8,1.28.53,3.03,2.45,2.98,5.42-.14,10.84-.34,16.26-.51.57-.02,1.13.08,2.07.15-1.47,1.91-2.69,3.49-3.91,5.07-.74.95-1.66,1.35-2.91,1.31-2.46-.09-4.93-.04-7.39-.02-.46,0-.92.11-1.41.17.82,2.86,1.09,3.04,3.61,2.72,1.28-.16,2.56-.31,3.84-.46-.25.88-.6,1.39-1.06,1.76-3.91,3.16-7.86,6.28-11.76,9.45-.34.28-.46.83-.68,1.26.49.11,1.09.44,1.46.28,6.33-2.76,12.53-5.85,17.39-10.84,2.22-2.27,4.49-1.8,7.39-1.82-1.08,1.93-1.99,3.5-2.86,5.1-.48.89-1.14,1.1-2.09.79-.86-.29-1.75-.45-2.58-.66,0,2.12-.06,4.01.02,5.9.04,1.03-.28,1.5-1.32,1.7-2.91.55-5.8,1.2-8.7,1.81-1.93.41-3.87.82-6.02,1.27.96,2.14,1.78,4.02,2.64,5.89.88,1.94,1.15,2.01,2.67.61,2.96-2.72,6.77-3.43,10.7-4.83,0,2.71-.06,5.1.02,7.48.05,1.6-.61,2.3-2.17,2.2-.72-.05-1.45-.06-2.17-.14-1.72-.21-3.43-.5-5.16-.64-.4-.03-.83.43-1.25.66.27.33.48.78.83.97.53.29,1.16.41,1.74.59,2.9.9,5.14,2.44,5.7,5.7.06.34.33.65.65,1.26,2.04-1.3,4-2.44,5.85-3.75,1.4-1,1.96-2.44,1.91-4.23-.1-3.69-.01-7.39-.05-11.08-.01-1.08.29-1.66,1.42-2.09,3.59-1.38,7.12-2.93,10.64-4.48.38-.17.58-.76.86-1.15-.48-.15-.96-.45-1.43-.43-.71.04-1.42.29-2.12.46-2.96.72-5.92,1.45-8.87,2.18.15-.47.42-.7.71-.93.62-.5,1.24-.99,1.86-1.49-.69-.5-1.39-1-2.08-1.5-.08-.06-.11-.18-.25-.43,2.52-1.88,4.93-3.98,7.62-5.61,3-1.82,3.11-1.64.59-4.17-.2-.2-.39-.4-.59-.59-2.21-2.11-2.58-2.18-4.76-.02-1.31,1.3-2.67,1.29-4.6.89,2.82-2.94,4.15-7.32,9.39-6.3,1.62.32,3.35.04,5.03.05.7,0,1.4.07,2.32.13-.22.7-.29,1.19-.51,1.62-1.76,3.49-3.57,6.94-5.29,10.45-.25.51-.06,1.23-.08,1.86.55-.21,1.3-.26,1.63-.65,1.9-2.27,3.69-4.63,5.53-6.96.28-.35.6-.68,1.1-1.25.93,6.88,2.8,13.11,5.36,19.14.25.59-.03,1.73-.48,2.24-2.77,3.14-5.48,6.36-8.56,9.18-2.9,2.66-6.22,4.87-9.38,7.28.64,1.44.71,1.48,2.62.59,5.24-2.45,10.15-5.43,14.5-9.27,1.53-1.35,3.02-2.74,4.66-4.24,3.32,5.18,6.42,10.32,11.28,13.96.17-.06.32-.06.38-.13,2.4-2.85,5.27-4.01,8.96-2.72.38.13.99-.43,1.5-.66-.05-.19-.11-.38-.16-.57Zm-49.91-42.59c-.21-.08-.42-.17-.63-.25,0-2.81-.02-5.63.04-8.44,0-.27.56-.73.88-.75,1.49-.08,2.99-.04,4.48-.04.12.16.24.31.36.47-1.71,3-3.42,6-5.13,9Zm27.88,23.54c-2.7-4.75-4.51-9.35-5.8-14.16-.17-.65-.26-1.33-.51-1.95-1.18-2.94.03-5.44,1.43-7.88.21-.36.79-.7,1.2-.71,2.63-.06,5.26-.02,7.89-.03.84,0,1.18.32,1.14,1.22-.33,6.95-.94,13.84-3.75,20.33-.42.96-.94,1.87-1.61,3.19Z"/>
  <path class="cls-1" d="m469.53,460.35c-5.58-1.68-10.68-4.29-15.02-8.2-1.64-1.48-3.04-3.23-4.83-5.16.9-.09,1.17-.15,1.44-.15,5.15,0,10.3.01,15.45-.03.66,0,1.31-.36,1.97-.55-.28-.62-.43-1.36-.87-1.82-1.36-1.4-2.82-2.71-4.28-4.02-1.66-1.49-2.07-1.55-3.21.37-1.56,2.62-3.55,4.01-6.67,3.36-.05-.01-.11,0-.17,0-.99.1-1.4-.3-1.37-1.35.06-2.35.1-4.7,0-7.05-.06-1.42.44-1.85,1.82-1.83,4.25.07,8.51.04,12.76,0,.45,0,.89-.29,1.34-.45-.16-.45-.19-1.02-.49-1.32-1.85-1.86-3.76-3.66-5.65-5.48-.82-.79-1.51-.5-2.09.3-.82,1.13-1.57,2.31-2.41,3.43-.28.38-.72.88-1.11.9-1.33.07-2.76.21-3.94-.24-.42-.16-.26-1.93-.31-2.97-.04-.78.05-1.57-.02-2.35-.17-1.89.08-3.48,1.93-4.59.97-.58.96-1.52-.34-1.93-2.13-.68-4.27-1.31-6.4-1.98-1.22-.38-1.63.12-1.57,1.32.11,2.51.2,5.02.22,7.54.01,1.66.52,4.03-.34,4.81-.99.89-3.25.44-4.96.46-3.85.04-3.85.01-3.85-3.87,0-2.32-.42-4.73,1.71-6.54.22-.18,0-1.43-.25-1.52-2.43-.89-4.91-1.63-7.62-2.5-.06,1.01-.12,1.55-.12,2.09.03,3.02.09,6.04.11,9.06.02,3.29,0,3.29-3.24,3.29-2.43,0-4.86,0-7.59,0,.52,1.01.76,1.78,1.25,2.33.35.39,1.04.7,1.57.68,2.23-.07,4.45-.27,6.67-.44,1.01-.08,1.38.35,1.36,1.37-.05,2.46-.07,4.93,0,7.39.03,1.09-.3,1.49-1.42,1.46-3.02-.06-6.04-.01-9.07-.03-.36,0-.71-.15-1.19-.25.8-2.46,1.49-4.81,2.33-7.1.47-1.27.03-1.73-1.25-1.91-.31.63-.61,1.22-.89,1.82-3.57,7.58-7.15,15.15-10.7,22.73-.9,1.92-2.35,2.93-4.46,2.97-1.12.02-2.25-.06-3.35.05-.37.04-.9.47-.98.81-.07.32.27.89.59,1.1.5.33,1.14.44,1.72.64,3.7,1.27,4.86,2.91,4.53,6.75-.2,2.33-.6,4.65-.95,6.97-.38,2.48.28,4.63,2.3,6.1,1.04.76,2.39,1.22,3.67,1.47,1.61.32,2.93-.95,2.83-2.74-.14-2.28-.57-4.54-.84-6.81-.28-2.31-.52-4.62-.74-6.66,5.87-2.39,10.03-6.61,15.06-10.44,0,1.12,0,1.72,0,2.32,0,5.71-.02,11.42,0,17.13.02,3.75,1.57,5.86,5.29,6.06,7.08.38,14.18.55,21.27.39,3.71-.08,7.24-1.37,9.92-4.28.94-1.02,1.16-1.78-.21-2.65-1.58-1-2.58-2.42-2.73-4.38-.16-2.11-.38-4.23-.66-6.33-.07-.5-.49-.95-.75-1.43-.37.45-.94.84-1.08,1.35-.74,2.63-1.3,5.32-2.06,7.94-.72,2.48-2.08,3.38-4.7,3.44-1,.02-2.01.18-3.01.16-4.13-.08-8.27-.13-12.4-.34-1.56-.08-2.55-1.11-2.6-2.77-.07-2.29-.06-4.59-.14-6.88-.03-.98.3-1.41,1.35-1.4,3.58.04,7.16.03,10.75,0,.87,0,1.42.21,1.36,1.2-.08,1.25.73,1.42,1.65,1.18,1.07-.28,2.09-.75,3.16-1.07,1.47-.44,2.09-1.31,1.81-2.88-.17-.93-.19-1.89-.2-2.84-.02-1.37.02-2.75.03-4.12.84.2,1.11.46,1.41.69,2.1,1.66,4.19,3.34,6.33,4.95.32.24,1.08.38,1.28.19,1.97-1.9,4.26-3.01,6.97-3.36.33-.04.6-.54.9-.83-.32-.26-.6-.65-.97-.76Zm-56.48,7.5c-.18-.07-.36-.13-.54-.2.18-1.46.18-2.97.57-4.37,1.44-5.16,3.01-10.28,4.57-15.4.12-.39.61-.95.93-.96,3.44-.07,6.88-.04,10.62-.04-3.85,8.49-9.48,15.14-16.16,20.98Zm23.7-32.55c-.01-.9.32-1.35,1.25-1.35,2.06.01,4.13.02,6.19,0,1.04-.01,1.35.51,1.31,1.46-.01.31-.02.61-.02.92,0,.92,0,1.84,0,2.76,0,.8.04,1.61.03,2.41,0,.48-.03.96-.08,1.43-.05.44-.7,1.14-1.11,1.16-2.11.12-4.23.04-6.35.07-.95.01-1.25-.42-1.23-1.33.04-2.51.03-5.02,0-7.53Zm10.44,28.9c.02,1.01-.35,1.37-1.38,1.35-3.47-.05-6.93-.05-10.4,0-1.15.02-1.61-.39-1.57-1.56.06-1.68.06-3.36,0-5.03-.04-1.02.33-1.41,1.34-1.38,1.79.05,3.58.01,5.37.01,1.79,0,3.58.03,5.37-.01.92-.02,1.31.29,1.27,1.26-.06,1.79-.05,3.58,0,5.37Zm.82-11.12c-1.46,2.29-3.75,1.8-5.88,1.82-2.13.01-4.25.05-6.38-.03-.67-.03-1.38-.32-1.99-.64-.91-.48-1.1-1.15-.37-2.03.53-.64,1.07-1.34,1.35-2.11,1.04-2.93,3.11-3.67,6-3.29,1.87.25,4.19-.5,5.57.37,1.36.86,1.79,3.19,2.63,4.88.05.1.06.21.15.52-.42.19-.91.25-1.08.51Z"/>
  <path class="cls-1" d="m391.91,454.43c-.19-.16-.53-.14-.8-.2-6.66-1.47-12.91-3.97-18.64-7.67-2.95-1.91-5.64-4.19-7.85-7.67,1.03,0,1.63,0,2.22,0,7.16,0,14.33.01,21.49-.02.56,0,1.11-.3,1.67-.46-.3-.55-.46-1.26-.91-1.63-1.84-1.55-3.76-3-5.66-4.47-1.08-.83-2.03-.75-2.84.45-.66.97-1.34,1.94-2.13,2.8-.37.41-1,.82-1.51.83-5.43.06-10.86.02-16.29.04-1,0-1.41-.41-1.39-1.41.04-1.79.1-3.59-.02-5.37-.09-1.33.47-1.73,1.67-1.92,3.2-.49,6.38-1.16,9.59-1.61,2.27-.32,4.56-1.25,6.89-.06.48.24,1.22-.03,1.84-.07-.12-.67-.04-1.47-.38-2-1.28-2.03-2.64-4.02-4.1-5.93-.31-.41-1.26-.67-1.78-.52-2.2.62-4.31,1.54-6.52,2.13-7.39,1.97-14.76,4.04-22.23,5.69-6.05,1.34-12.22,2.11-18.33,3.19-.54.1-1.01.59-1.52.9.56.24,1.13.71,1.67.69,8.49-.35,16.97-.72,25.45-1.19,1.2-.07,1.51.26,1.49,1.32-.03,1.34-.11,2.7.02,4.03.17,1.72-.49,2.19-2.18,2.18-9.57-.07-19.14-.04-28.72-.03-.58,0-1.17.05-1.79.09.59,2.68,1.21,2.97,3.47,2.87,6.03-.25,12.07-.33,18.1-.47.2,0,.41.13.74.23-.18.47-.29.89-.49,1.26-3.63,6.59-8.46,12.21-14,17.25-2.73,2.48-5.58,4.83-8.34,7.28-.3.26-.35.81-.51,1.22.44.09.87.22,1.31.24.26.01.55-.12.79-.26,3.62-2.08,7.29-4.1,10.84-6.3,2.02-1.25,3.85-2.79,5.92-4.32.08.45.16.7.16.95-.03,8.28-.06,16.57-.12,24.85-.01,1.84-.24,3.69-.16,5.52.02.58.88,1.66,1.09,1.6,1.75-.51,3.58-1.01,5.07-1.99.63-.42.69-2,.67-3.04-.03-1.42.47-1.82,1.84-1.81,6.21.06,12.43.02,18.64.03q2.53,0,2.53,2.53c0,4.62.36,4.82,4.68,2.93,1.52-.67,2.12-1.57,2.09-3.32-.15-7.33-.16-14.66-.13-21.99,0-.86.36-1.86.89-2.53.93-1.17.77-1.98-.35-2.8-1.21-.9-2.44-1.78-3.6-2.75-1.21-1.02-2.15-1.04-3.27.23-.67.77-1.74,1.65-2.65,1.67-6.2.14-12.42.25-18.61-.03-2.13-.09-4.21-1.31-6.07-1.94,3.46-4.81,6.68-9.3,9.95-13.76.33-.45,1.03-.64,1.56-.94.21.52.6,1.05.59,1.56-.08,3.58-.19,7.15-.4,10.72-.24,4.14.25,4.55,4.2,3.17q2.51-.88,2.51-3.55c0-3.47-.04-6.94.04-10.41.01-.52.54-1.02.83-1.54.49.36,1.03.67,1.45,1.1.25.26.29.72.47,1.07,4.63,8.86,12.18,14.55,20.81,19.03.36.18,1.18.04,1.44-.26,2.02-2.26,4.6-3.26,7.52-3.65.35-.05.64-.48.96-.74-.29-.35-.54-.75-.88-1.04Zm-24,23.49c.02.89-.34,1.18-1.18,1.17-6.88-.02-13.76-.02-20.64,0-.86,0-1.18-.35-1.17-1.21.03-2.46.04-4.92,0-7.38-.02-1.15.53-1.4,1.56-1.39.84.01,1.68.02,2.52.02,2.52.01,5.03,0,7.55,0,2.48,0,4.95.02,7.43,0,.82,0,1.65-.01,2.47-.03,1.1-.02,1.49.34,1.47,1.43-.05,2.46-.04,4.92,0,7.38Zm-21.51-19.68c.84.01,1.68.02,2.52.02,2.52,0,5.04,0,7.55,0,2.52,0,5.04.01,7.55,0,.84,0,1.68,0,2.52-.02.98-.01,1.42.27,1.37,1.33-.07,1.9-.05,3.81,0,5.71.02,1-.33,1.39-1.36,1.39-6.71-.03-13.43-.03-20.14,0-1.09,0-1.51-.4-1.49-1.48.05-1.85.07-3.7,0-5.54-.05-1.16.45-1.43,1.49-1.41Z"/>
  <path class="cls-1" d="m777.29,452.2c-.85-.89-1.72-1.77-2.66-2.56-2.93-2.46-2.93-2.43-5.9-.07-.39.31-.98.36-1.48.53-.14-.5-.43-1.01-.38-1.5.56-6.46,1.18-12.92,1.73-19.38.13-1.51.57-2.6,2.04-3.34,1.46-.73,1.37-1.68-.07-2.61-1.17-.76-2.45-1.38-3.54-2.24-1.42-1.12-2.5-1.09-3.69.34-.52.63-1.4,1.22-2.17,1.32-2.05.24-4.13.22-6.19.27-1.03.03-2.06,0-3.15,0,.69,2.85,1.24,3.21,3.57,2.87,1.04-.15,2.12-.18,3.18-.17,5.17.04,4.06-.65,3.77,4.3-.06.99-.48,1.33-1.48,1.3-2.41-.07-4.81-.03-7.22-.02-.52,0-1.03.09-1.63.15,1.46,2.86,1.65,2.92,4.42,2.67,1.44-.13,2.9-.02,4.35-.05,1.07-.02,1.52.3,1.26,1.5-.28,1.3-.45,2.67-.39,4,.07,1.61-.58,2.01-2.07,1.94-2.31-.1-4.63-.03-7.03-.03.84,2.96.97,3.02,3.57,2.75,1.28-.13,2.57-.14,3.85-.18,1-.03,1.43.39,1.19,1.46-.18.81-.28,1.67-.22,2.5.12,1.61-.49,2.19-2.12,2.12-2.46-.11-4.93-.02-7.39-.03-.34,0-.67-.11-1.09-.18,2.5-3.45,2.24-5.44-.87-7.58-.32-.22-.63-.47-.99-.64-1.23-.58-1.21-1.21-.06-1.84,1.33-.73,2.68-1.42,4.34-2.29-1.28-1.07-2.47-2.06-3.7-3.09,1.28-1.34,2.16-2.75,1.41-4.36-.66-1.42-1.76-2.65-2.91-4.3,1.77-1.39,3.69-2.91,5.83-4.6-1.81-1.33-3.63-2.65-5.59-4.09-1.31,2.05-2.49,3.86-3.63,5.71-.5.81-1.04,1.03-1.94.6-1.26-.6-2.55-1.16-3.87-1.59-.5-.16-1.14.1-1.71.16,0,.19-.02.38-.02.57,1.08.77,2.2,1.5,3.22,2.33,1.88,1.53,1.86,1.56.26,3.37-.67.75-1.33,1.51-2,2.26q-1.84,2.05-3.73.16c-.51-.52-1.02-1.03-1.55-1.54-1.98-1.93-2.22-1.92-4.04.23-.25.3-.52.59-.77.89-1.06,1.25-2.53.99-3.73.61-.5-.16-.64-1.56-.89-2.41-.09-.31.02-.67-.02-1-.09-.83.15-1.29,1.05-1.57,3.5-1.07,6.76-2.98,10.59-2.92,1.12.02,1.41-.69.7-1.54-1.28-1.54-2.63-3.02-3.87-4.42-2.74,2.01-5.23,3.91-7.8,5.67-.51.35-1.46.37-2.09.17-1.73-.54-3.4-1.27-5.32-2.02,0,.89-.04,1.48,0,2.07.64,8.58,1.29,17.16,1.96,25.74.08.96-.09,1.47-1.2,1.49-1.02.02-1.63-.2-1.57-1.35.02-.39.05-.83-.1-1.16-.22-.48-.61-.89-.93-1.33-.29.41-.78.79-.84,1.23-.53,3.58-2.49,6.3-5.1,8.61-1.54,1.36-1.91,2.31-1.18,3.56.68,1.17,2.28,1.64,3.88,1.07,2.81-1.01,4.12-3.19,4.28-6.03.08-1.52.61-1.98,2.12-1.97,15.96.05,31.91.03,47.87.04.58,0,1.15.1,2.13.19-1.03,2.03-1.92,3.74-2.74,5.49-.15.31-.15.93.06,1.12.24.23.8.26,1.17.17.35-.08.63-.45.95-.66,3.03-2,5.52-4.95,9.46-5.4.9-.1,1.05-.8.42-1.47Zm-45.15-2.15c-2.15,0-4.31.06-6.46-.06-.36-.02-.93-.77-.98-1.23-.14-1.39-.16-2.8-.01-4.18.04-.37.83-.94,1.29-.95,3.13-.08,6.27,0,9.4-.07.65-.01,1.3-.38,1.95-.58-.33-.55-.58-1.18-1.01-1.63-1.15-1.21-2.38-2.35-3.6-3.5-.97-.91-1.87-.86-2.66.27-.41.6-.96,1.11-1.33,1.72-.96,1.57-2.49,1.16-3.76.88-.44-.1-.73-1.43-.86-2.23-.17-1.04-.04-2.13-.17-3.18-.17-1.36.23-1.9,1.7-1.84,2.79.11,5.58.03,8.29.03.21.72.38,1.33.55,1.94.65-.22,1.4-.31,1.95-.68,2.53-1.71,5.01-3.5,7.67-5.37.84,1.13,1.7,2.22,2.48,3.36.17.26.05.72.04,1.08,0,.09-.13.18-.19.27-2.96,4.85-3,4.84-8.3,2.93-.49-.18-1.05-.18-1.61-.17-.34,0-.68.02-1,0,.14.15.27.31.41.47.4.47.8.95,1.27,1.34,1,.85,2.09,1.61,3.45,2.64-2.13,1.81-4.02,3.44-5.93,5.04-.6.5-1.33.86-1.86,1.42-.46.49-.73,1.16-1.08,1.75l.39.5Zm.95-.09c2.81-1.67,5.19-3.07,7.55-4.5,2.82-1.71,2.83-1.75,5.05.68,1.07,1.16,2.05,2.41,3.25,3.82h-15.85Z"/>
  <path class="cls-1" d="m612.37,448.87c-1.18-.75-2.39-1.44-3.59-2.16-2.29-1.38-2.53-1.4-4.31.66-.89,1.04-1.83,1.4-3.17,1.39-7.1-.06-14.21-.02-21.32-.05-.81,0-1.66-.17-2.43-.44-1.63-.58-3.2-1.3-4.82-1.92-1.77-.68-2.45-.14-2.22,1.67.09.72.14,1.45.14,2.17,0,10.74.01,21.48,0,32.23,0,1.34-.17,2.67-.19,4.01-.02,1.29.72,1.72,1.87,1.3,1.2-.44,2.34-1.06,3.54-1.51,1.3-.48,1.7-1.33,1.66-2.7-.12-4.08-.05-8.17-.18-12.25-.05-1.59.51-2.01,2.03-1.97,3.75.1,7.5.03,11.24.03,3.92,0,7.83.03,11.75-.02,1.22-.01,1.72.41,1.68,1.66-.06,2.18.02,4.36-.03,6.55-.04,1.74-.69,2.34-2.41,2.17-2.56-.26-5.1-.65-7.66-.88-.54-.05-1.12.33-1.68.52.38.42.69,1.05,1.16,1.21,3.52,1.17,6.54,2.87,7.95,6.6.13.33,1.02.62,1.48.53.91-.18,1.76-.69,2.66-.97,3.9-1.23,5.45-3.74,5.31-7.93-.27-7.77-.03-15.55-.11-23.33-.02-1.76.3-3.1,1.86-4.14,1.23-.82,1.09-1.59-.22-2.43Zm-9.85,18.14c-.99-.01-1.98-.02-2.98-.02-2.98-.01-5.95,0-8.93,0-1.98,0-3.97,0-5.95,0-1.98,0-3.97,0-5.95.02-1.13.01-1.65-.31-1.56-1.53.09-1.28.07-2.57,0-3.85-.05-1.04.39-1.37,1.38-1.36,8.05.02,16.09.03,24.14,0,1.14,0,1.44.48,1.39,1.52-.07,1.23-.08,2.46,0,3.69.08,1.2-.4,1.55-1.55,1.54Zm-2.88-9.3c-3.02,0-6.05,0-9.07,0-2.85,0-5.71-.02-8.57,0-.95,0-1.9.01-2.85.03-1.24.02-1.8-.26-1.8-1.67,0-4.86-.06-4.86,4.83-4.86,6.61,0,13.21.05,19.82-.03,1.65-.02,2.11.54,2.08,2.13-.07,4.41-.01,4.41-4.44,4.41Z"/>
  <path class="cls-1" d="m701.57,652.32c-2.66-.7-5.51-.69-8.29-.9-2.78-.2-5.58-.21-8.37-.43-1.6-.12-2.54-1.17-2.34-2.29.31-1.77,2.24-3.39,3.58-3.3,2.38.17,4.82.46,7.16.15,6.67-.89,10.78-7.02,9.31-13.58-.27-1.21-.76-2.38-1.21-3.75,1.57,0,3.02-.05,4.46.01,1.16.05,1.64-.45,1.63-1.57,0-1.12-.37-1.82-1.65-1.8-2.18.03-4.36.03-6.54-.01-.54,0-1.15-.06-1.6-.32-3.31-1.97-6.92-2.09-10.57-1.63-4.58.58-8.6,4.3-9.74,8.81-1.18,4.66.4,8.92,4.41,11.92.34.26.63.58.95.86-1.34,1.42-2.69,2.67-3.82,4.1-1.8,2.26-2.24,4.88.92,6.8.23.14.41.37.77.69-.33.4-.58.69-.82.99-1.49,1.81-3.12,3.52-4.43,5.44-1.69,2.47-1.27,4.21,1.15,6.04.66.5,1.38.95,2.12,1.34,3.96,2.07,8.23,2.4,12.57,2.06,6.19-.47,11.37-2.89,14.71-8.32,2.83-4.6.83-9.93-4.37-11.31Zm-17.3-24.03c.72-2.24,2.47-3.56,4.89-3.73,2.34-.17,4.06.97,5.32,2.86,1.58,2.36,2.03,5.03,2.22,7.83-.22,1.43-.31,2.88-.68,4.27-.66,2.5-2.3,4.01-4.93,4.35-2.6.33-4.51-.92-5.73-2.99-2.33-3.97-2.47-8.29-1.09-12.59Zm18.92,35.3c-1.49,1.88-3.47,3-5.77,3.48-1.8.38-3.65.51-5.48.76l-.13.37c-3.16-.81-6.44-1.34-9.46-2.51-2.98-1.16-3.38-3.16-1.81-5.97.24-.44.56-.84.8-1.28.89-1.59,2.12-2.1,4.01-1.92,4.67.45,9.36.62,14.04.92.55.04,1.1.17,1.65.28,3.41.66,4.3,3.12,2.12,5.86Z"/>
  <path class="cls-1" d="m534.74,651.74c-4.52-.24-9.04-.43-13.56-.69-1.88-.11-2.98-1.18-2.74-2.46.32-1.67,2.34-3.27,3.72-3.13,1.94.19,3.91.39,5.84.24,7.44-.61,11.86-6.41,10.52-13.72-.22-1.21-.81-2.36-1.3-3.74,1.62,0,3.07-.05,4.51.02,1.14.05,1.66-.39,1.65-1.54-.02-1.09-.31-1.86-1.61-1.83-1.68.03-3.37.13-5.03-.03-1.51-.15-3.04-.47-4.46-.99-4.59-1.66-9.11-1.82-13.44.6-6.95,3.89-7.97,13.29-2.11,18.49.61.54,1.27,1.01,1.62,1.28-.97,1.18-1.8,2.3-2.75,3.32-2.95,3.18-2.85,5.37.42,8.09.13.1.22.24.48.53-.46.48-.87.86-1.21,1.29-1.48,1.88-3.09,3.69-4.36,5.7-1.19,1.87-.82,3.44.87,4.92.79.69,1.7,1.28,2.63,1.77,4.88,2.57,10.12,2.68,15.37,1.78,4.36-.74,8.09-2.85,10.94-6.34,2.18-2.68,2.99-5.77,1.64-8.94-1.35-3.19-4.27-4.41-7.62-4.59Zm-15.05-22.34c.62-2.55,2.57-4.48,4.98-4.82,2.35-.33,4.45.81,5.84,3.1,1.47,2.43,1.85,5.11,1.98,8.37-.1.67-.17,1.85-.47,2.97-.85,3.17-2.73,4.78-5.56,4.89-2.58.11-5.01-1.67-6.04-4.48-1.2-3.27-1.56-6.6-.72-10.03Zm19.36,34.2c-1.46,1.91-3.49,2.98-5.77,3.48-1.79.39-3.65.51-5.48.75-.04.11-.08.23-.11.34-3.12-.78-6.33-1.3-9.32-2.41-2.99-1.1-3.5-3.09-2-5.93.52-.98,1.2-1.88,1.91-2.74.27-.33.84-.63,1.25-.61,5.74.37,11.48.67,17.2,1.25,3.55.36,4.5,3,2.31,5.86Z"/>
  <path class="cls-1" d="m515,579.33c-2.63.5-3.57-.13-3.82-2.86-.15-1.67-.18-3.35-.18-5.03-.01-12.25,0-24.51,0-36.76,0-2.05-.59-2.45-2.53-1.66-2.54,1.02-5.07,2.06-7.57,3.16-.47.21-.77.78-1.15,1.18.53.12,1.08.4,1.57.32,2.12-.37,3.2.34,3.51,2.46.08.55.11,1.11.11,1.67.01,2.91.01,5.82,0,8.73,0,.41-.11.82-.18,1.33-5.05-3.17-9.99-2.91-14.61.24-7.61,5.2-10.32,16.97-6.02,25.09,3.05,5.75,8.91,8.5,14.89,6.67,2.01-.62,3.79-2,5.93-3.17,0,.64,0,1.29,0,1.93.01,1.83.53,2.29,2.2,1.65,2.81-1.07,5.59-2.25,8.34-3.46.38-.17.55-.8.81-1.21-.44-.11-.9-.37-1.3-.29Zm-10.06-4.33c-.01.32-.03.64-.04.96-.05.82-.53,1.84-1.16,2.36-3.59,2.98-7.21,2.75-10.62-.49-2.2-2.08-3.41-4.67-3.9-7.61-.79-4.83-.74-9.6,1.83-13.97,2.56-4.37,7.4-5.42,10.92-2.4,1.95,1.68,2.88,3.97,2.97,6.52.09,2.62.02,5.25.02,7.88,0,2.25.07,4.5,0,6.74Z"/>
  <path class="cls-1" d="m612.9,576.63c-1.11.98-1.81,1.7-2.61,2.28-1.29.95-2.34.53-2.65-1.05-.16-.82-.22-1.66-.23-2.5-.09-6.1-.12-12.19-.25-18.29-.07-3.13-1.7-5.26-4.62-6.33-3.34-1.23-6.76-1.28-10.24-.57-2.52.51-4.65,1.66-6.23,3.64-1.4,1.76-2.47,3.81-1.18,6,.49.84,1.75,1.53,2.76,1.7,1.3.21,2.38-.66,2.69-2.03.23-1.02.09-2.12.3-3.15.2-.95.41-2.04,1.01-2.72,2.26-2.59,7.33-1.86,8.68,1.3.64,1.5.71,3.24,1.03,4.88.27,1.41-.41,2.03-1.7,2.58-3.89,1.66-7.86,3.23-11.5,5.35-4.46,2.59-5.68,5.98-4.64,10.63.84,3.76,4.41,6.09,8.28,5.76,3.2-.27,5.41-2.2,7.81-3.9.46-.33.95-.63,1.57-1.04.17.71.28,1.14.37,1.57.5,2.46,1.58,3.32,4.05,3.25,2.32-.07,6.59-3.14,7.29-5.33.15-.48.02-1.06.02-2.06Zm-11.57-.86c0,.11-.01.25-.08.32-1.82,1.99-4.03,3.39-6.7,3.73-2.13.27-3.6-1.07-4.51-2.86-1.11-2.2-1.08-4.49.45-6.48,2.64-3.44,6.62-4.66,10.84-6.29,0,4.14,0,7.86,0,11.59Z"/>
  <path class="cls-1" d="m682.23,560.79c-3.93-11.57-15.71-13.53-23.3-8.48-6.78,4.51-9.35,14.77-5.78,22.88,3.85,8.73,13.75,12.07,21.86,7.11,5.76-3.52,7.71-9.29,8.21-16.34-.25-1.34-.38-3.33-1-5.16Zm-7.3,16.56c-2.02,4.98-7.96,5.95-11.7,2.09-3.15-3.24-4.23-7.39-4.76-11.72-.48-3.94-.39-7.85,1.51-11.44,2.62-4.93,8.69-5.45,12.23-1.11,2.77,3.39,3.77,7.41,4.05,11.66.05.78,0,1.56,0,2.35.15.03.29.06.44.09-.56,2.7-.75,5.56-1.77,8.08Z"/>
  <path class="cls-1" d="m350.03,633.92c-2.55-7.33-7.63-11.18-12.7-11.18-6.96-.11-11.06,1.67-13.99,5.61-4.07,5.46-5.29,11.58-3.08,18.07,4.11,12.06,16.25,13.38,23.85,7.86,5.53-4.02,8.25-13.68,5.93-20.37Zm-7,15.5c-.52,1.75-1.53,3.09-2.78,3.97-2.73,2.1-6.77,1.96-9.58-.98-3.38-3.55-4.56-8.03-4.72-12.75-.09-2.7.14-5.48.68-8.12.42-2.05,1.36-3.7,2.82-4.79,1.04-.85,2.37-1.4,3.99-1.56,3.46-.34,5.82,1.52,7.55,4.3,2.42,3.88,3.03,8.21,3.33,12.73-.42,2.41-.6,4.88-1.29,7.2Z"/>
  <path class="cls-1" d="m636.3,637.88c-.44-7.69-6.69-15.59-15.48-15.14-3.25,0-5.44.52-7.71,1.86-9.1,5.36-11,19.2-4.16,27.64,5.86,7.24,18.89,6.68,24.03-1.59,2.43-3.91,3.58-8.15,3.31-12.77Zm-7.74,11.48c-1.56,5.47-7.97,7.03-12.01,3.01-3.01-2.99-4.35-6.83-4.67-10.88-.26-3.3-.05-6.71.49-9.98.58-3.55,2.86-5.94,6.64-6.33,3.41-.35,5.71,1.56,7.45,4.23,2.51,3.85,3.04,8.22,3.4,12.73-.42,2.41-.63,4.88-1.3,7.22Z"/>
  <path class="cls-1" d="m470.63,631.98c-4.88-11.36-18.56-11.6-24.92-4.85-5.36,5.68-6.58,14.9-3.07,21.86,4.92,9.76,16.22,10.15,22.46,5.53,5.04-3.73,6.75-9.09,7.23-16.17-.38-1.48-.7-4.07-1.7-6.38Zm-6.48,18.01c-2.11,5.51-8.98,6.3-12.57,1.6-2.6-3.4-3.65-7.35-4.08-11.52-.37-3.61-.23-7.16,1.37-10.48,2.68-5.55,9.53-5.96,13-.84,2.79,4.1,3.56,8.72,3.9,13.61-.52,2.55-.7,5.23-1.62,7.63Z"/>
  <path class="cls-1" d="m404.22,563.23c3.24-.08,6.49-.04,9.73-.04,3.3,0,6.6.04,9.9-.04.48-.01,1.35-.6,1.34-.9-.12-4.59-1.75-8.75-6.62-11.2-6.91-3.47-15.71-.36-19.05,6.78-2.7,5.79-2.83,11.83-.54,17.76,2.59,6.69,9.71,10.32,16.3,8.41,5.37-1.56,8.02-5.75,9.62-10.74.2-.63-.21-1.46-.34-2.19-.48.52-.97,1.03-1.42,1.57-.14.16-.17.41-.27.61-2.35,4.49-6.63,6.28-11.42,4.72-6.04-1.96-8.84-8.65-8.56-13.81.02-.35.86-.91,1.33-.92Zm-1.33-3.41c.76-4.09,3.92-7.43,7.85-7.39,3.75.04,7.06,3.67,6.87,7.46-.05.96-.55,1.06-1.31,1.05-2.01-.03-4.02,0-6.03,0-1.55,0-3.1-.01-4.65,0-.52,0-1.03,0-1.55.02-.83.01-1.35-.21-1.18-1.13Z"/>
  <path class="cls-1" d="m893.66,571.57c-.24.29-.32.7-.48,1.06-2.2,4.85-6.78,6.98-11.74,5.36-5.98-1.95-8.64-8.25-8.67-13.64,0-1.14.77-1.17,1.61-1.16,3.19.01,6.38,0,9.57,0,3.3,0,6.6,0,9.9,0,.77,0,1.5,0,1.41-1.11-.34-4.28-1.81-7.95-5.56-10.37-6.62-4.27-15.92-1.68-19.95,5.52-2.35,4.21-2.38,8.78-2.04,13.39.32,4.32,2.14,7.96,5.49,10.74,4,3.32,8.6,4.15,13.34,2.18,4.98-2.07,7.43-6.37,8.57-11.47.07-.29-.36-.69-.56-1.04-.31.18-.68.29-.9.54Zm-16.17-18.34c2.58-1.41,5.06-.99,7.33.76,1.92,1.47,2.57,3.59,2.63,5.88,0,.34-.82.99-1.28,1.01-2,.11-4.01.05-6.02.05-2.01,0-4.02.05-6.02-.04-.42-.02-1.2-.61-1.17-.88.27-3.06,1.88-5.32,4.53-6.78Z"/>
</svg>