<?xml version="1.0" encoding="UTF-8"?>
<svg id="Layer_1" data-name="Layer 1" xmlns="http://www.w3.org/2000/svg" viewBox="0 0 512 512">
  <defs>
    <style>
      .cls-1 {
        fill: #a7a7a7;
      }
    </style>
  </defs>
  <path class="cls-1" d="m3.12,262.63c0-9.64.11-19.28-.05-28.92-.08-4.75,3.34-9.22,8.37-10.09,4.85-.84,10.19,2.79,11.03,7.65.18,1.04.29,2.11.29,3.17.03,5.77.04,11.54-.01,17.31,0,1.15.26,1.58,1.51,1.56,6.56-.07,13.12-.07,19.68-.03,1.09,0,1.42-.3,1.42-1.39-.05-6.2-.04-12.41-.02-18.61.01-4.92,3.61-8.98,8.51-9.68,4.61-.65,9.4,2.42,10.7,6.95.29,1.01.43,2.1.43,3.15.02,19.16.02,38.33,0,57.49,0,4.37-1.75,7.8-5.83,9.62-6.76,3.02-13.91-2.03-13.83-8.69.07-6.04,0-12.09.04-18.14,0-1.03-.27-1.35-1.32-1.35-6.64.05-13.28.04-19.91,0-1.02,0-1.37.27-1.37,1.33.04,5.81.04,11.62,0,17.42-.02,3.87-1.55,6.98-4.96,8.98-5.71,3.34-13.13.09-14.56-6.34-.11-.49-.11-1.02-.11-1.53,0-9.96,0-19.91,0-29.87h-.02Z"/>
  <path class="cls-1" d="m289.31,251.45c1.78-2.22,3.94-3.64,6.49-4.51,3.71-1.27,7.45-1.62,11.35-.92,2.86.51,5.54,1.37,7.96,2.96,1.01.67,1.99,1.43,2.85,2.27.56.55.92.67,1.57.18,2.47-1.89,5.12-3.5,8.07-4.54,3.7-1.31,7.48-1.54,11.36-.87,2.37.4,4.65.95,6.81,2,4.17,2.03,6.97,5.2,8.34,9.66.59,1.93.9,3.86.89,5.89-.03,10-.04,20,0,29.99.01,3.11-2.38,6.29-5.31,7.17-2.84.85-5.49.68-7.95-1.04-2.14-1.49-3.3-3.62-3.32-6.18-.07-8.61.09-17.23-.08-25.84-.07-3.44-1.45-6.42-4.94-7.9-3.85-1.64-8.44-.13-10.13,3.93-.61,1.48-.94,3.17-.96,4.77-.09,8.18-.06,16.36-.04,24.54.02,4.42-3.66,8.22-8.2,8.22-4.3,0-7.21-2.49-8.31-5.99-.13-.4-.1-.86-.1-1.29,0-8.26.02-16.52-.02-24.78-.01-2.46-.59-4.77-1.91-6.93-1.21-1.97-5.16-3.48-7.57-3.01-3.8.75-5.57,3.25-6.55,6.59-.25.84-.12,1.81-.12,2.71,0,7.98.04,15.97-.02,23.95-.03,4.22-2.1,7.3-6.34,8.6-3.62,1.11-8.35-1.1-9.69-4.65-.46-1.22-.76-2.58-.76-3.88-.06-12.41-.04-24.82-.02-37.22,0-3.9,1.88-6.82,5.14-8.12,3.93-1.56,8.97.05,10.98,3.52.12.2.28.37.53.71Z"/>
  <path class="cls-1" d="m212.07,266.84c.55-1.91,1.11-3.82,1.64-5.74,1.04-3.71,2.07-7.43,3.1-11.15,1.19-4.29,2.36-8.58,3.57-12.85.73-2.57,1.28-5.22,2.33-7.66,1.73-4.01,5.54-5.92,10.17-5.52,3.57.31,7.1,3.4,8.11,7.2.61,2.28.28,4.52-.48,6.74-2.52,7.29-4.99,14.59-7.48,21.89-2.3,6.74-4.62,13.48-6.92,20.22-1.64,4.8-3.25,9.61-4.91,14.4-1.09,3.15-2.86,5.73-6.24,6.77-5.25,1.61-10.07-.54-12.08-5.67-1.76-4.47-3.2-9.05-4.76-13.6-1.83-5.32-3.63-10.65-5.44-15.98-2.14-6.29-4.3-12.59-6.44-18.88-1.19-3.5-2.5-6.97-3.51-10.52-1.87-6.58,2.91-12.26,8.73-12.61,5.09-.31,9.27,3.26,10.38,8,1.14,4.9,2.69,9.71,4.04,14.57,1.65,5.92,3.27,11.84,4.91,17.76.25.91.55,1.81.83,2.71.16-.02.31-.04.47-.07Z"/>
  <path class="cls-1" d="m135.69,268.77c0-8.3-.02-16.59.03-24.89,0-.99-.35-1.1-1.15-1.1-3.16.03-6.32.01-9.48.01-5.14,0-9.1-3.43-9.78-8.75-.53-4.14,2.08-8.89,7.03-10.2.72-.19,1.47-.36,2.2-.36,13.08-.03,26.16-.04,39.24-.04,5.55,0,9.99,4.47,9.9,9.92-.08,4.98-4.32,9.31-9.29,9.42-3.28.07-6.56.06-9.84,0-1.05-.02-1.32.31-1.32,1.35.03,16,.01,32.01.01,48.01,0,3.89-1.49,6.92-5.09,8.63-5.96,2.84-12.51-1.87-12.38-7.72.17-8.1.04-16.2.04-24.3-.04,0-.08,0-.12,0Z"/>
  <path class="cls-1" d="m423.76,262.38c0-10.27.04-20.54-.02-30.81-.02-3.72,3.05-7.03,6.42-7.8,3.49-.79,6.37.03,8.87,2.39,1.51,1.43,2.23,3.37,2.23,5.41.04,20.54.05,41.08,0,61.62,0,3.31-2.34,6.58-5.86,7.57-4.16,1.17-8.26.03-10.29-3.31-.72-1.18-1.29-2.67-1.3-4.03-.11-10.35-.06-20.7-.06-31.05Z"/>
  <path class="cls-1" d="m471.19,262.39c0,10.19,0,20.38,0,30.57,0,3.75-2.13,6.68-5.78,7.77-3.87,1.15-7.31.46-9.98-2.77-1.24-1.51-1.77-3.3-1.77-5.24,0-15.72,0-31.44,0-47.16,0-4.42,0-8.85,0-13.27,0-3.92,1.9-6.87,5.47-8.24,4.45-1.72,10.38.36,11.65,5.26.19.75.39,1.52.39,2.29.03,10.27.02,20.54.02,30.81Z"/>
  <path class="cls-1" d="m107.18,292.01c-.26,4.86-3.43,8.51-7.59,9.53-3.62.89-7.08.12-9.86-2.66-5.49-5.49-11.08-10.9-16.45-16.51-2.1-2.19-2.78-4.97-2.02-8.15.95-3.98,3.43-6.53,7.11-7.51,3.37-.89,6.81-.34,9.51,2.32,4.72,4.66,9.42,9.33,14.14,14,1.59,1.57,3.41,2.97,4.17,5.19.42,1.23.67,2.52,1,3.79Z"/>
  <path class="cls-1" d="m96.33,223.83c5.25-.17,9.09,3.37,10,7.77.68,3.28-.13,6.38-2.57,8.82-5.19,5.2-10.46,10.32-15.67,15.5-1.95,1.95-4.24,3.15-7,3.25-3.97.15-7.94-1.88-9.66-6.09-1.7-4.15-.76-7.87,2.4-11.01,5.21-5.17,10.45-10.32,15.7-15.46,1.94-1.9,4.26-2.94,6.8-2.79Z"/>
  <path class="cls-1" d="m478.26,192.22c0,2.8-.13,5.61.04,8.41.16,2.63-3.01,4.31-4.96,3.89-2.81-.59-3.81-1.96-3.87-4.69-.1-5.05-.06-10.11.04-15.16.04-1.91.47-3.71,2.61-4.6,3.09-1.29,6.31,1.26,6.17,3.74-.16,2.79-.04,5.6-.03,8.41Z"/>
  <path class="cls-1" d="m500.01,215.37c2.64,0,5.29-.01,7.93,0,2.25.01,3.82,1.8,4.03,4.06.29,3.14-2.32,4.94-4.87,4.89-4.93-.09-9.87-.03-14.8-.03-2.78,0-3.84-1.6-4.41-3.64-.55-1.96.64-4.16,2.58-5.05.31-.14.68-.22,1.02-.22,2.84-.02,5.68,0,8.52-.01Z"/>
  <path class="cls-1" d="m483.48,204.43c-.21-1.04.53-1.96,1.31-2.78,3.44-3.6,6.93-7.14,10.38-10.73,3.04-3.17,6.67-1.2,7.57,1.86.46,1.58-.09,2.98-1.09,4.04-3.72,3.93-7.54,7.76-11.35,11.61-1.18,1.19-2.67,1.2-4.07.6-1.43-.62-2.37-1.8-2.68-3.39-.06-.31-.04-.63-.07-1.2Z"/>
  <path class="cls-1" d="m416.29,255.67c0-1.02.08-2.1-.2-3.07-1.47-5.12-7.19-7.3-11.61-5.17-1.81.87-3.1,2.22-4.16,4.02-2.8-2.9-5.91-4.77-9.81-5.43-4.52-.77-8.86-.34-13.05,1.3-4.13,1.62-7.56,4.24-10.35,7.75-3.92,4.92-5.87,10.58-6.34,16.74-.17,2.25.09,4.57.42,6.81.33,2.22.74,4.49,1.55,6.56,2.16,5.54,5.56,10.18,10.72,13.36,3.63,2.24,7.52,3.65,11.85,3.57,1.03-.02,2.06.01,3.08,0,3.09-.06,5.95-.91,8.47-2.72,1.23-.88,2.35-1.9,3.53-2.86,2.54,4.75,8.17,6.06,12.42,3.3,2.71-1.76,3.52-4.41,3.5-7.53-.05-12.21-.01-24.43-.02-36.64Zm-16.68,17.98c.05,4.31-.95,7.91-3.88,10.63-2.84,2.64-6.3,3.3-10.07,2.3-4.05-1.07-6.25-3.84-7.48-7.68-.95-2.94-1.06-5.89-.36-8.82.96-4.01,3.09-7.27,7.2-8.63,5.16-1.71,10.79.38,13.17,5.65,1.02,2.27,1.54,4.09,1.43,6.55Z"/>
</svg>