<?xml version="1.0" encoding="UTF-8"?>
<svg id="Layer_1" data-name="Layer 1" xmlns="http://www.w3.org/2000/svg" viewBox="0 0 512 512">
  <defs>
    <style>
      .cls-1 {
        fill: #a7a7a7;
      }
    </style>
  </defs>
  <path class="cls-1" d="m121.93,256.02c0-62.88.06-125.76-.13-188.63-.01-4.56,1.34-7.89,4.05-11.2,13.15-16.05,26.18-32.2,39.39-48.2,1.02-1.23,3.11-2.24,4.71-2.24,58.93-.11,117.86-.07,176.79-.14,2.27,0,3.69.7,5.08,2.42,11.51,14.28,23.1,28.5,34.66,42.74,1.27,1.57,2.28,3.44,3.8,4.71,4.48,3.76,4.8,8.59,4.8,14-.09,126.39-.04,252.78-.2,379.17,0,2.41-1.76,5.14-3.39,7.18-12.87,16.09-25.94,32.03-38.86,48.08-1.89,2.35-3.91,3.37-7.04,3.36-58.04-.1-116.08-.09-174.12-.02-3.01,0-4.91-.73-6.94-3.27-13.56-17.01-27.45-33.76-41.09-50.7-1.04-1.29-1.44-3.44-1.44-5.19-.07-64.02-.06-128.04-.06-192.06Zm262.93.42c0-20.45,0-40.9,0-61.36,0-42.17.02-84.35-.06-126.52,0-1.76-.44-3.9-1.48-5.22-11.83-14.82-23.77-29.55-35.83-44.18-1.13-1.37-3.23-2.76-4.88-2.76-56.14-.15-112.27-.14-168.41-.04-1.35,0-3.1.98-3.99,2.05-11.47,13.98-22.73,28.14-34.28,42.05-2.43,2.93-3.56,5.72-3.56,9.53.08,124.62.08,249.23,0,373.85,0,3.04.94,5.31,2.76,7.52,11.63,14.19,23.28,28.35,34.75,42.66,1.55,1.94,3,2.57,5.34,2.57,55.37-.05,110.75-.06,166.12.02,2.85,0,4.55-.96,6.3-3.15,11.37-14.23,22.85-28.38,34.45-42.42,1.9-2.3,2.84-4.48,2.83-7.49-.07-62.37-.05-124.74-.05-187.11Z"/>
  <path class="cls-1" d="m338.28,48.63c3.52,18.24,8.67,23.3,24.92,24.27v155.98c-17.88,1.21-24.36,11.79-24.75,25.04h-156c-.18-15.82-8.62-23.86-24.44-24.88V74.6c15.24-.33,25.65-10.97,24.27-25.96h156Zm-175.71,30.37v145.78c14.33,2.41,22.17,10.86,24.54,24.6h147.04c2.37-14.28,10.29-22.2,24.6-24.61V77.57c-15.74-2.3-22.9-12.97-24.66-24.44h-147.08c-1.69,15.03-10.43,23.08-24.44,25.87Z"/>
  <path class="cls-1" d="m182.24,471.89c.82-13.56-9.91-24.86-24.21-24.28v-154.91c7-.06,13.49-1.91,18.34-7.32,4.69-5.23,6.57-11.51,5.64-18.73h156.09c.36,6.78,1.98,13.21,6.98,18.14,4.91,4.83,11.06,6.79,18.11,6.83v155.97c-6.62-.15-12.74,1.61-17.75,6.37-5.08,4.83-6.78,11-7.24,17.93h-155.96Zm176.68-30.27c-.12.7,0,.33,0-.04,0-47.62-.02-95.23.05-142.85,0-2.64-1.29-3.1-3.35-3.47-10.05-1.81-19.32-10.56-20.89-20.41-.54-3.39-1.73-4-4.81-4-46.46.08-92.93.06-139.39.05-1.22,0-2.44,0-3.61,0-1.27,16.32-12.89,24.66-24.49,26.36v145.69c13.75,2.48,22.08,10.59,24.53,24.64,14.65,0,29.11,0,43.57,0,33.26,0,66.52-.01,99.79.02,2.47,0,3.95-.05,4.47-3.39.9-5.84,3.84-11.15,8.8-14.51,4.57-3.09,9.79-5.22,15.35-8.1Z"/>
  <path class="cls-1" d="m191.96,156.84h18.94c0,2.43,0,4.67,0,6.91,0,10.41.19,20.83-.08,31.24-.14,5.5,3.59,9.02,5.76,13.34.25.49,1.3.81,1.98.81,9.25.05,18.49.04,28.02.04v-111.12h-54.17v-18.15h132.05v17.77h-59.04v111.49c4.05,0,8.07,0,12.09,0,6.73,0,13.46-.13,20.19.06,2.82.08,4.91-.34,5.77-3.39.23-.82,1.06-1.46,1.34-2.28,2.56-7.46,7.66-10.12,15.39-8.85,3.43.56,7.03.09,11.22.09-3.29,5.76-6.3,11.08-9.35,16.38-2.64,4.59-5.44,9.09-7.94,13.75-1.1,2.06-2.43,2.9-4.75,2.9-33.27.02-66.53.09-99.8.21-2.47,0-3.86-.87-5.04-3.08-3.04-5.69-6.21-11.32-9.66-16.76-2.12-3.35-3.02-6.72-2.97-10.68.17-13.44.06-26.89.06-40.69Z"/>
  <path class="cls-1" d="m324.51,138.5v17.86h-49.32v-17.86h49.32Z"/>
  <path class="cls-1" d="m330.28,352.26c4.91,4.34,9.46,8.36,14.2,12.55-3.67,4.26-7.02,8.5-10.8,12.32-1.2,1.21-3.53,1.82-5.34,1.83-41.01.1-82.02.15-123.03-.03-4.71-.02-8.36,1.04-11.34,4.66-.85,1.04-2.09,1.75-3.42,2.84-4.09-4.66-7.99-9.11-12.26-13.97,4.51-3.93,8.97-7.95,13.63-11.72.9-.73,2.61-.62,3.95-.62,39.99-.03,79.99-.21,119.98.16,6.71.06,11.1-2.02,14.42-8.03Z"/>
</svg>