<?xml version="1.0" encoding="UTF-8"?>
<svg id="Layer_1" data-name="Layer 1" xmlns="http://www.w3.org/2000/svg" viewBox="0 0 512 512">
  <defs>
    <style>
      .cls-1 {
        fill: #fff;
      }
    </style>
  </defs>
  <path class="cls-1" d="m510.84,248.51h-69.23c5.31,15.01,26.04,21.58,40.05,10.25h25.51c-8.61,18.94-31.93,31.69-55.84,24.13-24.21-7.65-38.52-33.15-30.45-58.54,7.68-24.16,31.84-37.56,56.63-30.98,24.92,6.62,38.74,31.65,33.33,55.14Zm-21.63-20.66c-2.52-5.82-6.69-10.23-12.35-12.86-8.19-3.8-16.49-3.67-24.49.83-4.79,2.7-8.39,6.54-10.6,11.61-.04,1.56,1.2.86,1.79.86,14.47.05,28.94.05,43.41.02.75,0,1.5-.31,2.24-.47Z"/>
  <path class="cls-1" d="m332.41,285.37h-20.11v-7.85c-10.21,6.64-21.05,9.1-32.82,7.52-11.9-1.6-21.7-7.14-29.25-16.24-13.71-16.5-14.66-38.62-2.85-56.04,11.77-17.35,31.76-23.94,50.68-18.93,20.46,5.42,34.84,24.36,34.38,44.56,0,15.66-.02,31.32-.03,46.99Zm-46.4-72.41c-13.87-.51-25.9,11.36-26.07,25.23-.2,15.54,11.53,26.86,25.84,26.88,14.5.02,26.08-10.48,26.32-26.02.22-14.38-11.34-26.33-26.09-26.09Z"/>
  <path class="cls-1" d="m355.69,192.4c-.14-.45-.4-.91-.4-1.36-.03-5.89-.03-11.77,0-17.66,0-.45.27-.9.42-1.35,6.21.02,12.41.06,18.62.05.36,0,.72-.28,1.07-.43.02-6.46.04-12.91.09-19.37,0-.74.26-1.48.41-2.22,6.73.05,13.46.09,20.18.14.01.8.04,1.61.04,2.41,0,43.34,0,86.68,0,130.02v2.69h-20.65v-2.51c0-29.14,0-58.27,0-87.41,0-.88-.04-1.75-.07-2.63-.36-.15-.73-.44-1.09-.44-6.21,0-12.42.03-18.63.06Z"/>
  <path class="cls-1" d="m206.35,150.07c.14.6.41,1.2.41,1.81.02,44.12.02,88.24.01,132.36,0,.29-.03.58-.06,1.04h-20.43c-.04-.5-.14-1.05-.14-1.61,0-44.19,0-88.39,0-132.58,0-.29.02-.58.04-.88,6.73-.05,13.46-.09,20.18-.14Z"/>
  <path class="cls-1" d="m78.84,285.45c-9.58.25-16.91-7.67-16.92-16.87,0-9.56,7.88-17.22,17.44-16.96,9.43.26,16.53,7.58,16.64,17,.1,9.17-7.53,17.21-17.16,16.83Z"/>
  <path class="cls-1" d="m16.81,285.45c-9.2.31-16.95-7.47-16.88-16.94.07-9.32,7.46-17.01,17.22-16.88,9.66.13,17,7.8,16.81,17.44-.17,9.22-7.73,16.64-17.15,16.37Z"/>
  <path class="cls-1" d="m140.94,285.45c-8.42.68-17.34-7.9-16.87-17.59.38-7.9,7.57-16.56,17.2-16.27,9.15.28,16.77,7.55,16.75,17.18-.02,8.92-7.85,17.23-17.08,16.68Z"/>
  <path class="cls-1" d="m481.9,365.4c-8.86-.09-16.8-7.58-16.75-17.24.04-8.17,6.81-17.42,18.46-16.68,7.84.49,15.73,7.33,15.67,16.88-.06,9.53-7.49,16.96-17.38,17.04Zm12.63-17.07c.72-6.23-5.87-12.43-12.25-12.48-6.63-.05-12.53,6.58-12.47,12.17.07,7.37,5.53,12.82,12.19,12.86,7.18.04,12.72-5.22,12.53-12.54Z"/>
  <path class="cls-1" d="m286.02,332.16c13.4-1.84,19.71,6.49,20.51,14.21,1.23,11.91-7.89,19.95-20.51,18.48v-32.68Zm4.6,28.06c3.59.14,6.59-1.17,8.77-3.98,3-3.87,3.6-8.22,1.8-12.78-1.36-3.45-5.21-7.2-10.48-6.99-.15.51-.44,1.02-.44,1.53-.03,6.86-.03,13.72,0,20.59,0,.55.23,1.09.35,1.64Z"/>
  <path class="cls-1" d="m185.3,332.07h4.35c0,.82,0,1.53,0,2.24,0,6.58,0,13.16,0,19.74,0,3.1,2.24,5.97,5.04,6.49,3.5.65,7.06-1.21,8.08-4.33.33-1.01.47-2.13.48-3.2.04-6.22.02-12.43.02-18.65,0-.71,0-1.43,0-2.25h4.39v2.06c0,6.73,0,13.45,0,20.18,0,5.15-4.14,9.84-9.31,10.6-6.92,1.02-12-2.74-13.15-9.73-.04-.27-.22-.53-.33-.79.13-.84.36-1.68.36-2.53.04-6.62.05-13.24.06-19.85Z"/>
  <path class="cls-1" d="m6.31,355.7c1.58-.59,2.96-1.1,4.27-1.58.53,1.4.93,2.78,1.56,4.05,1.03,2.08,3.68,3.28,5.82,2.78,2.68-.61,4.51-2.52,4.75-4.94.29-3.01-.96-5.29-3.7-6.77-2.33-1.26-4.76-2.37-6.94-3.86-4.23-2.9-3.76-9.65.52-12.53,4.51-3.03,11.26-.32,11.87,5.06-1.13.49-2.33,1.01-3.66,1.59-.95-1.69-1.77-3.73-4.14-3.47-1.7.18-2.75,1.41-3.1,3.2.29,2.66,2.32,3.75,4.52,4.63,3.66,1.46,6.79,3.53,8.49,7.25,3.06,6.69-2.65,14.16-9.03,14.37-5.13.17-9.82-3.54-10.68-8.44-.06-.34-.26-.65-.55-1.34Z"/>
  <path class="cls-1" d="m119.74,332.05v4.33h-7.38v28.74c-1.66-.22-3.08-.41-4.51-.6.02-9.06.05-18.12.06-27.19,0-.29-.28-.57-.42-.86h-7.58c.18-1.69.34-3.12.49-4.55,6.45.04,12.9.08,19.34.12Z"/>
  <path class="cls-1" d="m383.86,332.07h4.23v32.81h-4.22c0-10.94-.01-21.87-.02-32.81Z"/>
  <path class="cls-1" d="m383.86,332.07c0,10.94.01,21.87.02,32.81-.17-.68-.48-1.36-.48-2.04-.03-9.59-.03-19.18,0-28.77,0-.67.3-1.34.46-2.01Z"/>
  <path class="cls-1" d="m107.49,336.48c.15.29.42.57.42.86,0,9.06-.03,18.12-.06,27.19-.12-.93-.34-1.86-.34-2.8-.03-8.41-.02-16.83-.02-25.24Z"/>
  <path class="cls-1" d="m185.3,332.07c-.01,6.62-.02,13.24-.06,19.85,0,.84-.24,1.68-.36,2.53-.02-6.94-.05-13.88-.04-20.82,0-.52.3-1.04.46-1.56Z"/>
  <path class="cls-1" d="m206.35,150.07c-6.73.05-13.46.09-20.18.14.54-.17,1.08-.48,1.62-.48,5.7-.03,11.4-.03,17.09,0,.49,0,.98.22,1.47.35Z"/>
  <path class="cls-1" d="m396.08,150.21c-6.73-.05-13.46-.09-20.18-.14.71-.12,1.42-.35,2.12-.35,5.26-.03,10.52-.04,15.78,0,.76,0,1.52.32,2.28.49Z"/>
  <path class="cls-1" d="m375.4,171.66c-.36.15-.72.42-1.07.43-6.21,0-12.41-.03-18.62-.05.93-.12,1.86-.34,2.79-.35,5.63-.04,11.27-.02,16.9-.02Z"/>
  <path class="cls-1" d="m355.69,192.4c6.21-.03,12.42-.06,18.63-.06.36,0,.73.29,1.09.44-5.72,0-11.45,0-17.17-.04-.85,0-1.7-.22-2.55-.34Z"/>
  <path class="cls-1" d="m119.74,332.05c-6.45-.04-12.9-.08-19.34-.12.48-.12.96-.34,1.43-.34,5.45-.02,10.9-.03,16.35,0,.52,0,1.04.3,1.56.46Z"/>
  <path class="cls-1" d="m441.76,227.43c.53.15,1.07.44,1.6.44,15.28,0,30.56-.01,45.84-.03-.75.16-1.5.47-2.24.47-14.47.03-28.94.03-43.41-.02-.59,0-1.83.7-1.79-.86Z"/>
  <path class="cls-1" d="m290.62,360.23c-.12-.55-.35-1.09-.35-1.64-.02-6.86-.03-13.72,0-20.59,0-.51.29-1.02.44-1.53"/>
</svg>