<?xml version="1.0" encoding="UTF-8"?>
<svg id="Layer_3" data-name="Layer 3" xmlns="http://www.w3.org/2000/svg" viewBox="0 0 1000 1000">
  <defs>
    <style>
      .cls-1 {
        fill: #fff;
      }

      .cls-2 {
        fill: #faa41a;
      }
    </style>
  </defs>
  <g>
    <polygon class="cls-2" points="103.98 260.41 231.17 189.91 191.64 338.05 278.84 488.5 306.82 479.95 217.76 326.26 259.17 174.38 388.32 102.8 340.58 279.11 434.35 440.96 460.66 432.91 365.92 269.38 415.97 87.47 544.4 16.28 488.26 222.42 631.8 471.04 196.27 604.2 68.81 383.43 103.98 260.41"/>
    <path class="cls-2" d="m632.25,131.25l-63.53,130.91,143.13,103.99,36.26,211.96-81.81,25.01-75.34,196.25,288.53-111.77,74.49-322.61-321.73-233.76Zm182.35,403.77l-19.14-108.54,47.38,34.84-28.24,73.7Z"/>
  </g>
  <g>
    <polygon class="cls-2" points="495.22 970.43 463.56 970.43 457.88 965.75 457.88 908.01 422.44 908.01 422.44 928.29 434.26 928.29 434.26 972 457.41 990.72 492.38 990.72 497.11 982.92 501.93 990.72 518.85 990.72 518.85 908.01 495.22 908.01 495.22 970.43"/>
    <polygon class="cls-2" points="240.32 935.94 312.81 954.83 312.81 968.56 264.99 968.56 264.99 960.76 240.32 954.83 240.32 990.72 337.48 990.72 337.48 937.35 264.99 918.46 264.99 903.64 312.81 903.64 312.81 913.16 337.48 919.4 337.48 881.47 240.32 881.47 240.32 935.94"/>
    <polygon class="cls-2" points="381.9 965.75 381.9 928.29 405.05 928.29 405.05 908.01 381.9 908.01 381.9 881.47 358.27 881.47 358.27 908.01 346.45 908.01 346.45 928.29 358.27 928.29 358.27 972 381.42 990.72 423.95 990.72 423.95 970.43 387.57 970.43 381.9 965.75"/>
    <path class="cls-2" d="m597.29,904.88l-60.96,12.49v73.35h58.13l4.73-7.8,4.82,7.8h16.92v-109.25h-23.63v23.41Zm0,65.55h-37.33v-38.24l37.33-7.8v46.04Z"/>
    <polygon class="cls-2" points="629.9 928.29 641.71 928.29 641.71 990.72 665.34 990.72 665.34 908.01 629.9 908.01 629.9 928.29"/>
    <path class="cls-2" d="m682.82,908.01v82.72h85.53v-82.72h-85.53Zm61.91,62.43h-38.28v-42.14h38.28v42.14Z"/>
    <rect class="cls-2" x="641.71" y="875.23" width="23.63" height="21.85"/>
  </g>
  <g>
    <polygon class="cls-1" points="89.47 253.41 216.66 182.91 177.13 331.05 264.33 481.5 292.31 472.95 203.25 319.26 244.67 167.38 373.81 95.8 326.07 272.11 419.85 433.95 446.15 425.91 351.41 262.38 401.46 80.47 529.9 9.28 473.75 215.42 617.29 464.04 181.76 597.2 54.3 376.43 89.47 253.41"/>
    <path class="cls-1" d="m617.75,124.25l-63.53,130.91,143.13,103.99,36.26,211.96-81.81,25.01-75.34,196.25,288.53-111.77,74.49-322.61-321.73-233.76Zm182.35,403.77l-19.14-108.54,47.38,34.84-28.24,73.7Z"/>
  </g>
  <g>
    <polygon class="cls-1" points="487.77 962.25 456.11 962.25 450.44 957.57 450.44 899.82 415 899.82 415 920.11 426.81 920.11 426.81 963.81 449.96 982.54 484.93 982.54 489.66 974.74 494.48 982.54 511.4 982.54 511.4 899.82 487.77 899.82 487.77 962.25"/>
    <polygon class="cls-1" points="232.87 927.76 305.36 946.64 305.36 960.38 257.54 960.38 257.54 952.58 232.87 946.64 232.87 982.54 330.03 982.54 330.03 929.16 257.54 910.28 257.54 895.45 305.36 895.45 305.36 904.97 330.03 911.22 330.03 873.29 232.87 873.29 232.87 927.76"/>
    <polygon class="cls-1" points="374.45 957.57 374.45 920.11 397.61 920.11 397.61 899.82 374.45 899.82 374.45 873.29 350.82 873.29 350.82 899.82 339.01 899.82 339.01 920.11 350.82 920.11 350.82 963.81 373.98 982.54 416.51 982.54 416.51 962.25 380.12 962.25 374.45 957.57"/>
    <path class="cls-1" d="m589.84,896.7l-60.96,12.49v73.35h58.13l4.73-7.8,4.82,7.8h16.92v-109.25h-23.63v23.41Zm0,65.55h-37.33v-38.24l37.33-7.8v46.04Z"/>
    <polygon class="cls-1" points="622.45 920.11 634.26 920.11 634.26 982.54 657.89 982.54 657.89 899.82 622.45 899.82 622.45 920.11"/>
    <path class="cls-1" d="m675.38,899.82v82.72h85.53v-82.72h-85.53Zm61.91,62.43h-38.28v-42.14h38.28v42.14Z"/>
    <rect class="cls-1" x="634.26" y="867.05" width="23.63" height="21.85"/>
  </g>
</svg>