<?xml version="1.0" encoding="UTF-8"?>
<svg id="Layer_3" data-name="Layer 3" xmlns="http://www.w3.org/2000/svg" viewBox="0 0 1000 1000">
  <defs>
    <style>
      .cls-1 {
        fill: #231f20;
      }
    </style>
  </defs>
  <path class="cls-1" d="m246,348.33l79.3-43.96-24.64,92.36,54.36,93.8,17.45-5.33-55.53-95.82,25.82-94.68,80.51-44.63-29.76,109.92,58.46,100.9,16.4-5.01-59.07-101.95,31.21-113.41,80.07-44.38-35,128.52,89.49,155-271.53,83.02-79.46-137.63,21.92-76.69Zm529.93,65.2l-46.44,201.12-179.88,69.68,46.97-122.35,51-15.59-22.61-132.14-89.23-64.83,39.6-81.61,200.58,145.73Zm-69.29,60.05l-29.54-21.72,11.93,67.67,17.61-45.95Zm-212.32,317.64h-19.74l-3.54-2.92v-36h-22.1v12.65h7.37v27.24l14.44,11.68h21.8l2.95-4.87,3.01,4.87h10.55v-51.57h-14.73v38.92Zm-158.91-21.5l45.19,11.77v8.56h-29.81v-4.87l-15.38-3.7v22.38h60.57v-33.28l-45.19-11.77v-9.24h29.81v5.94l15.38,3.89v-23.64h-60.57v33.96Zm88.27,18.58v-23.35h14.44v-12.65h-14.44v-16.54h-14.73v16.54h-7.37v12.65h7.37v27.24l14.44,11.68h26.52v-12.65h-22.69l-3.54-2.92Zm134.28-52.54h14.73v68.11h-10.55l-3.01-4.87-2.95,4.87h-36.24v-45.73l38-7.78v-14.6Zm0,26.76l-23.27,4.87v23.84h23.27v-28.7Zm20.33,2.43h7.37v38.92h14.73v-51.57h-22.1v12.65Zm86.32-12.65v51.57h-53.32v-51.57h53.32Zm-14.73,12.65h-23.86v26.27h23.86v-26.27Zm-64.23-19.46h14.73v-13.62h-14.73v13.62Z"/>
</svg>