<?xml version="1.0" encoding="UTF-8"?>
<svg id="Layer_1" data-name="Layer 1" xmlns="http://www.w3.org/2000/svg" viewBox="0 0 512 512">
  <defs>
    <style>
      .cls-1 {
        fill: #a7a7a7;
      }
    </style>
  </defs>
  <path class="cls-1" d="m426.97,254.97c-.24-.32-.45-.66-.72-.95-.69-.76-1.19-1.62-1.43-2.63-.04-.17-.12-.34-.1-.5.13-.81-.08-1.57-.23-2.36-.22-1.15-.11-2.29.35-3.38.14-.33.07-.47-.22-.68-1.22-.89-2.58-1.39-4.05-1.65-.23-.04-.45-.1-.67-.15-1.12-.27-1.39-1.14-.53-1.94.91-.84,1.84-1.67,2.87-2.34,2.06-1.34,4.34-2.16,6.83-2.13,1.19.01,2.42.05,3.5.72.08.05.3-.05.4-.14.23-.21.4-.52.66-.68.64-.39.54-.87.34-1.45-.8-2.25-1.19-4.56-1.11-6.95.16-4.56,1.64-8.63,4.69-12.06,1.89-2.13,4.1-3.88,6.68-5.13,2.13-1.03,4.38-1.58,6.73-1.74,2.54-.17,5.05.08,7.52.7,2.01.51,3.78,1.56,5.49,2.69,2.81,1.85,4.9,4.37,6.44,7.33,1.21,2.33,1.82,4.81,2.01,7.45.39,5.37-1.42,9.97-4.73,14.04-2.18,2.68-5.05,4.4-8.29,5.59-2.8,1.03-5.69,1.19-8.6.95-1.62-.13-3.21-.61-4.81-.98-.32-.07-.51-.11-.74.18-.32.4-.88.7-1,1.13-.11.4.25.91.35,1.39.9,3.94-.13,7.41-2.58,10.52-.46.58-1.01,1.1-1.53,1.63-.64.64-1.58.51-1.77-.59-.26-1.51-.81-2.94-1.57-4.28-.41-.73-.42-.73-1.18-.43-1.32.5-2.65.49-3.98.07-.39-.12-.74-.19-1.17-.12-1.1.18-2.1-.2-3.04-.73-.27-.15-.56-.29-.83-.43,0,0,.03.03.03.03Zm.23-3.07l-.03.03.04-.02c-.07.7.48.88.95,1.12.3.32.59.65.9.96.04.04.14.02.22.02-.02-.07-.02-.16-.07-.2-.35-.26-.71-.52-1.07-.77-.32-.38-.63-.76-.95-1.14Zm43.38-23.7c0-.58.05-1.16,0-1.73-.38-3.57-1.74-6.74-4.07-9.46-2.79-3.26-6.25-5.37-10.52-6.14-4.13-.75-8.03-.18-11.72,1.76-2.7,1.42-4.85,3.47-6.61,5.96-2.01,2.85-3,6-3.04,9.47-.03,2.24.37,4.42,1.23,6.49.47,1.12.43,2-.66,2.68-.35.22-.2.37.03.58.76.67,1.5,1.35,2.24,2.03.45.42.44.42.87-.04,1.72-1.86,3.45-3.72,5.16-5.59,1.38-1.51,2.74-3.04,4.13-4.54.3-.32.25-.47-.09-.73-.48-.36-.93-.79-1.31-1.25-1.08-1.3-1.25-2.79-.6-4.3.63-1.49,1.89-2.23,3.5-2.24,2.09-.01,3.52,1.1,3.83,2.92.28,1.65-.06,3.16-1.32,4.36-.12.12-.24.25-.37.37-.21.19-.23.33,0,.56.41.39.39.41.81-.02.33-.33.66-.65,1-.96.87-.8,1.87-1.2,3.07-1.12,1.66.11,3.28,1.37,3.66,2.97.41,1.72-.12,3.28-1.63,4.22-1.6,1-3.25.93-4.74-.24-.45-.35-.88-.74-1.31-1.12-.24-.21-.45-.23-.67.02-.25.28-.52.54-.76.83-.96,1.11-1.91,2.24-2.89,3.33-1.88,2.1-3.78,4.2-5.68,6.28-.28.31-.29.5,0,.78.36.33.69.7,1.03,1.05.45.46.48.49.91.03.67-.71,1.44-.89,2.35-.56.24.09.5.12.75.21,3.28,1.14,6.63,1.22,9.96.4,4.49-1.11,7.99-3.68,10.58-7.55,1.98-2.96,2.88-6.18,2.88-9.69Zm-27.33,23.86c-.05-.51-.08-1.03-.17-1.53-.07-.38-.24-.74-.36-1.11-.23.24-.46.48-.7.71-1.3,1.3-2.6,2.6-3.91,3.88-.26.26-.28.41-.08.71.85,1.3,1.63,2.64,1.96,4.19.02.1.11.19.16.29.11-.08.24-.13.32-.24.37-.51.75-1.02,1.09-1.55,1.03-1.63,1.7-3.38,1.7-5.36Zm-14.43-14.04c-2.79-.05-4.94,1.43-7.09,2.91-.2.14-.14.29.06.38.16.07.33.09.5.14,1.27.4,2.5.9,3.6,1.65.4.27.62.29.94-.05.97-1.02,1.97-2.02,2.96-3.03.44-.45.89-.91,1.34-1.36.17-.17.28-.34-.09-.39-.74-.09-1.48-.17-2.22-.26Zm13.4,9.08c-.09-.11-.15-.2-.23-.28-1.22-1.22-2.43-2.44-3.67-3.65-1.42-1.38-2.86-2.74-4.27-4.13-.21-.21-.31-.28-.54-.04-.37.4-.77.77-1.17,1.14-.2.19-.25.32,0,.54,1.44,1.19,2.84,2.42,4.29,3.6,1.45,1.18,2.92,2.32,4.4,3.47.14.11.44.26.49.21.26-.25.46-.56.69-.86Zm-15.98.22c0,.65.11,1.26.61,1.74.47.46.93.94,1.41,1.39,1.31,1.24,2.63,2.48,3.96,3.71.2.19.47.33.73.43.75.3,1.47.09,2.18-.18.46-.18.47-.22.11-.53-.95-.83-1.9-1.67-2.87-2.47-1.88-1.56-3.78-3.09-5.67-4.63-.09-.08-.25-.08-.37-.12-.03.11-.07.21-.08.32-.01.11,0,.23,0,.35Zm23.99-15.77c-.17-.14-.33-.25-.46-.39-.41-.43-.41-.44-.81,0-1.54,1.67-3.08,3.34-4.61,5.02-1.57,1.72-3.14,3.44-4.7,5.16-.07.08-.18.25-.16.27.23.25.46.51.74.69.08.05.35-.09.47-.21.95-1,1.9-2,2.83-3.02,1.34-1.46,2.67-2.93,4-4.41.81-.9,1.59-1.82,2.39-2.73.09-.11.18-.22.3-.37Zm-10.17,18.02c-.12-.09-.18-.14-.24-.18-.21-.15-.43-.28-.62-.45-.94-.84-1.86-1.72-2.82-2.55-1.4-1.2-2.82-2.36-4.24-3.53-.33-.28-.7-.51-1-.81-.32-.32-.53-.23-.76.07-.07.09-.13.2-.22.27-.38.27-.27.52.03.75.32.25.66.46.97.72,1.07.88,2.12,1.77,3.19,2.64,1.43,1.17,2.87,2.31,4.29,3.48.52.43.5.45,1.03-.06.12-.11.24-.22.39-.35Zm-11.64-5.41c-.31.21-.6.4-.87.61-.02.02.03.2.1.26.9.8,1.8,1.6,2.73,2.38,2,1.67,4.03,3.32,6.03,5,.34.28.54.4.81-.03.07-.12.2-.2.32-.29.28-.21.27-.35-.03-.57-.9-.66-1.79-1.35-2.66-2.06-.89-.73-1.73-1.51-2.62-2.24-1.17-.97-2.37-1.91-3.56-2.86-.08-.07-.17-.14-.24-.2Zm27.19-10.9c.75.07,1.22-.18,1.59-.54.55-.54.89-1.2.65-2.02-.27-.92-.8-1.36-1.72-1.44-1.04-.1-2.64.98-2.83,1.91-.01.05,0,.11.02.16.2.73,1.69,1.9,2.29,1.93Zm-4.55-8.13c0-.09,0-.17,0-.26-.04-.85-.65-1.57-1.5-1.79-.72-.18-1.69.25-2.08.92-.43.75-.36,1.65.21,2.24.44.46.91.88,1.39,1.29.1.08.37.12.44.05.7-.7,1.62-1.27,1.53-2.46Zm-179.93,35.38c.16-1.03.38-2.48.62-3.93.59-3.55,1.2-7.09,1.8-10.64.54-3.18,1.09-6.35,1.63-9.53.24-1.39.44-2.78.67-4.18.4-2.44.82-4.88,1.23-7.32.24-1.42.43-2.84.69-4.26.42-2.29.76-4.61,1.34-6.86.76-2.95,4.27-4.41,6.94-2.98.57.31,1.06.79,1.52,1.26,1.84,1.87,3.65,3.76,5.48,5.64,2.23,2.29,4.47,4.57,6.71,6.86,1.16,1.19,2.32,2.39,3.5,3.57.08.08.38.05.5-.04.79-.59,1.55-1.2,2.32-1.8,2.89-2.25,5.79-4.49,8.68-6.73,3.42-2.65,6.83-5.31,10.24-7.96.41-.32.82-.63,1.25-.93,1.61-1.14,3.34-1.13,5.07-.37.42.18.76.61,1.06.99.74.94.88,2.07.73,3.2-.22,1.71-.53,3.41-.82,5.11-.33,1.96-.7,3.91-1.03,5.86-.54,3.23-1.03,6.47-1.57,9.71-.38,2.24-.82,4.47-1.2,6.71-.41,2.41-.77,4.83-1.17,7.23-.37,2.18-.79,4.35-1.17,6.53-.2,1.13-.39,2.27-.54,3.41-.14,1.11-.53,2.12-1.04,3.09-.14.27-.35.55-.59.73-1.51,1.15-3.16,1.77-5.08,1.25-1.62-.43-2.94-1.94-2.58-4.01.62-3.57,1.16-7.16,1.74-10.74.59-3.64,1.19-7.27,1.8-10.9.55-3.29,1.13-6.58,1.68-9.87.2-1.22.38-2.45.56-3.67.02-.1-.03-.22-.05-.32-.1.04-.21.07-.29.13-2.57,2-5.14,4-7.7,6-2.25,1.75-4.49,3.51-6.75,5.25-.84.65-1.71,1.27-2.58,1.87-1.19.83-3.17.95-4.3-.01-1.07-.92-2.2-1.77-3.25-2.72-1.5-1.35-2.98-2.72-4.42-4.14-1.91-1.88-3.76-3.81-5.64-5.72-.08-.08-.15-.18-.24-.25-.13-.09-.28-.16-.42-.24-.03.14-.06.27-.08.41-.23,1.36-.46,2.72-.68,4.08-.51,3.04-1.01,6.07-1.52,9.11-.38,2.24-.81,4.47-1.18,6.72-.5,2.98-.97,5.96-1.45,8.94-.3,1.85-.58,3.7-.88,5.54-.2,1.23-.54,2.4-1.37,3.39-1.26,1.51-4.04,2.27-5.92,1.52-1.44-.58-2.26-1.89-2.24-4Zm60.59-46.66c-.07-.46-.11-.86-.2-1.25-.21-.83-.83-1.46-2.06-1.47-.74,0-1.36.26-1.92.67-1.39,1.02-2.75,2.08-4.13,3.13-1.74,1.32-3.49,2.64-5.22,3.98-1.46,1.13-2.89,2.29-4.35,3.41-1.38,1.07-2.78,2.12-4.17,3.19-1.1.84-2.18,1.7-3.28,2.54-.77.59-1.58,1.15-2.34,1.75-.55.43-.55.46-1.04-.05-1.6-1.62-3.19-3.25-4.79-4.87-2.21-2.23-4.44-4.45-6.64-6.7-1.84-1.88-3.69-3.74-5.44-5.69-.76-.84-1.62-.98-2.57-.78-1.68.35-2.94,1.85-3.23,3.57-.55,3.32-1.12,6.64-1.67,9.96-.51,3.12-.98,6.25-1.51,9.37-.51,3.03-1.09,6.06-1.61,9.09-.52,3.01-1,6.02-1.49,9.03-.42,2.55-.84,5.11-1.25,7.66-.17,1.05.13,1.93.97,2.6.9.72,1.91.63,2.85.19,1.12-.52,1.87-1.44,2.15-2.67.18-.81.29-1.64.43-2.46.49-2.89.98-5.79,1.46-8.68.55-3.29,1.09-6.59,1.65-9.88.61-3.6,1.25-7.2,1.85-10.8.32-1.9.58-3.81.88-5.71.04-.28.16-.55.24-.83.1-.38.29-.37.54-.13.79.76,1.58,1.51,2.36,2.29,2.66,2.64,5.31,5.29,7.97,7.93.37.37.74.72,1.13,1.07,1.25,1.14,2.54,2.24,3.76,3.42.63.61,1.3.7,2.05.41.37-.14.72-.36,1.04-.61,1.79-1.4,3.56-2.85,5.35-4.24,4.37-3.39,8.76-6.77,13.14-10.15.34-.26.71-.5,1.07-.72.33-.21.49-.12.49.25,0,.14-.02.29-.04.43-.29,1.87-.56,3.75-.87,5.62-.38,2.33-.81,4.65-1.2,6.97-.44,2.67-.82,5.34-1.27,8-.6,3.57-1.23,7.14-1.85,10.71-.35,2.04-.68,4.09-1.06,6.12-.22,1.18.1,2.2.78,3.14.06.08.16.16.26.19,1.3.45,2.51.32,3.55-.62.75-.67,1.3-1.49,1.47-2.49.39-2.24.72-4.49,1.1-6.73.73-4.31,1.49-8.62,2.22-12.93.37-2.18.7-4.38,1.07-6.56.37-2.21.78-4.42,1.16-6.63.51-2.95,1.02-5.9,1.52-8.85.24-1.42.45-2.84.67-4.22Zm98.47,71.96c-.16,1.08-.29,2.2-.49,3.3-.44,2.4-.91,4.8-1.36,7.2-.4,2.11-1.51,3.86-2.88,5.44-1.87,2.16-4.22,3.53-7.06,4.06-1.11.21-2.18.02-3.26-.15-.28-.04-.56-.12-.84-.15-1.28-.16-1.96-.92-1.95-2.2.01-1.9,1.08-2.96,3.01-3.01,2.24-.05,3.93-1.16,5.31-2.83.05-.06.06-.15.09-.23-.08,0-.18-.03-.25,0-1.26.43-2.57.45-3.85.33-2.22-.2-4.41-.66-6.28-1.96-2.96-2.06-4.14-4.96-3.77-8.53.31-2.95,1.64-5.4,3.65-7.47,2.09-2.17,4.62-3.57,7.7-3.92,1.88-.21,3.68-.04,5.44.59,1.41.5,2.54,1.45,3.59,2.49.26.26.52.53.79.78,1.11,1.05,1.72,2.37,2.07,3.82.19.78.23,1.59.34,2.43Zm-6.5-3.69s-.04-.03-.06-.03c0,0-.02.01-.03.02.04,0,.07-.01.11-.02.06.24.09.48.17.71.15.46.4.9.48,1.37.25,1.42.04,2.81-.59,4.11-1.38,2.84-3.57,4.52-6.81,4.64-.17,0-.35,0-.52.02-.07.01-.13.09-.19.14.05.05.1.13.16.14,1.05.18,2.11.33,3.16.07,2.92-.71,4.81-2.58,5.8-5.38.13-.37.18-.78.21-1.18.12-1.84-.53-3.38-1.9-4.61Zm-1.62-5.14s.08.06.13.08c0,0,.03-.03.04-.05-.06,0-.13,0-.19,0-.09-.08-.18-.22-.28-.24-.85-.12-1.71-.32-2.56-.29-2.61.11-4.93,1.04-6.97,2.7-2.72,2.22-4.4,5-4.68,8.54-.2,2.54.74,4.68,2.53,6.46.01,0,.02,0,.04-.01-.02,0-.04,0-.06,0-.04-.15-.04-.32-.11-.46-.21-.41-.48-.79-.65-1.21-.6-1.49-.81-3.03-.53-4.64.23-1.34.53-2.64,1.18-3.85,1.36-2.55,3.44-4.37,5.89-5.8,1.51-.88,3.15-1.4,4.94-1.29.43.03.86.04,1.3.06Zm1.45,8.68c0-2.63-1.43-4.33-3.67-4.61-.24-.03-.5.03-.73.11-.38.14-.73.33-1.1.5-1.57.74-2.93,1.73-3.82,3.25-.91,1.54-1.43,3.15-.81,4.94.05.13.07.28.07.43-.02.47.27.75.61.98.89.6,1.88.88,2.95.77,1.86-.18,3.44-.99,4.68-2.35,1.09-1.19,1.73-2.64,1.83-4.01Zm-10.28,17.49c-.02.63.23,1.06.72,1.24.38.14.56.03.51-.37-.05-.45-.02-.86.24-1.24.47-.69,1.11-1.04,1.96-1.04.43,0,.86-.02,1.28-.11,1.51-.29,2.81-1,3.92-2.05,1-.95,1.74-2.06,2.07-3.42.02-.08,0-.16.01-.24-.09.03-.19.06-.27.11-.1.05-.19.15-.3.17-.75.1-1.04.68-1.4,1.25-.92,1.48-2.25,2.51-3.82,3.26-.91.43-1.87.51-2.86.53-1.11.02-2.04.9-2.08,1.91Zm-150.77-17.14c-.06-4.61,1.8-8.43,4.85-11.75,1.57-1.71,3.39-3.11,5.44-4.21,1.75-.94,3.6-1.5,5.56-1.79,2.25-.34,4.48-.21,6.68.36,1.93.51,3.64,1.42,5,2.93.21.23.45.44.69.63,1.11.84,1.17,2.06.76,2.93-.45.94-1.85,1.51-2.9,1.23-.53-.14-1.07-.24-1.58-.43-.42-.16-.88-.34-1.21-.64-1.51-1.38-3.29-1.72-5.23-1.39-2.32.41-4.52,1.16-6.4,2.64-1.3,1.02-2.51,2.15-3.44,3.51-1.09,1.59-1.6,3.43-1.76,5.36-.15,1.78.31,3.44.94,5.05.41,1.06,1.29,1.76,2.32,2.23,2.03.94,4.15,1.07,6.33.66,1.65-.31,3.13-.96,4.47-1.97.21-.16.43-.29.66-.42,1.13-.63,2.39-.42,3.18.58.34.43.63.85,1.13,1.14.48.28.56,1.39.25,2.1-.27.62-.69,1.13-1.27,1.49-2.49,1.58-5.13,2.67-8.12,2.9-3.52.27-6.87-.35-9.92-2.03-4.18-2.31-6.37-5.95-6.43-10.79,0-.12,0-.23,0-.35Zm3.9,7.71s-.02.01-.03.02l.05.02c-.09-.05-.19-.1-.28-.15-.06-.18-.1-.38-.19-.54-.82-1.39-1.3-2.9-1.46-4.48-.37-3.72.6-7.15,2.59-10.27,1.91-3,4.53-5.27,7.65-6.96,1.62-.88,3.36-1.39,5.16-1.65,1.44-.21,2.92-.32,4.39-.06.14.02.28-.02.42-.02-.12-.05-.23-.11-.35-.15-3.09-.84-6.12-.55-9.06.59-4.87,1.89-8.43,5.23-10.59,10-1.3,2.89-1.75,5.9-.92,9.01.45,1.67,1.11,3.27,2.39,4.52.08.05.16.09.24.14Zm10.07.71c-.43,0-.86,0-1.29,0-.08,0-.17.04-.25.06.09.05.17.13.26.15,1.26.35,2.55.45,3.84.32,1.71-.17,3.29-.75,4.79-1.58.58-.32,1.15-.64,1.73-.96.13-.07.27-.13.41-.2-.1-.13-.18-.3-.32-.38-.42-.26-.87-.28-1.31-.03-.27.16-.54.32-.81.5-2.14,1.41-4.49,2.15-7.06,2.12Zm-9.47-.06s-.03-.05-.05-.05c-.02,0-.04.03-.05.04.02.02.03.05.05.05.02,0,.03-.03.05-.04Zm47.47-7.52c-.2,1.37-.42,2.9-.65,4.44-.27,1.79-.53,3.58-.86,5.37-.24,1.35-1.29,2.26-2.53,2.13-.9-.1-1.81-.34-2.65-.67-.95-.38-1.34-1.34-1.15-2.45.41-2.35.84-4.7,1.24-7.05.13-.74.23-1.48.26-2.23.05-1.36-.57-2.45-1.6-3.3-.64-.53-1.34-.74-2.23-.63-2.66.35-4.6,1.74-5.99,3.94-.37.59-.58,1.32-.72,2.01-.31,1.52-.52,3.06-.77,4.59-.21,1.28-.44,2.55-.6,3.83-.19,1.6-1.7,2.42-3.1,1.99-.52-.16-1.07-.22-1.59-.36-1.04-.28-1.57-.93-1.56-2,0-.72.08-1.44.2-2.15.59-3.55,1.21-7.09,1.81-10.63.4-2.35.8-4.71,1.2-7.06.19-1.13.34-2.28.57-3.4.33-1.61,1.65-2.65,3.55-2.34.19.03.41.1.55.23.64.56,1.31,1.09,1.84,1.75.25.31.32.87.29,1.31-.08,1.06-.23,2.12-.43,3.16-.08.41.02.37.31.29.91-.25,1.81-.59,2.74-.72,2.7-.38,5.2.11,7.44,1.78,1.62,1.21,2.97,2.63,3.79,4.51.12.26.26.53.3.81.13.88.22,1.77.34,2.84Zm-6.02-3.13c-.02-.08-.04-.15-.05-.23-.02.02-.04.04-.07.05.05.05.09.11.14.16.08.24.16.48.26.72.35.87.51,1.78.38,2.7-.22,1.5-.51,3-.78,4.49-.24,1.35-.48,2.71-.74,4.06-.12.62.02,1.14.51,1.54.27.22.46.13.51-.23.18-1.13.36-2.26.54-3.39.32-1.95.67-3.9.96-5.86.06-.41.03-.87-.08-1.27-.28-1.05-.66-2.06-1.58-2.75Zm-17.55,12.51c-.02.54.14.98.63,1.23.22.11.45.13.45-.25,0-.52-.02-1.04.06-1.55.43-2.73.88-5.45,1.35-8.17.57-3.37,1.15-6.74,1.74-10.11.21-1.19.42-2.38.67-3.56.14-.68.5-1.22,1.25-1.39.17-.04.32-.13.48-.2-.14-.14-.25-.33-.42-.4-.42-.19-.84-.16-1.24.09-.5.31-.93.72-1.09,1.29-.17.6-.29,1.23-.39,1.85-.63,3.8-1.24,7.6-1.87,11.4-.36,2.15-.76,4.3-1.12,6.46-.19,1.1-.34,2.22-.51,3.32Zm13.4-18.55c-1.67,0-3.23.49-4.72,1.2-.12.06-.24.17-.3.29-.06.14-.05.31-.07.47.13-.02.27-.02.39-.07.48-.2.94-.44,1.43-.62,1.62-.6,3.24-1.18,5.02-.85.05,0,.12-.05.18-.08-.07-.05-.14-.13-.21-.14-.57-.08-1.14-.14-1.71-.21Zm35.48,8.96c-.16.99-.32,1.98-.5,2.97-.39,2.24-.81,4.47-1.19,6.71-.31,1.77-1.73,2.62-3.44,2.04-.51-.17-1.13-.13-1.57-.4-.88-.54-1.6-.15-2.4.14-1.84.67-3.73.69-5.62.34-1.7-.32-3.38-.73-4.84-1.75-2.48-1.74-3.77-4.08-3.83-7.15-.07-3.44,1.2-6.33,3.5-8.75,1.97-2.08,4.34-3.62,7.26-4.07,2.27-.35,4.49-.18,6.6.78.54.25,1.06.6,1.52.98,1.56,1.29,3.02,2.67,3.83,4.6.48,1.14.63,2.33.68,3.57Zm-6.11-3.33l-.05.02h.07c.04.2.03.43.12.62.47,1.05.66,2.16.44,3.29-.72,3.69-3.93,6.5-7.18,6.73-.1,0-.2.06-.3.09.11.07.22.17.33.19,1.62.26,3.11-.2,4.44-1.04,1.31-.82,2.28-2.02,2.96-3.42.78-1.59,1.11-3.21.15-4.85-.32-.55-.65-1.08-.98-1.62Zm-14.18,11.56h.04s-.04-.02-.06-.02c-.03-.16,0-.35-.09-.47-.75-1.05-.99-2.25-1.07-3.5-.11-1.77.01-3.53.75-5.17,1.12-2.51,2.87-4.52,5.19-6,1.44-.92,3-1.61,4.74-1.75.77-.06,1.54,0,2.31,0,.1,0,.21-.03.31-.05-.1-.05-.19-.14-.29-.16-.82-.11-1.65-.29-2.47-.27-1.7.03-3.27.57-4.77,1.37-2.58,1.38-4.55,3.34-5.76,6.01-.86,1.9-1.25,3.88-.87,5.97.29,1.55,1.02,2.86,2.03,4.04Zm6.77-1.79c2.92-.16,4.86-1.57,6.21-3.89.75-1.29,1.05-2.67.62-4.15-.46-1.59-1.83-3.16-3.75-2.91-.45.06-.89.22-1.32.38-2.94,1.04-4.8,3.08-5.29,6.14-.36,2.27.4,3.46,2.02,4.1.52.21,1.11.25,1.52.33Zm32.11-4.3c0-2.92.98-5.48,2.89-7.68,2.01-2.32,4.37-4.09,7.44-4.75,1.92-.41,3.83-.36,5.73.13,1.56.4,2.79,1.34,3.9,2.46.43.43.81.9,1.2,1.36.55.63.68,1.67.21,2.42-.3.48-.69.93-1.11,1.3-1.84,1.62-3.71,3.2-5.57,4.79-.35.3-.7.6-1.07.88-.75.58-1.57.44-2.38.16-.27-.09-.53-.23-.8-.28-.88-.17-1.72-.44-2.02-1.39-.32-1.04-.13-2.04.63-2.81.83-.84,1.76-1.57,2.64-2.36.47-.42.94-.85,1.39-1.29.04-.04.02-.14.02-.21-.05.02-.12.02-.15.05-.38.45-.95.5-1.46.69-2.01.75-3.49,2.09-4.43,4.01-.76,1.56-.62,3.19-.25,4.8.07.31.45.59.75.79,1.09.71,2.31.86,3.57.63,1.19-.21,2.23-.74,3.15-1.53.34-.3.75-.55,1.16-.74,1-.47,1.99-.24,2.76.55.34.35.7.67,1.07.98.65.54.89,1.49.28,2.6-.24.44-.62.84-1.02,1.16-2.57,2.03-5.45,3.01-8.76,2.63-1.95-.22-3.78-.73-5.48-1.7-2.57-1.47-3.94-3.71-4.26-6.63-.03-.26-.04-.52-.05-.78,0-.09,0-.17.01-.26Zm3.54,5.65s-.02,0-.03,0c.02.01.03.02.05.03-.26-.24-.52-.47-.77-.71-.62-1.46-.75-2.99-.74-4.56.02-1.88.6-3.56,1.5-5.17,1.13-2.02,2.81-3.48,4.72-4.72,1.37-.89,2.85-1.56,4.49-1.69,1.14-.09,2.29-.02,3.43-.02l-.02.03s.03,0,.05,0c-1.3-.69-2.7-.72-4.11-.6-1.96.17-3.73.9-5.36,1.99-2.53,1.68-4.36,3.9-5.24,6.83-.54,1.79-.73,3.62-.1,5.43.31.9.57,1.86,1.42,2.47.04.46.32.65.75.69Zm12.29-12.24c-.1-.09-.16-.18-.25-.21-.52-.18-.98-.12-1.42.28-1.18,1.05-2.43,2.03-3.59,3.11-.47.44-.86,1-1.17,1.57-.31.56-.08,1.05.47,1.38.22.13.38.17.39-.16,0-.86.51-1.44,1.11-1.97.91-.8,1.84-1.56,2.75-2.36.48-.41.93-.85,1.39-1.29.1-.1.19-.21.33-.36Zm-4.4,11.8c1.71-.12,3.23-.52,4.51-1.63.35-.3.83-.44,1.26-.66.07-.03.13-.07.2-.1-.04-.07-.07-.16-.13-.21-.45-.39-.97-.44-1.5-.15-.22.13-.43.28-.63.44-1.21.97-2.56,1.62-4.11,1.83-.25.03-.51.04-.77.07-.05,0-.1.08-.14.13.04.04.08.1.12.11.42.06.85.12,1.2.16Zm62.01-6.2c.1-2.69.97-5.17,2.74-7.31,1.61-1.95,3.52-3.5,5.91-4.37,2.55-.93,5.14-1.14,7.77-.31,1.54.48,2.74,1.43,3.83,2.57.16.16.29.38.49.47,1.44.68,1.35,3,.33,3.83-2.19,1.78-4.33,3.62-6.44,5.5-1.07.96-2.17,1.2-3.48.67-.21-.08-.45-.11-.67-.14-2.43-.35-2.49-2.43-1.61-3.79.24-.38.61-.69.95-1,.95-.84,1.91-1.67,2.86-2.5.11-.09.2-.21.29-.32.03-.04.03-.11.04-.16-.07,0-.15-.04-.22-.01-1.47.53-2.92,1.12-4.02,2.26-1.62,1.69-2.44,3.67-1.97,6.05.03.17.12.34.11.51-.02.97.66,1.36,1.39,1.67,1.09.48,2.24.48,3.37.15.89-.26,1.7-.67,2.44-1.26.51-.4,1.11-.74,1.72-.95.95-.34,1.81-.09,2.48.72.18.22.39.43.62.58,1.24.8,1.48,2.16.53,3.24-1.33,1.5-2.97,2.51-4.93,3.03-3.2.85-6.31.47-9.28-.81-3.56-1.53-5.15-4.43-5.23-8.31Zm3.51,5.97c-.06-.06-.11-.12-.17-.18-.13-.28-.26-.56-.4-.84-.67-1.29-.86-2.67-.78-4.11.08-1.59.31-3.14,1.04-4.59,1.29-2.59,3.33-4.47,5.76-5.95,1.05-.64,2.2-1.09,3.47-1.21,1.12-.11,2.23-.21,3.36-.05.06,0,.12-.04.18-.06-.03-.04-.06-.11-.1-.13-.19-.08-.37-.16-.57-.21-1.43-.31-2.9-.43-4.29-.07-4.86,1.25-8.17,4.24-9.68,9.07-.8,2.57-.36,5.02,1.13,7.25.23.34.6.58.91.87.06.06.12.12.17.17.05.05.09.11.14.16.02-.03.05-.06.07-.09-.07-.02-.15-.03-.22-.05Zm13.88-2.97l.02.05s-.04-.03-.04-.03c-.07-.14-.11-.34-.23-.42-.51-.34-1.02-.31-1.52.06-.68.49-1.32,1.03-2.05,1.44-1.04.59-2.21.8-3.41.8-.16,0-.33.06-.49.1.14.08.29.22.43.23,1.26.07,2.55.29,3.75-.27.88-.41,1.72-.93,2.57-1.4.32-.18.64-.37.96-.55Zm-2.54-9.86c-.19.14-.46.3-.69.5-1.29,1.11-2.57,2.21-3.84,3.34-.3.26-.58.58-.77.92-.37.65-.15,1.5.4,1.86.29.19.49.1.46-.26-.06-.65.22-1.1.68-1.5,1.34-1.18,2.67-2.37,4.01-3.55.24-.21.49-.4.72-.62.06-.06.06-.3.02-.31-.28-.13-.58-.23-.98-.37Zm-112.9-32.78c-.03-3.7,1.04-7.11,2.77-10.33.79-1.48,1.81-2.81,2.94-4.05,2.24-2.45,4.8-4.48,7.81-5.93,2.23-1.07,4.56-1.74,7.01-2.05,2.67-.33,5.3-.04,7.87.6,1.68.42,3.21,1.26,4.61,2.31.64.48,1.27.99,1.91,1.48,1.2.92,1.34,2.25,1.41,3.61.02.37-.02.75-.08,1.12-.05.31-.08.75-.28.87-.55.34-.53,1.04-1.08,1.39-.52.33-.88.89-1.36,1.29-2.98,2.56-5.98,5.11-8.97,7.66-.9.77-1.76,1.59-2.74,2.25-1.6,1.09-3.39,1.12-5.1.33-1.79-.83-2.37-3.46-1.31-5.29.61-1.04,1.51-1.81,2.4-2.59,2.11-1.84,4.22-3.66,6.33-5.49.07-.06.13-.12.19-.18.07-.08.14-.17.21-.26-.12-.07-.22-.17-.35-.2-1.4-.32-2.79-.28-4.2-.04-2,.35-3.84,1.13-5.44,2.31-1.14.85-2.03,2.03-3.03,3.06-.34.35-.7.66-1,1.04-.24.3-.46.65-.56,1.01-.24.85-.41,1.73-.58,2.59-.53,2.57-.24,5.01,1.3,7.18.77,1.09,1.81,1.99,3.07,2.45,1.09.39,2.21.74,3.41.86,2.26.22,4.29-.37,6.21-1.44.98-.54,1.91-1.19,2.8-1.87,1.54-1.18,3.21-1.37,4.96-.71.48.18.92.62,1.22,1.05.57.81.75,1.71.66,2.77-.14,1.6-.99,2.66-2.1,3.62-1.8,1.56-3.72,2.93-5.98,3.73-1.87.66-3.75,1.33-5.73,1.57-3.83.47-7.58.15-11-1.72-3.85-2.11-6.48-5.29-7.68-9.58-.41-1.46-.48-2.95-.51-4.44Zm1.38-.74c-.07,3.45.69,6.21,2.36,8.7,1.22,1.82,2.73,3.37,4.62,4.48,2.13,1.25,4.48,1.93,6.96,2.1,3.09.22,6.07-.26,8.92-1.46,2.08-.87,4-2.05,5.69-3.55.57-.51,1.09-1.13,1.47-1.78.66-1.13.43-2.38-.45-3.25-.74-.73-1.83-.86-2.96-.27-.58.3-1.13.69-1.66,1.09-1.79,1.36-3.75,2.34-5.97,2.77-2.47.47-4.9.43-7.18-.69-3.18-1.58-5.18-4.1-5.5-7.72-.25-2.86.52-5.53,2.08-7.89,2.93-4.4,7.03-6.79,12.43-6.7,1.49.03,2.9.44,4.27.95.68.25.7.46.17.94-.45.41-.91.79-1.37,1.19-1.73,1.48-3.47,2.95-5.18,4.45-1.08.95-2.14,1.93-3.16,2.95-.72.72-.83,1.67-.55,2.58.26.81.73,1.48,1.76,1.61.87.11,1.67.14,2.39-.38.82-.59,1.61-1.21,2.38-1.86,3.04-2.56,6.07-5.14,9.09-7.72.77-.66,1.53-1.32,2.23-2.04,1.03-1.06,1.41-2.83.07-4.28-2.5-2.69-5.51-4.3-9.19-4.55-2.37-.16-4.72.01-7.03.61-.78.2-1.56.4-2.35.51-.43.06-.77.1-.99.52-.08.15-.3.23-.47.33-2.37,1.29-4.52,2.88-6.48,4.72-1.85,1.74-3.16,3.89-4.4,6.07-.61,1.07-.97,2.25-1.29,3.45-.41,1.51-.79,3-.73,4.12Zm61.81,47.45c.16-1.08.32-2.16.49-3.24.31-1.93.68-3.85.94-5.79.21-1.51-.43-2.76-1.51-3.78-.74-.69-1.69-.8-2.61-.59-3.23.74-6.14,3.1-6.63,6.87-.33,2.51-.77,5-1.14,7.5-.21,1.4-1.73,2.59-3.49,1.93-.29-.11-.61-.17-.92-.23-1.19-.21-1.87-.94-1.82-2.14.05-1.06.2-2.12.37-3.17.29-1.82.64-3.62.95-5.44.6-3.53,2.42-6.29,5.28-8.42,1.76-1.31,3.72-2.13,5.86-2.39,3.42-.41,6.58.25,9,2.94.92,1.02,1.89,2.01,2.41,3.35.3.79.47,1.58.58,2.42.21,1.64-.18,3.2-.44,4.78-.31,1.96-.63,3.92-.98,5.87-.17.94-.58,1.74-1.49,2.2-.58.3-1.17.26-1.77.14-.39-.08-.76-.25-1.15-.33-1.2-.24-2.05-1.13-1.93-2.49Zm1.96-11.95s.03.02.05.04c-.02,0-.04,0-.06,0,.02,0,.03-.02.05-.03.06.28.1.56.2.83.26.78.39,1.58.27,2.38-.2,1.42-.47,2.83-.72,4.24-.25,1.41-.53,2.81-.79,4.22-.09.52-.08,1.05.35,1.44.13.12.33.17.5.25.05-.15.12-.31.13-.46.14-1.08.23-2.17.4-3.24.3-1.87.66-3.73.97-5.59.06-.33.02-.69-.02-1.03-.13-1.15-.64-2.13-1.33-3.03Zm-4.37-6.22c-1.33.05-2.59.31-3.82.77-1.9.71-3.55,1.79-4.97,3.21-1.49,1.49-2.55,3.26-2.96,5.36-.34,1.72-.65,3.44-.96,5.17-.22,1.27-.4,2.56-.62,3.83-.1.58.1,1.01.54,1.35.29.22.48.14.5-.23.03-.52-.01-1.04.06-1.55.27-1.82.54-3.64.88-5.45.24-1.3.44-2.63.91-3.85,1.11-2.87,3.13-5,5.83-6.47,1.53-.83,3.09-1.57,4.88-1.59.66,0,1.31.05,1.97.07.07,0,.15-.05.22-.07-.06-.05-.12-.13-.19-.14-.76-.14-1.52-.27-2.28-.4Zm.99-51.67c.8.08,1.61.1,2.39.26,1.82.39,2.81,2.24,2.42,4.06-.15.7-.24,1.44-.54,2.07-.7,1.48-1.96,2.24-3.57,2.34-1.43.09-2.86.07-4.29.08-.51,0-.45-.02-.47.56-.02.83-.11,1.66-.24,2.48-.48,3.1-.96,6.19-1.49,9.28-.28,1.67-.68,3.32-.99,4.99-.27,1.47-.48,2.95-.73,4.43-.19,1.1-.32,2.22-.62,3.29-.18.63-.28,1.28-.48,1.9-.29.9-.98,1.58-1.78,2.06-1.31.79-2.74,1.03-4.24.62-1.53-.42-2.49-1.56-2.45-3.15.03-1.26.2-2.52.39-3.77.47-3.01.98-6.02,1.5-9.02.6-3.52,1.21-7.03,1.82-10.54.13-.74.28-1.47.4-2.21.09-.52.01-.61-.51-.62-.84-.01-1.68.03-2.51-.01-.89-.04-1.77-.14-2.6-.54-.91-.44-1.42-1.23-1.57-2.16-.43-2.67.78-4.95,3.36-5.79.78-.25,1.64-.27,2.47-.33.69-.05,1.38,0,2.08-.01.8,0,.8,0,.93-.77.34-1.95.68-3.91,1.03-5.86.4-2.21,1.73-3.65,3.87-4.16,2.05-.5,3.85.06,4.82,2.17.41.89.32,1.87.21,2.8-.19,1.54-.5,3.06-.76,4.59-.02.11-.03.23-.06.34-.06.21-.14.42-.21.63.27.05.55.13.82.14.52.02,1.04,0,1.56,0,0-.04,0-.09,0-.13Zm-.93,1.29c-.72,0-1.44.01-2.16,0-.7-.01-.78-.11-.66-.84.26-1.68.56-3.35.81-5.03.13-.91.3-1.83.24-2.74-.08-1.37-.93-1.98-2.28-2.1-1.15-.1-1.99.56-2.97.89-.07.02-.18.13-.17.17.17.66-.47,1.02-.57,1.57-.19,1.01-.4,2.02-.58,3.03-.29,1.55-.57,3.11-.83,4.67-.07.43-.3.54-.72.55-1.32.03-2.64.07-3.96.17-1.45.11-2.67.7-3.5,1.93-.58.85-.76,1.83-.35,2.8.45,1.07,1.35,1.52,2.5,1.49.37,0,.75,0,1.13,0,1.01,0,2.02,0,3.03,0,.63,0,.62.02.52.62-.25,1.53-.5,3.05-.74,4.58-.11.71-.17,1.43-.28,2.13-.19,1.14-.41,2.27-.6,3.4-.4,2.44-.79,4.88-1.19,7.32-.28,1.67-.56,3.34-.87,5.01-.23,1.18-.52,2.35-.78,3.53-.04.16-.08.35-.04.5.35,1.34,1.32,2.57,3.11,2.4.79-.08,1.47-.48,2.08-.97.93-.76,1.29-1.82,1.48-2.95.24-1.39.44-2.79.67-4.18.6-3.63,1.22-7.27,1.82-10.9.53-3.15,1.05-6.3,1.59-9.45.2-1.19.21-1.18,1.42-1.22,1.27-.04,2.54-.05,3.8-.14,1.78-.13,3.22-1.46,3.5-3.19.26-1.6-.59-3.19-2.54-3.09-.63.03-1.27,0-1.9,0Zm99.44-19c2.56,0,5.13,0,7.69,0,.72,0,.72-.01.93-.72.39-1.33,1.47-1.96,2.78-1.63.92.23,1.18.55,1.25,1.5.06.78.06.78.85.79.63,0,1.27-.02,1.9,0,.97.04,1.52.73,1.38,1.68-.18,1.2-.76,1.72-2.05,1.77-.66.03-1.33,0-1.99,0-.77,0-.77,0-.94.76-.31,1.35-1.38,2-2.74,1.66-.83-.21-1.21-.66-1.26-1.53-.05-.83-.05-.83-.87-.83-.78,0-1.56,0-2.34,0-.1,0-.19.07-.29.11.05.06.09.13.15.18.81.55,1.61,1.11,2.44,1.63,1.87,1.17,3.98,1.66,6.11,2.04.96.17,1.94.21,2.91.32.28.03.57.09.85.14.66.11,1.15.45,1.24,1.13.1.7-.09,1.35-.7,1.75-.35.22-.78.38-1.19.42-2.22.2-4.35-.31-6.47-.88-.58-.16-1.15-.38-1.72-.58-.26-.09-.4-.13-.42.25-.07,1.19-.4,1.56-1.55,1.62-1.41.07-2.82.1-4.23.11-1.67.02-3.35,0-5.02,0-1.24,0-1.54-.27-1.69-1.54-.03-.28-.15-.25-.33-.18-1.94.78-3.99,1.13-6.03,1.47-.73.12-1.49.11-2.23.07-.84-.05-1.34-.54-1.42-1.25-.11-.9.25-1.58,1.05-1.86.45-.16.95-.23,1.43-.28,2.76-.3,5.45-.9,8.07-1.83,1.65-.59,3.09-1.55,4.56-2.45.06-.04.11-.11.16-.16-.07-.04-.13-.11-.2-.11-.89,0-1.79,0-2.68.05-.15,0-.36.27-.41.46-.43,1.48-1.2,2.04-2.68,1.91-1.01-.09-1.54-.72-1.46-1.74.04-.51-.03-.61-.54-.62-.66-.02-1.33,0-1.99,0-.86,0-1.41-.36-1.54-.97-.2-.93.13-1.84.87-2.16.47-.2.99-.28,1.5-.33.6-.06,1.21-.02,1.82-.01.36,0,.64-.1.65-.51.03-1.52,1.61-2.21,3-1.81.84.24,1.14.62,1.13,1.49-.01.65.08.75.71.77.52.02,1.04,0,1.56,0,0-.04,0-.08,0-.11Zm1.08,1.03s0-.04,0-.06c-.43.02-.86.06-1.3.06-.92.01-1.85,0-2.77.02-.39,0-.53-.16-.46-.52.06-.31.16-.62.19-.93.06-.64-.4-1.03-1.03-.91-.74.13-1.11.59-1.2,1.47-.09.91-.22,1.02-1.11,1-.86-.01-1.72,0-2.59,0-.12,0-.23,0-.35.02-.47.09-.82.47-.81.87.02.51.43.56.78.65.16.04.34.03.52.02.57-.03,1.15-.09,1.72-.11,1.35-.05,1.41.02,1.24,1.31,0,.06-.02.11-.04.17-.14.46.12.71.49.88.52.25,1.16,0,1.42-.6.14-.31.21-.66.27-1,.13-.72.12-.73.86-.79.14-.01.29-.02.43-.03,3.51-.04,7.01-.08,10.52-.12,1.27-.01,1.27,0,1,1.2-.01.06-.03.11-.03.17-.02.41-.06.82.43,1.02.44.18.87.15,1.16-.26.24-.34.41-.76.49-1.17.21-.95.18-.98,1.13-1.01.6-.02,1.21.06,1.81.03.51-.03,1.02-.11,1.5-.26.31-.1.53-.44.39-.77-.1-.22-.38-.4-.62-.52-.17-.08-.4-.05-.6-.05-.63,0-1.27,0-1.9,0-1.21,0-1.22.01-1.05-1.23.05-.39-.04-.68-.36-.9-.35-.23-.68-.21-1.04,0-.54.33-.66.82-.68,1.4-.03.78-.15.89-.93.88-.92-.01-1.84-.1-2.76-.08-1.58.02-3.17.09-4.75.13Zm14.01,9.19c.29,0,.59.04.86-.01.27-.05.56-.16.76-.34.39-.36.22-.91-.3-1.06-.11-.03-.23-.01-.34-.03-1.09-.11-2.18-.19-3.26-.35-2.77-.4-5.4-1.18-7.68-2.88-.35-.26-.67-.57-1.05-.76-.45-.23-.94-.42-1.44-.5-1.09-.19-1.94.45-2.78.99-3.57,2.31-7.51,3.42-11.72,3.73-.57.04-1.14.11-1.69.27-.22.06-.48.38-.51.61-.05.36.3.56.62.59.51.05,1.04.06,1.55,0,2.99-.36,5.86-1.22,8.62-2.39,1.53-.65,2.99-1.48,4.45-2.3.74-.42,1.34-.38,1.97.15,1.18.99,2.54,1.68,3.93,2.33,2.54,1.19,5.24,1.7,8.01,1.94Zm-13.37-1.39s0-.04,0-.06c1.07,0,2.14,0,3.2,0,.09,0,.18-.09.27-.13-.05-.06-.09-.15-.16-.18-.97-.39-1.84-.95-2.63-1.64-.21-.19-.44-.2-.71-.05-1.05.59-2.12,1.16-3.18,1.75-.07.04-.11.12-.17.18.09.05.18.13.27.13,1.04,0,2.08,0,3.12,0Zm-.48,1.78s0-.07,0-.11c1.47,0,2.94,0,4.42,0,.31,0,.66-.04.67-.38,0-.44-.41-.3-.67-.3-2.51,0-5.02.03-7.53.06-.54,0-1.09.07-1.63.14-.1.01-.19.18-.28.27.09.09.17.23.27.25.25.05.51.06.77.07,1.33,0,2.65,0,3.98,0Zm-136.37,55.61c-.06.4-.1.8-.17,1.19-.5,3.09-1.02,6.18-1.52,9.28-.38,2.38-.73,4.77-1.11,7.16-.27,1.67-.58,3.34-.88,5.01-.29,1.63-1.72,2.47-3.39,1.99-.44-.13-.88-.26-1.33-.36-1.19-.27-1.79-1-1.69-2.23.08-1.03.24-2.06.4-3.08.43-2.67.86-5.34,1.32-8,.61-3.57,1.26-7.14,1.89-10.71.08-.48.13-.97.24-1.45.44-1.88,2.7-2.85,4.22-1.78.21.15.38.35.56.53.14.14.23.37.4.45.88.4,1.09,1.12,1.07,2Zm-9.18,22.21c.14.21.36.57.62.89.09.11.29.12.44.17.04-.13.1-.25.11-.38.15-1.34.23-2.7.45-4.03.71-4.31,1.48-8.62,2.22-12.93.33-1.9.67-3.79.95-5.7.15-1.03.63-1.7,1.64-1.99.34-.1.35-.29.06-.51-.43-.33-1-.34-1.54-.02-.86.5-1.13,1.34-1.28,2.25-.32,1.96-.6,3.92-.94,5.88-.71,4.2-1.46,8.39-2.17,12.58-.2,1.19-.35,2.39-.56,3.79Zm.66-22.53c-.23,1.51-.48,3.07-.71,4.63-.4,2.67-.79,5.34-1.21,8.01-.25,1.56-.56,3.11-.84,4.67-.3,1.7-.58,3.4-.88,5.09-.08.42-.2.84-.35,1.24-.42,1.11-1.69,1.86-3.05,1.33-.32-.12-.65-.22-.99-.26-1.13-.11-1.93-.87-1.96-2.02-.02-.6.07-1.2.16-1.8.43-2.72.87-5.45,1.33-8.17.29-1.7.61-3.39.91-5.09.39-2.26.78-4.53,1.16-6.8.08-.45.13-.91.23-1.36.37-1.72,2.04-2.82,3.6-2.36.32.09.61.3.89.5.37.27.72.56,1.06.86.44.38.62.88.64,1.51Zm-9.05,22.28c-.04.52.07.98.52,1.3.08.06.22.09.32.06.04-.01.07-.18.07-.28.02-.32-.01-.64.04-.95.35-2.16.72-4.31,1.08-6.47.56-3.32,1.13-6.64,1.69-9.95.32-1.87.64-3.74.97-5.61.17-.93.67-1.58,1.66-1.73.27-.04.25-.18.13-.35-.26-.38-.87-.47-1.41-.19-.7.36-1.2.9-1.36,1.7-.15.76-.28,1.53-.4,2.3-.4,2.5-.78,5-1.2,7.5-.45,2.64-.94,5.26-1.39,7.9-.27,1.59-.49,3.18-.74,4.77Zm54.22-35.88c.16-1.14.31-2.28.49-3.41.61-3.72,1.26-7.43,1.84-11.15.64-4.11,2.17-7.81,4.81-11.03,2.39-2.91,5.25-5.25,8.68-6.85,2.85-1.33,5.84-2.09,8.99-2.24,1.68-.08,3.27.79,3.83,2.28.51,1.35.5,2.88-.4,3.97-1.13,1.38-2.5,2.58-4.58,2.5-1.53-.06-3.01.41-4.44.96-.42.16-.76.57-1.18.67-.99.23-1.54.99-2.21,1.61-.67.62-1.32,1.28-1.92,1.97-1.53,1.74-2.12,3.9-2.53,6.1-.4,2.09-.75,4.19-1.12,6.28-.37,2.09-.84,4.17-1.06,6.28-.11,1-.45,1.91-.7,2.84-.28,1.04-1.14,1.8-2.03,2.33-1.16.69-2.45.95-3.83.59-1.48-.38-2.5-1.57-2.57-3.08,0-.2,0-.4,0-.61-.02,0-.04,0-.06,0Zm4.29,2.6c.06,0,.35.02.57-.08,1.51-.67,2.55-1.73,2.84-3.43.76-4.51,1.51-9.02,2.3-13.53.22-1.27.45-2.57.92-3.76,1.35-3.41,3.8-5.87,7.04-7.52,1.68-.86,3.47-1.38,5.4-1.36.43,0,.86-.07,1.28-.18,1.65-.42,2.64-1.49,2.94-3.15.2-1.08-.15-2.03-1.05-2.66-.81-.58-1.78-.64-2.73-.42-1.62.38-3.23.82-4.85,1.24-.96.25-1.99.28-2.85.88-.55.38-1.1.75-1.65,1.13-.68.47-1.36.94-1.98,1.48-1,.86-2.05,1.68-2.94,2.64-1.01,1.1-1.87,2.33-2.78,3.52-.28.36-.6.73-.77,1.14-.59,1.43-1.37,2.79-1.73,4.32-.16.67-.48,1.26-.45,2.01.03.87-.24,1.75-.38,2.63-.2,1.25-.41,2.5-.62,3.75-.19,1.13-.39,2.27-.59,3.4-.3,1.67-.64,3.33-.9,5.01-.11.69.11,1.35.57,1.93.57.73,1.35.93,2.4,1.01Zm78.21,12.96c1.59,0,3.18,0,4.76,0,1.63,0,2.32.88,2.62,2.03.06.21.07.45.04.67-.42,2.64-.86,5.28-1.27,7.92-.34,2.17-1.94,3.51-4.15,3.47-.69-.01-1.39,0-2.08,0-.33,0-.5.09-.59.46-.35,1.45-.37,1.45,1.11,1.44,1.01,0,2.02-.03,3.03-.04.98-.01,1.63.42,1.75,1.2.13.78-.2,1.84-1.21,2.13-.27.08-.56.16-.84.17-1.38.05-2.76.11-4.15.1-.47,0-.63.17-.67.57-.01.11-.03.23-.05.34-.34,1.76-.31,1.41,1.29,1.33.94-.05,1.87-.32,2.8-.51,1.01-.2,1.63.27,1.69,1.28.06,1.11-.36,1.85-1.42,2.2-.78.26-1.61.42-2.43.51-1.32.14-2.64.2-3.96.24-2.36.08-4.72.13-7.09.17-1.11.02-1.56-.31-1.72-1.18-.17-.97.36-1.89,1.3-2.15.44-.12.91-.16,1.36-.18,1.15-.06,2.3-.08,3.45-.12.66-.02.68-.03.78-.66.09-.57.15-1.14.22-1.71-.57-.04-1.14-.09-1.71-.1-.92-.02-1.85,0-2.77,0-.95,0-1.5-.41-1.64-1.18-.16-.86.36-1.87,1.17-2.07.61-.15,1.25-.18,1.88-.2.95-.03,1.9,0,2.86,0,.87,0,.92-.06,1.02-.9.11-1.01.11-.99-.89-1.01-.78-.02-1.55-.05-2.32-.13-1.56-.16-2.45-1.29-2.24-2.9.21-1.71.57-3.4.87-5.1.15-.85.26-1.71.42-2.55.49-2.54,1.91-3.44,4.03-3.45,1.59-.01,3.17,0,4.76,0,0-.02,0-.04,0-.06Zm-.11.87v.06c-1.41,0-2.83,0-4.24,0-1.87,0-3.13,1.1-3.4,2.78-.28,1.76-.67,3.5-.95,5.26-.14.88-.18,1.77-.25,2.66-.06.72.36,1.13.96,1.38.23.1.5.15.75.15,1.07,0,2.13-.02,3.2-.06.66-.02.83.13.72.78-.14.85-.29,1.7-.42,2.55-.11.68-.12.71-.81.72-1.53,0-3.06,0-4.59,0-.28,0-.58.03-.84.12-.36.14-.51.47-.46.84.05.39.37.47.72.47.17,0,.35,0,.52,0,1.36-.02,2.71-.04,4.07-.05.99,0,1,0,.88,1.02-.1.86-.24,1.71-.34,2.56-.11.94-.13.97-1.04.97-1.33,0-2.66,0-3.98,0-.34,0-.71,0-1.02.12-.3.11-.61.32-.8.58-.3.41-.08.88.42.98.25.05.52.05.78.04,2.73-.12,5.47-.22,8.19-.4,1.29-.08,2.57-.31,3.84-.53.34-.06.69-.28.96-.51.24-.2.4-.57.13-.84-.14-.14-.46-.15-.69-.12-1.48.19-2.96.42-4.44.61-.71.09-.89-.11-.78-.84.16-1.05.37-2.1.54-3.15.05-.35.2-.5.56-.51,1.01-.03,2.01-.08,3.02-.11.69-.02,1.39,0,2.07-.08.31-.04.65-.23.87-.46.32-.31.16-.74-.27-.85-.13-.04-.28,0-.43,0-1.21.04-2.42.07-3.63.11-.45.01-.91.01-1.36.01-.31,0-.52-.14-.47-.47.16-1.02.33-2.04.51-3.06.07-.4.32-.57.74-.57.92.02,1.85,0,2.77,0,1.83,0,2.9-.95,3.19-2.74.2-1.22.46-2.43.65-3.65.21-1.36.42-2.73.55-4.1.07-.79-.29-1.25-1.04-1.5-.4-.13-.85-.18-1.27-.19-1.36-.02-2.71,0-4.07,0Zm4.86-14.15c-1.62,0-3.23,0-4.85,0-.83,0-.83,0-1.02.82-.05.24-.1.49-.15.73.24-.06.48-.14.73-.17.66-.07,1.32-.17,1.98-.17,2.68-.02,5.37-.02,8.05,0,.43,0,.87.06,1.28.17,1.29.34,2.08,1.56,1.9,2.9-.13.97-.3,1.93-.5,2.89-.53,2.68-1.87,3.56-4.28,3.65-2.97.11-5.94.06-8.92.08-.29,0-.58-.02-.86-.07-1.37-.24-2.01-.97-1.99-2.37,0-.75.1-1.49.15-2.24,0-.08-.02-.17-.03-.25-.09.05-.2.07-.27.14-.22.23-.4.49-.64.7-.52.47-1.15.66-1.84.55-1.01-.16-1.64-1.14-1.34-2.12.12-.38.3-.77.55-1.07,1.93-2.25,2.78-4.94,3.21-7.8.27-1.79.59-3.58.88-5.36.27-1.68,1.55-2.9,3.33-3.14.74-.1,1.49-.17,2.24-.17,3-.02,6-.03,9,0,.53,0,1.09.15,1.58.35,1.24.5,1.54,1.44,1.42,2.5-.24,2.11-.62,4.21-1,6.3-.31,1.74-1.93,3.06-3.69,3.07-1.64.01-3.29,0-4.93,0,0,.02,0,.04,0,.06Zm-.73-1.04s0-.05,0-.07c1.7,0,3.41,0,5.11,0,1.73-.01,2.9-.92,3.26-2.62.28-1.32.47-2.66.68-4,.09-.6.14-1.2.2-1.8.06-.62-.24-1.09-.74-1.36-.39-.21-.86-.35-1.3-.36-1.38-.01-2.76.08-4.15.09-2.08.02-4.16.02-6.23,0-1.37-.01-2.79.78-3.05,2.57-.38,2.56-.86,5.11-1.38,7.64-.41,1.96-1.14,3.81-2.51,5.33-.21.24-.4.49-.58.75-.21.31-.29.63.02.94.31.31.63.36,1,.05.35-.29.66-.64.95-.99,1.31-1.61,2.15-3.47,2.76-5.44.23-.75.25-.75,1.03-.75,1.64,0,3.29,0,4.93,0Zm-.53,10.92s0-.04,0-.06c1.53,0,3.06.02,4.59,0,1.26-.02,2.38-.71,2.69-1.81.35-1.27.6-2.58.79-3.88.14-.99-.61-1.77-1.61-1.87-.2-.02-.4,0-.61,0-2.97.04-5.94.08-8.91.12-.12,0-.23,0-.35.02-1.07.25-1.93.76-2.3,1.86-.44,1.32-.58,2.7-.68,4.07-.05.64.28,1.07.81,1.3.38.17.83.24,1.26.24,1.44.03,2.89.01,4.33.01Zm7.22,35.35c-1.3,0-2.6.01-3.9,0-.37,0-.75-.06-1.1-.16-1.06-.31-1.66-1.04-1.66-2.15,0-.77.11-1.55.23-2.31.31-2.1.65-4.2.99-6.3.3-1.87.59-3.75.94-5.62.38-1.98,1.91-3.19,3.93-3.21.03,0,.06,0,.09,0q1.51,0,1.76-1.45c.45-2.64.9-5.27,1.34-7.91.11-.65.17-1.31.29-1.96.37-2.12,1.79-2.15,3.28-1.82.58.12.89.75.81,1.46-.08.74-.21,1.48-.34,2.21-.09.49-.07.56.42.58.49.02.98-.01,1.47.01,1.16.06,1.68.65,1.57,1.79-.1.99-.63,2.04-2.01,2.07-.51.01-1.02,0-1.53,0-.6,0-.69.1-.78.68-.19,1.25-.35,2.51-.6,3.74-.1.51.1.54.46.54.58,0,1.16-.02,1.73,0,.4.02.82.06,1.18.2.9.34,1.45.98,1.56,1.98.14,1.29-.19,2.52-.39,3.76-.52,3.29-1.1,6.58-1.67,9.86-.11.65-.24,1.31-.49,1.92-.61,1.46-1.88,1.96-3.35,2.01-1.41.05-2.83.01-4.24.01,0,.02,0,.04,0,.06Zm.6-.95v.02c1.15,0,2.31.02,3.46,0,.84-.02,1.56-.33,2.14-.97.65-.73.84-1.63.99-2.53.59-3.6,1.16-7.21,1.72-10.82.11-.68.17-1.37.17-2.06,0-.65-.52-1.35-1.07-1.41-.68-.08-1.37-.08-2.06-.09-.46,0-.92.05-1.38.04-.61-.01-.72-.14-.62-.73.31-1.84.64-3.68.97-5.52.13-.76.14-.76.94-.77.66,0,1.33,0,1.99-.02.64-.02,1.2-.57,1.18-1.15-.02-.55-.5-.82-1.14-.76-.51.05-1.04.01-1.56,0-.85,0-.9-.07-.75-.89.15-.85.3-1.7.41-2.55.09-.65-.18-.91-.82-.89-.65.02-.96.22-1.11.98-.37,1.77-.69,3.56-1,5.34-.36,2.07-.69,4.14-1.04,6.21-.12.73-.14.74-.88.76-.4,0-.81,0-1.21,0-2.04,0-3.08.9-3.41,2.91-.43,2.55-.89,5.1-1.33,7.65-.31,1.81-.59,3.63-.87,5.45-.12.8.28,1.42,1.05,1.64.3.09.62.16.93.17,1.44.02,2.87,0,4.31,0Zm-62.36-51.23c.48.85,1.02,1.67,1.16,2.66.16,1.16.07,2.29-.49,3.35-.7,1.33-1.66,2.43-2.85,3.3-2.59,1.88-5.34,3.52-8.35,4.64-.79.29-1.69.36-2.54.38-1.36.02-2.12-.78-2.14-2.16,0-.42.03-.87.16-1.27.96-2.98,2.37-5.74,4.21-8.28.67-.93,1.39-1.84,2.17-2.67,2.04-2.17,4.6-2.42,7.08-1.18.4.2.71.57,1.07.86.18.14.36.27.55.4,0,0-.03-.03-.03-.03Zm-.55,3.65c-.04-2.49-2.31-4.06-4.62-3.68-1.12.19-1.93.85-2.64,1.68-1.99,2.35-3.59,4.93-4.84,7.73-.34.75-.5,1.59-.66,2.4-.11.58.16.83.71.73.65-.11,1.3-.25,1.92-.46,2.07-.7,3.92-1.82,5.69-3.06,1.06-.74,2.1-1.53,3.07-2.38.87-.77,1.37-1.77,1.37-2.97Zm66.2-10.04c-.33-.08-.68-.12-1-.24-.54-.21-1.05-.47-1.58-.71-.26-.12-.52-.25-.78-.37-.08.25-.15.51-.24.76-.27.72-.89,1-1.57,1-2.51.04-5.02.02-7.53,0-.61,0-1.02-.32-1.17-.93-.11-.46-.28-.47-.66-.28-.85.42-1.72.8-2.71.78-.96-.03-1.52-.33-1.74-1-.24-.76.06-1.65.79-2.12.38-.24.83-.38,1.26-.52,1.73-.58,3.36-1.36,4.87-2.39.9-.62,1.81-1.23,2.67-1.9,1.07-.82,3.22-.82,4.35.44,1.59,1.78,3.55,2.98,5.83,3.7,1.17.37,1.58,1.03,1.4,1.95-.22,1.13-1.02,1.78-2.21,1.82Zm-7.47-7.57c-.44.19-.91.33-1.31.57-.51.31-.97.72-1.46,1.08-2.04,1.49-4.19,2.74-6.68,3.33-.32.08-.65.26-.91.47-.38.31-.31.74.1.99.31.19.63.19.99.07,2.15-.72,4.13-1.76,5.97-3.06.85-.6,1.65-1.25,2.5-1.86.52-.37.66-.36,1.13.07.68.62,1.32,1.27,2,1.89,1.37,1.27,2.98,2.16,4.71,2.83.2.08.45.12.66.08.4-.07.95-.63.92-.94-.04-.49-.45-.62-.83-.76-.68-.24-1.37-.44-2.03-.72-1.52-.64-2.74-1.68-3.82-2.9-.5-.56-1.05-1.09-1.94-1.15Zm-1.77,5.1s0-.01,0-.02c1.18,0,2.35,0,3.53,0,.1,0,.19-.08.29-.13-.05-.09-.09-.2-.16-.28-.44-.42-.89-.82-1.32-1.24-.29-.28-.58-.81-.84-.79-.35.02-.66.47-1,.73-.14.11-.28.21-.42.31-.51.37-1.03.73-1.54,1.11-.07.06-.1.17-.15.26.08.02.16.04.23.04.46,0,.92,0,1.38,0Zm.38,1.78s0-.04,0-.06c1.12,0,2.24,0,3.36,0,.34,0,.81.03.78-.43-.02-.46-.5-.38-.83-.37-1.61.03-3.21.08-4.82.11-.57.01-1.15,0-1.72.02-.17,0-.35.04-.49.13-.1.06-.21.23-.19.34,0,.09.18.2.29.23.16.04.34.02.51.02,1.04,0,2.07,0,3.11,0Zm15.95-20.44c-5.39.06-10.79.12-16.18.18-.94,0-1.89.01-2.83-.01-.28,0-.56-.11-.84-.2-1.01-.31-1.55-1.05-1.54-2.06,0-1.39.24-2.77.83-4.03.59-1.26,1.79-1.64,3.1-1.67,1.53-.05,3.06-.04,4.59-.06,4.29-.06,8.58-.12,12.87-.19,2.53-.04,5.06-.07,7.59-.1.14,0,.29-.02.43,0,1.91.27,2.77,1.08,2.6,3.04-.09,1.09-.23,2.18-.74,3.18-.53,1.04-1.38,1.62-2.53,1.69-1.49.09-2.99.13-4.49.17-.95.02-1.9,0-2.85,0v.06Zm-.81-1.04s0-.04,0-.06c2.34,0,4.68.02,7.01,0,1.91-.03,2.88-.71,3.19-2.57.08-.45.13-.91.22-1.36.25-1.29-.36-2.08-1.68-2.06-2.51.02-5.02.09-7.52.13-.58,0-1.15,0-1.73,0-2.1.03-4.2.06-6.3.08-.77,0-1.55-.02-2.32-.01-1.98.01-3.96.03-5.94.06-.72.01-1.44,0-2.14.11-1.04.16-1.72.82-2,1.81-.19.69-.29,1.41-.38,2.12-.14,1.04.47,1.8,1.51,1.92.2.02.4.02.61.01,3.43-.06,6.86-.13,10.29-.17,2.39-.03,4.79,0,7.18,0Zm-2.92,46.55c-.63,0-1.27.01-1.9,0-.83-.02-1.19-.36-1.31-1.18-.22-1.54.53-2.49,2.1-2.62.55-.04,1.1-.01,1.65-.01,1.6,0,2.03-.3,2.33-1.82.39-1.94.73-3.9,1.05-5.86.56-3.41,1.07-6.82,1.63-10.23.36-2.19.79-4.36,1.16-6.54.27-1.56,1.2-2,2.59-1.88.8.07,1.3.56,1.25,1.36-.08,1.15-.23,2.29-.41,3.42-.44,2.78-.9,5.57-1.36,8.35-.41,2.5-.83,5-1.25,7.49-.28,1.7-.5,3.42-.86,5.1-.39,1.8-1.3,3.28-3.1,3.99-.6.24-1.27.33-1.92.41-.54.07-1.09.01-1.64.01Zm.51-.99c.34,0,.6,0,.86,0,1.3-.05,2.41-.49,3.26-1.52.61-.74.9-1.61,1.06-2.52.57-3.23,1.11-6.46,1.65-9.7.76-4.51,1.52-9.02,2.25-13.53.04-.24-.07-.59-.24-.76-.22-.23-.55-.27-.88-.09-.43.24-.67.58-.76,1.08-.45,2.78-.93,5.56-1.4,8.34-.63,3.75-1.25,7.49-1.88,11.24-.21,1.22-.4,2.44-.68,3.64-.25,1.07-.94,1.77-2.07,1.93-.51.07-1.03.11-1.54.14-.46.03-.93-.01-1.38.05-.52.07-1,.64-.99,1.07,0,.4.38.66,1.03.73.11.01.23.02.35,0,.48-.03.97-.07,1.37-.1Zm-3.94-44.08c2.39,0,4.79.01,7.18,0,1.2,0,2.41-.11,3.61-.08,1.29.03,2.52.33,3,1.73.2.57.22,1.25.14,1.86-.18,1.34-.4,2.68-.76,3.98-.43,1.54-1.57,2.6-3.34,2.64-2.22.05-4.44.1-6.66.12-3.75.03-7.5.05-11.25.07-1.09,0-2.18.04-3.27-.01-1.41-.07-2.32-1.02-2.26-2.42.05-1.14.26-2.28.41-3.42.06-.45.16-.9.27-1.35.48-1.88,1.72-2.86,3.67-2.9,3.08-.06,6.16-.11,9.24-.17,0,0,0-.01,0-.02Zm1.43,9.26s0-.04,0-.06c2.6,0,5.19,0,7.79,0,1.56,0,2.58-.72,3.02-2.2.25-.85.39-1.74.53-2.62.1-.62.18-1.26.15-1.89-.03-.85-.6-1.36-1.45-1.43-.2-.02-.4,0-.61,0-6.66.06-13.32.11-19.99.18-1.54.01-2.57.84-2.87,2.35-.26,1.27-.47,2.54-.68,3.82-.13.79.36,1.58,1.15,1.81.35.11.74.15,1.1.15,1.35-.02,2.71-.09,4.06-.1,2.6-.02,5.19,0,7.79,0Zm-.31,29.57c-1.08.2-1.9-.99-1.72-2.04.61-3.51,1.16-7.03,1.76-10.54.46-2.66.96-5.32,1.44-7.98.1-.57.14-1.15.28-1.7.29-1.16.96-1.64,2.12-1.6,1.06.04,1.64.6,1.53,1.64-.14,1.29-.36,2.56-.58,3.84-.56,3.35-1.13,6.69-1.69,10.03-.35,2.1-.69,4.2-1.04,6.29-.04.23-.1.45-.17.67-.27.87-1,1.5-1.93,1.38Zm-.69-1.96c-.08.46.18.72.55.88.42.17.75-.05.95-.39.18-.32.31-.69.37-1.05.38-2.33.71-4.66,1.09-6.98.49-3.01,1.03-6,1.53-9.01.19-1.13.35-2.27.54-3.41.06-.39-.03-.69-.4-.85-.33-.14-.77.02-.97.37-.11.19-.16.43-.21.65-.4,2.21-.82,4.41-1.2,6.62-.64,3.8-1.26,7.6-1.9,11.4-.1.6-.23,1.18-.35,1.78Zm-27.09,41.68c-.2,0-.41.03-.6,0-.69-.11-1.16-.65-1.2-1.36-.11-1.86,1.48-3,3.22-2.32.6.24.92.67.94,1.3.05,1.48-.79,2.49-2.35,2.38Zm0-.86c.61.04,1.2-.49,1.26-1.16.05-.48-.24-.77-.78-.79-.69-.03-1.24.45-1.27,1.12-.02.47.28.8.78.84Zm8.94.53c-.51,0-1-.08-1.25-.59-.32-.67-.25-1.35.11-1.98.36-.63,1.6-1.06,2.29-.83.53.18.88.54.92,1.13.07,1.15-.5,2.32-2.07,2.27Zm.46-2.45c-.44,0-.91.5-.87.92.03.35.28.48.59.49.37.01.78-.45.79-.87,0-.36-.19-.52-.51-.54Zm6.07.47c.06,1.55-1.58,2.27-2.89,1.69-.21-.09-.41-.35-.47-.58-.21-.73-.11-1.43.41-2.01.52-.59,1.21-.75,1.96-.59.61.13,1.08.64,1,1.49Zm-1.07-.1c-.14-.1-.34-.33-.57-.38-.35-.08-.77.42-.78.85-.01.33.21.55.52.53.36-.02.83-.51.83-1.01Zm-9.76,2.08c-.87-.01-1.33-.33-1.46-1.03-.16-.88.24-1.79.95-2.12.03-.01.05-.02.08-.03.73-.24,1.51-.38,2.11.2.54.52.39,1.22.14,1.85-.33.82-.87,1.13-1.82,1.12Zm-.06-.95c.48,0,.98-.55.97-.9,0-.26-.32-.52-.6-.5-.39.03-.8.44-.72.82.05.23.26.43.36.58Zm8.29-18.11c-.52,0-1.04.01-1.56,0-.57-.02-.71-.19-.63-.76.17-1.14.36-2.27.55-3.41.22-1.33.43-2.66.65-3.99.04-.23.09-.45.11-.68.05-.45.31-.68.74-.68,1.07-.01,2.14-.04,3.2.01.66.03,1.26.37,1.14,1.3-.12.91-.3,1.82-.44,2.72-.2,1.31-.41,2.61-.59,3.92-.15,1.07-.61,1.51-1.7,1.56-.49.02-.98,0-1.47,0Zm-.17-5.93s.06.02.09,0c.89-.41,1.77-.72,2.63.07.02.02.24-.1.26-.17.12-.62.21-1.24.31-1.87.05-.31-.03-.5-.38-.51-.63-.02-1.26-.03-1.89-.08-.48-.04-.7.19-.76.62-.09.65-.15,1.31-.22,1.96h-.02s0-.02,0-.02Zm.47,4.89c1.77-.05,1.73.04,1.87-1.56.01-.11.07-.22.07-.33,0-.14-.02-.27-.03-.41-.1.05-.2.11-.3.16-.79.35-1.55.42-2.22-.26-.17-.18-.29-.16-.34.08-.08.36-.16.73-.2,1.1-.15,1.24-.14,1.24,1.16,1.23Zm.65-2.69c.33-.41.6-.68.77-1.01.04-.07-.25-.42-.44-.48-.3-.1-.91.4-.83.67.07.24.27.45.51.81Zm-6.64,3.73c-.52,0-1.04.02-1.56,0-.76-.04-1.14-.4-1.08-1.15.08-1.12.25-2.23.41-3.33.14-.99.32-1.98.5-2.97.06-.34.13-.68.24-1,.19-.53.56-.88,1.15-.9,1.18-.03,2.36-.03,3.54-.04.33,0,.47.18.45.49-.01.26-.02.52-.06.77-.44,2.55-.89,5.09-1.32,7.64-.06.35-.2.51-.55.5-.58,0-1.15,0-1.73,0Zm2.41-7.89c.06-.3,0-.5-.37-.49-.63.02-1.26.02-1.89.01-.3,0-.5.11-.57.4-.15.64-.29,1.28-.42,1.92-.01.07.03.16.05.23.08-.04.16-.06.23-.11.82-.51,1.6-.52,2.33.18.18.18.29.11.33-.12.11-.68.22-1.35.32-2.03Zm-.83,5.13c.04-.54.04-.54-.49-.31-.76.33-1.49.4-2.14-.26-.17-.17-.3-.15-.34.1-.09.57-.17,1.13-.26,1.7-.06.34.11.48.43.49.54.03,1.08.09,1.61.06.93-.06.93-.08,1.09-1.02.04-.25.07-.51.11-.77Zm-.92-2.3c-.5-.02-1.01.34-.94.62.06.23.3.46.52.59.19.11.82-.5.76-.77-.04-.19-.27-.35-.34-.44Zm10.77-25.77c1.1,0,2.19,0,3.29,0,.88.01,1.08.27.91,1.1-.09.42-.13.85-.24,1.27-.18.67-.61,1.01-1.3,1.08-.09,0-.17,0-.26,0-3.09.04-6.17.08-9.26.11-.87,0-1.02-.17-.9-1.02.08-.6.21-1.19.33-1.78.08-.41.29-.61.77-.62,2.22-.05,4.44-.14,6.65-.21,0,.02,0,.04,0,.05Zm-1.55,1.16h0c-1.41,0-2.82,0-4.23.02-.61,0-.82.28-.82.94,0,.59.45.38.75.43.03,0,.06,0,.09,0,2.62-.04,5.23-.08,7.85-.12.09,0,.17,0,.26,0,.38-.06.67-.46.65-.97-.02-.51-.43-.28-.65-.28-1.29-.02-2.59-.01-3.88-.01Zm2.21-2.08c-2.13,0-4.25,0-6.38,0-.2,0-.4.01-.6,0-.55-.04-.66-.13-.62-.69.04-.57.13-1.14.25-1.7.1-.49.45-.82.95-.87.77-.09,1.54-.16,2.31-.18,2.07-.06,4.13-.09,6.2-.12.2,0,.4,0,.6,0,1.15.07,1.61.63,1.43,1.75-.05.28-.11.56-.14.85-.08.75-.19.85-.98.86-.52,0-1.04,0-1.56,0-.49,0-.98,0-1.47,0,0,.04,0,.08,0,.12Zm-1.61-2.42s0,.04,0,.06c-1.26,0-2.53,0-3.79,0-.2,0-.41.01-.59.08-.32.11-.54.57-.44.92.1.36.38.23.63.23.34,0,.68.08,1.03.07,1.31-.02,2.63-.07,3.94-.09,1.01-.01,2.01,0,3.02,0,.22,0,.52-.02.63-.15.16-.2.28-.53.23-.77-.03-.15-.39-.32-.61-.33-1.35-.03-2.7-.02-4.06-.02Zm-.65,12.65c1.18,0,2.36,0,3.54,0,.95,0,1.26.33,1.16,1.27-.07.74-.18,1.48-.32,2.21-.19.99-.64,1.35-1.66,1.37-1.96.03-3.92.05-5.87.07-.54,0-1.09.05-1.62,0-.84-.09-1.14-.43-1.03-1.23.11-.85.29-1.69.47-2.53.16-.71.64-1.06,1.36-1.1.37-.02.75-.05,1.12-.05.95,0,1.9,0,2.85,0Zm-.91,3.91s0-.03,0-.04c1.13,0,2.25.01,3.38,0,.71-.01.93-.23,1.01-.91.06-.46.09-.92.16-1.37.05-.38-.11-.55-.47-.54-.43.01-.86.05-1.3.05-1.79,0-3.58,0-5.37,0-.61,0-.77.12-.92.69-.12.47-.19.96-.28,1.44-.1.61-.03.68.59.67,1.06,0,2.13,0,3.19,0Zm9.66,21.04c.92,0,1.85,0,2.77,0,1.06,0,1.45.48,1.27,1.53-.52,3.09-1.04,6.18-1.57,9.26-.09.51-.14,1.03-.26,1.53-.28,1.1-.66,1.4-1.84,1.41-1.38.02-2.77.01-4.15.02-.48,0-.97.03-1.45-.02-1.09-.11-1.35-.43-1.18-1.52.2-1.33.44-2.66.66-3.99.33-1.95.67-3.91,1-5.86.06-.37.15-.73.23-1.1.18-.87.58-1.23,1.49-1.26,1.01-.03,2.02,0,3.03,0h0Zm-.83,1.08s0-.03,0-.04c-.52,0-1.04,0-1.56,0-.03,0-.06,0-.09,0-.75.02-.88.09-1.07.85-.15.61-.24,1.24-.35,1.86-.49,2.8-.97,5.6-1.47,8.4-.07.4.1.61.48.66.2.03.4.02.6.01,1.35-.04,2.7-.09,4.05-.11,1.18-.02,1.3-.1,1.54-1.26.02-.11.03-.23.05-.34.54-3.14,1.07-6.28,1.61-9.43.09-.53,0-.65-.53-.73-.25-.04-.52-.02-.78,0-.83.04-1.66.09-2.5.14Zm-65.9-32.85c.11.6-.19,1.16-.62,1.65-1.21,1.4-2.6,2.6-4.18,3.58-.74.46-1.45.94-2.18,1.4-.65.41-1.34.66-2.13.58-.38-.03-.63-.21-.58-.59.05-.48.08-1,.3-1.41,1.32-2.56,3.13-4.76,5.08-6.86.51-.54,1.14-.86,1.92-.86,1.52,0,2.41.88,2.4,2.5Zm-1.74.01c-.03-.1-.04-.19-.08-.26-.27-.51-.79-.59-1.17-.14-1.13,1.37-2.24,2.77-3.35,4.16-.04.05-.03.15-.04.22.07-.03.15-.04.21-.08.96-.73,1.94-1.43,2.87-2.2.5-.42.92-.94,1.37-1.42.08-.08.13-.19.19-.27Zm64.88-37.16c1.7-.05,3.4-.09,5.1-.14.41-.01.59.21.55.59-.04.43-.13.85-.2,1.28-.09.57-.21,1.13-.28,1.7-.06.42-.27.59-.69.58-.72-.02-1.44,0-2.16,0-2.14,0-4.27,0-6.41,0-.57,0-1.14.04-1.71-.02-.68-.07-1.04-.54-.97-1.19.04-.46.13-.91.25-1.35.27-1.02.65-1.35,1.69-1.4,1.09-.06,2.19-.05,3.28-.06.52,0,1.04,0,1.55,0v.04Zm-4.15,3.07c.17,0,.34,0,.52,0,.99-.01.98-.01,1.14-1,.04-.25.12-.5.2-.74.07-.2.06-.33-.19-.33-.74.01-1.49,0-2.23.05-.6.03-.73.17-.86.75-.04.17-.05.34-.06.51-.05.62.03.72.62.75.29.02.57,0,.86,0Zm6.94-2.08s0,.03,0,.04c-.43,0-.94-.14-1.27.04-.44.23-.08.83-.24,1.24-.02.05-.03.11-.05.17-.14.38.04.44.37.43.63-.02,1.26-.04,1.89,0,.49.02.65-.21.74-.64.25-1.28.26-1.28-1.02-1.27-.14,0-.29,0-.43,0Zm-3.52,1.95c.65,0,.91-.31.94-1.14.01-.34-.17-.54-.5-.56-.49-.03-1.13.65-1.14,1.2-.01.38.16.5.71.51Zm13.84-3.16c1.59,0,3.17,0,4.76,0,1.16,0,1.54.48,1.35,1.64-.07.45-.15.9-.24,1.36-.08.45-.37.72-.8.81-.39.08-.79.16-1.19.17-2.71.03-5.42.05-8.13.07-.4,0-.8.05-1.2.08-.63.05-.88-.18-.79-.78.14-.85.29-1.7.45-2.54.12-.65.23-.74.93-.75,1.62,0,3.23,0,4.85,0,0-.02,0-.04,0-.06Zm-3.54,3.11h0c.23,0,.46,0,.69,0,.81-.01.81-.01.94-.83.05-.28.13-.56.23-.82.12-.3-.02-.36-.27-.36-.8,0-1.6-.02-2.39.02-.18,0-.43.2-.5.37-.13.34-.15.73-.22,1.09-.07.38.12.53.47.53.34,0,.69,0,1.03,0Zm6.96-2.06s0,.03,0,.05c-.26,0-.52,0-.77,0-.63,0-.61.01-.64.62-.01.25-.07.51-.16.74-.14.36-.09.55.33.54.63,0,1.26.02,1.89-.02.67-.04.81-.19.94-.88.03-.14.04-.28.08-.42.11-.41-.09-.61-.47-.63-.4-.02-.8,0-1.2,0Zm-3.47,1.95s.13,0,.25-.01c.38-.08.69-.61.66-1.08-.02-.41-.31-.54-.62-.6-.37-.08-.76.28-.98.82-.27.7-.15.89.69.88Zm-12.25,8.49c-1.18,0-3.26,0-5.34,0-.17,0-.35,0-.52,0-.67-.06-.77-.18-.64-.88.06-.34.11-.69.23-1.01.19-.49.51-.78,1.11-.78,1.09,0,2.19-.08,3.28-.1,2.8-.04,5.6-.04,8.4-.08,1.9-.03,3.8-.1,5.7-.15.29,0,.58,0,.87,0,1.37.02,1.88.68,1.56,2-.15.62-.3.75-.95.77-.95.03-1.9.04-2.85.06-3.32.05-6.63.11-10.84.17Zm7.63-1.21s0-.04,0-.06c1.73,0,3.46,0,5.18,0,.17,0,.35.01.51-.04.12-.04.21-.17.31-.26-.11-.12-.19-.31-.32-.34-.24-.06-.51-.06-.77-.05-1.64.05-3.28.14-4.91.16-3.98.04-7.95.04-11.93.07-.26,0-.52,0-.76.08-.13.04-.22.24-.33.37.13.08.26.19.41.22.16.04.34.01.52,0,3.22-.06,6.45-.11,9.67-.16.81-.01,1.61,0,2.42,0Zm-3.17,1.89c2.85-.05,5.7-.11,8.55-.15,1.21-.02,1.37.21,1.08,1.38-.26,1.04-.51,1.27-1.59,1.34-.34.03-.69.03-1.03.04-3.2.04-6.4.08-9.6.12-1.56.02-3.12.03-4.67.06-.72.01-1.44.07-2.15.11-.17,0-.35.01-.52,0-1.26-.14-1.87-1.24-1.31-2.38.08-.15.27-.27.43-.36.09-.05.23-.02.34-.02,3.49-.06,6.98-.12,10.46-.17,0,.01,0,.03,0,.04Zm-.08,1v.06c-1.13,0-2.25-.01-3.37,0-2.08.03-4.15.07-6.22.11-.12,0-.24-.01-.34.02-.1.03-.18.12-.26.18.08.1.15.27.24.29.31.06.63.09.94.08,4.38-.05,8.77-.11,13.15-.17,1.18-.02,2.37-.03,3.55-.06.2,0,.41-.01.59-.08.14-.06.25-.21.37-.32-.14-.07-.29-.21-.43-.21-.52,0-1.03.09-1.55.09-2.22.01-4.45,0-6.67,0Z"/>
  <g>
    <path class="cls-1" d="m40.15,230.2c0-2.38.18-4.78-.05-7.13-.21-2.16.64-3.41,2.32-4.63,5-3.63,10.35-6.4,16.52-7.37,4.72-.74,9.4-.57,13.98.87,6.84,2.15,10.98,6.99,13.3,13.58,1.91,5.43,2.43,11.08,2.44,16.78.03,15.17.01,30.33.01,45.5,0,.37,0,.75,0,1.16,3.1.64,6.14,1.27,9.18,1.89,1.6.32,1.61.31,1.61,1.9v5.76h-44.17c0-1.03,0-2.05,0-3.08,0-1.16.03-2.32-.01-3.48-.02-.57.13-.81.74-.93,3.21-.6,6.41-1.24,9.61-1.88.3-.06.6-.15.95-.25v-1.05c0-14.38.03-28.76-.02-43.14-.01-3.82-.16-7.66-1.26-11.37-1.5-5.09-4.78-7.52-10.08-7.68-5.16-.15-9.75,1.44-14.06,4.11-.24.15-.48.29-.73.43-.05.03-.12,0-.27,0Z"/>
    <path class="cls-1" d="m45.5,298.52H1.39v-7.34c3.69-.73,7.41-1.47,11.22-2.23v-1.03c0-18.84,0-37.68.02-56.52,0-.83-.14-1.17-1.08-1.27-3.83-.42-7.65-.96-11.55-1.46,0-2.12-.03-4.19.04-6.25,0-.25.45-.6.76-.72,6.77-2.59,13.55-5.14,20.33-7.71,2.64-1,5.27-2.03,7.93-2.97.5-.18,1.17-.17,1.68,0,1.34.43,2.63,1,3.97,1.52v76.42c2.47.51,4.92,1.02,7.36,1.53.95.2,1.91.36,2.86.6.22.06.54.37.54.57.04,2.26.02,4.52.02,6.87Z"/>
    <path class="cls-1" d="m209.2,291.25v7.24h-32.53v-1.32c0-21.91,0-43.83.02-65.74,0-.89-.19-1.21-1.15-1.32-3.78-.41-7.54-.94-11.44-1.45,0-1.37,0-2.74,0-4.11,0-.84-.26-1.89.14-2.48.39-.58,1.46-.72,2.25-1.02,8.83-3.35,17.66-6.68,26.49-10.04.73-.28,1.35-.31,2.06.02.88.41,1.79.77,2.72,1.05.8.25,1.08.63,1.08,1.53-.04,16.04-.03,32.09-.03,48.13,0,8.67.02,17.33-.03,26,0,1.04.31,1.38,1.29,1.56,2.78.52,5.53,1.14,8.29,1.73.27.06.54.13.84.2Z"/>
    <path class="cls-1" d="m171.26,280.78c0,.5,0,.8,0,1.1,0,2.29-.15,4.6.05,6.87.17,1.96-.59,3.15-2.08,4.31-5.25,4.09-11.01,7.06-17.68,7.85-5.03.6-10.11.79-15.08-.52-8.96-2.36-14.1-8.3-15.71-17.3-1.2-6.67.76-12.65,4.38-18.2,2.21-3.39,4.99-6.28,7.77-9.19,4.36-4.55,8.3-9.42,11.12-15.35.06.37.12.55.12.73.03,2.92.05,5.84.07,8.76.04,7.09.04,14.19.14,21.28.04,2.83.46,5.63,1.47,8.3,1.71,4.53,5.02,6.81,9.87,6.89,5.27.08,9.86-1.88,14.19-4.65.39-.25.79-.51,1.37-.89Z"/>
    <path class="cls-1" d="m94.1,229.76c-.02-.27-.06-.55-.06-.82,0-2.83-.03-5.65.02-8.48,0-.43.25-.99.57-1.25,7.18-5.61,15.23-8.78,24.46-8.59,3.63.07,7.21.4,10.63,1.72,5.8,2.24,9.39,6.54,11.77,12.14,2.46,5.79,1.35,11.15-1.49,16.41-2.55,4.71-5.92,8.8-9.65,12.6-4.38,4.46-8.41,9.15-11.09,14.93-.01-.32-.04-.64-.04-.96-.01-8.48.01-16.96-.05-25.43-.02-2.98-.32-5.95-1.19-8.83-1.44-4.8-4.5-7.1-9.51-7.35-4.84-.24-9.24,1.1-13.39,3.46-.25.14-.49.29-.73.42-.05.03-.12.01-.25.03Z"/>
    <path class="cls-1" d="m239.8,276.39h-20.52v-3.97h14.5c.02-.08.04-.15.05-.23-1.43-.5-2.85-1-4.28-1.49-3.2-1.11-6.4-2.22-9.61-3.3-.55-.18-.74-.43-.72-1,.05-.97.06-1.95,0-2.92-.04-.65.2-.92.81-1.12,4.26-1.4,8.51-2.83,12.76-4.26.25-.08.5-.18.71-.43h-14.18v-3.58h20.48c0,1.79.03,3.57-.03,5.35,0,.23-.43.55-.73.65-4.69,1.6-9.39,3.17-14.08,4.75-.29.1-.58.21-1.12.4,1.04.36,1.86.66,2.69.94,4.16,1.41,8.31,2.83,12.48,4.21.61.2.84.46.82,1.12-.05,1.6-.02,3.19-.02,4.86Z"/>
    <path class="cls-1" d="m239.77,210.69v4.15h-8.21v8.71h8.2v4.13h-20.45v-4.09h8.72v-8.73h-8.72v-4.16h20.46Z"/>
    <path class="cls-1" d="m230.95,242.68c-2,1.47-3.92,2.88-5.85,4.28-1.89,1.38-3.78,2.76-5.85,4.27,0-1.72-.02-3.24.03-4.76,0-.23.33-.5.57-.67,2.39-1.78,4.79-3.55,7.18-5.33.3-.22.59-.45.95-.73-.86-.76-1.63-1.49-2.46-2.15-.23-.19-.64-.21-.97-.21-1.72-.02-3.45,0-5.24,0v-4.12h20.42v4.07h-9.06c.41.39.61.59.82.78,2.6,2.22,5.21,4.43,7.8,6.67.23.2.48.55.49.83.05,1.53.02,3.07.02,4.85-3.03-2.66-5.9-5.18-8.86-7.77Z"/>
    <path class="cls-1" d="m239.76,281.54v4.15c-.39,0-.76,0-1.13,0-4.02.02-8.04-.01-12.06.08-3.68.08-5.59,3.79-3.67,6.97.69,1.14,1.79,1.68,3.07,1.71,3.08.07,6.15.07,9.23.09,1.5.01,3,0,4.55,0v4c-.29.02-.56.05-.83.05-3.96,0-7.92.02-11.87,0-.91,0-1.82-.08-2.72-.22-2.7-.44-4.41-2.04-5.1-4.65-.61-2.28-.59-4.61-.1-6.9.69-3.24,2.83-5.04,6.28-5.16,3.76-.13,7.54-.09,11.3-.12,1,0,2,0,3.04,0Z"/>
  </g>
</svg>