<?xml version="1.0" encoding="UTF-8"?>
<svg id="Layer_1" data-name="Layer 1" xmlns="http://www.w3.org/2000/svg" viewBox="0 0 512 512">
  <defs>
    <style>
      .cls-1 {
        fill: #a7a7a7;
      }
    </style>
  </defs>
  <path class="cls-1" d="m318.96,299.02c-1.76,0-3.53.06-5.29-.01-2.36-.09-4.71-.53-6.86-1.48-3.88-1.72-7.18-4.24-9.46-7.92-.14-.22-.24-.47-.31-.71-.37-1.25-.73-2.5-1.08-3.76-.07-.25-.1-.51-.11-.77-.07-1.23.29-1.77,1.5-1.81,2.55-.07,5.09-.03,7.64,0,.94.01,1.49.55,1.91,1.42,1.24,2.6,3.21,4.4,6.09,5.08.38.09.8.14,1.11.35,1.33.89,2.82.95,4.33.92.59-.01,1.18-.03,1.76,0,2.71.14,5.1-1.02,7.5-1.97,2.62-1.04,3.23-3.45,3.2-5.98-.02-1.64-.32-3.28-1.72-4.42-.4-.32-.83-.69-1.31-.82-1.89-.52-3.79-.96-5.69-1.41-.38-.09-.83-.01-1.15-.19-2.11-1.19-4.57-1.01-6.8-1.76-1.22-.41-2.58-.39-3.86-.66-.68-.14-1.35-.44-1.99-.72-1.13-.49-2.25-1.01-3.36-1.56-3.61-1.76-6.2-4.52-7.72-8.22-.39-.95-.58-2.03-.61-3.05-.1-2.61-.06-5.22-.07-7.83,0-.2.02-.39.05-.59.2-1.24.67-1.7,1.9-1.86.13-.02.26-.03.39-.03,2.42,0,4.84-.04,7.25.01,1.54.04,1.99.49,2.04,2.01.06,1.83.01,3.66.05,5.49.04,2.18,1.25,4.09,3.15,5.26,1.13.7,2.32,1.12,3.61,1.44,1.9.48,3.75,1.14,5.74,1.12.06,0,.13.01.19.04,1.86.92,3.91.93,5.9,1.24,3.06.48,5.89,1.65,8.63,3.05,2.71,1.38,4.7,3.57,6.06,6.21.75,1.47,1.36,3.11,1.31,4.87-.03.98-.04,1.96.01,2.94.12,1.97-.7,3.73-1.42,5.44-.91,2.16-2.29,4.06-4.11,5.65-.95.83-1.93,1.56-3.01,2.15-3.15,1.69-6.54,2.6-10.11,2.82-1.76.11-3.52.14-5.29.21v-.18Z"/>
  <path class="cls-1" d="m182.99,279.06c0-5.16,0-10.32,0-15.48,0-3.06.15-3.21,3.2-3.22,2.35-.01,4.71.05,7.06-.01,1.47-.04,2.52.54,3.25,1.76.6,1.01,1.15,2.04,1.72,3.06.48.85.94,1.72,1.42,2.57.61,1.08,1.24,2.14,1.84,3.23,1.12,2.06,2.21,4.13,3.32,6.19.03.06.06.12.09.17.63,1.01,1.5,1.67,1.93,1.39.71-.47.57-1.28.58-1.97.03-4.05.03-8.1.03-12.15,0-.72-.02-1.44.03-2.15.1-1.59.46-1.95,1.99-2.08.26-.02.52-.02.78-.02,1.89,0,3.79-.03,5.68.03,1.75.06,2.17.51,2.3,2.24.04.52.03,1.04.03,1.57,0,9.93,0,19.85,0,29.78,0,.78-.04,1.57-.13,2.34-.09.73-.56,1.25-1.29,1.25-3.2.04-6.4.06-9.6-.01-.99-.02-1.6-.89-2.03-1.69-.72-1.32-1.38-2.66-2.4-3.79-.21-.23-.26-.59-.4-.88-.42-.88-.8-1.78-1.28-2.63-1.64-2.89-3.31-5.76-4.97-8.64-.13-.23-.2-.5-.38-.68-.17-.17-.45-.33-.66-.31-.21.02-.5.25-.55.44-.14.49-.22,1.02-.25,1.54-.04.98-.03,1.96-.03,2.94,0,3.59,0,7.18,0,10.77-.01,2.94-.12,3.03-3.13,3.05-1.76,0-3.53,0-5.29,0-.52,0-1.05-.03-1.56-.07-.67-.06-1.09-.46-1.18-1.11-.09-.64-.1-1.3-.1-1.95,0-5.16,0-10.32,0-15.48Z"/>
  <path class="cls-1" d="m8.09,278.91c0-5.29,0-10.58,0-15.86,0-2.45.2-2.66,2.7-2.67,6.4-.02,12.8.07,19.21-.02,4.61-.06,10.28,3.15,12.13,7.04.86,1.8,1.94,3.56,2.04,5.66.01.26.06.53.16.76.85,1.99.81,4.08.71,6.17-.05.97-.27,1.93-.45,2.89-.1.51-.36,1-.39,1.51-.1,2.31-1.3,4.19-2.24,6.19-1.03,2.18-2.92,3.47-4.88,4.64-1.06.63-2.2,1.15-3.47,1.29-.32.04-.66.12-.93.29-1.35.83-2.83.89-4.35.88-5.75-.02-11.5,0-17.25-.01-.65,0-1.31-.03-1.95-.1-.59-.07-.94-.44-.99-1.04-.05-.58-.06-1.17-.06-1.76,0-5.29,0-10.58,0-15.86Zm24.76-.02c-.13-2.19-.38-4.31-1.29-6.32-.36-.8-.86-1.43-1.64-1.87-2.5-1.38-5.18-1.69-7.96-1.36-1.14.13-1.63.62-1.79,1.73-.09.64-.09,1.3-.1,1.95,0,3.59,0,7.17,0,10.76,0,.65-.01,1.31.03,1.95.12,1.72.7,2.36,2.39,2.49,1.83.14,3.65.07,5.45-.36,2.24-.54,3.7-1.9,4.19-4.15.34-1.59.49-3.21.72-4.82Z"/>
  <path class="cls-1" d="m177.43,287.07c0,2.48,0,4.96,0,7.44,0,.52,0,1.05-.04,1.57-.11,1.12-.45,1.49-1.61,1.55-1.37.07-2.74.02-4.11.02-.78,0-1.4-.27-1.71-1.05-.09-.24-.22-.48-.37-.69-.78-1.08-1.56-1.21-2.64-.44-.48.34-.96.67-1.43,1.02-1.95,1.48-4.2,2.02-6.6,2.04-1.11,0-2.23-.06-3.33.02-1.95.14-3.71-.67-5.56-1.02-2.84-1.72-5.76-3.28-7.5-6.36-1.07-1.89-2.17-3.72-2.44-5.91-.02-.19-.06-.4-.15-.57-1.46-2.91-.84-6.01-.88-9.05,0-.19.02-.4.09-.58.8-2.34,1.46-4.75,2.49-6.98.61-1.32,1.73-2.44,2.77-3.51,1.32-1.35,2.73-2.63,4.53-3.35.72-.29,1.46-.55,2.2-.79.43-.14.95-.11,1.32-.33,1.44-.83,3-.81,4.57-.8,1.31,0,2.61.01,3.92,0,1.44-.01,2.88,0,4.19.76.22.13.49.17.75.22,3.4.72,5.98,2.67,8.26,5.23,1.61,1.8,2.07,4.02,2.85,6.14.24.65-.13,1.17-.8,1.29-.38.07-.78.09-1.17.09-2.35,0-4.7-.02-7.05.01-1.32.02-2.38-.36-3.25-1.44-2.27-2.85-5.36-3.05-8.55-2.22-1.42.37-2.56,1.39-3.4,2.77-1.69,2.78-1.89,5.76-1.58,8.86.03.32.13.64.17.96.85,6.99,7.73,8.11,11.95,5.89.72-.38,1.3-.84,1.69-1.57.86-1.61.43-2.49-1.38-2.65-.78-.07-1.57-.02-2.35-.11-1.14-.12-1.5-.45-1.56-1.61-.07-1.43-.07-2.87,0-4.3.06-1.02.45-1.33,1.5-1.46.39-.05.78-.04,1.17-.04,4.11,0,8.23-.02,12.34,0,2.46.01,2.65.22,2.67,2.71.02,2.74,0,5.48,0,8.22h0Z"/>
  <path class="cls-1" d="m63.86,252.37c-.91,0-1.83,0-2.74,0-1.05,0-2.07-.08-3.05-.57-.51-.26-1.12-.33-1.69-.49-3.3-.94-5.97-2.79-8.14-5.45-1.7-2.07-2.79-4.46-3.47-6.95-.66-2.43-.9-5.01-.63-7.58.12-1.1.24-2.21.36-3.31,0-.06,0-.14.02-.19.81-2.19,1.25-4.52,2.66-6.46,1.11-1.54,2.3-3,3.85-4.14,1.11-.81,2.19-1.66,3.57-1.96.19-.04.39-.1.55-.2,3.92-2.39,8.29-2.34,12.54-1.78,5.31.7,9.69,3.4,12.86,7.79,1.1,1.52,1.83,3.26,2.53,5.03,1.37,3.44.89,6.96.8,10.45-.03,1.25-.61,2.52-1.07,3.73-1.55,4.16-4,7.55-8.05,9.7-2.88,1.53-5.85,2.5-9.13,2.38-.59-.02-1.18,0-1.76,0h0Zm7.73-19.27s-.05,0-.07,0c0-1.24.11-2.49-.02-3.72-.28-2.5-1.51-4.58-3.79-5.59-6.29-2.78-10.95,1.5-11.43,6.38-.17,1.75-.17,3.54,0,5.28.13,1.27.39,2.69,1.07,3.71,1.59,2.39,3.84,3.9,6.91,3.6,1.23-.12,2.48-.15,3.59-.82,2.32-1.39,3.47-3.48,3.71-6.1.08-.91.01-1.83.01-2.74Z"/>
  <path class="cls-1" d="m48.84,279.1c0-5.03,0-10.05,0-15.08,0-.72.03-1.44.12-2.15.11-.8.62-1.29,1.42-1.4.58-.08,1.17-.11,1.76-.11,8.29,0,16.59-.01,24.88,0,2.92,0,3.15.26,3.17,3.1.01,1.44.03,2.87-.02,4.31-.06,1.87-.5,2.33-2.33,2.41-1.24.05-2.48.03-3.72.03-3.27,0-6.53,0-9.8,0-.46,0-.92,0-1.37.03-1.84.15-2.68,1.8-1.64,3.34.26.38.81.66,1.27.77.62.15,1.3.11,1.95.12,3.33,0,6.66,0,9.99,0,.65,0,1.31,0,1.96.06,1.27.14,1.85.59,1.92,1.8.1,1.82.09,3.65.01,5.47-.05,1.07-.55,1.46-1.65,1.58-.65.07-1.3.06-1.96.06-3.46,0-6.92,0-10.38,0-.46,0-.92,0-1.37.02-1.9.11-2.8,1.72-1.87,3.43.19.35.66.66,1.06.74.69.15,1.43.14,2.14.14,4.18.01,8.36,0,12.54.01,3.06.01,3.25.2,3.27,3.19.01,1.63.03,3.26-.04,4.89-.05,1.23-.45,1.6-1.68,1.72-.52.05-1.04.05-1.57.05-8.23,0-16.46,0-24.68,0-.65,0-1.31-.03-1.95-.1-.73-.08-1.2-.54-1.3-1.26-.1-.71-.13-1.43-.13-2.14,0-5.03,0-10.05,0-15.08Z"/>
  <path class="cls-1" d="m100.5,259.3c.98,0,1.96,0,2.94,0,1.32-.02,2.61.05,3.81.69.39.21.87.32,1.31.37,2.71.3,4.42,2.08,5.96,4.05.68.87,1.2,1.86,1.72,2.84.21.39.28.87.32,1.31.15,1.76-.26,2.29-2.02,2.34-2.02.05-4.05-.04-6.07-.05-1.19,0-2.19-.43-2.87-1.41-.83-1.2-2-1.61-3.38-1.62-.91,0-1.83-.03-2.74,0-.52.02-1.04.1-1.55.22-.95.23-1.68.76-1.82,1.81-.14,1.04.42,1.7,1.25,2.24,1.4.91,2.84,1.48,4.57,1.45,1.15-.02,2.32.31,3.47.5,1.42.24,2.82.52,4.24.74.79.12,1.5.36,2.15.86.56.44,1.2.79,1.84,1.12,2.6,1.37,3.86,3.64,4.25,6.43.4,2.84.15,5.64-1.15,8.22-1.02,2.01-2.61,3.62-4.62,4.64-1.49.76-3,1.52-4.69,1.9-1.48.34-2.93.6-4.44.58-1.31-.02-2.62-.08-3.92.02-2.14.16-4.19-.35-6.14-1.03-2.85-1-5.43-2.54-7.22-5.11-.3-.42-.57-.88-.75-1.36-.4-1.1-.75-2.22-1.09-3.35-.31-1.03.03-1.61,1.09-1.88.25-.06.52-.11.77-.11,2.42-.01,4.83-.02,7.25-.01,1.08,0,1.9.5,2.39,1.44,1.45,2.82,4.98,3.53,7.43,3.06,1.19-.23,2.14-.98,3.02-1.73.82-.69.8-1.81.11-2.64-.52-.63-1.23-.94-2-1.16-.94-.26-1.85-.63-2.81-.84-.88-.2-1.8-.3-2.71-.34-1.25-.05-2.46-.19-3.62-.73-.47-.22-.99-.34-1.5-.42-2.95-.45-5.25-2.06-6.96-4.34-.86-1.15-1.32-2.72-1.55-4.17-.26-1.65-.25-3.4-.03-5.06.46-3.57,2.71-5.96,5.66-7.78.38-.23.85-.33,1.28-.47.93-.3,1.86-.61,2.8-.85.69-.18,1.4-.32,2.11-.35,1.3-.05,2.61-.02,3.92-.02h0Z"/>
  <path class="cls-1" d="m183.97,228.67c0,3.78.06,7.57-.02,11.35-.06,3.07-2.07,6.85-4.46,8.79-1.53,1.24-3.19,2.1-5.11,2.72-2.31.75-4.59.87-6.93.85-.59,0-1.18-.06-1.76,0-2.88.33-5.58-.44-8.21-1.41-2.32-.86-4.17-2.47-5.51-4.53-.92-1.41-1.57-3-2.25-4.54-.23-.51-.22-1.15-.23-1.73-.01-7.83-.01-15.66-.01-23.49,0-.2,0-.39.02-.59.12-1.58.42-1.95,2.04-1.99,2.48-.06,4.96-.06,7.44,0,1.46.03,1.83.44,1.96,1.88.06.65.05,1.3.05,1.96,0,5.55.06,11.09-.03,16.64-.03,2.01.45,3.88.99,5.75.33,1.13,1.16,1.87,2.34,2.15,1.68.4,3.36.38,5.04-.04.72-.18,1.36-.52,1.75-1.16.76-1.22,1.47-2.48,1.47-3.98,0-.78.03-1.57.03-2.35,0-5.74,0-11.48,0-17.23,0-.65-.01-1.31.05-1.96.11-1.17.44-1.6,1.54-1.62,2.74-.06,5.48-.06,8.22,0,1.12.02,1.44.44,1.57,1.61.06.58.05,1.17.05,1.76,0,3.72,0,7.44,0,11.16-.02,0-.04,0-.06,0Z"/>
  <path class="cls-1" d="m8.09,232.72c0-5.09,0-10.17,0-15.26,0-.39,0-.78,0-1.17.05-1.89.29-2.19,2.16-2.2,6.33-.03,12.66,0,18.99,0,.86,0,1.68.13,2.45.56.39.22.83.4,1.27.51,2.32.56,4.1,1.97,5.62,3.72.5.58.9,1.28,1.24,1.97.46.93.87,1.89,1.21,2.87.21.6.36,1.26.38,1.9.04,1.95.01,3.91,0,5.87,0,1.71-1.01,3.08-1.66,4.55-.98,2.2-2.66,3.76-4.78,4.97-2.17,1.24-4.46,1.77-6.9,1.81-1.44.02-2.87.02-4.31.04-.59,0-1.18.01-1.76.11-1.16.19-1.73.77-1.85,1.94-.1.9-.06,1.82-.08,2.74-.02.72,0,1.44-.11,2.15-.14.97-.56,1.37-1.51,1.53-.38.07-.78.08-1.17.08-2.28,0-4.57,0-6.85,0-.33,0-.66-.01-.98-.07-.9-.15-1.25-.5-1.34-1.4-.05-.52-.03-1.04-.03-1.56,0-5.22,0-10.44,0-15.65Zm12.04-4.16s.01,0,.02,0c0,1.04-.07,2.09.02,3.12.09,1.05.56,1.59,1.6,1.65,1.49.09,3,.12,4.48-.07,1.73-.22,2.77-1.38,3.08-3.09.24-1.36.17-2.72-.16-4.07-.29-1.17-.98-1.92-2.15-2.31-1.52-.5-3.07-.58-4.64-.42-1.44.15-2.1.81-2.23,2.25-.09.97-.02,1.95-.02,2.93Z"/>
  <path class="cls-1" d="m123.35,244.07c0-1.5,0-3,0-4.5,0-.99-.24-1.88-.76-2.77-1.57-2.7-3-5.48-4.52-8.21-1.46-2.62-2.97-5.21-4.45-7.82-.45-.79-.83-1.63-1.28-2.42-.45-.79-.92-1.56-1.41-2.33-.65-1.01-.32-1.74.9-1.89.32-.04.65-.04.98-.05,2.48,0,4.96,0,7.45,0,.46,0,.91.04,1.37.1.62.09,1.08.42,1.33,1.02,1.12,2.64,2.83,4.98,3.88,7.67.32.83.95,1.55,1.51,2.26.54.68,1.15.6,1.52-.18.87-1.82,1.67-3.68,2.52-5.51.6-1.3,1.19-2.61,1.84-3.88.48-.93,1.26-1.47,2.36-1.46,2.94.01,5.88,0,8.82.01.25,0,.52.07.76.15.36.13.47.42.38.78-.05.19-.12.37-.21.55-1.57,2.92-3.15,5.84-4.72,8.77-.99,1.84-1.94,3.7-2.94,5.52-1.16,2.11-2.43,4.16-3.5,6.31-.39.78-.49,1.76-.51,2.65-.07,2.87-.03,5.74-.04,8.62,0,.65.01,1.31-.04,1.96-.11,1.41-.5,1.79-1.93,1.96-.39.04-.78.05-1.17.05-1.76,0-3.53,0-5.29,0-.46,0-.92,0-1.37-.08-.91-.14-1.26-.48-1.37-1.39-.08-.64-.08-1.3-.08-1.95-.01-1.31,0-2.61,0-3.92h-.01Z"/>
  <path class="cls-1" d="m88.24,232.66c0-5.02,0-10.04,0-15.07,0-.72.03-1.44.11-2.15.08-.73.51-1.19,1.26-1.28.39-.05.78-.08,1.17-.08,2.15,0,4.31,0,6.46,0,.33,0,.65,0,.98.05,1.04.14,1.36.43,1.46,1.49.07.71.06,1.43.06,2.15,0,6.65,0,13.3,0,19.96,0,.72-.01,1.44.07,2.15.12,1.07.54,1.47,1.62,1.62.64.09,1.3.09,1.95.09,2.74,0,5.48,0,8.22,0,5.26,0,4.97-.23,4.96,5.06,0,.91.02,1.83-.03,2.74-.08,1.56-.43,1.9-2.02,2.01-.46.03-.91.03-1.37.03-7.11,0-14.23,0-21.34,0-.39,0-.78,0-1.17-.02-1.92-.1-2.29-.45-2.39-2.31-.03-.59-.02-1.17-.02-1.76,0-4.89,0-9.78,0-14.67Z"/>
  <path class="cls-1" d="m344.9,230.49c0-4.96-.01-9.93,0-14.89,0-2.81.17-2.97,3.02-2.98,6.01-.01,12.03-.02,18.04,0,2.8,0,3.03.25,3.06,3,.01,1.83,0,3.66,0,5.49,0,.52,0,1.05-.08,1.56-.12.8-.47,1.14-1.27,1.25-.51.07-1.04.08-1.56.08-1.96,0-3.92,0-5.88.01-.52,0-1.05,0-1.56.08-1.04.15-1.51.59-1.66,1.63-.1.71-.1,1.43-.1,2.15,0,5.62,0,11.23-.01,16.85,0,.78,0,1.57-.11,2.34-.14.98-.56,1.37-1.52,1.52-.51.08-1.04.08-1.56.09-2.03,0-4.05.01-6.08,0-.52,0-1.05-.03-1.56-.11-.57-.09-.95-.46-1.03-1.04-.08-.65-.11-1.3-.11-1.95,0-5.03,0-10.06,0-15.09Z"/>
  <path class="cls-1" d="m352.46,273.04c-1.89,0-3.79.04-5.68-.01-1.42-.04-1.79-.37-1.82-1.74-.06-2.74-.06-5.48,0-8.22.03-1.33.45-1.66,1.85-1.74,3.65-.2,7.3-.37,10.95-.57,1.89-.11,3.77-.28,5.46-1.31,2.09-1.28,3.81-2.94,5.08-5.03.37-.6.56-1.31.78-1.99.16-.49.22-1.02.33-1.53.22-1.03.83-1.62,1.9-1.63,2.61-.02,5.22-.05,7.83.02,1.2.03,1.67.56,1.69,1.71.02,1.24-.04,2.48-.13,3.72-.03.44-.21.88-.35,1.32-.26.8-.48,1.63-.84,2.38-.68,1.4-1.37,2.8-2.19,4.12-1.22,1.96-2.95,3.53-4.75,4.89-1.85,1.4-3.88,2.66-6.19,3.29-1.57.42-3.04,1.2-4.72,1.23-.31,0-.67.11-.93.29-1.21.82-2.58.83-3.96.83-1.44,0-2.87,0-4.31,0,0,0,0-.01,0-.02Z"/>
  <path class="cls-1" d="m369.47,230.7c0-1.37-.04-2.74.01-4.11.07-1.62.42-2.03,1.96-2.07,2.54-.06,5.09-.06,7.63,0,1.35.03,1.7.43,1.86,1.77.06.52.04,1.04.1,1.56.15,1.23.6,1.74,1.82,1.94.77.12,1.56.09,2.34.14,1.81.11,2.29.57,2.41,2.38.06.91,0,1.83.09,2.73.12,1.44.64,1.97,2.05,2.14.65.08,1.31.05,1.95.13,1.07.13,1.46.54,1.62,1.62.05.32.05.65.05.98,0,1.96,0,3.91,0,5.87,0,.39-.02.79-.08,1.17-.18,1.03-.61,1.44-1.67,1.6-.45.07-.91.08-1.37.08-2.02,0-4.04,0-6.07,0-.33,0-.65,0-.98-.03-1.29-.13-1.73-.52-1.78-1.85-.07-2.02-.03-4.04-.05-6.06,0-.72.01-1.44-.07-2.15-.12-1.09-.53-1.5-1.61-1.62-.71-.08-1.43-.06-2.15-.07-2.02-.01-4.04.02-6.06-.04-1.58-.05-1.92-.41-1.99-2.02-.06-1.37-.01-2.74-.01-4.11Z"/>
  <path class="cls-1" d="m320.5,248.68c-2.67,0-5.35,0-8.02,0-.52,0-1.04,0-1.56-.02-1.82-.1-2.15-.39-2.19-2.23-.04-2.34-.05-4.69,0-7.04.04-1.68.4-1.99,2.14-2.07.91-.04,1.83-.02,2.74-.02,5.09,0,10.17,0,15.26,0,.65,0,1.31-.01,1.95.05,1.2.12,1.69.53,1.72,1.71.07,2.6.07,5.21,0,7.82-.03,1.2-.5,1.61-1.68,1.74-.58.06-1.17.05-1.76.05-2.87,0-5.74,0-8.61,0Z"/>
  <path class="cls-1" d="m427.48,260.34c0-2.28,0-4.57,0-6.85,0-.52,0-1.05.02-1.57.1-1.85.55-2.39,2.34-2.42,3.13-.05,6.27-.31,9.33.68,3.43,1.11,5.74,3.3,6.52,6.87.58,2.65.45,5.31-.15,7.96-.31,1.36-1.27,2.26-2.11,3.24-1.31,1.53-2.92,2.42-5.02,2.69-2.6.34-5.19.55-7.8.5-.46,0-.92,0-1.37-.07-1.04-.15-1.48-.57-1.65-1.63-.09-.58-.1-1.17-.1-1.76,0-2.55,0-5.09,0-7.64h0Zm14.21.67c-.05-1.75-.15-3.24-.81-4.63-.69-1.45-1.8-2.41-3.4-2.63-1.03-.15-2.08-.19-3.12-.16-1.58.05-2.04.55-2.18,2.16-.02.19-.02.39-.02.59,0,3,0,6,0,9,0,.45.05.91.13,1.36.17.87.71,1.4,1.6,1.46,2.73.19,5-.81,6.7-2.9.5-.62.7-1.53.9-2.35.17-.69.15-1.42.19-1.9Z"/>
  <path class="cls-1" d="m462.78,286.42c0,2.09.04,4.18,0,6.26-.05,2.41-1.21,4.23-3.19,5.52-.53.35-1.18.54-1.77.8-.06.03-.13.02-.19.04-2.29.84-4.54.72-6.89.07-2.63-.72-4.06-2.43-4.78-4.9-.27-.94-.48-1.89-.69-2.85-.14-.63-.29-1.28-.3-1.93-.03-3-.02-6-.02-9.01,0-.33.02-.65.07-.98.2-1.23.73-1.71,1.93-1.82,1.85-.16,2.48.36,2.51,2.32.06,3.2.02,6.4.03,9.59,0,.72-.02,1.44.04,2.15.19,2.21,1.7,3.74,3.88,3.98.32.04.65.04.98.04,2.58.03,3.72-1.09,4.4-4.03.14-.62.07-1.3.07-1.95,0-2.87,0-5.74,0-8.61,0-.59,0-1.18.05-1.76.13-1.25.55-1.67,1.69-1.72,1.27-.06,1.9.37,2.1,1.54.11.64.11,1.3.12,1.95.01,1.76,0,3.52,0,5.29-.02,0-.04,0-.06,0Z"/>
  <path class="cls-1" d="m475.73,277.26c1.78-.08,3.46.29,5.02,1.26,1.28.79,1.8,2.03,2.21,3.33.26.83-.2,1.42-1.06,1.53-.71.09-1.43.06-2.15.05-.71,0-1.18-.36-1.57-.98-.92-1.42-1.95-1.83-3.46-1.47-.97.23-1.66.8-1.85,1.8-.18.92.16,1.69.92,2.22.59.41,1.2.9,1.87,1.04,1.5.32,2.74,1.21,4.14,1.7,1.36.48,2.34,1.4,3.1,2.58q1.64,2.53.3,5.3c-.34.7-.76,1.36-1.2,2-.55.78-1.32,1.25-2.27,1.39-.19.03-.41.03-.58.11-2.31,1.09-4.6.48-6.87-.11-2.16-.56-3.35-2.18-4.12-4.12-.37-.95.17-1.67,1.19-1.79.58-.07,1.17-.04,1.76,0,.7.04,1.26.34,1.55,1.01.34.82.96,1.39,1.7,1.84,1.55.95,3.91.3,4.75-1.33.32-.62.31-1.25-.09-1.85-.94-1.43-2.23-2.42-3.91-2.73-1.87-.34-3.35-1.43-4.85-2.41-1.48-.97-1.95-2.67-1.93-4.29.03-1.93.79-3.61,2.56-4.79,1.51-1,3.08-1.34,4.84-1.28Z"/>
  <path class="cls-1" d="m405.79,288.42c0-2.34,0-4.69,0-7.03,0-.46.02-.91.04-1.37.12-2.04.43-2.38,2.47-2.41,2.61-.04,5.21-.06,7.82.01,3.22.1,5.97,2.98,6.07,6.19.05,1.79-.03,3.53-1.27,4.97-.29.34-.57.78-.95.94-1.61.69-3.17,1.55-5.02,1.44-.58-.03-1.17,0-1.76.01-2.38.07-2.73.41-2.79,2.72-.03.98,0,1.95-.03,2.93-.03.78,0,1.64-.9,1.99-1,.38-2.05.47-3.02-.08-.28-.16-.48-.62-.54-.97-.11-.64-.13-1.3-.13-1.95-.01-2.47,0-4.95,0-7.42,0,0,0,0,.01,0Zm4.58-4.15s.06,0,.08,0c0,.58-.05,1.17.01,1.75.14,1.26.58,1.73,1.84,1.84.84.07,1.69,0,2.53-.03,1.45-.05,2.47-.72,2.91-2.14.17-.55.54-1.17.41-1.64-.37-1.35-1.11-2.62-2.57-2.93-1.24-.26-2.58-.17-3.87-.11-.73.03-1.13.6-1.21,1.32-.07.64-.09,1.29-.14,1.94Z"/>
  <path class="cls-1" d="m414.62,271.77c-1.93.3-3.68-.52-5.36-1.37-1.27-.65-1.96-1.88-2.19-3.3-.13-.81.21-1.3.99-1.4,1.41-.18,2.77-.08,3.69,1.22,1.03,1.45,2.49,1.5,4.04,1.27.87-.13,1.37-.68,1.61-1.5.46-1.58-.1-3.03-1.62-3.78-1.11-.54-2.28-.98-3.47-1.31-1.44-.39-2.59-1.24-3.66-2.18-1.05-.93-1.62-2.15-1.57-3.65.05-1.44,0-2.81,1.12-4.01,1.17-1.26,2.51-2.05,4.19-2.29,2.03-.29,4.04-.23,5.96.58,1.69.71,2.65,2.04,3.11,3.77.14.53-.09.96-.61,1.03-1.49.2-3,.4-4.22-.85-.32-.33-.67-.62-1.05-.88-1.41-.95-3.09-.36-3.6,1.26-.44,1.39.2,2.84,1.55,3.4,1.37.57,2.79,1.06,4.15,1.65.89.39,1.82.8,2.55,1.42.67.56,1.38,1.34,1.6,2.15.56,2.03.7,4.09-.62,6-1.22,1.77-3.03,2.37-4.97,2.75-.5.1-1.04.01-1.62.01Z"/>
  <path class="cls-1" d="m135.97,266.46c.3,2.42-1.08,4.22-2.72,5.86-.43.43-1.1.7-1.71.86-1.73.45-3.49.43-5.23.08-1.88-.38-3.09-1.77-3.95-3.27-1.76-3.05-1.23-6.25,1.07-8.64,1.17-1.22,2.67-2.07,4.49-2.04.46,0,.92.05,1.37,0,3.35-.42,7.1,3.49,6.69,6.66-.02.13,0,.26,0,.5Z"/>
  <path class="cls-1" d="m393.91,230.62c0-1.44-.06-2.88.02-4.31.07-1.32.51-1.76,1.83-1.79,2.55-.05,5.1-.06,7.64,0,1.42.03,1.87.48,1.9,1.93.06,2.81.06,5.61,0,8.42-.03,1.53-.38,1.9-1.85,1.94-2.61.06-5.23.06-7.84,0-1.24-.03-1.63-.44-1.69-1.69-.07-1.5-.02-3-.02-4.5,0,0,0,0,0,0Z"/>
  <path class="cls-1" d="m509.04,293.84c0,1.37.04,2.74-.01,4.11-.04,1.09-.45,1.55-1.53,1.65-.97.09-1.96.07-2.94.07-1.57,0-3.14.03-4.7-.02-1.99-.06-2.53-.47-2.62-2.38-.1-2.28-.1-4.57.02-6.84.1-1.89.67-2.36,2.61-2.4,2.29-.05,4.57-.02,6.86-.01.33,0,.66.01.97.08.88.17,1.27.54,1.31,1.44.05,1.43.01,2.87.01,4.31,0,0,0,0,.01,0Z"/>
  <path class="cls-1" d="m387.34,223.99c-1.37,0-2.74.05-4.1-.01-1.35-.06-1.79-.46-1.82-1.77-.06-2.54-.06-5.08,0-7.62.03-1.39.51-1.88,1.93-1.91,2.67-.07,5.34-.06,8.01,0,1.39.03,1.92.56,1.96,1.92.06,2.54.06,5.08,0,7.62-.04,1.28-.54,1.71-1.86,1.77-1.37.06-2.74.01-4.1.01h0Z"/>
  <path class="cls-1" d="m344.49,255.09c0,1.3.05,2.61-.01,3.91-.06,1.18-.51,1.7-1.69,1.73-2.61.07-5.22.07-7.83-.02-1.28-.04-1.76-.56-1.8-1.86-.07-2.54-.07-5.09,0-7.63.04-1.42.51-1.9,1.93-1.94,2.48-.07,4.96-.08,7.44,0,1.5.04,1.9.52,1.97,2.1.05,1.24.01,2.48.01,3.72,0,0,0,0-.01,0Z"/>
  <path class="cls-1" d="m427.48,288.19c0-2.21,0-4.43,0-6.64,0-.52,0-1.04.02-1.56.11-1.97.82-2.56,2.73-2.34,1.03.12,1.56.53,1.75,1.53.13.7.15,1.42.16,2.14.02,3.78,0,7.56.02,11.33,0,.71,0,1.44.13,2.14.2,1.09.72,1.59,1.84,1.68,1.17.1,2.34.06,3.52.08.65.01,1.31,0,1.95.07.38.04.77.15,1.1.34.68.38.69,1.42,0,1.76-.45.22-.99.36-1.49.36-3.19.04-6.39.06-9.58.01-1.68-.03-2.09-.44-2.12-2.12-.06-2.93-.02-5.86-.02-8.79,0,0-.01,0-.02,0Z"/>
  <path class="cls-1" d="m257.08,255.76c0-19.19,0-38.39,0-57.58,0-.74.1-1.48.15-2.22.03.71.09,1.42.09,2.14,0,35.58,0,71.16,0,106.74,0,3.07,0,6.14,0,9.21,0,.39,0,.78-.02,1.17,0,.12-.06.25-.09.37-.05-.09-.12-.19-.13-.28-.02-.26-.02-.52-.02-.78,0-2.35,0-4.7,0-7.05,0-17.24,0-34.47,0-51.71Z"/>
</svg>