<?xml version="1.0" encoding="utf-8"?>
<!-- Generator: Adobe Illustrator 27.1.1, SVG Export Plug-In . SVG Version: 6.00 Build 0)  -->
<svg version="1.1" id="Layer_1" xmlns="http://www.w3.org/2000/svg" xmlns:xlink="http://www.w3.org/1999/xlink" x="0px" y="0px"
	 viewBox="0 0 500 500" style="enable-background:new 0 0 500 500;" xml:space="preserve">
<style type="text/css">
	.st0{fill:#A7A7A7;}
</style>
<path class="st0" d="M82.4,186.5c1.2-0.9,2.7-1.2,4.1-0.9c0.6,0.2,1.1,0.5,1.6,0.9c-1.4,0.3-2.8,0.7-4.1,1.2
	c-1.6,0.5-3.1,0.6-3.1,0.2S81.5,187.3,82.4,186.5 M89.3,176.5c0-0.3,0.2-0.3,0.3,0c0.4,1.5,1,2.8,1.9,4c0.5,1,0.6,2.1,0.4,3.2
	c0,0-1.3-0.9-2.1-1.9c-1-1.6-1.1-3.6-0.4-5.4 M91.3,195.6c-1.2,1.4-1.9,1.6-2.7,3s-1.6,1.3-1.6,1.1c0-1.4,0.5-2.8,1.4-4
	c0.9-1.1,2.1-1.9,3.5-2.3c-0.1,0.8-0.4,1.5-0.7,2.2 M94.1,186.8c1.6-1.3,3.5-1.5,4.4-0.5s0.2,3-1.4,4.3c-1.6,1.3-3.5,1.5-4.4,0.5
	S92.5,188.1,94.1,186.8 M100.9,178.5c0.9-1.1,2-1.9,3.3-2.4c0.4-0.3,0.2,1.2-0.8,2.4c-0.7,0.7-1.3,1.6-1.7,2.5
	c-0.6,0.9-1.5,1.5-2.6,1.5C99.5,181.1,100.1,179.7,100.9,178.5 M100.1,193c-0.9,0.9-2.2,1.3-3.5,1.2c-0.6,0-1.3-0.1-1.9-0.4
	c0,0,0.4-0.2,0.8-0.3c2.2-0.5,4.1-2,5.1-4.1c0-0.4,0.1-0.8,0.2-1.1c0,0,0.3,0.8,0.3,1.1c0.1,1.3-0.4,2.6-1.3,3.5 M79.2,189
	c1.2,0.6,1.1,1.8,3.9,3.2c1.7,0.7,3.6,0.7,5.4,0c1.4-0.6,1.7,0.2,0.6,0.8c-2.2,1.4-3.4,3.9-3.3,6.4c0,1.1-0.9,2-0.2,2.7
	c0.7,0.7,0.9,0,1.8-0.2c2.4,0.4,4.8-0.1,6.8-1.3c1.7-1.3,1.7-3.5,2.1-4.2c0.4-0.7,0.7-0.8,0.9-0.3c1.2,1.9,3.3,3.1,5.6,3
	c2.3,0,2.7,0,3.8,0.5c1.1,0.5,2.2-0.2,1.3-1.3c-0.9-1.1,0-1.7-1-5.3c-0.7-2-2.2-3.7-4.3-4.4c-0.8-0.2-0.7-0.7,0-1.1
	c3.7-2.1,5.4-6.6,4-10.6c-0.5-1.4,0-2.4-0.6-2.7c-0.5-0.2-1.2-0.1-1.5,0.4c-1,1.2-5.2,1-6.5,4.9c-0.5,1.3-0.2,2.7-1,2.8
	c-0.8,0.2-0.6-0.8-0.6-1.4c-0.1-2.1-1.1-4-2.8-5.3c-1.2-0.5-2.4-1.1-3.5-1.8c-0.7-0.6-1.7-0.7-1.6,0.9c0.1,1.6-2.4,5.1,0.5,8.9
	c0,0.3,0.7,0.6,0.6,1c-0.1,0.4-0.4,0.6-0.7,0.4c-1.3-0.9-2.8-1.3-4.4-1c-2.4,0.5-4,2.8-5.2,3.2s-1,1.2,0,1.7"/>
<path class="st0" d="M106.6,188.7c2.4,2.1,3.6,5.2,3.3,8.4c0,0.3,1.1,0.2,1.7,0c4.1,1.3,7.8,3.5,10.9,6.5c0.4,0.3,1.2-0.2,0.3-1.7
	c-2.2-3.1-5.1-5.7-8.4-7.7c-1.3-1-2.2-2.3-2.6-3.8c-1.2-2.6-2.6-4.1-3.8-4.1c0,0-0.4,0.7-1.4,1.4c-0.4,0.3-0.8,0.6,0,0.9"/>
<path class="st0" d="M169.5,176.1c1.3,0.5,2.4,1.3,3.3,2.4c0.8,1.2,1.4,2.6,1.8,4c-1.1,0-2.1-0.6-2.6-1.5c-0.4-0.9-0.9-1.8-1.7-2.5
	C169.3,177.3,169.1,175.8,169.5,176.1 M174.9,186.4c0.8-1.1,2.8-0.8,4.4,0.5s2.2,3.2,1.4,4.3c-0.8,1.1-2.8,0.8-4.4-0.5
	C174.7,189.3,174.1,187.4,174.9,186.4 M185.2,195.8c0.9,1.1,1.4,2.5,1.4,4c0,0-0.9,0-1.6-1.1s-1.6-1.7-2.8-3
	c-0.4-0.7-0.6-1.4-0.7-2.2c1.4,0.4,2.6,1.2,3.5,2.3 M182.2,180.5c0.9-1.2,1.5-2.6,1.9-4.1c0-0.4,0.2-0.4,0.3,0
	c0.7,1.8,0.5,3.8-0.5,5.4c-0.5,0.8-1.2,1.5-2,2C181.7,182.7,181.8,181.6,182.2,180.5 M177.1,194.2c-1.3,0.2-2.6-0.3-3.5-1.2
	c-0.9-0.9-1.4-2.2-1.3-3.5c0-0.4,0.2-1.1,0.3-1.1s0.2,0.5,0.5,1.1c1,2.1,2.9,3.5,5.2,4c0.5,0,0.9,0.2,0.8,0.4
	C178.4,194.1,177.8,194.2,177.1,194.2 M187.1,185.6c1.4-0.4,3,0,4.1,0.9l1.5,1.4c0,0.4-1.5,0.3-3.1-0.2c-1.3-0.6-2.7-1-4.1-1.2
	C185.6,186.3,186.4,185.9,187.1,185.6 M170.9,187.9c0.7,0.4,0.8,0.8,0,1.1c-2,0.8-3.6,2.4-4.3,4.4c-0.9,3.5,0,4.2-1,5.3
	c-1,1.2,0.2,1.8,1.3,1.3c1.1-0.5,1.5-0.4,3.8-0.5c2.3,0.1,4.4-1.1,5.6-3c0.2-0.5,0.5-0.6,0.9,0.3c0.4,0.9,0.4,3,2,4.2
	c2,1.2,4.5,1.7,6.8,1.3c0.9,0,1.4,0.6,1.8,0.2c0.4-0.4,0-1.7,0-2.7c0.2-2.6-1.1-5-3.3-6.4c-1.2-0.7-0.8-1.4,0.6-0.9
	c1.7,0.7,3.6,0.7,5.4,0c2.8-1.5,2.7-2.6,3.9-3.3c1.2-0.6,0.7-1.5,0-1.7c-0.7-0.2-2.7-2.6-5.1-3.2c-1.5-0.3-3.1,0.1-4.4,1
	c-0.4,0-0.7-0.3-0.7-0.4c0-0.1,0.4-0.7,0.6-1c2.9-3.8,0.4-7,0.5-8.9c0-1.9-0.9-1.5-1.6-0.9c-1.1,0.7-2.3,1.3-3.5,1.8
	c-1.7,1.2-2.7,3.2-2.8,5.3c0,0.6,0,1.5-0.6,1.4c-0.6-0.1-0.5-1.5-0.9-2.8c-1.3-3.9-5.5-3.7-6.5-4.9c-0.4-0.5-1-0.6-1.5-0.4
	c-0.6,0.4,0,1.3-0.6,2.7c-1.5,4,0.1,8.6,3.8,10.8"/>
<path class="st0" d="M150.8,201.9c-0.9,1.4,0,2,0.3,1.7c3.1-3,6.8-5.2,10.9-6.5c0.6,0.2,1.8,0.2,1.8,0c-0.4-3.2,0.9-6.3,3.3-8.4
	c0.6-0.4,0.3-0.7,0-0.9c-1-0.8-1.3-1.4-1.4-1.4c-1.1,0-2.6,1.5-3.8,4.1c-0.4,1.5-1.3,2.9-2.6,3.8c-3.3,2-6.1,4.6-8.4,7.7"/>
<path class="st0" d="M140.3,174c0.6-1.1,1.6-2,2.8-2.5c0.8-0.3,1.7-0.4,2.6-0.4c0.4,0,0.3,0,0,0.2c-1.7,1.5-3.1,3.3-4,5.4
	c-0.7,0.9-2.1,1.2-2.1,0.9c0-1.2,0.2-2.4,0.8-3.5 M137.2,192.5h-0.4c-4.2,0-5.7-3.9-4.9-4.2c0,0,1,1.8,4.7,2h0.4
	c1.9,0.1,3.7-0.6,5-2C142.9,188.6,141.3,192.5,137.2,192.5 M128,171.4c-0.3-0.2-0.4-0.2,0-0.2c2.2-0.2,4.3,0.9,5.4,2.8
	c0.5,1.1,0.8,2.3,0.8,3.5c0,0.2-1.7-0.4-2.4-1.4c-0.9-1.9-2.2-3.6-3.8-4.9 M136.9,181.5L136.9,181.5c1.7-0.2,3.3,1,3.5,2.7
	c-0.2,1.7-1.8,2.9-3.5,2.7l0,0c-1.7,0.2-3.3-1-3.5-2.7C133.6,182.5,135.2,181.3,136.9,181.5 M146.8,182.3c1.3-0.8,2.9-1,4.3-0.4
	c0.7,0.4,1.9,1.1,2.6,1.4c0.6,0.2,1.3,0.4,1.9,0.6c0,0,0,0.2-0.2,0.2c-1.8,0.8-3.8,0.8-5.6,0c-1.2-0.4-2.2-1.3-2.9-1.4
	c-0.7-0.1-0.4-0.2,0-0.4 M126.9,182.8c-0.7,0-1.8,0.9-3,1.4c-1.8,0.7-3.8,0.7-5.6,0c-0.2,0-0.2-0.2,0-0.3c0.6-0.1,1.3-0.3,1.9-0.6
	c0.7-0.4,1.9-1.1,2.6-1.4c1.4-0.6,3-0.4,4.3,0.4c0.2,0,0,0.4,0,0.4 M137.4,177.8h-0.2l0,0l0,0c-0.2,0,0-0.7-0.3-1.7
	c-0.3-4.2-4-7.5-8.2-7.3c-2.4,0-2.6-1.1-3.5-0.7c-0.9,0.4,0,1.1-0.3,2.5c-0.6,3,0.5,6.1,2.9,8.1c1.1,0.9,0.9,2,0.5,1.9l-1.8-0.8
	c-2.5-0.6-5.2,0.2-7,2c-0.5,0.5-1.2,0.9-1.9,1.2c-1.3,0.3-1.3,1.5,0,2s1.4,1.6,3.1,3.5c2.3,2.3,5.7,3.2,8.8,2.2
	c1.3-0.3,1.5,0,1.5,0.3c0.3,0.8-2.1,3.5,1.3,7.4c1.7,1.9,3.5,2.7,4.2,3.9c0.7,1.2,0.4,1,1,1.1h0.3c0.6,0,0.7-0.5,1-1.1
	s2.4-1.9,4.1-3.9c3.5-3.9,1-6.6,1.3-7.4c0,0,0.3-0.6,1.5-0.3c3.1,1,6.5,0.1,8.8-2.2c1.7-2,1.7-3.2,3.1-3.5c1.4-0.4,1.3-1.7,0-2
	c-0.7-0.3-1.4-0.7-1.9-1.2c-1.8-1.8-4.5-2.6-7-2c-0.7,0.3-1.4,0.6-1.8,0.8s-0.7-0.9,0.4-1.9c2.4-2,3.5-5.1,2.9-8.1
	c0-1.5,0.5-2.2-0.3-2.5c-0.8-0.3-1.1,0.6-3.5,0.7c-4.3-0.2-7.9,3-8.2,7.3c-0.2,0.9,0,1.5-0.3,1.7"/>
<path class="st0" d="M202.6,264.1c0.5,14.9-5.3,29.3-16,39.6c-11.2,11.9-36.2,25.5-49.9,31.6c-25-11.1-43.9-25.2-49.9-31.6
	c-10.7-10.3-16.5-24.7-16-39.6V170c27.1-11.5,62.5-10.9,65.7-10.8h0.5c3.2,0,38.7-0.6,65.7,10.8V264.1z M136.7,155.1
	c-2.9,0-39.9-0.9-68.7,11.7l-1.2,0.5v96.8c-0.5,15.8,5.7,31.2,17,42.2c11.9,12.7,38.1,27,52.2,33l0.8,0.4l0.8-0.4
	c13.8-6,40.1-20.3,51.9-32.9c11.4-11,17.6-26.3,17.1-42.2v-97l-1.2-0.5C176.6,154.2,139.6,155,136.7,155.1"/>
<path class="st0" d="M209.2,264.1c0.6,16.6-5.9,32.6-17.8,44.1c-12.1,12.8-38.8,27.3-52.7,33.5l-1.9,0.8l-1.9-0.8
	c-14.1-6.1-40.7-20.6-52.7-33.5c-12-11.5-18.6-27.5-18-44.1v-98.4l2.8-1.2c24.6-10.9,54.6-12.1,66.3-12.1h6.8
	c11.7,0,41.7,1.2,66.3,11.9l2.8,1.2L209.2,264.1z M209.8,163.8l-2.8-1.2c-24.8-10.9-55.1-12.1-67-12.1h-6.8
	c-11.9,0-42.2,1.2-67.1,12.1l-2.8,1.2l-1.2,0.5v99.8c-0.6,17.1,6,33.6,18.3,45.5c12.4,13,39.4,27.7,53.5,33.9l1.9,0.8l0.8,0.4
	l0.7-0.4l1.9-0.8c14.1-6.2,41.1-20.9,53.5-33.9c12.3-11.9,18.9-28.4,18.3-45.5v-99.8L209.8,163.8z"/>
<path class="st0" d="M145.9,261.4h0.4c0.9-0.1,1.8-0.2,2.7-0.2c2.6,0,5.2,0.5,7.7,1.3c1.9,0.5,3.9,0.9,5.9,1l0,0
	c-1.9-0.5-3.7-1.1-5.5-1.8c-2.3-0.9-4.6-1.6-7-1.9H149c-0.9,0-1.8,0.1-2.6,0.2c-0.5,0.1-1,0.2-1.5,0.4c0,0,0.2,1.1,1.2,1.1"/>
<path class="st0" d="M145.9,256h0.4c0.9-0.1,1.8-0.2,2.7-0.2c2.6,0.1,5.2,0.5,7.7,1.3c1.9,0.5,3.9,0.9,5.9,1l0,0
	c-1.9-0.5-3.7-1.1-5.5-1.9c-2.2-0.9-4.6-1.5-7-1.8H149c-0.9,0-1.8,0-2.6,0.2l-1.5,0.4c0,0,0.2,1.1,1.2,1.1"/>
<path class="st0" d="M145.9,250.5h0.4c0.9-0.1,1.8-0.2,2.7-0.2c2.6,0,5.2,0.5,7.7,1.3c1.9,0.5,3.9,0.8,5.9,1l0,0
	c-1.9-0.5-3.7-1-5.5-1.8c-2.3-0.9-4.6-1.6-7-1.9H149c-0.9,0-1.8,0.1-2.6,0.2c-0.5,0.1-1,0.2-1.5,0.4c0,0,0.2,1.1,1.2,1.1"/>
<path class="st0" d="M145.9,266.8h0.4c0.9-0.1,1.8-0.2,2.7-0.2c2.6,0,5.2,0.5,7.7,1.3c1.9,0.5,3.9,0.9,5.9,1l0,0
	c-1.9-0.5-3.7-1.1-5.5-1.8c-2.3-0.9-4.6-1.6-7-1.9H149c-0.9-0.1-1.8-0.1-2.6,0l-1.5,0.4c0,0,0.2,1.1,1.2,1.1"/>
<path class="st0" d="M106.2,231c0.7,0.1,1.4,0.2,2.1,0.2h0.7c4.3-0.2,5.6-1.7,5.6-1.7s0,0,0,0l0,0c-0.7,0.2-1.5,0.3-2.2,0.3
	c-1.2,0.2-2.3,0.3-3.5,0.2c-1.4,0-2.9-0.2-4.2-0.6h-0.3l0,0c0.2,0.8,0.9,1.4,1.7,1.5"/>
<path class="st0" d="M156.7,273.3c1.9,0.5,3.9,0.8,5.9,1l0,0c-1.9-0.5-3.7-1.1-5.4-1.8c-2.2-0.9-4.6-1.6-7-1.9H149
	c-0.9,0-1.8,0.1-2.6,0.2c-0.5,0.1-1,0.2-1.5,0.4c0,0,0.2,1.1,1.2,1.1h0.4c0.9-0.1,1.8-0.2,2.7-0.2c2.6,0,5.2,0.5,7.7,1.3"/>
<path class="st0" d="M106.2,236.5c0.7,0.2,1.4,0.2,2.1,0.2h0.7c4.3-0.2,5.6-1.7,5.6-1.7l0,0c-0.7,0.2-1.5,0.3-2.2,0.4
	c-1.2,0.1-2.3,0.2-3.5,0.2c-1.4,0.1-2.9-0.1-4.2-0.6h-0.3l0,0c0.2,0.8,0.9,1.4,1.7,1.5"/>
<path class="st0" d="M85.1,255c0.2,0.3,0.3,0.6,0.3,0.9c0,0.8-0.7,1.5-1.5,1.5s-1.5-0.7-1.5-1.5c-0.1,0.3-0.2,0.5-0.2,0.8
	c0,1.1,0.8,2.1,2,2.1c1.1,0,2.1-0.8,2.1-2C86.3,256.1,85.9,255.3,85.1,255"/>
<path class="st0" d="M85.1,273.7c0.2,0.3,0.3,0.6,0.3,0.9c0,0.8-0.7,1.5-1.5,1.5s-1.5-0.7-1.5-1.5c-0.1,0.3-0.2,0.5-0.2,0.8
	c0,1.1,0.9,2,2,2c1.1,0,2-0.9,2-2C86.3,274.7,85.8,274,85.1,273.7"/>
<path class="st0" d="M145.9,245.1h0.4c0.9-0.1,1.8-0.2,2.7-0.2c2.6,0.1,5.2,0.5,7.7,1.2c1.9,0.6,3.9,0.9,5.9,1l0,0
	c-1.9-0.5-3.7-1.1-5.5-1.9c-2.3-0.9-4.6-1.5-7-1.9H149c-0.9,0-1.8,0.1-2.6,0.2c-0.5,0.1-1,0.2-1.5,0.4c0,0,0.2,1.1,1.2,1.1"/>
<path class="st0" d="M85.1,236.3c0.2,0.3,0.3,0.6,0.3,0.9c0,0.8-0.7,1.5-1.5,1.5s-1.5-0.7-1.5-1.5c-0.1,0.3-0.2,0.5-0.2,0.8
	c0,1.1,0.8,2.1,2,2.1c1.1,0,2.1-0.8,2.1-2C86.3,237.4,85.9,236.6,85.1,236.3"/>
<path class="st0" d="M145.9,228.8h0.4c0.9-0.1,1.8-0.2,2.7-0.2c2.6,0,5.2,0.5,7.7,1.3c1.9,0.6,3.9,0.9,5.9,1l0,0
	c-1.9-0.5-3.7-1.1-5.5-1.8c-2.2-0.9-4.6-1.6-7-1.9H149c-0.8,0-1.6,0.1-2.4,0.2h-0.4l-1.5,0.4C144.7,227.8,144.9,228.8,145.9,228.8"
	/>
<path class="st0" d="M145.9,239.7h0.4c0.9-0.1,1.8-0.2,2.7-0.2c2.6,0,5.2,0.5,7.7,1.3c1.9,0.6,3.9,0.9,5.9,1l0,0
	c-1.9-0.5-3.7-1.1-5.5-1.8c-2.3-0.9-4.6-1.6-7-1.9H149c-0.8,0-1.6,0.1-2.4,0.2h-0.4l-1.5,0.4C144.7,238.6,144.9,239.7,145.9,239.7"
	/>
<path class="st0" d="M145.9,234.3h0.4c0.9-0.1,1.8-0.2,2.7-0.2c2.6,0.1,5.2,0.5,7.7,1.2c1.9,0.5,3.9,0.9,5.9,1l0,0
	c-1.9-0.5-3.7-1.1-5.5-1.9c-2.3-0.9-4.6-1.5-7-1.9H149c-0.8,0-1.6,0.1-2.4,0.2h-0.4c-0.5,0.1-1,0.2-1.5,0.4
	C144.7,233.1,144.9,234.3,145.9,234.3"/>
<path class="st0" d="M108.4,275.4h0.6c4.3-0.2,5.6-1.7,5.6-1.7l0,0c-0.7,0.2-1.5,0.3-2.2,0.4c-1.2,0.1-2.3,0.2-3.5,0.2
	c-1.4,0.1-2.9-0.1-4.2-0.6h-0.3l0,0c0.2,0.8,0.9,1.4,1.7,1.5c0.7,0.2,1.4,0.2,2.1,0.2H108.4z"/>
<path class="st0" d="M106.2,258.5c0.7,0.1,1.4,0.2,2.1,0.2h0.7c4.3-0.2,5.6-1.7,5.6-1.7l0,0c-0.7,0.2-1.5,0.3-2.2,0.3
	c-1.2,0.2-2.3,0.3-3.5,0.2c-1.4,0-2.9-0.2-4.2-0.6h-0.3l0,0c0.2,0.8,0.9,1.4,1.7,1.5"/>
<path class="st0" d="M106.2,269.5c0.7,0.1,1.4,0.2,2.1,0.2h0.7c4.3-0.2,5.6-1.7,5.6-1.7l0,0c-0.7,0.2-1.5,0.3-2.2,0.3
	c-1.2,0.2-2.3,0.3-3.5,0.2c-1.4,0-2.9-0.2-4.2-0.6h-0.3c0.2,0.8,0.9,1.4,1.7,1.5"/>
<path class="st0" d="M106.2,242c0.7,0.1,1.4,0.2,2.1,0.2h0.7c4.3,0,5.6-1.7,5.6-1.7l0,0c-0.7,0.2-1.5,0.3-2.2,0.4
	c-1.2,0.2-2.3,0.2-3.5,0.2c-1.4,0-2.9-0.2-4.2-0.6h-0.2l0,0C104.7,241.4,105.4,242,106.2,242"/>
<path class="st0" d="M106.2,264c0.7,0.2,1.4,0.2,2.1,0.2h0.7c4.3,0,5.6-1.7,5.6-1.7l0,0l0,0c-0.7,0.2-1.5,0.3-2.2,0.4
	c-1.2,0.1-2.3,0.2-3.5,0.2c-1.4,0-2.9-0.1-4.2-0.6h-0.2l0,0l0,0C104.7,263.4,105.4,263.9,106.2,264"/>
<path class="st0" d="M106.2,253c0.7,0.2,1.4,0.3,2.1,0.2h0.7c4.3,0,5.6-1.7,5.6-1.7l0,0c-0.7,0.2-1.5,0.3-2.2,0.4
	c-1.2,0.2-2.3,0.2-3.5,0.2c-1.4,0-2.9-0.2-4.2-0.6h-0.2l0,0C104.7,252.4,105.4,253,106.2,253"/>
<path class="st0" d="M106.2,247.5c0.7,0.2,1.4,0.2,2.1,0.2h0.7c4.3-0.2,5.6-1.7,5.6-1.7l0,0c-0.7,0.2-1.5,0.3-2.2,0.4
	c-1.2,0.1-2.3,0.2-3.5,0.2c-1.4,0.1-2.9-0.1-4.2-0.6h-0.3l0,0c0.2,0.8,0.9,1.4,1.7,1.5"/>
<path class="st0" d="M192.6,243.8H188v-2.9l0,0l2.6-2.2h-5.9v-2.6h3.3v-2.8h4.6V243.8z M192.6,262.6H188v-2.9l0,0l2.6-2.2h-5.9v-2.6
	h3.3v-3h4.6V262.6z M192.6,281.4H188v-2.9l0,0l2.6-2.2h-5.9v-2.6h3.3v-3h4.6V281.4z M183.1,289.8h-35.4c-1.2-0.1-2.3,0.3-3.3,1
	c-1.9,1.7-4.4,2.7-7,2.7c-3,0.2-6.1-0.7-8.4-2.7c-0.8-0.6-1.7-0.9-2.6-0.9H91.6v-60.4H97l-0.2,0.2V283l-1.5,1.9v-53.4l-1.6,1.9v53.9
	h33.8c1.2,0,2.3,0.5,3.1,1.4c3.5,2.4,8.1,2.5,11.7,0.3h0.2c0.8-0.8,1.9-1.4,3-1.6h35.1v-53.6l-1.7-2.2V285l-1.5-1.9v-53.3l0,0h5.6
	L183.1,289.8z M98.7,227.3l1.5-2v53.6l-1.5,1.9V227.3z M102.2,224.6c6.5,3.2,15.1-1.1,22.7-1.8c3.8-0.6,7.6,0.6,10.3,3.3v3.5
	c-1.1-0.7-2.3-1.3-3.5-1.6c-0.9-0.3-1.9-0.5-2.9-0.5H128l0,0c0.5,0.1,1.1,0.2,1.6,0.4l0,0c2.1,0.7,4,2,5.4,3.7v3.3
	c-1.1-0.7-2.3-1.2-3.5-1.6c-0.9-0.2-1.9-0.4-2.8-0.4h-0.9l0,0l0,0c0.5,0.1,1,0.2,1.5,0.4l0,0c2.1,0.7,4,1.9,5.4,3.5v3.6
	c-1.1-0.7-2.3-1.2-3.5-1.5c-0.9-0.3-1.8-0.4-2.7-0.4h-1l0,0c0.5,0.1,1,0.2,1.5,0.3h0.2c2,0.7,3.9,1.9,5.3,3.5v3.2
	c-1.1-0.6-2.3-1.1-3.5-1.4c-1.2-0.4-2.5-0.5-3.7-0.3l0,0c0.5,0,1,0.1,1.5,0.3h0.4c2,0.7,3.8,1.9,5.2,3.5v3.3
	c-1.6-0.9-3.5-1.3-5.3-1.3c-0.4,0-0.8,0-1.2,0l0,0c0.5,0.1,0.9,0.1,1.4,0.3l0,0c2,0.8,3.9,2,5.4,3.5v3.2c-1.1-0.6-2.3-1.1-3.5-1.4
	c-0.8-0.2-1.6-0.3-2.4-0.3c-0.4,0-0.9,0-1.3,0l0,0c0.5,0,1,0.1,1.5,0.3l0,0c2.1,0.6,4,1.9,5.4,3.5v3.2c-1.1-0.6-2.3-1-3.5-1.3
	c-0.8-0.2-1.5-0.3-2.3-0.3c-0.5,0-0.9,0-1.4,0l0,0c0.5,0,1,0.1,1.5,0.2l0,0c2.1,0.6,4,1.9,5.5,3.5v3.1c-1.1-0.6-2.3-1-3.5-1.3
	c-0.7-0.1-1.5-0.2-2.2-0.2c-0.5,0-1,0-1.5,0l0,0c0.5,0,1,0.1,1.5,0.2l0,0c2,0.6,3.9,1.7,5.4,3.1v3.3c-1.1-0.6-2.3-1-3.5-1.3
	c-0.7-0.1-1.4-0.2-2.1-0.2c-0.5-0.1-1.1-0.1-1.6,0l0,0c0.5-0.1,1-0.1,1.5,0l0,0c2.1,0.5,4,1.6,5.5,3.2v4.9c-2.4-1.7-7-4.4-17.4-1.2
	c-5,2-10.6,2.1-15.6,0.3L102.2,224.6z M138.9,226.2c2.9-2.7,6.9-4,10.9-3.5c7.6,0.7,16.2,5.1,22.7,1.8V278
	c-5.1,1.8-10.6,1.7-15.6-0.3c-11-3.5-15.7,0-17.9,1.6L138.9,226.2z M174.3,225.5l1.5,2v53.4l-1.5-1.9V225.5z M89.8,240.3h-3
	c0,0.7,0,1.4,0,2.1c-0.3,1.4-1.5,2.3-2.9,2.3c-0.7,0-1.4-0.3-1.8-0.8c-0.9-1.1,0-2.9,0.2-3.5c-0.5,0.2-1,0.2-1.5,0.2
	c-0.8,0-2.3-0.4-2.4-2.6s1.6-2.7,2.4-2.7c0.5,0,1,0.1,1.5,0.2c-0.3-0.5-1.2-2.3-0.2-3.5c0.5-0.5,1.1-0.8,1.8-0.8
	c1.4,0,2.6,0.9,2.9,2.3c0,0.5,0,1.6,0,2.2h2.9L89.8,240.3z M89.8,259h-3c0,0.6,0,1.6,0,2.1c-0.3,1.4-1.5,2.3-2.9,2.3
	c-0.7,0-1.4-0.3-1.8-0.8c-0.9-1.1,0-2.8,0.2-3.5c-0.5,0.2-1,0.2-1.5,0.2c-0.8,0-2.3-0.4-2.4-2.6c-0.1-2.3,1.6-2.7,2.4-2.7
	c0.5,0,1,0.1,1.5,0.2c-0.3-0.5-1.2-2.3-0.2-3.5c0.5-0.5,1.1-0.8,1.8-0.8c1.4,0,2.6,0.9,2.9,2.3c0,0.5,0,1.6,0,2.2h2.9L89.8,259z
	 M89.8,277.7h-3c0,0.6,0,1.6,0,2.1c-0.3,1.4-1.5,2.3-2.9,2.3c-0.7,0-1.4-0.3-1.8-0.8c-0.9-1.1,0-2.8,0.2-3.5c-0.5,0.2-1,0.3-1.5,0.3
	c-0.8,0-2.3-0.4-2.4-2.7s1.4-2.7,2.4-2.7c0.5,0,1,0.1,1.5,0.2c-0.3-0.5-1.2-2.4-0.2-3.5c0.5-0.5,1.1-0.8,1.8-0.8
	c1.4,0,2.6,0.9,2.9,2.3c0,0.5,0,1.6,0,2.1h2.9L89.8,277.7z M190.1,207.2c-4.8,0.1-9.5,1-14.1,2.6c-4,1.3-8.1,2.1-12.3,2.4
	c-3.6-0.1-7.2-0.7-10.5-1.9l0,0c-5.3-1.7-10.8-2.6-16.3-2.7h-0.4c-4.8,0.1-9.5,0.9-14.1,2.3c-4.2,1.3-8.6,2.1-13,2.3
	c-4-0.1-8-0.7-11.8-2l0,0c-4.9-1.5-10-2.3-15.1-2.5l0,0c-3,0-6.1,0.3-9,0.9v55.5c-0.5,14.2,5,27.9,15.3,37.8
	c5.8,6.1,23.8,19.6,48,30.5c13.4-6.2,37.4-19.3,48-30.5c10.2-9.9,15.8-23.6,15.3-37.8v-55.7c-3.2-0.8-6.4-1.2-9.7-1.2H190.1z"/>
<path class="st0" d="M249.3,207.4v-34.7c0-2.7-1.7-3.5-8.9-3.7v-2.6h25.3v2.7c-7.7,0.2-8.3,0.8-8.3,3.7v33.3
	c0,10.1,6.8,14.4,16,14.4c4.1,0.1,8-1.4,10.9-4.3c3.3-3.1,4.9-7.6,4.4-12.2v-24.3c0-7.8-1.8-9.8-9.9-11v-2.4h21.8v2.5
	c-7.6,1.3-8.4,3.2-8.4,11v26.8c0,9-7.7,17.6-21.4,17.6s-21.5-6.8-21.5-16.7"/>
<path class="st0" d="M302.6,194.8c0-18.1,12-29.8,27-29.8s27,11.3,27,29.6s-12,29.8-27,29.8s-27-11.2-27-29.4 M347.2,194.6
	c0-18.3-7.6-26.5-18-26.5s-17.4,8.2-17.4,26.5s7.7,26.5,18,26.5c10.4,0,17.3-8,17.3-26.5"/>
<path class="st0" d="M395.4,175.9c-0.8-4.1-4.4-7-8.6-7v-2.5h23.4v2.5c-7,0.5-7.9,2.3-7,5.4l11.6,37.3h0.4l10.5-31.6
	c2.8-8.5,2-9.8-6.1-11v-2.5h20.8v2.5c-5.8,1.2-8.3,3.8-10.7,10.9l-14.8,44.4H411l-12.4-38.3L384,224.2h-3.9l-15-49.2
	c-1.2-3.9-2.6-4.8-9-6.1v-2.4h23.6v2.5c-6.6,0.5-7,2.2-6.2,5.4l10.8,37.3h0.2l12.1-31.6L395.4,175.9z"/>
<path class="st0" d="M249.1,252.6c-0.3-7.8,5.8-14.3,13.6-14.5c0.2,0,0.3,0,0.5,0c2.3,0.1,4.5,0.7,6.4,1.9l1.2-1.8h1.3v8.9h-1.2
	c-1.7-4.7-4.3-7.6-8.3-7.6c-4.7,0-9,4.5-9,12.9c0,8.4,5.1,11.9,9.8,11.9c4,0,7.5-2.6,8.8-6.3l1.4,0.7c-1.8,4.7-6.2,7.8-11.2,7.8
	c-7.1,0.2-13-5.4-13.2-12.5c0-0.5,0-1,0.1-1.5"/>
<path class="st0" d="M262.3,266.6c-7.1,0.2-13.1-5.4-13.3-12.5c0-0.5,0-1,0-1.6c-0.1-3.9,1.4-7.7,4-10.5c2.6-2.7,6.2-4.2,9.9-4.2
	c2.4,0,4.7,0.7,6.7,1.9l1.1-1.7h1.5v9.4h-1.4l0,0c-1.9-5-4.5-7.5-8.2-7.5c-6.1,0-8.9,6.6-8.9,12.8c0,7.7,4.9,11.8,9.7,11.8
	c4-0.1,7.5-2.7,8.6-6.5l0,0l1.6,0.7l0,0c-1.8,4.7-6.3,7.8-11.4,7.8 M263,238c-3.7,0-7.2,1.5-9.8,4.1c-2.6,2.8-4,6.5-4,10.3
	c-0.6,7,4.6,13.1,11.6,13.7c0.5,0,0.9,0.1,1.4,0c4.9-0.1,9.3-3.1,11.1-7.6l-1.1-0.6c-1.3,3.8-4.9,6.3-8.9,6.3c-4.9,0-9.9-4.1-9.9-12
	c-0.1-3.4,0.8-6.8,2.8-9.7c1.4-2.1,3.8-3.5,6.4-3.5c3.7,0,6.5,2.5,8.4,7.6h1v-8.4h-1.1l-1.2,1.8l0,0c-2-1.2-4.3-1.9-6.7-1.9"/>
<path class="st0" d="M276.4,252.3c-0.6-7.3,4.8-13.6,12-14.3c0.3,0,0.6,0,0.9,0c7.4,0,12.9,5.4,12.9,14.1c0.6,7.3-4.8,13.6-12,14.3
	c-0.3,0-0.6,0-0.9,0C282,266.4,276.4,261,276.4,252.3 M297.8,252.3c0-8.8-3.5-12.7-8.6-12.7s-8.3,3.8-8.3,12.6s3.5,12.8,8.6,12.8
	s8.2-3.9,8.2-12.8"/>
<path class="st0" d="M289.4,266.6c-7.8,0-13.1-5.7-13.1-14.1c-0.6-7.4,4.9-13.8,12.2-14.4c0.3,0,0.6,0,0.9,0c7.7,0,13,5.9,13,14.3
	c0.6,7.3-4.9,13.8-12.2,14.4c-0.3,0-0.6,0-0.9,0 M289.4,238.3c-7.3,0.2-13,6.2-12.9,13.4c0,0.2,0,0.4,0,0.6
	c0,8.4,5.2,14.1,12.8,14.1c7.2-0.1,13-6.1,12.8-13.3c0-0.2,0-0.5,0-0.7c0.7-7.1-4.5-13.3-11.6-14
	C290.1,238.3,289.7,238.3,289.4,238.3 M289.4,265.3c-5.6,0-8.8-4.7-8.8-12.9c0-8.2,3-12.9,8.4-12.9c5.4,0,8.8,4.7,8.8,12.9
	S294.8,265.3,289.4,265.3 M289,239.8c-5.3,0-8.2,4.5-8.2,12.6c0,8.1,3.2,12.5,8.6,12.5s8.2-4.5,8.2-12.7s-3.1-12.6-8.5-12.6"/>
<path class="st0" d="M304.4,264.5c3.5,0,4.3-0.5,4.3-1.8v-21.1c0-1.3-0.8-1.6-4.3-1.8v-1.3h12.5v1.3c-3.5,0-4.3,0.5-4.3,1.8v22.5
	h4.5c5.4,0,6.7-1.9,8.3-7.5h1.3l-0.3,9h-22V264.5z"/>
<path class="st0" d="M326.5,265.9h-22.2v-1.5l0,0c3.5,0,4.2-0.5,4.2-1.7v-21.1c0-1.1-0.6-1.5-4.2-1.6l0,0v-1.6H317v1.9l0,0
	c-3.5,0-4.2,0.5-4.2,1.6v22.4h4.4c5.3,0,6.6-1.8,8.2-7.5l0,0h1.5l0,0L326.5,265.9z M304.7,265.6h21.7l0.3-8.8h-1.1
	c-1.6,5.8-3,7.6-8.4,7.6h-4.8v-22.7c0-1.3,0.9-1.8,4.3-1.9v-1.1h-12.1v1.1c3.5,0,4.3,0.5,4.3,1.9v21.1c0,1.4-0.9,1.8-4.3,1.9V265.6z
	"/>
<path class="st0" d="M329.7,264.5c3.5,0,4.3-0.5,4.3-1.8v-21.1c0-1.3-0.8-1.6-4.3-1.8v-1.3h12.5v1.3c-3.5,0-4.3,0.5-4.3,1.8v22.5
	h4.5c5.4,0,6.7-1.9,8.3-7.5h1.3l-0.3,9h-22V264.5z"/>
<path class="st0" d="M351.8,265.9h-22.2v-1.5l0,0c3.5,0,4.2-0.5,4.2-1.7v-21.1c0-1.1-0.6-1.5-4.2-1.6l0,0v-1.6h12.7v1.9l0,0
	c-3.5,0-4.2,0.5-4.2,1.6v22.4h4.4c5.2,0,6.5-1.8,8.2-7.5l0,0h1.5l0,0L351.8,265.9z M329.8,265.6h21.7l0.3-8.8h-1.1
	c-1.6,5.8-3,7.6-8.4,7.6h-4.6v-22.7c0-1.3,0.9-1.8,4.3-1.9v-1.1h-12.2v1.1c3.5,0,4.3,0.5,4.3,1.9v21.1c0,1.4-0.9,1.8-4.3,1.9V265.6z
	"/>
<path class="st0" d="M355,264.5c3.5,0,4.3-0.5,4.3-1.8v-21.1c0-1.3-0.8-1.6-4.3-1.8v-1.3h22v7.6h-1.3c-1.4-4.6-2.1-6.1-6.8-6.1h-5.7
	v10.8h2.4c3.1,0,4.2-0.3,5.2-4.6h1.1v10.5h-1.1c-1.1-4.3-2.2-4.6-5.2-4.6h-2.4v11.7h5.8c5.4,0,6.7-2.1,8.2-7h1.3l-0.2,8.4H355V264.5
	z"/>
<path class="st0" d="M378.6,265.9H355v-1.5l0,0c3.5,0,4.2-0.5,4.2-1.7v-21.1c0-1.1-0.6-1.5-4.2-1.6l0,0v-1.6h22.2l0,0v7.7h-1.5l0,0
	c-1.4-4.6-2.1-6-6.7-6h-5.8v10.5h2.3c2.9,0,4.1,0,5.1-4.5l0,0h1.3v11h-1.3l0,0c-1-4.1-2-4.5-5.1-4.5h-2.3v11.5h5.7
	c5.4,0,6.7-2.2,8.1-7l0,0h1.4V265.9z M355.3,265.6h23.1l0.2-8.2h-1.1c-1.4,4.7-2.7,7-8.3,7h-6v-12h2.6c3.1,0,4.3,0.4,5.3,4.6h0.9
	v-10.5h-0.9c-1.1,4.2-2.2,4.6-5.3,4.6h-2.6v-11.1h6c4.7,0,5.5,1.6,7,6.1h1.1v-7.3h-22.2v1.1c3.5,0,4.3,0.5,4.3,1.9v21.1
	c0,1.4-0.9,1.8-4.3,1.9L355.3,265.6z"/>
<path class="st0" d="M381.8,252.3c-0.1-7.8,6.1-14.2,13.8-14.3c0.1,0,0.1,0,0.2,0c2.3,0,4.5,0.5,6.6,1.3l1.1-1.3h1.3v7.9h-1.2
	c-0.9-3.8-4.3-6.4-8.2-6.5c-4.5,0-9.2,4.1-9.2,12.7c0,8.6,5,12.7,9.5,12.7c1.9,0.1,3.9-0.3,5.6-1.4v-7.7c0-1.3-0.8-1.7-4.3-1.8v-1.3
	h10.9v1.3c-2.5,0-2.7,0.4-2.7,1.8v8.4c-2.9,1.3-6,2-9.1,2.1c-7.4,0.5-13.8-5.2-14.3-12.6c0-0.5,0-1,0-1.5"/>
<path class="st0" d="M396.1,266.6c-7.5,0.5-14-5.2-14.4-12.7c0-0.4,0-0.9,0-1.3c-0.2-7.8,5.9-14.2,13.7-14.4c0.1,0,0.3,0,0.4,0
	c2.2,0,4.5,0.5,6.5,1.3l1.1-1.3h1.5v8.2h-1.4l0,0c-0.9-3.7-4.2-6.3-8-6.4c-4.4,0-9.1,3.9-9.1,12.6c0,8.6,4.8,12.4,9.4,12.4
	c1.9,0.1,3.8-0.3,5.4-1.3v-7.6c0-1.1-0.6-1.5-4.2-1.7l0,0v-1.6h11.2v1.7l0,0c-2.5,0-2.6,0.4-2.6,1.7v8.5l0,0c-2.9,1.3-6,2.1-9.1,2.1
	 M396.1,238.2c-7.6-0.2-13.9,5.9-14.1,13.5c0,0.2,0,0.4,0,0.6c-0.4,7.4,5.2,13.7,12.6,14.1c0.5,0,1,0,1.4,0c3.1-0.1,6.1-0.7,9-2
	v-8.3c0-1.5,0.4-1.8,2.7-1.9v-1.1h-10.5v1.1c3.5,0,4.3,0.5,4.3,1.9v7.7l0,0c-1.7,1.1-3.6,1.6-5.6,1.4c-4.8,0-9.6-4.4-9.6-12.9
	s4.8-12.9,9.3-12.9c3.9,0,7.3,2.7,8.2,6.5h1.1v-7.7h-1.1l-1.2,1.4l0,0C400.6,238.6,398.4,238.2,396.1,238.2"/>
<path class="st0" d="M409.7,264.5c3.5,0,4.3-0.5,4.3-1.8v-21.1c0-1.3-0.8-1.6-4.3-1.8v-1.3h22v7.6h-1.3c-1.4-4.6-2.2-6.1-6.8-6.1
	h-5.9v10.8h2.4c3.1,0,4.2-0.3,5.2-4.6h1.1v10.5h-1.1c-1-4.3-2.2-4.6-5.2-4.6h-2.4v11.7h5.9c5.4,0,6.7-2.1,8.2-7h1.3l-0.2,8.4h-23.3
	L409.7,264.5z"/>
<path class="st0" d="M433.1,265.9h-23.5v-1.5l0,0c3.5,0,4.1-0.5,4.1-1.7v-21.1c0-1.1-0.6-1.5-4.1-1.6l0,0v-1.6h22.2l0,0v7.7h-1.5
	l0,0c-1.4-4.6-2.1-6-6.7-6h-5.7v10.5h2.3c2.9,0,4.1,0,5.1-4.5l0,0h1.3v11h-1.3l0,0c-1-4.1-2.1-4.5-5.1-4.5h-2.3v11.5h5.7
	c5.4,0,6.7-2.2,8.1-7l0,0h1.5L433.1,265.9z M409.8,265.6h23.1l0.2-8.2h-1.1c-1.4,4.7-2.7,7-8.3,7h-5.9v-12h2.5
	c3.1,0,4.3,0.4,5.3,4.6h0.9v-10.5h-0.9c-1,4.2-2.2,4.6-5.3,4.6h-2.5v-11.1h5.9c4.7,0,5.5,1.6,7,6.1h1.1v-7.3h-22v1.1
	c3.5,0,4.3,0.5,4.3,1.9v21.1c0,1.4-0.9,1.8-4.3,1.9V265.6z"/>
<path class="st0" d="M248.2,302.6c2.8,0,3.5-0.4,3.5-1.4v-16.8c0-1-0.7-1.3-3.5-1.4v-1.1h9.7v1.1c-2.9,0-3.2,0.3-3.2,1.4v7.4H265
	v-7.4c0-1.1-0.2-1.3-3.2-1.4v-1.1h9.7v1.1c-2.7,0-3.5,0.4-3.5,1.4v16.8c0,1,0.7,1.3,3.5,1.4v1h-9.7v-1.1c2.9,0,3.2-0.3,3.2-1.4V293
	h-10.2v8.2c0,1.1,0.2,1.3,3.2,1.4v0.9h-9.7V302.6z"/>
<path class="st0" d="M271.6,303.7h-10v-1.3l0,0c3,0,3.1-0.4,3.1-1.3V293h-9.8v8c0,0.9,0,1.2,3.1,1.3l0,0v1.3h-9.8v-1.3l0,0
	c2.8,0,3.3-0.4,3.3-1.3v-16.7c0-0.9-0.5-1.2-3.3-1.3l0,0v-1.3h10v1.3l0,0c-2.9,0-3.1,0.4-3.1,1.3v7.3h9.9v-7.3c0-0.9,0-1.2-3.1-1.3
	l0,0v-1.3h10v1.3l0,0c-2.8,0-3.3,0.4-3.3,1.3v16.8c0,0.9,0.5,1.2,3.3,1.3l0,0L271.6,303.7z M261.9,303.5h9.5v-0.8
	c-2.5,0-3.5-0.4-3.5-1.5v-16.8c0-1.2,0.9-1.4,3.5-1.5V282h-9.5v0.8c2.7,0,3.2,0.3,3.2,1.5v7.5h-10.5v-7.5c0-1.2,0.4-1.4,3.2-1.5V282
	h-9.2v0.8c2.5,0,3.5,0.4,3.5,1.5v16.8c0,1.2-0.9,1.4-3.5,1.5v0.9h9.5v-0.8c-2.7,0-3.2-0.3-3.2-1.5V293h10.5v8.3
	c0,1.2-0.4,1.4-3.2,1.5L261.9,303.5z"/>
<path class="st0" d="M272.9,293c-0.5-5.8,3.8-10.9,9.6-11.4c0.2,0,0.5,0,0.7,0c5.7,0,10.4,4.6,10.4,10.3c0,0.3,0,0.7,0,1
	c0.5,5.8-3.8,10.9-9.6,11.4c-0.2,0-0.5,0-0.7,0c-5.7,0-10.4-4.5-10.4-10.3C272.8,293.7,272.8,293.3,272.9,293 M290,293
	c0-7-3-10.2-7-10.2c-4.1,0-6.7,3.1-6.7,10.2s3,10.2,7,10.2C287.4,303.2,290,300.1,290,293"/>
<path class="st0" d="M283.2,304.3c-5.8,0-10.6-4.7-10.6-10.5c0-0.3,0-0.6,0-1c-0.6-5.8,3.7-11,9.5-11.5c0.4,0,0.7-0.1,1.1,0
	c5.8,0,10.6,4.7,10.6,10.5c0,0.3,0,0.6,0,1c0.5,5.9-3.9,11.1-9.8,11.5C283.7,304.3,283.5,304.3,283.2,304.3 M283.2,281.5
	c-5.8,0.2-10.4,5.1-10.2,10.9c0,0.2,0,0.4,0,0.5c-0.6,5.6,3.5,10.6,9,11.2c0.4,0,0.8,0.1,1.2,0.1c5.8-0.2,10.4-5,10.3-10.8
	c0-0.2,0-0.3,0-0.5c0.5-5.6-3.7-10.6-9.3-11.1c-0.3,0-0.6,0-0.9,0 M283.3,303.3c-4.5,0-7-3.8-7-10.3s2.4-10.5,6.8-10.5
	c4.4,0,7,3.8,7,10.3c0,6.6-2.4,10.3-6.7,10.3 M283.1,282.7c-4.2,0-6.5,3.5-6.5,10.1c0,6.6,2.5,10.1,6.8,10.1c4.4,0,6.5-3.5,6.5-10.1
	S287.4,282.7,283.1,282.7"/>
<path class="st0" d="M299.8,285.4L299.8,285.4v13c0,3,0.4,3.8,3.5,4.3v0.9H295v-0.9c2.9-0.5,3.5-1.2,3.5-4.3v-13.1
	c0-1.2-0.8-2.2-3.5-2.2v-1.1h6.2l12.3,16.8l0,0v-11.7c0-3-0.7-3.8-3.8-4.2v-0.9h8.4v0.9c-2.9,0.5-3.2,1.2-3.2,4.2v17h-1.3
	L299.8,285.4z"/>
<path class="st0" d="M314.9,304.3h-1.5l0,0L300,285.8v12.7c0,2.9,0.3,3.5,3.5,4.1l0,0v1.2h-8.6v-1.2l0,0c2.8-0.5,3.5-1.1,3.5-4.1
	v-13.3c0-1.4-1.1-2.1-3.3-2.1l0,0v-1.3h6.1l0,0l12.1,16.6v-11.2c0-3-0.6-3.5-3.5-4.1l0,0v-1.2h8.6v1.2l0,0c-2.9,0.5-3.1,1.1-3.1,4.1
	L314.9,304.3z M313.6,304h1.1v-16.9c0-3,0.3-3.8,3.2-4.3v-0.7h-8.1v0.7c3.1,0.5,3.8,1.3,3.8,4.3v11.8h-0.2l0,0l-12.2-16.8h-6v0.8
	c2.3,0,3.5,0.9,3.5,2.4v13.2c0,3.1-0.6,3.9-3.5,4.4v0.8h8.1v-0.7c-3.1-0.5-3.5-1.3-3.5-4.4v-13.3h0.2L313.6,304z"/>
<path class="st0" d="M318.8,293c-0.2-6.1,4.7-11.2,10.8-11.4c0.2,0,0.3,0,0.5,0c1.8,0,3.6,0.4,5.3,1.1l0.9-1.1h1v6.4h-0.8
	c-0.7-3.1-3.4-5.4-6.6-5.5c-3.5,0-7.3,3.3-7.3,10.2c0,6.9,4,10.2,7.6,10.2c1.5,0.1,3.1-0.3,4.4-1.1v-6c0-1-0.6-1.3-3.5-1.4v-1.1h9
	v1.1c-2,0-2.2,0.3-2.2,1.4v6.7c-2.3,1.1-4.8,1.6-7.3,1.7c-5.9,0.5-11.1-3.9-11.6-9.8C318.8,293.9,318.8,293.4,318.8,293"/>
<path class="st0" d="M330.3,304.2c-6,0.3-11.1-4.3-11.5-10.3c0-0.3,0-0.6,0-1c-0.2-6.2,4.7-11.4,10.9-11.6c0.2,0,0.3,0,0.5,0
	c1.8,0,3.6,0.4,5.2,1.1l0.8-1.1h1.2v6.6h-1.1l0,0c-0.7-3-3.4-5-6.4-5.1c-3.5,0-7.2,3.2-7.2,10.1s3.8,10.1,7.5,10.1
	c1.5,0.1,3-0.3,4.3-1.1v-6.3c0-0.9-0.5-1.2-3.3-1.3l0,0V293h8.7v1.3l0,0c-2,0-2.1,0.3-2.1,1.3v6.8l0,0c-2.3,1.1-4.8,1.6-7.3,1.7
	 M330.5,281.4c-6-0.3-11.2,4.4-11.5,10.4c0,0.4,0,0.8,0,1.2c-0.4,5.8,4,10.8,9.9,11.2c0.5,0,1,0,1.5,0c2.4-0.1,4.8-0.6,7-1.6v-6.7
	c0-1.2,0.3-1.4,2.2-1.5v-1h-8.4v0.8c2.5,0,3.5,0.4,3.5,1.5v6.2l0,0c-1.3,0.9-2.9,1.3-4.5,1.2c-3.9,0-7.7-3.5-7.7-10.3
	c0-6.8,3.8-10.3,7.3-10.3c3.1,0.1,5.8,2.2,6.6,5.2h0.8v-6.1h-0.8l-0.9,1.1l0,0c-1.7-0.7-3.4-1-5.2-1"/>
<path class="st0" d="M359.3,286c1.9-1.9,1.9-2.7-0.9-3.1v-0.9h8.4v0.9c-2.6,0.4-3.5,1.1-6,3.5l-4.4,4.3l7,9.5
	c0.9,1.5,2.5,2.4,4.2,2.5v0.9h-9.5v-0.9c2.7-0.4,2.8-0.9,1.9-2.2l-5.7-7.7l-2.3,2.2v6.3c0,1.1,0.2,1.3,2.8,1.4v1h-9.4v-1.1
	c2.8,0,3.5-0.4,3.5-1.4v-16.7c0-1-0.6-1.3-3.5-1.4v-1.1h9.7v1.1c-3,0-3.2,0.3-3.2,1.4v8.9L359.3,286z"/>
<path class="st0" d="M367.5,303.7H358v-1.2l0,0c1.4-0.2,2.1-0.4,2.2-0.8s0-0.6-0.5-1.2l-5.4-7.6l-2.2,2.1v6.2c0,0.9,0,1.2,2.7,1.3
	l0,0v1.3h-9.5v-1.3l0,0c2.8,0,3.3-0.4,3.3-1.3v-16.9c0-0.9-0.5-1.2-3.3-1.3l0,0v-1.3h9.9v1.3l0,0c-2.9,0-3.1,0.4-3.1,1.3v8.6l7-7
	c1-1,1.4-1.7,1.3-2.1s-0.8-0.7-2.1-0.8l0,0v-1.2h8.6v1.2l0,0c-2.6,0.4-3.5,1.1-5.9,3.5l-4.4,4.2l7,9.4c0.9,1.4,2.4,2.4,4.1,2.4l0,0
	L367.5,303.7z M358.2,303.5h9.1v-0.7c-1.7-0.1-3.2-1-4.1-2.5l-7-9.6l0,0l4.4-4.3c2.5-2.4,3.5-3.2,5.9-3.5v-0.7h-8v0.7
	c1.4,0,2.1,0.5,2.2,0.9s-0.2,1.2-1.3,2.4l-7.5,7.5v-9.4c0-1.2,0.4-1.4,3.2-1.5V282h-9.5v0.8c2.5,0,3.5,0.4,3.5,1.5v16.8
	c0,1.2-0.9,1.4-3.5,1.5v0.9h9.1v-0.8c-2.4,0-2.8-0.3-2.8-1.5v-6.3l0,0l2.4-2.4l5.7,7.9c0.4,0.6,0.7,1.1,0.5,1.4s-0.9,0.7-2.4,0.9
	L358.2,303.5z"/>
<path class="st0" d="M367.6,293c-0.5-5.8,3.8-10.9,9.6-11.4c0.2,0,0.5,0,0.7,0c5.7,0,10.4,4.6,10.4,10.3c0,0.3,0,0.7,0,1
	c0.5,5.8-3.8,10.9-9.6,11.4c-0.2,0-0.5,0-0.7,0c-5.7,0-10.4-4.5-10.4-10.3C367.5,293.7,367.5,293.3,367.6,293 M384.7,293
	c0-7-2.9-10.2-7-10.2c-4.1,0-6.6,3.1-6.6,10.2s2.9,10.2,7,10.2C382.2,303.2,384.7,300.1,384.7,293"/>
<path class="st0" d="M377.9,304.3c-5.8,0-10.6-4.7-10.6-10.5c0-0.3,0-0.6,0-1c-0.6-5.8,3.7-11,9.5-11.5c0.4,0,0.7-0.1,1.1,0
	c5.8,0,10.6,4.7,10.6,10.5c0,0.3,0,0.6,0,1c0.6,5.8-3.7,11-9.5,11.5C378.6,304.3,378.3,304.3,377.9,304.3 M377.9,281.5
	c-5.8,0.2-10.4,5-10.3,10.8c0,0.2,0,0.4,0,0.6c-0.6,5.6,3.5,10.6,9.1,11.2c0.4,0,0.7,0.1,1.1,0.1c5.8-0.2,10.4-5,10.3-10.8
	c0-0.2,0-0.3,0-0.5c0.5-5.6-3.7-10.6-9.3-11.1c-0.3,0-0.6,0-0.9,0 M377.9,303.3c-4.5,0-7-3.8-7-10.3s2.5-10.5,6.9-10.5
	c4.4,0,7,3.8,7,10.3c0,6.6-2.4,10.3-6.8,10.3 M377.8,282.7c-4.2,0-6.5,3.5-6.5,10.1c0,6.6,2.5,10.1,6.8,10.1c4.3,0,6.5-3.5,6.5-10.1
	S382.1,282.7,377.8,282.7"/>
<path class="st0" d="M394.6,285.4L394.6,285.4v13c0,3,0.4,3.8,3.5,4.3v0.9h-8.3v-0.9c3-0.5,3.5-1.2,3.5-4.3v-13.1
	c0-1.2-0.8-2.2-3.5-2.2v-1.1h6.2l12.3,16.8l0,0v-11.7c0-3-0.7-3.8-3.8-4.2v-0.9h8.4v0.9c-3,0.5-3.2,1.2-3.2,4.2v17h-1.3L394.6,285.4
	z"/>
<path class="st0" d="M409.6,304.3h-1.5l0,0l-13.5-18.5v12.7c0,2.9,0.3,3.5,3.5,4.1l0,0v1.2h-8.6v-1.2l0,0c2.8-0.5,3.5-1.1,3.5-4.1
	v-13.3c0-1.4-1.1-2.1-3.3-2.1l0,0v-1.3h6.4l0,0l12.1,16.6v-11.2c0-3-0.6-3.5-3.7-4.1l0,0v-1.2h8.6v1.2l0,0c-2.9,0.5-3.1,1.1-3.1,4.1
	L409.6,304.3z M408.3,304h1.1v-16.9c0-3,0.3-3.8,3.2-4.3v-0.7h-8.1v0.7c3.1,0.5,3.8,1.3,3.8,4.3v11.8h-0.2l0,0l-12.2-16.8h-6v0.8
	c2.3,0,3.5,0.9,3.5,2.4v13.2c0,3.1-0.6,3.9-3.5,4.4v0.7h8.1v-0.7c-3.2-0.5-3.5-1.3-3.5-4.4v-13.3h0.3L408.3,304z"/>
<path class="st0" d="M413.7,293c-0.2-6.1,4.7-11.2,10.8-11.4c0.2,0,0.3,0,0.5,0c1.8,0,3.6,0.4,5.3,1.1l0.9-1.1h1v6.4h-1
	c-0.6-3.2-3.4-5.5-6.6-5.5c-3.5,0-7.4,3.3-7.4,10.2c0,6.9,4,10.2,7.6,10.2c1.6,0.1,3.1-0.3,4.4-1.1v-6c0-1-0.7-1.3-3.5-1.4v-1.1h8.8
	v1.1c-2,0-2.2,0.3-2.2,1.4v6.7c-2.3,1.1-4.8,1.6-7.3,1.7c-6,0.3-11-4.4-11.2-10.3C413.7,293.5,413.7,293.3,413.7,293"/>
<path class="st0" d="M425,304.2c-6,0.4-11.2-4.2-11.5-10.2c0-0.3,0-0.7,0-1c-0.2-6.2,4.7-11.4,10.9-11.6c0.2,0,0.3,0,0.5,0
	c1.8,0,3.6,0.4,5.2,1.1l0.9-1.1h1.2v6.6h-1.2l0,0c-0.7-3-3.4-5-6.4-5.1c-3.5,0-7.2,3.2-7.2,10.1s3.8,10.1,7.5,10.1
	c1.5,0.1,3-0.3,4.3-1.1v-6.3c0-0.9-0.5-1.2-3.3-1.3l0,0V293h9v1.3l0,0c-2,0-2,0.3-2,1.3v6.8l0,0c-2.3,1.1-4.8,1.6-7.3,1.7
	 M425.1,281.4c-6.1-0.3-11.2,4.4-11.4,10.5c0,0.4,0,0.7,0,1.1c-0.4,5.8,4,10.8,9.9,11.2c0.5,0,1,0,1.5,0c2.4,0,4.8-0.6,7-1.6v-6.7
	c0-1.2,0.3-1.4,2.2-1.5v-1h-8.5v0.8c2.5,0,3.5,0.4,3.5,1.5v6.2l0,0c-1.3,0.9-2.9,1.3-4.5,1.2c-3.8,0-7.7-3.5-7.7-10.3
	c0-6.8,3.7-10.3,7.5-10.3c3.2,0,5.9,2.1,6.8,5.2h0.8v-6.1h-0.8l-0.9,1.1l0,0c-1.7-0.7-3.4-1-5.2-1"/>
<path class="st0" d="M251.4,323.4l-1.5-2.1c6.5,0.2,13.1-0.5,19.4-2l1.6,1.6c-3,0.9-6,1.4-9.1,1.7v2.4h10.3v2.1h-10.3v5.1h6.5v12.2
	h-2.2V343h-10.9v1.5h-2.2v-11.4c-1.1,0.6-2.3,1.1-3.5,1.5l-1.6-1.8c3.6-0.9,6.8-2.9,9.3-5.6h-7.7v-2.1h10.2v-2.1L251.4,323.4z
	 M254.6,332.3h5.1v-4.6l0,0C258.4,329.5,256.7,331.1,254.6,332.3L254.6,332.3z M255.3,336.4h10.9v-2.1h-10.9L255.3,336.4z
	 M255.3,338.5v2.4h10.9v-2.2L255.3,338.5z M273.1,332.5l-1.4,1.7c-2.7-2.6-6-4.4-9.7-5.2l1.6-1.7C267.1,328.2,270.4,330,273.1,332.5
	z"/>
<path class="st0" d="M274.9,327.9l1.3-1.6c2,0.6,3.6,2,4.7,3.7l-1.6,1.4C278.3,329.8,276.7,328.5,274.9,327.9z M295,327.5h4.4v2.1
	H295c0.7,1.1,1.6,2.1,2.6,2.8c0.9,0.8,2,1.4,3.2,1.8l-1.5,1.7c-1.2-0.5-2.4-1.3-3.3-2.2v5h-8.8v1.7c0,0.7,0.3,1,0.8,1h7.5
	c0.3,0,0.6-0.1,0.8-0.3c0.3-0.7,0.5-1.5,0.5-2.4h2.1c0.1,1.3-0.2,2.6-0.8,3.7c-0.5,0.7-1.3,1.1-2.1,1h-8.5c-0.6,0-1.3-0.2-1.7-0.6
	c-0.4-0.5-0.6-1.1-0.6-1.7v-7.2c-0.9,0.7-1.8,1.3-2.7,1.8l-1.2-1.5c-0.5,3.7-1.9,7.3-4,10.4l-2-1.2c2.1-3,3.6-6.5,4.3-10.2l2,0.6
	c2-0.9,3.6-2.4,4.7-4.4h-4.5v-2.1h4.3v-2.9h-3.2v-2.1h3.2v-3.2h2.2v3.2h4.7v-3.2h2.2v3.2h3.2v2.1H295V327.5z M275.9,321.7l1.7-1.4
	c1.9,0.6,3.4,1.9,4.5,3.5l-1.6,1.5C279.4,323.6,277.8,322.4,275.9,321.7z M286.9,332h7.6c-0.6-0.8-1.2-1.6-1.7-2.5h-4.4
	C288,330.5,287.5,331.3,286.9,332z M293.9,334.1h-6.7v2.6h6.5L293.9,334.1z M293,327.5v-2.9h-4.9v3L293,327.5z"/>
<path class="st0" d="M307.6,327.2v17.6h-2.2v-14.2l0,0c-0.6,1-1.4,1.9-2.3,2.7l-1.9-1.3c1.6-1.2,2.9-2.7,3.9-4.5
	c1.5-2.7,2.7-5.5,3.5-8.5l1.9,0.9l-1.8,4.7L307.6,327.2z M327.2,341v2.1h-18.6V341h4.9l1.1-9.9h-4.1V329h4.3l0.5-5.9H310v-2h16.1
	v2.1h-8.3l-0.6,5.9h7.3l-0.9,12L327.2,341z M315.9,341h5.3l0.8-9.9h-5.1L315.9,341z"/>
<path class="st0" d="M333.8,328.1v16.1h-2.2v-15.1l0,0c-0.3,0.5-0.9,1.2-1.8,2.3l-2.2-1.2c3.3-3.2,5.6-7.3,6.8-11.8l1.9,0.8
	l-0.8,2.6c-0.2,0.6-0.5,1.3-0.8,1.9l-0.9,1.9v1.9c2.2-1.1,4.1-2.6,5.8-4.4c1.6-1.5,2.8-3.3,3.5-5.3l2,0.8l-0.3,0.7
	c2.4,3.6,5.8,6.4,9.7,8l-1.7,1.7c-1.6-0.7-3.1-1.7-4.5-2.8v1.2h-9v-1.2c-1.4,1.2-2.9,2.2-4.5,3.2L333.8,328.1z M349.7,343.8h-2.6
	l-0.7-2.1h2.5c0.4,0,0.6-0.2,0.6-0.7v-3.5h-2.2v3.8h-2.2v-3.7h-2.2v4.3h-2.1v-4.3h-2.2v6.7h-2.1v-14.5h15.4v11.8
	c0,0.6-0.2,1.1-0.5,1.5C350.9,343.6,350.3,343.8,349.7,343.8z M338.5,335.5h2.2V332h-2.2V335.5z M340.4,325.4h7
	c-1.3-1.3-2.4-2.6-3.5-4C342.9,322.9,341.7,324.2,340.4,325.4z M342.9,335.5h2.2V332h-2.2V335.5z M349.5,332h-2.2v3.5h2.2V332z"/>
<path class="st0" d="M364.9,340.2l1.5,1.3c-3,1.6-6.3,2.6-9.7,2.9l-1.4-1.9C358.6,342.4,361.9,341.6,364.9,340.2z M356.3,326.2v-2.1
	h10.5v-1.9h-8.2v-2.1h18.8v2.1h-8.4v2h10.5v2.1L356.3,326.2z M359.5,340.1v-12.7h17.1v12.7L359.5,340.1z M361.7,330.8h12.8v-1.4
	h-12.8V330.8z M361.7,334.4h12.8v-1.7h-12.8V334.4z M374.4,337.9v-1.7h-12.8v1.7H374.4z M369.4,342.2l1.1-1.8
	c3.6,0.1,7.1,0.8,10.3,2.2l-1.3,1.9C376.3,342.9,372.8,342.2,369.4,342.2z"/>
<path class="st0" d="M390.9,344.6l-1.7-2.1h4c0.6,0,0.9-0.3,0.9-1v-1.6h-11.7v-2h11.7v-1.1l3.1-1l0,0h-10.3v-2h15.4v1.9
	c-1.9,0.9-3.9,1.7-6,2.2h11v2h-11.1v2.3c0,1.1-0.4,1.8-1.1,2C393.9,344.6,392.4,344.7,390.9,344.6z M398.3,322.4v-2h7.4l-1.1,10.3
	h1.8v4.4h-2v-2.2h-18.8v2.2h-2.1v-4.4h1.9l-1-9.5c2.1-0.2,4.1-1,5.8-2.2l1.2,1.6c-1.4,1.1-3,1.8-4.7,2.1v0.9h4.4l0.5-0.2l0.8-0.4
	l0.5-0.3l0.4-0.3c-0.8-0.3-1.7-0.5-2.5-0.7l0.9-1.7l3.5,1.1c0.7-0.6,1.2-1.3,1.8-2.1l1.5,1.2c-0.4,0.6-0.9,1.2-1.5,1.8
	c0.7,0.5,1.3,1,1.9,1.6l-1.2,1.7c-0.6-0.7-1.4-1.4-2.2-1.9c-1.8,1.1-2.7,1.7-2.8,1.8l-1.3-1.1v1.6h-4.5l0.2,1.5h4.1v2h-4v1.7h10
	l-0.6-0.6l-0.5-0.6l-1-0.7c-1,0.7-2.1,1.3-3.2,1.8l-1.4-1.2c1-0.4,1.9-1,2.8-1.7c-0.8-0.3-1.6-0.6-2.5-0.8l1.3-1.4
	c1,0.1,2,0.5,2.9,1l1.7-1.6l1.4,1.2c0,0.2-0.4,0.4-0.7,0.8c-0.2,0.3-0.4,0.5-0.7,0.7c0.8,0.6,1.6,1.2,2.4,1.9l-1.2,1.3h4.7l0.2-1.8
	h-3.9v-2h4l0.2-1.5h-4.3v-1.9h4.2v-1.2H398.3z"/>
<path class="st0" d="M413.1,336.1v8.8h-2.2v-24.4h7.4v1.8l-2.2,6.2c0.8,1,1.5,2.1,2,3.2c0.2,0.7,0.4,1.4,0.4,2.1c0,1-0.3,2-0.8,2.8
	c-0.5,0.7-1.4,1.2-2.4,1.1c-0.7,0-1.3-0.1-2-0.3v-1.5H413.1z M416,322.6h-2.9v12.6c0.7,0.3,1.4,0.5,2.1,0.6c0.8,0,1.2-0.6,1.2-1.9
	c0-1.3-0.6-2.6-1.6-3.5l-1.2-1.2L416,322.6z M422.7,334h-3.5v-2.1h14.1v2.1h-3.9v6.6c-0.1,0.2-0.1,0.4,0,0.5c0,0,0.3,0,0.7,0h1.6
	c0.4,0,0.7-0.4,0.9-1.1c0.2-1,0.4-2,0.5-3l2.1,1c-0.2,1.6-0.7,3.1-1.6,4.5c-0.5,0.5-1.2,0.7-2,0.7h-2.3c-1.5,0-2.2-0.8-2.2-2.4v-7
	h-2c0,1.1-0.2,2.1-0.4,2.9c-0.1,0.7-0.2,1.3-0.4,2c-0.2,0.5-0.5,1.1-0.8,1.5c-0.4,0.6-0.9,1.2-1.4,1.7c-0.7,0.6-1.4,1.2-2.2,1.6
	c-1,0.5-2,0.9-3.1,1.2l-1.4-1.9c2.2-0.4,4.1-1.5,5.7-3C422.2,338.2,422.8,336.1,422.7,334z M433.6,322.2v4.6h-2.3v-2.5h-10.5v2.6
	h-2.2v-4.7h6.6c-1-0.9-2.2-1.6-3.5-1.8l1.3-1.6c1.8,0.4,3.4,1.4,4.5,3l-0.5,0.4L433.6,322.2L433.6,322.2z M420.6,329.2v-2.1h10.5
	v2.1L420.6,329.2z"/>
</svg>
