<?xml version="1.0" encoding="UTF-8"?>
<svg id="Layer_3" data-name="Layer 3" xmlns="http://www.w3.org/2000/svg" viewBox="0 0 1000 1000">
  <defs>
    <style>
      .cls-1 {
        fill: #fff;
      }

      .cls-2 {
        fill: #231f20;
      }
    </style>
  </defs>
  <rect class="cls-2" x="0" width="1000" height="1000"/>
  <g>
    <g>
      <polygon class="cls-1" points="121.42 272.43 238.64 207.45 202.21 343.98 282.56 482.63 308.35 474.75 226.27 333.11 264.44 193.14 383.46 127.17 339.47 289.66 425.89 438.81 450.13 431.4 362.82 280.69 408.95 113.04 527.31 47.43 475.57 237.41 607.85 466.54 206.47 589.26 89.01 385.8 121.42 272.43"/>
      <path class="cls-1" d="m608.27,153.39l-58.55,120.64,131.91,95.84,33.42,195.34-75.4,23.05-69.43,180.86,265.9-103,68.65-297.31-296.5-215.43Zm168.05,372.11l-17.64-100.03,43.67,32.11-26.03,67.92Z"/>
    </g>
    <g>
      <polygon class="cls-1" points="488.49 925.68 459.31 925.68 454.08 921.37 454.08 868.15 421.42 868.15 421.42 886.85 432.3 886.85 432.3 927.12 453.64 944.38 485.87 944.38 490.23 937.19 494.67 944.38 510.26 944.38 510.26 868.15 488.49 868.15 488.49 925.68"/>
      <polygon class="cls-1" points="253.57 893.9 320.38 911.3 320.38 923.96 276.31 923.96 276.31 916.77 253.57 911.3 253.57 944.38 343.11 944.38 343.11 895.19 276.31 877.79 276.31 864.12 320.38 864.12 320.38 872.9 343.11 878.65 343.11 843.7 253.57 843.7 253.57 893.9"/>
      <polygon class="cls-1" points="384.05 921.37 384.05 886.85 405.39 886.85 405.39 868.15 384.05 868.15 384.05 843.7 362.28 843.7 362.28 868.15 351.39 868.15 351.39 886.85 362.28 886.85 362.28 927.12 383.61 944.38 422.81 944.38 422.81 925.68 389.28 925.68 384.05 921.37"/>
      <path class="cls-1" d="m582.55,865.27l-56.18,11.51v67.6h53.57l4.36-7.19,4.44,7.19h15.59v-100.68h-21.78v21.58Zm0,60.41h-34.41v-35.24l34.41-7.19v42.43Z"/>
      <polygon class="cls-1" points="612.6 886.85 623.49 886.85 623.49 944.38 645.27 944.38 645.27 868.15 612.6 868.15 612.6 886.85"/>
      <path class="cls-1" d="m661.38,868.15v76.23h78.83v-76.23h-78.83Zm57.05,57.53h-35.28v-38.84h35.28v38.84Z"/>
      <rect class="cls-1" x="623.49" y="837.95" width="21.78" height="20.14"/>
    </g>
  </g>
</svg>