<?xml version="1.0" encoding="UTF-8"?>
<svg id="Layer_1" data-name="Layer 1" xmlns="http://www.w3.org/2000/svg" viewBox="0 0 28.21 21.7">
  <defs>
    <style>
      .cls-1 {
        fill: #231f20;
      }
    </style>
  </defs>
  <path class="cls-1" d="m0,4.99c1.49-.33,2.48-.75,4.41-1.47l1.03,4.83c.05-.6.26-1.13.49-1.91.31-1.1.75-1.99,1.14-2.64.69.99,1.38,1.97,2.07,2.96,0,0-.11-4.45-.18-5.11.74-.31,3.01-1.38,3.66-1.65-1.08,2.5-1.87,8.28-1.82,10.5-.78.12-1.49.33-2.15.53-.16-.86-.6-1.97-.99-2.36-.58,1.14-1.15,3.55-1.48,6.09C5.04,11.43,1.85,7.42,0,4.99Z"/>
  <path class="cls-1" d="m11.38,10.45c2.24-.25,3.07.52,3.54,1.06-.79-2.77-.77-6.25-.77-6.93-.47.24-.85.23-1.37.04,0,0-.62,4.58-1.41,5.82Z"/>
  <path class="cls-1" d="m13.55,2.25c-.64.01-.99.44-.96.96s.35.79.91.82.99-.37.98-.89-.39-.9-.93-.89Z"/>
  <path class="cls-1" d="m14.6.78c1.2,2.45,1.02,9.07.74,11.21,1.11-.87,2.19-1.02,3.67-.55-.11-.77-.12-1.6-.13-2.36-.09.14-.31.3-.63.26s-.42-.41-.46-1.27-.08-4.96.37-6.15c-1.18-.32-3.03-.94-3.56-1.14Z"/>
  <path class="cls-1" d="m11.61,11.06c2.82-.23,3.42,1.33,3.11,4.46-.26,2.66-2.13,2.92-3.68,3.19s-3.05.87-4.15,1.52c.23-1.13.11-2.19,0-3.05.48.08.97.16,2.06.04.18-.94.17-2.81.06-3.89-.81.23-1.53.66-2.04.95.06-.77.17-1.59.26-2.15.88-.39,2.21-.9,4.38-1.08Zm-.87,2.03c0,.91.02,2.18.11,3.79,1.73-.36,1.73-.97,1.73-2.32,0-1.49-1.17-1.53-1.85-1.47Z"/>
  <path class="cls-1" d="m20.52,15.43c-.15,1.07-.87,2.78-2.78,2.78-1.51,0-2.67-1.32-2.51-3.29.14-1.76,1.31-2.58,2.8-2.58,2.11,0,2.65,2.02,2.5,3.09Zm-2.58-1.43c-.62.03-.8.35-.79.78s.3.75.75.74c.49-.01.73-.36.75-.77.02-.35-.27-.76-.72-.75Z"/>
  <path class="cls-1" d="m20.7,13.55c.86.52,1.72.53,2.36.07-.06.64-.11.87-.12,1.32.37-.81,1.11-1.5,2.34-1.44,1.22.06,1.94,1.2,1.94,2.58,0,1.17-.13,2.8.09,3.74.22.94.57,1.59.9,1.77-1.24-.68-2.44-1.34-3.85-1.91.46-.7.56-1.35.55-2.14-.01-.8-.23-1.62-.9-1.69-.67-.07-.94.62-1,1.47-.05.78-.02,1.28.11,1.88-.85-.34-2.33-.7-3.08-.84.6-.52.93-.97,1.02-2s-.09-2.05-.35-2.79Z"/>
  <path class="cls-1" d="m8.64,21.64v-.33c.07.04.14.07.2.09.07.02.13.03.19.03.07,0,.13,0,.17-.03.04-.02.06-.05.06-.09,0-.03,0-.05-.03-.07-.02-.02-.04-.03-.07-.05s-.06-.02-.1-.04c-.04-.01-.07-.02-.1-.04-.05-.02-.1-.04-.14-.06-.04-.02-.07-.05-.1-.08-.03-.03-.05-.07-.06-.11-.01-.04-.02-.09-.02-.14,0-.07.02-.14.05-.19.03-.05.08-.1.13-.13.05-.03.12-.06.19-.08.07-.02.14-.02.22-.02.06,0,.12,0,.18.01.06,0,.12.02.18.04v.32c-.05-.03-.11-.05-.17-.07-.06-.02-.12-.02-.18-.02-.03,0-.05,0-.08,0-.02,0-.04.01-.06.02s-.03.02-.04.04-.02.03-.02.05c0,.02,0,.05.02.06.02.02.04.03.06.04.03.01.05.02.08.03.03,0,.06.02.09.03.05.02.1.04.15.06.04.02.08.05.11.08.03.03.06.07.07.11.02.04.03.09.03.15,0,.08-.02.15-.05.2-.03.06-.08.1-.14.14-.06.04-.12.06-.2.08s-.15.02-.23.02c-.15,0-.28-.02-.41-.07Z"/>
  <path class="cls-1" d="m11.75,21.66c-.06.03-.15.05-.27.05-.29,0-.43-.15-.43-.45v-.61h-.22v-.3h.22v-.29l.41-.12v.4h.3v.3h-.3v.54c0,.14.06.21.17.21.04,0,.09-.01.13-.04v.3Z"/>
  <path class="cls-1" d="m14.28,21.67h-.41v-.2h0c-.1.16-.24.24-.41.24-.31,0-.46-.19-.46-.56v-.8h.41v.77c0,.19.07.28.22.28.07,0,.13-.03.18-.08.04-.05.07-.12.07-.21v-.76h.41v1.33Z"/>
  <path class="cls-1" d="m16.97,21.67h-.41v-.18h0c-.09.14-.23.22-.41.22-.17,0-.3-.06-.4-.18-.1-.12-.15-.28-.15-.49s.06-.4.17-.53.26-.2.44-.2c.17,0,.29.06.36.18h0v-.79h.41v1.97Zm-.4-.65v-.1c0-.09-.03-.16-.08-.22-.05-.06-.12-.09-.2-.09-.09,0-.16.04-.21.11-.05.07-.08.17-.08.29,0,.12.02.21.07.27.05.06.12.1.21.1s.15-.03.2-.1c.05-.07.08-.16.08-.27Z"/>
  <path class="cls-1" d="m18.57,20.13c-.07,0-.13-.02-.17-.06-.04-.04-.07-.09-.07-.15s.02-.11.07-.15.1-.06.17-.06.13.02.17.06c.04.04.07.09.07.15s-.02.11-.07.15c-.04.04-.1.06-.17.06Zm.2,1.54h-.41v-1.33h.41v1.33Z"/>
  <path class="cls-1" d="m20.79,21.7c-.22,0-.4-.06-.52-.19-.13-.12-.19-.29-.19-.51s.07-.39.2-.52c.13-.12.31-.19.54-.19s.39.06.52.19c.13.12.19.29.19.49,0,.22-.06.4-.19.52-.13.13-.31.19-.53.19Zm.01-1.08c-.1,0-.17.03-.23.1-.05.07-.08.16-.08.28,0,.26.1.38.31.38s.3-.13.3-.39c0-.25-.1-.37-.3-.37Z"/>
  <path class="cls-1" d="m23.14,2.31c.53-.06,2.06-.33,3.7-.85-.67,2.59-1.17,4.69-1.32,6.9s.16,3.54.84,4.56c-1.02-.93-2.51-.74-3.19-.01.09-.57.21-1,.44-1.55-.36.81-1.07,1.49-1.96,1.47-.63-.01-2.19-.45-2.27-2.64-.1-3.01,1.63-3.83,2.32-3.83.61,0,1.35.19,1.9.69,0-.49-.29-3.73-.45-4.73Zm-.74,5.97c-.69-.03-.87.67-.85,1.24.02.53.33,1.09.88,1.08.6,0,.85-.46.88-1.11s-.26-1.19-.91-1.22Z"/>
</svg>