<?xml version="1.0" encoding="UTF-8"?>
<svg id="Layer_3" data-name="Layer 3" xmlns="http://www.w3.org/2000/svg" viewBox="0 0 1000 1000">
  <defs>
    <style>
      .cls-1 {
        fill: #fff;
      }

      .cls-2 {
        fill: #231f20;
      }
    </style>
  </defs>
  <rect class="cls-2" width="1000" height="1000"/>
  <g>
    <g>
      <polygon class="cls-1" points="89.47 253.41 216.66 182.91 177.13 331.05 264.33 481.5 292.31 472.95 203.25 319.26 244.67 167.38 373.81 95.8 326.07 272.11 419.85 433.95 446.15 425.91 351.41 262.38 401.46 80.47 529.9 9.28 473.75 215.42 617.29 464.04 181.76 597.2 54.3 376.43 89.47 253.41"/>
      <path class="cls-1" d="m617.75,124.25l-63.53,130.91,143.13,103.99,36.26,211.96-81.81,25.01-75.34,196.25,288.53-111.77,74.49-322.61-321.73-233.76Zm182.35,403.77l-19.14-108.54,47.38,34.84-28.24,73.7Z"/>
    </g>
    <g>
      <polygon class="cls-1" points="487.77 962.25 456.11 962.25 450.44 957.57 450.44 899.82 415 899.82 415 920.11 426.81 920.11 426.81 963.81 449.96 982.54 484.93 982.54 489.66 974.74 494.48 982.54 511.4 982.54 511.4 899.82 487.77 899.82 487.77 962.25"/>
      <polygon class="cls-1" points="232.87 927.76 305.36 946.64 305.36 960.38 257.54 960.38 257.54 952.58 232.87 946.64 232.87 982.54 330.03 982.54 330.03 929.16 257.54 910.28 257.54 895.45 305.36 895.45 305.36 904.97 330.03 911.22 330.03 873.29 232.87 873.29 232.87 927.76"/>
      <polygon class="cls-1" points="374.45 957.57 374.45 920.11 397.61 920.11 397.61 899.82 374.45 899.82 374.45 873.29 350.82 873.29 350.82 899.82 339.01 899.82 339.01 920.11 350.82 920.11 350.82 963.81 373.98 982.54 416.51 982.54 416.51 962.25 380.12 962.25 374.45 957.57"/>
      <path class="cls-1" d="m589.84,896.7l-60.96,12.49v73.35h58.13l4.73-7.8,4.82,7.8h16.92v-109.25h-23.63v23.41Zm0,65.55h-37.33v-38.24l37.33-7.8v46.04Z"/>
      <polygon class="cls-1" points="622.45 920.11 634.26 920.11 634.26 982.54 657.89 982.54 657.89 899.82 622.45 899.82 622.45 920.11"/>
      <path class="cls-1" d="m675.38,899.82v82.72h85.53v-82.72h-85.53Zm61.91,62.43h-38.28v-42.14h38.28v42.14Z"/>
      <rect class="cls-1" x="634.26" y="867.05" width="23.63" height="21.85"/>
    </g>
  </g>
</svg>