<?xml version="1.0" encoding="utf-8"?>
<!-- Generator: Adobe Illustrator 27.1.1, SVG Export Plug-In . SVG Version: 6.00 Build 0)  -->
<svg version="1.1" id="Layer_1" xmlns="http://www.w3.org/2000/svg" xmlns:xlink="http://www.w3.org/1999/xlink" x="0px" y="0px"
	 viewBox="0 0 72 72" style="enable-background:new 0 0 72 72;" xml:space="preserve">
<style type="text/css">
	.st0{fill:#FFFFFF;}
</style>
<rect class="st0" width="72" height="72"/>
<g>
	<path d="M3.3,21.5c3.3-0.7,5.5-1.7,9.8-3.3l2.3,10.7c0.1-1.3,0.6-2.5,1.1-4.2c0.7-2.4,1.7-4.4,2.5-5.9c1.5,2.2,3.1,4.4,4.6,6.6
		c0,0-0.2-9.9-0.4-11.3c1.6-0.7,6.7-3.1,8.1-3.7c-2.4,5.6-4.2,18.4-4,23.3c-1.7,0.3-3.3,0.7-4.8,1.2c-0.3-1.9-1.3-4.4-2.2-5.2
		c-1.3,2.5-2.5,7.9-3.3,13.5C14.5,35.8,7.4,26.9,3.3,21.5z"/>
	<path d="M28.6,33.6c5-0.6,6.8,1.2,7.9,2.3c-1.8-6.1-1.7-13.9-1.7-15.4c-1,0.5-1.9,0.5-3,0.1C31.7,20.7,30.3,30.8,28.6,33.6z"/>
	<path d="M33.4,15.4c-1.4,0-2.2,1-2.1,2.1c0.1,1.2,0.8,1.8,2,1.8c1.2,0.1,2.2-0.8,2.2-2C35.4,16.2,34.6,15.4,33.4,15.4z"/>
	<path d="M35.7,12.2c2.7,5.4,2.3,20.1,1.6,24.9c2.5-1.9,4.9-2.3,8.1-1.2c-0.2-1.7-0.3-3.6-0.3-5.2c-0.2,0.3-0.7,0.7-1.4,0.6
		s-0.9-0.9-1-2.8s-0.2-11,0.8-13.6C41,14,36.9,12.6,35.7,12.2z"/>
	<path d="M29.1,34.9c6.3-0.5,7.6,3,6.9,9.9c-0.6,5.9-4.7,6.5-8.2,7.1s-6.8,1.9-9.2,3.4c0.5-2.5,0.3-4.9,0-6.8
		c1.1,0.2,2.1,0.4,4.6,0.1c0.4-2.1,0.4-6.2,0.1-8.6c-1.8,0.5-3.4,1.5-4.5,2.1c0.1-1.7,0.4-3.5,0.6-4.8
		C21.3,36.5,24.3,35.3,29.1,34.9z M27.2,39.4c0,2,0,4.8,0.3,8.4c3.8-0.8,3.8-2.2,3.8-5.2C31.3,39.4,28.7,39.3,27.2,39.4z"/>
	<path d="M48.8,44.6c-0.3,2.4-1.9,6.2-6.2,6.2c-3.3,0-5.9-2.9-5.6-7.3c0.3-3.9,2.9-5.7,6.2-5.7C48,37.8,49.2,42.3,48.8,44.6z
		 M43.1,41.5c-1.4,0.1-1.8,0.8-1.7,1.7s0.7,1.7,1.7,1.6c1.1,0,1.6-0.8,1.7-1.7C44.7,42.4,44.1,41.4,43.1,41.5z"/>
	<path d="M49.2,40.5c1.9,1.1,3.8,1.2,5.2,0.1c-0.1,1.4-0.2,1.9-0.3,2.9c0.8-1.8,2.5-3.3,5.2-3.2s4.3,2.7,4.3,5.7
		c0,2.6-0.3,6.2,0.2,8.3s1.3,3.5,2,3.9c-2.8-1.5-5.4-3-8.5-4.2c1-1.6,1.2-3,1.2-4.8s-0.5-3.6-2-3.7c-1.5-0.2-2.1,1.4-2.2,3.3
		c-0.1,1.7,0,2.8,0.2,4.2c-1.9-0.8-5.2-1.6-6.8-1.9c1.3-1.2,2.1-2.2,2.3-4.4C50.2,44.3,49.8,42.1,49.2,40.5z"/>
	<path d="M22.5,58.4v-0.7c0.2,0.1,0.3,0.2,0.4,0.2s0.3,0.1,0.4,0.1c0.2,0,0.3,0,0.4-0.1c0.1,0,0.1-0.1,0.1-0.2c0-0.1,0-0.1-0.1-0.1
		c0,0-0.1-0.1-0.2-0.1s-0.1-0.1-0.2-0.1s-0.2,0-0.2-0.1c-0.1,0-0.2-0.1-0.3-0.1c-0.1-0.1-0.2-0.1-0.2-0.2c-0.1-0.1-0.1-0.1-0.1-0.2
		c0-0.1,0-0.2,0-0.3c0-0.2,0-0.3,0.1-0.4c0.1-0.1,0.2-0.2,0.3-0.3c0.1-0.1,0.3-0.1,0.4-0.2c0.2,0,0.3-0.1,0.5-0.1c0.1,0,0.3,0,0.4,0
		s0.3,0,0.4,0.1v0.7c-0.1-0.1-0.2-0.1-0.4-0.2c-0.1,0-0.3-0.1-0.4-0.1s-0.1,0-0.2,0s-0.1,0-0.1,0s-0.1,0-0.1,0.1v0.1
		c0,0.1,0,0.1,0.1,0.1l0.1,0.1c0.1,0,0.1,0.1,0.2,0.1s0.1,0,0.2,0.1c0.1,0,0.2,0.1,0.3,0.1c0.1,0.1,0.2,0.1,0.3,0.2
		c0.1,0.1,0.1,0.1,0.2,0.2c0,0.1,0.1,0.2,0.1,0.3c0,0.2,0,0.3-0.1,0.4c-0.1,0.1-0.2,0.2-0.3,0.3c-0.1,0.1-0.3,0.1-0.4,0.2
		s-0.3,0.1-0.5,0.1C23.1,58.6,22.8,58.5,22.5,58.4z"/>
	<path d="M29.4,58.4c-0.1,0.1-0.3,0.1-0.6,0.1c-0.6,0-1-0.3-1-1v-1.4h-0.5v-0.7h0.5v-0.6l0.9-0.3v0.9h0.7v0.7h-0.7v1.2
		c0,0.3,0.1,0.5,0.4,0.5c0.1,0,0.2,0,0.3-0.1C29.4,57.7,29.4,58.4,29.4,58.4z"/>
	<path d="M35,58.5h-0.9V58l0,0c-0.2,0.3-0.5,0.5-0.9,0.5c-0.7,0-1-0.4-1-1.2v-1.8h0.9v1.7c0,0.4,0.2,0.6,0.5,0.6
		c0.2,0,0.3-0.1,0.4-0.2c0.1-0.1,0.1-0.3,0.1-0.5v-1.7H35V58.5z"/>
	<path d="M41,58.5h-0.9v-0.4l0,0c-0.2,0.3-0.5,0.5-0.9,0.5s-0.7-0.1-0.9-0.4c-0.2-0.3-0.3-0.6-0.3-1.1s0.1-0.9,0.4-1.2
		c0.2-0.3,0.6-0.4,1-0.4s0.6,0.1,0.8,0.4l0,0v-1.8H41V58.5z M40.1,57v-0.2c0-0.2-0.1-0.4-0.2-0.5c-0.1-0.1-0.3-0.2-0.4-0.2
		c-0.2,0-0.4,0.1-0.5,0.2c-0.1,0.2-0.2,0.4-0.2,0.7s0.1,0.5,0.2,0.6c0.1,0.1,0.3,0.2,0.5,0.2s0.3-0.1,0.5-0.2
		C40,57.5,40.1,57.3,40.1,57z"/>
	<path d="M44.5,55.1c-0.2,0-0.3,0-0.4-0.1C44,54.8,44,54.7,44,54.6c0-0.1,0-0.2,0.1-0.3s0.2-0.1,0.4-0.1s0.3,0,0.4,0.1
		c0.1,0.1,0.1,0.2,0.1,0.3s0,0.3-0.1,0.3C44.8,55,44.7,55.1,44.5,55.1z M45,58.5h-0.9v-3H45V58.5z"/>
	<path d="M49.4,58.6c-0.5,0-0.9-0.1-1.2-0.4c-0.3-0.3-0.4-0.7-0.4-1.1c0-0.5,0.1-0.9,0.4-1.1c0.3-0.3,0.7-0.4,1.2-0.4
		s0.9,0.1,1.2,0.4c0.3,0.3,0.4,0.6,0.4,1.1s-0.1,0.9-0.4,1.2C50.3,58.4,49.9,58.6,49.4,58.6z M49.5,56.1c-0.2,0-0.4,0.1-0.5,0.2
		c-0.1,0.1-0.2,0.4-0.2,0.6c0,0.6,0.2,0.9,0.7,0.9c0.4,0,0.7-0.3,0.7-0.9C50.1,56.4,49.9,56.1,49.5,56.1z"/>
	<path d="M54.7,15.6c1.2-0.1,4.6-0.7,8.2-1.9C61.4,19.4,60.3,24.1,60,29c-0.3,4.9,0.4,7.9,1.9,10.1c-2.3-2.1-5.6-1.6-7.1,0
		c0.2-1.3,0.5-2.2,1-3.4C55,37.5,53.4,39,51.4,39c-1.4,0-4.9-1-5-5.9c-0.2-6.7,3.6-8.5,5.1-8.5c1.4,0,3,0.4,4.2,1.5
		C55.6,25,55,17.8,54.7,15.6z M53,28.8c-1.5-0.1-1.9,1.5-1.9,2.8c0,1.2,0.7,2.4,1.9,2.4c1.3,0,1.9-1,2-2.5S54.5,28.9,53,28.8z"/>
</g>
</svg>
