<?xml version="1.0" encoding="utf-8"?>
<!-- Generator: Adobe Illustrator 27.1.1, SVG Export Plug-In . SVG Version: 6.00 Build 0)  -->
<svg version="1.1" id="Layer_1" xmlns="http://www.w3.org/2000/svg" xmlns:xlink="http://www.w3.org/1999/xlink" x="0px" y="0px"
	 viewBox="0 0 256 256" style="enable-background:new 0 0 256 256;" xml:space="preserve">
<g>
	<path d="M11.9,77c11.8-2.7,19.6-5.9,34.8-11.7l8.1,38.4c0.4-4.7,2.1-8.9,3.8-15.1c2.5-8.8,5.9-15.8,9-21
		c5.4,7.8,10.9,15.7,16.3,23.5c0,0-0.8-35.4-1.4-40.6c5.8-2.5,23.7-11,28.8-13.1c-8.6,19.9-14.8,65.8-14.4,83.4
		c-6.2,1-11.7,2.6-16.9,4.2c-1.2-6.8-4.7-15.7-7.8-18.8c-4.6,9-9,28.2-11.6,48.4C51.6,128.1,26.5,96.3,11.9,77z"/>
	<path d="M101.6,120.4c17.7-2,24.2,4.2,27.9,8.4c-6.3-22-6-49.6-6-55c-3.7,1.9-6.7,1.8-10.8,0.3C112.7,74.1,107.9,110.5,101.6,120.4
		z"/>
	<path d="M118.7,55.2c-5,0.1-7.8,3.5-7.6,7.6s2.8,6.3,7.2,6.5s7.8-2.9,7.7-7.1S123,55.2,118.7,55.2z"/>
	<path d="M127,43.6c9.4,19.4,8,72,5.8,89.1c8.8-6.9,17.3-8.1,28.9-4.4c-0.9-6.1-0.9-12.7-1-18.8c-0.7,1.1-2.5,2.4-4.9,2.1
		c-2.5-0.3-3.3-3.2-3.6-10.1c-0.3-6.9-0.6-39.4,2.9-48.8C145.8,50.1,131.2,45.2,127,43.6z"/>
	<path d="M103.4,125.2c22.3-1.8,27,10.6,24.5,35.4c-2.1,21.1-16.8,23.2-29.1,25.4c-12.3,2.2-24.1,6.9-32.7,12c1.8-9,0.9-17.4,0-24.2
		c3.8,0.6,7.6,1.3,16.2,0.3c1.4-7.5,1.3-22.3,0.4-30.9c-6.4,1.8-12.1,5.2-16.1,7.5c0.4-6.1,1.3-12.6,2.1-17.1
		C75.8,130.6,86.3,126.6,103.4,125.2z M96.6,141.3c-0.1,7.2,0.2,17.3,0.9,30.1c13.7-2.9,13.7-7.7,13.7-18.5
		C111.1,141.2,101.9,140.9,96.6,141.3z"/>
	<path d="M173.6,159.9c-1.2,8.5-6.9,22.1-21.9,22.1c-11.9,0-21-10.5-19.8-26.1c1.1-14,10.3-20.5,22-20.5
		C170.6,135.4,174.8,151.4,173.6,159.9z M153.3,148.6c-4.9,0.2-6.3,2.8-6.2,6.2c0.1,3.4,2.4,6,5.9,5.9c3.9-0.1,5.8-2.9,5.9-6.1
		C159.1,151.7,156.8,148.4,153.3,148.6z"/>
	<path d="M175.1,145c6.7,4.1,13.6,4.2,18.6,0.5c-0.5,5.1-0.8,6.9-0.9,10.5c2.9-6.4,8.8-11.9,18.4-11.5c9.6,0.4,15.3,9.5,15.3,20.5
		c0,9.3-1,22.2,0.7,29.7c1.7,7.5,4.5,12.6,7.1,14.1c-9.8-5.4-19.2-10.6-30.4-15.2c3.7-5.6,4.4-10.7,4.3-17
		c-0.1-6.4-1.8-12.8-7.1-13.4s-7.4,4.9-7.9,11.7c-0.4,6.2-0.2,10.2,0.8,14.9c-6.7-2.7-18.4-5.6-24.2-6.6c4.7-4.2,7.3-7.7,8-15.9
		C178.6,158.8,177.1,150.9,175.1,145z"/>
	<path d="M80,209.2v-2.6c0.5,0.3,1.1,0.6,1.6,0.7c0.5,0.2,1,0.2,1.5,0.2c0.6,0,1-0.1,1.4-0.2c0.3-0.2,0.5-0.4,0.5-0.7
		c0-0.2-0.1-0.4-0.2-0.5c-0.2-0.1-0.3-0.3-0.6-0.4c-0.2-0.1-0.5-0.2-0.8-0.3c-0.3-0.1-0.6-0.2-0.8-0.3c-0.4-0.2-0.8-0.3-1.1-0.5
		c-0.3-0.2-0.6-0.4-0.8-0.6c-0.2-0.2-0.4-0.5-0.5-0.8c-0.1-0.3-0.2-0.7-0.2-1.1c0-0.6,0.1-1.1,0.4-1.5c0.3-0.4,0.6-0.8,1-1
		c0.4-0.3,0.9-0.5,1.5-0.6c0.6-0.1,1.1-0.2,1.7-0.2c0.5,0,0.9,0,1.4,0.1c0.5,0.1,1,0.2,1.4,0.3v2.5c-0.4-0.2-0.9-0.4-1.3-0.5
		c-0.5-0.1-0.9-0.2-1.4-0.2c-0.2,0-0.4,0-0.6,0.1c-0.2,0-0.4,0.1-0.5,0.2s-0.3,0.2-0.3,0.3s-0.1,0.2-0.1,0.4c0,0.2,0.1,0.4,0.2,0.5
		c0.1,0.1,0.3,0.3,0.5,0.4c0.2,0.1,0.4,0.2,0.7,0.3c0.2,0.1,0.5,0.2,0.7,0.2c0.4,0.2,0.8,0.3,1.2,0.5c0.3,0.2,0.6,0.4,0.9,0.6
		c0.2,0.2,0.4,0.5,0.6,0.8c0.1,0.3,0.2,0.7,0.2,1.2c0,0.6-0.1,1.2-0.4,1.6c-0.3,0.4-0.6,0.8-1.1,1.1c-0.4,0.3-1,0.5-1.5,0.6
		c-0.6,0.1-1.2,0.2-1.8,0.2C82.1,209.8,81,209.6,80,209.2z"/>
	<path d="M104.5,209.4c-0.5,0.3-1.2,0.4-2.2,0.4c-2.3,0-3.4-1.2-3.4-3.6v-4.9h-1.7v-2.4h1.7v-2.3l3.2-0.9v3.2h2.4v2.4h-2.4v4.3
		c0,1.1,0.4,1.7,1.3,1.7c0.3,0,0.7-0.1,1.1-0.3V209.4z"/>
	<path d="M124.5,209.5h-3.2v-1.6h-0.1c-0.8,1.2-1.9,1.9-3.2,1.9c-2.4,0-3.7-1.5-3.7-4.5v-6.4h3.2v6.1c0,1.5,0.6,2.2,1.8,2.2
		c0.6,0,1-0.2,1.4-0.6c0.3-0.4,0.5-1,0.5-1.7v-6.1h3.2V209.5z"/>
	<path d="M145.7,209.5h-3.2v-1.5h0c-0.7,1.1-1.8,1.7-3.3,1.7c-1.3,0-2.4-0.5-3.2-1.4c-0.8-0.9-1.2-2.2-1.2-3.9
		c0-1.8,0.4-3.2,1.3-4.2c0.9-1.1,2-1.6,3.5-1.6c1.4,0,2.3,0.5,2.8,1.5h0v-6.3h3.2V209.5z M142.5,204.4v-0.8c0-0.7-0.2-1.3-0.6-1.7
		c-0.4-0.5-0.9-0.7-1.5-0.7c-0.7,0-1.3,0.3-1.7,0.9c-0.4,0.6-0.6,1.3-0.6,2.3c0,0.9,0.2,1.6,0.6,2.2c0.4,0.5,0.9,0.8,1.6,0.8
		c0.7,0,1.2-0.3,1.6-0.8C142.3,205.9,142.5,205.2,142.5,204.4z"/>
	<path d="M158.3,197.2c-0.5,0-1-0.2-1.3-0.5c-0.3-0.3-0.5-0.7-0.5-1.2c0-0.5,0.2-0.9,0.5-1.2c0.3-0.3,0.8-0.5,1.3-0.5
		c0.6,0,1,0.2,1.3,0.5c0.3,0.3,0.5,0.7,0.5,1.2c0,0.5-0.2,0.9-0.5,1.2C159.3,197.1,158.8,197.2,158.3,197.2z M159.9,209.5h-3.2
		v-10.6h3.2V209.5z"/>
	<path d="M175.8,209.8c-1.8,0-3.1-0.5-4.1-1.5c-1-1-1.5-2.3-1.5-4c0-1.8,0.5-3.1,1.6-4.1c1-1,2.4-1.5,4.2-1.5c1.7,0,3.1,0.5,4.1,1.5
		c1,1,1.5,2.3,1.5,3.9c0,1.8-0.5,3.1-1.5,4.2C179,209.3,177.6,209.8,175.8,209.8z M175.9,201.2c-0.8,0-1.4,0.3-1.8,0.8
		c-0.4,0.5-0.6,1.3-0.6,2.3c0,2,0.8,3.1,2.4,3.1c1.6,0,2.3-1,2.3-3.1C178.2,202.2,177.5,201.2,175.9,201.2z"/>
	<path d="M194.4,55.7c4.2-0.5,16.2-2.6,29.1-6.7c-5.3,20.6-9.2,37.3-10.4,54.8s1.3,28.1,6.6,36.2c-8-7.4-19.8-5.9-25.2-0.1
		c0.7-4.5,1.7-8,3.4-12.3c-2.8,6.5-8.4,11.9-15.5,11.7c-4.9-0.1-17.3-3.5-17.9-21c-0.8-23.9,12.8-30.4,18.3-30.4
		c4.8,0,10.7,1.5,15,5.5C197.8,89.4,195.5,63.7,194.4,55.7z M188.5,103.1c-5.4-0.2-6.9,5.3-6.7,9.9c0.2,4.2,2.6,8.6,6.9,8.6
		c4.7-0.1,6.7-3.6,7-8.8C196,107.7,193.7,103.4,188.5,103.1z"/>
</g>
</svg>
